<svg width="400" height="403" viewBox="0 0 400 403" fill="none" xmlns="http://www.w3.org/2000/svg">
<circle cx="200" cy="200" r="200" fill="#C31F33"/>
<g filter="url(#filter0_d)">
<path fill-rule="evenodd" clip-rule="evenodd" d="M362 317.242C325.616 367.399 266.654 400 200.105 400C136.401 400 79.6497 370.127 42.999 323.578C62.3351 311.619 82.5452 314.679 103.265 317.816C120.25 320.388 137.577 323.012 155.046 317.456C162.256 315.166 169.485 311.477 176.735 305.825C223.202 269.549 320.297 285.401 362 317.242Z" fill="#DE2E44"/>
</g>
<g filter="url(#filter1_d)">
<path d="M129.366 286.643V173.98L189.994 208.829V304.783L129.366 286.643Z" fill="white"/>
<path d="M257.783 286.643V173.98L196.678 208.829V304.783L257.783 286.643Z" fill="white"/>
<path d="M122.683 292.849V173.025L116 177.799V297.622L189.995 318.15H197.633L271.15 294.758V178.276L264.467 173.025V289.984L196.201 311.944H189.995L122.683 292.849Z" fill="white"/>
<path d="M305.999 177.799H291.678V168.251C291.678 165.864 294.542 163 298.838 163C302.276 163 305.999 166.342 305.999 168.251V177.799Z" fill="white"/>
<path d="M306 183.528H291.201V284.733L298.839 310.034L306 285.21V183.528Z" fill="white"/>
</g>
<path d="M131.824 126.047H124.598V141.037H112.098V126.047H88.8066V115.256L110.389 69.6501H124.598V115.06H131.824V126.047ZM112.098 115.06V100.021L112.342 93.3806L112.684 87.033H112.293C111.154 90.5811 109.917 93.7875 108.582 96.6521L99.9883 115.06H112.098Z" fill="white"/>
<path d="M156.318 102.445C153.189 102.445 150.777 101.245 149.082 98.8451C147.4 96.4454 146.559 92.988 146.559 88.473C146.559 83.958 147.4 80.5069 149.082 78.1195C150.777 75.7198 153.195 74.5199 156.337 74.5199C159.479 74.5199 161.885 75.726 163.555 78.1381C165.225 80.5378 166.06 83.9828 166.06 88.473C166.06 94.7816 164.433 98.9997 161.18 101.127L166.171 108.531H160.345L156.597 102.445H156.318ZM156.355 78.973C154.834 78.973 153.677 79.7771 152.886 81.3851C152.106 82.9932 151.717 85.3497 151.717 88.4545C151.717 91.5593 152.106 93.9219 152.886 95.5424C153.665 97.1628 154.809 97.973 156.318 97.973C159.361 97.973 160.883 94.8064 160.883 88.473C160.883 82.1397 159.374 78.973 156.355 78.973ZM186.711 74.9467V92.4994C186.711 95.7279 185.981 98.1957 184.521 99.9027C183.062 101.597 180.965 102.445 178.231 102.445C175.498 102.445 173.426 101.597 172.016 99.9027C170.618 98.208 169.919 95.7155 169.919 92.4252V74.9467H174.929V92.7963C174.929 96.2474 176.073 97.973 178.361 97.973C179.425 97.973 180.248 97.5339 180.829 96.6556C181.41 95.7774 181.701 94.528 181.701 92.9076V74.9467H186.711ZM209.311 102.074H204.245L202.687 95.2269H195.617L194.059 102.074H189.012L195.729 74.8353H202.575L209.311 102.074ZM201.74 90.7552L200.293 84.4467C200.268 84.3477 200.083 83.4447 199.736 81.7377C199.402 80.0183 199.211 78.9297 199.161 78.472C198.988 79.6101 198.79 80.7543 198.567 81.9047C198.345 83.0551 197.695 86.0052 196.619 90.7552H201.74ZM216.751 97.6576H223.746V102.074H211.704V74.9467H216.751V97.6576ZM232.652 102.074H227.902V74.9467H232.652V102.074ZM251.912 79.3812H246.717V102.074H241.688V79.3812H236.493V74.9467H251.912V79.3812ZM263.824 102.074H258.852V91.4047L252.432 74.9467H257.757L261.356 85.6527L264.975 74.9467H270.263L263.824 91.2006V102.074ZM159.621 117.307H152.44V123.764H159.102V128.143H152.44V135.658H159.621V140.074H147.394V112.947H159.621V117.307ZM163.573 112.947H170.828C173.97 112.947 176.419 114.109 178.176 116.435C179.945 118.76 180.829 122.1 180.829 126.454C180.829 130.809 179.914 134.167 178.083 136.53C176.265 138.892 173.642 140.074 170.216 140.074H163.573V112.947ZM168.62 117.307V135.658H170.253C172.084 135.658 173.438 134.891 174.316 133.357C175.207 131.823 175.652 129.504 175.652 126.399C175.652 120.338 173.982 117.307 170.643 117.307H168.62ZM201.48 112.947V130.499C201.48 133.728 200.751 136.196 199.291 137.903C197.831 139.597 195.735 140.445 193.001 140.445C190.267 140.445 188.195 139.597 186.785 137.903C185.387 136.208 184.688 133.716 184.688 130.425V112.947H189.698V130.796C189.698 134.247 190.842 135.973 193.131 135.973C194.195 135.973 195.017 135.534 195.599 134.656C196.18 133.777 196.471 132.528 196.471 130.908V112.947H201.48ZM214.84 140.445C211.785 140.445 209.434 139.232 207.789 136.808C206.156 134.384 205.34 130.969 205.34 126.566C205.34 122.15 206.181 118.711 207.863 116.249C209.546 113.788 211.896 112.557 214.914 112.557C216.881 112.557 218.804 113.169 220.685 114.394L219.015 118.495C218.31 118.012 217.66 117.641 217.066 117.381C216.473 117.109 215.842 116.973 215.174 116.973C213.727 116.973 212.582 117.814 211.741 119.496C210.912 121.179 210.498 123.541 210.498 126.584C210.498 132.868 212.137 136.01 215.415 136.01C216.838 136.01 218.34 135.552 219.924 134.637V139.127C218.6 140.006 216.906 140.445 214.84 140.445ZM241.67 140.074H236.604L235.046 133.227H227.977L226.418 140.074H221.371L228.088 112.835H234.935L241.67 140.074ZM234.1 128.755L232.652 122.447C232.628 122.348 232.442 121.445 232.096 119.738C231.762 118.018 231.57 116.93 231.521 116.472C231.347 117.61 231.149 118.754 230.927 119.905C230.704 121.055 230.055 124.005 228.979 128.755H234.1ZM257.59 117.381H252.395V140.074H247.366V117.381H242.171V112.947H257.59V117.381ZM266.162 140.074H261.412V112.947H266.162V140.074ZM273.584 136.845C271.902 134.445 271.061 130.988 271.061 126.473C271.061 121.958 271.902 118.507 273.584 116.12C275.279 113.72 277.697 112.52 280.839 112.52C283.981 112.52 286.387 113.726 288.057 116.138C289.727 118.538 290.562 121.989 290.562 126.492C290.562 130.982 289.714 134.433 288.02 136.845C286.337 139.245 283.931 140.445 280.802 140.445C277.685 140.445 275.279 139.245 273.584 136.845ZM280.857 116.973C279.336 116.973 278.179 117.777 277.388 119.385C276.608 120.993 276.219 123.35 276.219 126.454C276.219 129.559 276.608 131.922 277.388 133.542C278.167 135.163 279.311 135.973 280.82 135.973C283.863 135.973 285.385 132.806 285.385 126.473C285.385 120.14 283.876 116.973 280.857 116.973ZM313.532 140.074H307.372L298.985 120.424H298.744C299.053 121.896 299.208 123.504 299.208 125.248V140.074H294.532V112.947H300.729L309.042 132.392H309.246C309.011 131.13 308.894 129.584 308.894 127.753V112.947H313.532V140.074Z" fill="white"/>
<g filter="url(#filter2_i)">
<circle cx="200" cy="200" r="200" fill="#FFDCB1" fill-opacity="0.01"/>
</g>
<g filter="url(#filter3_i)">
<circle cx="200" cy="200" r="200" fill="#FFDCB1" fill-opacity="0.01"/>
</g>
<defs>
<filter id="filter0_d" x="39.999" y="276" width="331.001" height="127" filterUnits="userSpaceOnUse" color-interpolation-filters="sRGB">
<feFlood flood-opacity="0" result="BackgroundImageFix"/>
<feColorMatrix in="SourceAlpha" type="matrix" values="0 0 0 0 0 0 0 0 0 0 0 0 0 0 0 0 0 0 127 0"/>
<feOffset dx="3" dy="-3"/>
<feGaussianBlur stdDeviation="3"/>
<feColorMatrix type="matrix" values="0 0 0 0 0 0 0 0 0 0 0 0 0 0 0 0 0 0 0.25 0"/>
<feBlend mode="normal" in2="BackgroundImageFix" result="effect1_dropShadow"/>
<feBlend mode="normal" in="SourceGraphic" in2="effect1_dropShadow" result="shape"/>
</filter>
<filter id="filter1_d" x="116" y="163" width="195" height="160.15" filterUnits="userSpaceOnUse" color-interpolation-filters="sRGB">
<feFlood flood-opacity="0" result="BackgroundImageFix"/>
<feColorMatrix in="SourceAlpha" type="matrix" values="0 0 0 0 0 0 0 0 0 0 0 0 0 0 0 0 0 0 127 0"/>
<feOffset dx="3" dy="3"/>
<feGaussianBlur stdDeviation="1"/>
<feColorMatrix type="matrix" values="0 0 0 0 0 0 0 0 0 0 0 0 0 0 0 0 0 0 0.25 0"/>
<feBlend mode="normal" in2="BackgroundImageFix" result="effect1_dropShadow"/>
<feBlend mode="normal" in="SourceGraphic" in2="effect1_dropShadow" result="shape"/>
</filter>
<filter id="filter2_i" x="0" y="0.000488281" width="403" height="403" filterUnits="userSpaceOnUse" color-interpolation-filters="sRGB">
<feFlood flood-opacity="0" result="BackgroundImageFix"/>
<feBlend mode="normal" in="SourceGraphic" in2="BackgroundImageFix" result="shape"/>
<feColorMatrix in="SourceAlpha" type="matrix" values="0 0 0 0 0 0 0 0 0 0 0 0 0 0 0 0 0 0 127 0" result="hardAlpha"/>
<feOffset dx="3" dy="3"/>
<feGaussianBlur stdDeviation="2"/>
<feComposite in2="hardAlpha" operator="arithmetic" k2="-1" k3="1"/>
<feColorMatrix type="matrix" values="0 0 0 0 0 0 0 0 0 0 0 0 0 0 0 0 0 0 0.25 0"/>
<feBlend mode="normal" in2="shape" result="effect1_innerShadow"/>
</filter>
<filter id="filter3_i" x="-3" y="-2.99951" width="403" height="403" filterUnits="userSpaceOnUse" color-interpolation-filters="sRGB">
<feFlood flood-opacity="0" result="BackgroundImageFix"/>
<feBlend mode="normal" in="SourceGraphic" in2="BackgroundImageFix" result="shape"/>
<feColorMatrix in="SourceAlpha" type="matrix" values="0 0 0 0 0 0 0 0 0 0 0 0 0 0 0 0 0 0 127 0" result="hardAlpha"/>
<feOffset dx="-3" dy="-3"/>
<feGaussianBlur stdDeviation="2"/>
<feComposite in2="hardAlpha" operator="arithmetic" k2="-1" k3="1"/>
<feColorMatrix type="matrix" values="0 0 0 0 0 0 0 0 0 0 0 0 0 0 0 0 0 0 0.25 0"/>
<feBlend mode="normal" in2="shape" result="effect1_innerShadow"/>
</filter>
</defs>
</svg>
