<svg width="353" height="356" viewBox="0 0 353 356" fill="none" xmlns="http://www.w3.org/2000/svg">
<g filter="url(#filter0_ii)">
<circle cx="176.28" cy="176.28" r="176.28" fill="#C31F33"/>
<g filter="url(#filter1_d)">
<path fill-rule="evenodd" clip-rule="evenodd" d="M319.066 279.616C286.997 323.825 235.028 352.559 176.372 352.559C120.224 352.559 70.2033 326.229 37.8994 285.201C54.9422 274.661 72.7554 277.358 91.0176 280.123C105.988 282.389 121.261 284.702 136.658 279.805C143.012 277.787 149.384 274.535 155.774 269.554C196.73 237.58 282.31 251.552 319.066 279.616Z" fill="#DE2E44"/>
</g>
<g filter="url(#filter2_d)">
<path d="M114.023 252.646V153.346L167.461 184.061V268.635L114.023 252.646Z" fill="white"/>
<path d="M227.21 252.646V153.346L173.352 184.061V268.635L227.21 252.646Z" fill="white"/>
<path d="M108.133 258.116V152.504L102.242 156.712V262.324L167.461 280.417H174.193L238.991 259.799V157.132L233.1 152.504V255.592L172.931 274.947H167.461L108.133 258.116Z" fill="white"/>
<path d="M269.707 156.712H257.084V148.296C257.084 146.193 259.609 143.668 263.395 143.668C266.425 143.668 269.707 146.613 269.707 148.296V156.712Z" fill="white"/>
<path d="M269.708 161.761H256.664V250.963L263.396 273.264L269.708 251.384V161.761Z" fill="white"/>
</g>
<path d="M121.506 122.01H114.279V137H101.779V122.01H78.4883V111.219L100.07 65.6133H114.279V111.023H121.506V122.01ZM101.779 111.023V95.9844L102.023 89.3438L102.365 82.9961H101.975C100.835 86.5443 99.5983 89.7507 98.2637 92.6152L89.6699 111.023H101.779Z" fill="white"/>
<path d="M139.121 94.3711C135.992 94.3711 133.579 93.1712 131.885 90.7715C130.202 88.3717 129.361 84.9144 129.361 80.3994C129.361 75.8844 130.202 72.4333 131.885 70.0459C133.579 67.6462 135.998 66.4463 139.14 66.4463C142.282 66.4463 144.688 67.6523 146.357 70.0645C148.027 72.4642 148.862 75.9092 148.862 80.3994C148.862 86.708 147.236 90.9261 143.982 93.0537L148.974 100.457H143.147L139.399 94.3711H139.121ZM139.158 70.8994C137.637 70.8994 136.48 71.7035 135.688 73.3115C134.909 74.9196 134.52 77.276 134.52 80.3809C134.52 83.4857 134.909 85.8483 135.688 87.4688C136.468 89.0892 137.612 89.8994 139.121 89.8994C142.164 89.8994 143.686 86.7327 143.686 80.3994C143.686 74.0661 142.176 70.8994 139.158 70.8994ZM169.514 66.873V84.4258C169.514 87.6543 168.784 90.1221 167.324 91.8291C165.865 93.5238 163.768 94.3711 161.034 94.3711C158.3 94.3711 156.229 93.5238 154.818 91.8291C153.421 90.1344 152.722 87.6419 152.722 84.3516V66.873H157.731V84.7227C157.731 88.1738 158.876 89.8994 161.164 89.8994C162.228 89.8994 163.05 89.4603 163.632 88.582C164.213 87.7038 164.504 86.4544 164.504 84.834V66.873H169.514ZM192.113 94H187.048L185.489 87.1533H178.42L176.861 94H171.814L178.531 66.7617H185.378L192.113 94ZM184.543 82.6816L183.096 76.373C183.071 76.2741 182.885 75.3711 182.539 73.6641C182.205 71.9447 182.013 70.8561 181.964 70.3984C181.791 71.5365 181.593 72.6807 181.37 73.8311C181.147 74.9814 180.498 77.9316 179.422 82.6816H184.543ZM199.554 89.584H206.549V94H194.507V66.873H199.554V89.584ZM215.455 94H210.705V66.873H215.455V94ZM234.715 71.3076H229.52V94H224.491V71.3076H219.296V66.873H234.715V71.3076ZM246.627 94H241.654V83.3311L235.234 66.873H240.56L244.159 77.5791L247.777 66.873H253.065L246.627 83.127V94ZM142.424 109.233H135.243V115.69H141.904V120.069H135.243V127.584H142.424V132H130.196V104.873H142.424V109.233ZM146.376 104.873H153.631C156.773 104.873 159.222 106.036 160.979 108.361C162.747 110.687 163.632 114.027 163.632 118.381C163.632 122.735 162.716 126.093 160.886 128.456C159.067 130.819 156.445 132 153.019 132H146.376V104.873ZM151.423 109.233V127.584H153.056C154.886 127.584 156.241 126.817 157.119 125.283C158.01 123.749 158.455 121.43 158.455 118.325C158.455 112.264 156.785 109.233 153.445 109.233H151.423ZM184.283 104.873V122.426C184.283 125.654 183.553 128.122 182.094 129.829C180.634 131.524 178.537 132.371 175.804 132.371C173.07 132.371 170.998 131.524 169.588 129.829C168.19 128.134 167.491 125.642 167.491 122.352V104.873H172.501V122.723C172.501 126.174 173.645 127.899 175.934 127.899C176.997 127.899 177.82 127.46 178.401 126.582C178.983 125.704 179.273 124.454 179.273 122.834V104.873H184.283ZM197.643 132.371C194.587 132.371 192.237 131.159 190.592 128.734C188.959 126.31 188.143 122.896 188.143 118.492C188.143 114.076 188.984 110.637 190.666 108.176C192.348 105.714 194.699 104.483 197.717 104.483C199.684 104.483 201.607 105.096 203.487 106.32L201.817 110.421C201.112 109.938 200.463 109.567 199.869 109.308C199.275 109.035 198.645 108.899 197.977 108.899C196.529 108.899 195.385 109.741 194.544 111.423C193.715 113.105 193.301 115.468 193.301 118.511C193.301 124.795 194.94 127.937 198.218 127.937C199.64 127.937 201.143 127.479 202.727 126.563V131.054C201.403 131.932 199.708 132.371 197.643 132.371ZM224.473 132H219.407L217.849 125.153H210.779L209.221 132H204.174L210.891 104.762H217.737L224.473 132ZM216.902 120.682L215.455 114.373C215.43 114.274 215.245 113.371 214.898 111.664C214.564 109.945 214.373 108.856 214.323 108.398C214.15 109.536 213.952 110.681 213.729 111.831C213.507 112.981 212.857 115.932 211.781 120.682H216.902ZM240.393 109.308H235.197V132H230.169V109.308H224.974V104.873H240.393V109.308ZM248.965 132H244.215V104.873H248.965V132ZM256.387 128.771C254.704 126.372 253.863 122.914 253.863 118.399C253.863 113.884 254.704 110.433 256.387 108.046C258.081 105.646 260.5 104.446 263.642 104.446C266.784 104.446 269.189 105.652 270.859 108.064C272.529 110.464 273.364 113.915 273.364 118.418C273.364 122.908 272.517 126.359 270.822 128.771C269.14 131.171 266.734 132.371 263.604 132.371C260.487 132.371 258.081 131.171 256.387 128.771ZM263.66 108.899C262.139 108.899 260.982 109.703 260.19 111.312C259.411 112.92 259.021 115.276 259.021 118.381C259.021 121.486 259.411 123.848 260.19 125.469C260.97 127.089 262.114 127.899 263.623 127.899C266.666 127.899 268.188 124.733 268.188 118.399C268.188 112.066 266.678 108.899 263.66 108.899ZM296.335 132H290.175L281.788 112.351H281.547C281.856 113.823 282.011 115.431 282.011 117.175V132H277.335V104.873H283.532L291.845 124.318H292.049C291.814 123.057 291.696 121.51 291.696 119.68V104.873H296.335V132Z" fill="white"/>
</g>
<defs>
<filter id="filter0_ii" x="-3" y="-3" width="358.559" height="361.559" filterUnits="userSpaceOnUse" color-interpolation-filters="sRGB">
<feFlood flood-opacity="0" result="BackgroundImageFix"/>
<feBlend mode="normal" in="SourceGraphic" in2="BackgroundImageFix" result="shape"/>
<feColorMatrix in="SourceAlpha" type="matrix" values="0 0 0 0 0 0 0 0 0 0 0 0 0 0 0 0 0 0 127 0" result="hardAlpha"/>
<feOffset dx="3" dy="6"/>
<feGaussianBlur stdDeviation="5"/>
<feComposite in2="hardAlpha" operator="arithmetic" k2="-1" k3="1"/>
<feColorMatrix type="matrix" values="0 0 0 0 0 0 0 0 0 0 0 0 0 0 0 0 0 0 0.35 0"/>
<feBlend mode="normal" in2="shape" result="effect1_innerShadow"/>
<feColorMatrix in="SourceAlpha" type="matrix" values="0 0 0 0 0 0 0 0 0 0 0 0 0 0 0 0 0 0 127 0" result="hardAlpha"/>
<feOffset dx="-3" dy="-3"/>
<feGaussianBlur stdDeviation="4.5"/>
<feComposite in2="hardAlpha" operator="arithmetic" k2="-1" k3="1"/>
<feColorMatrix type="matrix" values="0 0 0 0 0 0 0 0 0 0 0 0 0 0 0 0 0 0 0.35 0"/>
<feBlend mode="normal" in2="effect1_innerShadow" result="effect2_innerShadow"/>
</filter>
<filter id="filter1_d" x="34.8994" y="242.198" width="293.167" height="113.361" filterUnits="userSpaceOnUse" color-interpolation-filters="sRGB">
<feFlood flood-opacity="0" result="BackgroundImageFix"/>
<feColorMatrix in="SourceAlpha" type="matrix" values="0 0 0 0 0 0 0 0 0 0 0 0 0 0 0 0 0 0 127 0"/>
<feOffset dx="3" dy="-3"/>
<feGaussianBlur stdDeviation="3"/>
<feColorMatrix type="matrix" values="0 0 0 0 0 0 0 0 0 0 0 0 0 0 0 0 0 0 0.25 0"/>
<feBlend mode="normal" in2="BackgroundImageFix" result="effect1_dropShadow"/>
<feBlend mode="normal" in="SourceGraphic" in2="effect1_dropShadow" result="shape"/>
</filter>
<filter id="filter2_d" x="102.242" y="143.668" width="172.466" height="141.749" filterUnits="userSpaceOnUse" color-interpolation-filters="sRGB">
<feFlood flood-opacity="0" result="BackgroundImageFix"/>
<feColorMatrix in="SourceAlpha" type="matrix" values="0 0 0 0 0 0 0 0 0 0 0 0 0 0 0 0 0 0 127 0"/>
<feOffset dx="3" dy="3"/>
<feGaussianBlur stdDeviation="1"/>
<feColorMatrix type="matrix" values="0 0 0 0 0 0 0 0 0 0 0 0 0 0 0 0 0 0 0.25 0"/>
<feBlend mode="normal" in2="BackgroundImageFix" result="effect1_dropShadow"/>
<feBlend mode="normal" in="SourceGraphic" in2="effect1_dropShadow" result="shape"/>
</filter>
</defs>
</svg>
