<svg width="356" height="339" viewBox="0 0 356 339" fill="none" xmlns="http://www.w3.org/2000/svg">
<g filter="url(#filter0_ii)">
<circle cx="168.294" cy="171.629" r="165.294" fill="#E5EBFF"/>
<g filter="url(#filter1_d)">
<path fill-rule="evenodd" clip-rule="evenodd" d="M86.2899 27.4035L180.042 6.07361C246.085 10.726 301.412 54.2022 323.342 113.82C323.605 114.632 323.9 115.437 324.211 116.241C325.53 120.009 326.717 123.84 327.765 127.728C328.242 132.451 327.078 137.885 321.986 144.862C309.787 161.575 293.168 162.508 276.089 163.467C263.301 164.185 250.255 164.918 238.614 172.301C233.81 175.345 229.248 179.526 225.034 185.301C197.656 222.872 122.663 225.61 87.1249 205.807C72.0656 197.402 63.7061 181.418 68.6531 162.732C68.7082 162.522 68.7701 162.302 68.8349 162.072C69.8609 158.428 71.5827 152.313 57.7798 144.208C53.2408 141.538 47.8064 139.04 42.2399 136.481C41.0094 135.916 39.7724 135.347 38.5373 134.773C38.5011 134.75 38.4502 134.731 38.4174 134.723C28.6727 130.189 19.5021 124.786 11.8457 117.611C24.8955 79.2546 51.6573 47.2384 86.2899 27.4035Z" fill="#C1D0FF"/>
</g>
<g filter="url(#filter2_d)">
<path fill-rule="evenodd" clip-rule="evenodd" d="M222.523 14.0145C222.372 14.5748 222.206 15.1484 222.023 15.7359C215.879 35.4938 200.453 41.7466 184.6 48.1724C172.73 52.9838 160.62 57.8923 151.989 68.64C148.426 73.0735 145.46 78.5043 143.337 85.3311C129.567 129.733 59.4813 156.554 19.4504 149.295C14.3568 148.368 9.61395 146.599 5.43359 144.056C17.9578 65.243 86.2251 5 168.563 5C187.459 5 205.613 8.17273 222.523 14.0145Z" fill="#E6EBFF"/>
</g>
<g filter="url(#filter3_d)">
<path d="M287.303 99.7905C288.876 95.0423 287.182 89.1983 283.309 86.1546C281.252 84.5718 278.832 83.7196 276.29 83.5978C272.418 83.4761 268.908 81.0411 267.335 77.5104C264.794 71.6664 259.59 66.9182 253.418 65.092C244.584 62.657 234.418 66.553 229.578 74.3449C228.247 76.5364 227.157 78.9714 224.979 80.3106C222.196 81.8934 218.686 80.7976 215.419 80.6759C205.858 80.0671 196.782 90.294 197.387 99.9122H287.303V99.7905Z" fill="white"/>
</g>
<path d="M182.78 124.113C182.78 124.113 179.662 55.7063 183.536 60.714C191.567 70.9183 194.685 105.405 192.512 112.964C190.622 119.578 187.599 124.208 187.599 124.208L184.953 127.515L182.78 124.113Z" fill="#949494"/>
<path d="M189.032 127.326C189.032 127.326 249.785 158.789 243.549 159.734C230.699 161.529 199.236 146.978 193.85 141.404C189.032 136.396 186.575 131.483 186.575 131.483L184.969 127.514L189.032 127.326Z" fill="#949494"/>
<path d="M183.066 131.011C183.066 131.011 125.43 167.86 127.792 162.002C132.706 149.908 160.957 129.972 168.61 128.177C175.318 126.57 180.798 126.854 180.798 126.854L185.05 127.515L183.066 131.011Z" fill="#949494"/>
<path d="M177.96 127.514C177.96 131.388 181.078 134.506 184.952 134.506C188.826 134.506 191.944 131.388 191.944 127.514C191.944 123.641 188.826 120.523 184.952 120.523C181.078 120.523 177.96 123.641 177.96 127.514Z" fill="#949494"/>
<g filter="url(#filter4_d)">
<path d="M180.883 137.143L176.253 261.627C181.733 260.523 187.024 258.929 192.221 256.844C191.559 240.164 190.331 206.437 187.875 138.492C187.686 138.124 187.497 137.756 187.308 137.388C186.457 137.879 185.418 138.247 184.379 138.247C183.056 138.369 181.922 137.879 180.883 137.143Z" fill="#949494"/>
</g>
<path d="M205.826 247.145C205.826 247.145 199.433 239.789 197.02 232.433C194.608 225.077 195.742 225.921 195.742 225.921C195.742 225.921 198.999 233.06 201.484 236.533C203.969 239.958 208.359 245.022 208.359 245.022L205.826 247.145Z" fill="#5F5F5F"/>
<path d="M207.087 227.051C206.869 226.689 206.339 226.882 206.387 227.292C206.773 229.873 207.617 235.951 207.593 239.882C207.545 244.995 207.593 246.972 207.593 246.972H210.247C210.247 246.972 209.764 236.409 209.161 233.177C208.751 230.91 207.859 228.426 207.087 227.051Z" fill="#5F5F5F"/>
<path d="M208.551 246.106C208.551 246.106 210.215 242.585 210.746 238.172C210.963 236.291 210.577 233.758 209.998 230.358C209.709 228.718 209.661 227.464 209.661 226.595C209.661 225.944 210.529 225.727 210.843 226.306C211.156 226.885 212.097 228.838 212.338 230.068C212.99 233.421 213.714 235.085 213.159 238.268C212.604 241.452 210.529 246.348 210.529 246.348L208.551 246.106Z" fill="#5F5F5F"/>
<path d="M210.964 246.324C210.964 246.324 217.984 231.251 218.467 229.008C218.949 226.765 220.614 221.604 220.807 221.893C221 222.183 221.29 224.908 220.035 228.019C218.781 231.13 213.376 246.783 213.376 246.783H210.964" fill="#5F5F5F"/>
<path d="M207.795 245.65C207.795 245.65 207.723 245.601 207.602 245.505C207.482 245.408 207.289 245.288 207.047 245.095C206.589 244.733 205.914 244.178 205.166 243.431C203.622 241.96 201.716 239.693 200.075 236.895C198.411 234.097 197.301 231.372 196.601 229.37C196.239 228.357 195.998 227.537 195.829 226.983C195.733 226.693 195.684 226.476 195.636 226.331C195.588 226.187 195.588 226.09 195.588 226.09C195.588 226.09 195.612 226.163 195.66 226.307C195.709 226.476 195.781 226.693 195.877 226.958C196.07 227.513 196.336 228.333 196.698 229.322C197.421 231.3 198.555 234.025 200.196 236.823C201.836 239.596 203.718 241.863 205.238 243.358C205.986 244.106 206.637 244.685 207.096 245.047C207.313 245.24 207.506 245.384 207.626 245.481C207.747 245.601 207.795 245.65 207.795 245.65Z" fill="#343434"/>
<path d="M208.531 238.411C208.531 238.411 208.507 238.242 208.459 237.976C208.435 237.663 208.387 237.253 208.338 236.771C208.218 235.758 208.049 234.335 207.808 232.791C207.566 231.248 207.277 229.849 207.06 228.86C206.963 228.378 206.867 227.968 206.794 227.678C206.722 227.389 206.698 227.244 206.722 227.244C206.722 227.244 206.77 227.389 206.867 227.678C206.939 227.944 207.06 228.354 207.18 228.86C207.422 229.849 207.711 231.248 207.976 232.791C208.218 234.335 208.387 235.758 208.459 236.771C208.507 237.277 208.531 237.687 208.531 237.976C208.531 238.242 208.555 238.411 208.531 238.411Z" fill="#343434"/>
<path d="M210.173 226.159C210.173 226.159 210.197 226.232 210.245 226.352C210.293 226.497 210.366 226.69 210.462 226.907C210.559 227.148 210.655 227.462 210.752 227.799C210.848 228.161 210.993 228.547 211.089 229.005C211.138 229.222 211.21 229.463 211.258 229.704C211.307 229.946 211.355 230.211 211.403 230.476C211.524 231.007 211.596 231.586 211.668 232.213C211.813 233.443 211.886 234.793 211.837 236.216C211.789 237.639 211.62 238.99 211.379 240.196C211.258 240.799 211.138 241.377 210.993 241.908C210.921 242.173 210.848 242.439 210.776 242.68C210.703 242.921 210.631 243.162 210.559 243.379C210.414 243.813 210.269 244.223 210.124 244.561C210.004 244.899 209.859 245.188 209.763 245.429C209.666 245.646 209.57 245.839 209.521 245.984C209.473 246.104 209.425 246.177 209.425 246.177C209.425 246.177 209.449 246.104 209.497 245.984C209.545 245.839 209.618 245.67 209.714 245.429C209.811 245.188 209.931 244.899 210.052 244.537C210.173 244.199 210.342 243.789 210.462 243.355C210.535 243.138 210.607 242.897 210.679 242.656C210.752 242.414 210.8 242.149 210.872 241.884C211.017 241.353 211.138 240.799 211.258 240.196C211.475 238.99 211.644 237.663 211.693 236.24C211.741 234.817 211.668 233.491 211.548 232.261C211.475 231.658 211.403 231.079 211.282 230.549C211.234 230.283 211.186 230.018 211.138 229.777C211.089 229.536 211.017 229.294 210.969 229.077C210.872 228.619 210.752 228.233 210.655 227.872C210.559 227.51 210.462 227.22 210.39 226.979C210.317 226.738 210.245 226.545 210.197 226.4C210.197 226.232 210.173 226.159 210.173 226.159Z" fill="#343434"/>
<path d="M220.723 222.209C220.723 222.209 220.723 222.233 220.723 222.282C220.723 222.33 220.699 222.402 220.699 222.475C220.675 222.643 220.626 222.909 220.554 223.222C220.409 223.873 220.192 224.814 219.83 225.947C219.492 227.081 219.01 228.407 218.431 229.879C217.876 231.35 217.201 232.942 216.573 234.63C215.946 236.318 215.464 237.982 215.005 239.477C214.547 240.973 214.112 242.323 213.702 243.433C213.292 244.542 212.882 245.41 212.593 246.013C212.448 246.303 212.327 246.544 212.231 246.689C212.182 246.761 212.158 246.809 212.134 246.857C212.11 246.906 212.11 246.906 212.086 246.906C212.086 246.906 212.086 246.882 212.11 246.833C212.134 246.785 212.158 246.737 212.207 246.664C212.279 246.496 212.4 246.279 212.544 245.989C212.834 245.386 213.196 244.518 213.606 243.409C214.016 242.299 214.426 240.949 214.885 239.453C215.343 237.958 215.825 236.294 216.453 234.606C217.08 232.917 217.731 231.326 218.31 229.855C218.889 228.407 219.372 227.081 219.734 225.947C220.096 224.814 220.337 223.897 220.482 223.246C220.554 222.933 220.602 222.667 220.65 222.499C220.675 222.426 220.675 222.354 220.699 222.306C220.723 222.233 220.723 222.209 220.723 222.209Z" fill="#343434"/>
<path d="M199.077 218.878C198.643 218.444 197.895 218.903 198.088 219.505C198.281 220.108 198.546 220.88 198.98 221.773C199.946 223.823 202.792 231.178 204.119 235.23C205.446 239.282 207.328 246.807 207.328 246.807L210.151 246.348C210.151 246.348 207.569 233.952 205.012 229.49C202.961 225.897 200.911 220.711 199.077 218.878Z" fill="#5F5F5F"/>
<path d="M204.872 237.738C204.872 237.738 204.944 237.859 205.017 238.076C205.089 238.293 205.21 238.63 205.354 239.016C205.62 239.836 205.933 240.946 206.247 242.2C206.561 243.454 206.826 244.587 207.019 245.432C207.115 245.817 207.164 246.155 207.236 246.42C207.284 246.662 207.308 246.782 207.284 246.782C207.284 246.782 207.236 246.662 207.164 246.42C207.091 246.155 207.019 245.842 206.898 245.456C206.681 244.612 206.392 243.478 206.078 242.248C205.764 240.994 205.451 239.86 205.21 239.04C205.089 238.655 204.992 238.341 204.92 238.076C204.896 237.859 204.848 237.738 204.872 237.738Z" fill="#343434"/>
<path d="M208.721 246.549C208.721 246.549 208.721 246.525 208.697 246.476C208.697 246.428 208.673 246.356 208.673 246.259C208.649 246.066 208.624 245.777 208.552 245.391C208.456 244.643 208.263 243.582 207.949 242.256C207.635 240.953 207.201 239.41 206.622 237.722C206.043 236.033 205.319 234.225 204.475 232.343C202.81 228.605 201.146 225.277 200.036 222.817C199.481 221.587 199.047 220.598 198.781 219.899C198.636 219.561 198.54 219.272 198.468 219.103C198.443 219.006 198.419 218.958 198.395 218.886C198.371 218.838 198.371 218.813 198.371 218.813C198.371 218.813 198.395 218.838 198.419 218.886C198.443 218.934 198.468 219.006 198.516 219.103C198.588 219.296 198.709 219.561 198.854 219.899C199.143 220.598 199.601 221.587 200.156 222.793C201.266 225.229 202.955 228.557 204.62 232.319C205.44 234.201 206.164 236.009 206.743 237.698C207.322 239.386 207.756 240.929 208.045 242.256C208.335 243.582 208.504 244.643 208.6 245.391C208.649 245.753 208.673 246.066 208.697 246.259C208.697 246.356 208.721 246.428 208.721 246.476C208.721 246.525 208.721 246.549 208.721 246.549Z" fill="#343434"/>
<path d="M210.124 246.323C210.124 246.323 210.076 246.154 210.027 245.84C209.979 245.503 209.907 245.069 209.81 244.538C209.617 243.429 209.328 241.933 208.894 240.293C208.459 238.653 208.001 237.182 207.615 236.121C207.446 235.615 207.277 235.205 207.181 234.867C207.084 234.578 207.012 234.409 207.036 234.409C207.036 234.409 207.108 234.553 207.253 234.843C207.374 235.132 207.543 235.542 207.736 236.073C208.122 237.11 208.628 238.581 209.062 240.245C209.497 241.885 209.786 243.429 209.955 244.514C210.027 245.069 210.1 245.503 210.124 245.816C210.124 246.154 210.124 246.323 210.124 246.323Z" fill="#343434"/>
<g filter="url(#filter5_d)">
<path fill-rule="evenodd" clip-rule="evenodd" d="M36.5592 271.681C29.8826 263.12 24.031 253.883 19.124 244.092V209.528H36.5592V271.681Z" fill="#929DC0"/>
<path fill-rule="evenodd" clip-rule="evenodd" d="M58.7038 295.011C52.4646 289.599 46.6353 283.727 41.2686 277.447V184.716H58.7038V295.011Z" fill="#929DC0"/>
<path d="M80.8627 196.116H63.3721V285.512H80.8627V196.116Z" fill="#929DC0"/>
<path d="M102.994 167.952H85.5029V281.835H102.994V167.952Z" fill="#929DC0"/>
</g>
<path d="M68.3673 275.306C68.3673 275.306 61.974 267.951 59.5615 260.595C57.1489 253.239 58.2828 254.083 58.2828 254.083C58.2828 254.083 61.5398 261.222 64.0247 264.695C66.5096 268.119 70.9004 273.184 70.9004 273.184L68.3673 275.306Z" fill="#5F5F5F"/>
<path d="M69.6314 255.217C69.4143 254.855 68.8835 255.048 68.9318 255.458C69.3178 258.039 70.1622 264.116 70.1381 268.048C70.0898 273.16 70.1381 275.138 70.1381 275.138H72.7919C72.7919 275.138 72.3094 264.575 71.7062 261.343C71.2961 259.076 70.4035 256.592 69.6314 255.217Z" fill="#5F5F5F"/>
<path d="M71.0928 274.268C71.0928 274.268 72.7574 270.747 73.2882 266.333C73.5053 264.452 73.1193 261.92 72.5403 258.519C72.2508 256.879 72.2025 255.625 72.2025 254.757C72.2025 254.105 73.0711 253.888 73.3847 254.467C73.6983 255.046 74.6392 257 74.8805 258.23C75.5319 261.582 76.2556 263.246 75.7007 266.43C75.1459 269.613 73.0711 274.509 73.0711 274.509L71.0928 274.268Z" fill="#5F5F5F"/>
<path d="M73.5049 274.486C73.5049 274.486 80.5254 259.412 81.0079 257.169C81.4904 254.926 83.1551 249.765 83.3481 250.054C83.5411 250.344 83.8306 253.069 82.5761 256.18C81.3215 259.291 75.9174 274.944 75.9174 274.944H73.5049" fill="#5F5F5F"/>
<path d="M70.3354 273.811C70.3354 273.811 70.263 273.763 70.1424 273.666C70.0218 273.57 69.8288 273.449 69.5875 273.256C69.1291 272.894 68.4536 272.34 67.7057 271.592C66.1617 270.121 64.2558 267.854 62.6153 265.056C60.9506 262.259 59.8408 259.533 59.1412 257.531C58.7793 256.519 58.5381 255.699 58.3692 255.144C58.2727 254.854 58.2244 254.637 58.1762 254.493C58.1279 254.348 58.1279 254.251 58.1279 254.251C58.1279 254.251 58.1521 254.324 58.2003 254.469C58.2486 254.637 58.3209 254.854 58.4174 255.12C58.6104 255.674 58.8758 256.494 59.2377 257.483C59.9615 259.461 61.0954 262.186 62.7359 264.984C64.3764 267.757 66.2582 270.024 67.7781 271.52C68.526 272.267 69.1774 272.846 69.6358 273.208C69.8529 273.401 70.0459 273.546 70.1665 273.642C70.2871 273.763 70.3354 273.811 70.3354 273.811Z" fill="#343434"/>
<path d="M71.0792 266.579C71.0792 266.579 71.0551 266.41 71.0068 266.145C70.9827 265.831 70.9345 265.421 70.8862 264.939C70.7656 263.926 70.5967 262.503 70.3554 260.959C70.1142 259.416 69.8247 258.017 69.6076 257.028C69.5111 256.546 69.4145 256.136 69.3422 255.846C69.2698 255.557 69.2457 255.412 69.2698 255.412C69.2698 255.412 69.318 255.557 69.4145 255.846C69.4869 256.112 69.6076 256.522 69.7282 257.028C69.9694 258.017 70.2589 259.416 70.5243 260.959C70.7656 262.503 70.9345 263.926 71.0068 264.939C71.0551 265.445 71.0792 265.855 71.0792 266.145C71.0792 266.41 71.1033 266.579 71.0792 266.579Z" fill="#343434"/>
<path d="M72.7166 254.328C72.7166 254.328 72.7408 254.4 72.789 254.521C72.8373 254.665 72.9096 254.858 73.0061 255.075C73.1026 255.316 73.1991 255.63 73.2956 255.968C73.3921 256.329 73.5369 256.715 73.6334 257.174C73.6816 257.391 73.754 257.632 73.8023 257.873C73.8505 258.114 73.8988 258.379 73.947 258.645C74.0677 259.175 74.14 259.754 74.2124 260.381C74.3572 261.611 74.4295 262.962 74.3813 264.385C74.333 265.808 74.1641 267.158 73.9229 268.364C73.8023 268.967 73.6816 269.546 73.5369 270.076C73.4645 270.342 73.3921 270.607 73.3198 270.848C73.2474 271.089 73.175 271.331 73.1026 271.548C72.9579 271.982 72.8131 272.392 72.6684 272.729C72.5477 273.067 72.403 273.356 72.3065 273.598C72.21 273.815 72.1135 274.008 72.0652 274.152C72.017 274.273 71.9688 274.345 71.9688 274.345C71.9688 274.345 71.9929 274.273 72.0411 274.152C72.0894 274.008 72.1618 273.839 72.2583 273.598C72.3548 273.356 72.4754 273.067 72.596 272.705C72.7166 272.368 72.8855 271.958 73.0061 271.523C73.0785 271.306 73.1509 271.065 73.2233 270.824C73.2956 270.583 73.3439 270.318 73.4163 270.052C73.561 269.522 73.6816 268.967 73.8023 268.364C74.0194 267.158 74.1883 265.832 74.2365 264.409C74.2848 262.986 74.2124 261.659 74.0918 260.429C74.0194 259.826 73.947 259.248 73.8264 258.717C73.7782 258.452 73.7299 258.186 73.6816 257.945C73.6334 257.704 73.561 257.463 73.5128 257.246C73.4163 256.788 73.2956 256.402 73.1991 256.04C73.1026 255.678 73.0061 255.389 72.9338 255.148C72.8614 254.906 72.789 254.714 72.7408 254.569C72.7408 254.4 72.7166 254.328 72.7166 254.328Z" fill="#343434"/>
<path d="M83.2639 250.373C83.2639 250.373 83.2639 250.397 83.2639 250.445C83.2639 250.493 83.2398 250.566 83.2398 250.638C83.2156 250.807 83.1674 251.072 83.095 251.386C82.9503 252.037 82.7331 252.978 82.3713 254.111C82.0335 255.245 81.551 256.571 80.972 258.042C80.4171 259.513 79.7416 261.105 79.1143 262.793C78.487 264.482 78.0045 266.146 77.5461 267.641C77.0878 269.136 76.6535 270.487 76.2434 271.596C75.8332 272.706 75.4231 273.574 75.1336 274.177C74.9888 274.466 74.8682 274.707 74.7717 274.852C74.7235 274.925 74.6993 274.973 74.6752 275.021C74.6511 275.069 74.6511 275.069 74.627 275.069C74.627 275.069 74.627 275.045 74.6511 274.997C74.6752 274.949 74.6993 274.9 74.7476 274.828C74.82 274.659 74.9406 274.442 75.0853 274.153C75.3749 273.55 75.7367 272.682 76.1469 271.572C76.557 270.463 76.9671 269.112 77.4255 267.617C77.8839 266.122 78.3664 264.457 78.9937 262.769C79.6209 261.081 80.2723 259.489 80.8513 258.018C81.4304 256.571 81.9129 255.245 82.2747 254.111C82.6366 252.978 82.8779 252.061 83.0226 251.41C83.095 251.096 83.1433 250.831 83.1915 250.662C83.2156 250.59 83.2156 250.518 83.2398 250.469C83.2639 250.397 83.2639 250.373 83.2639 250.373Z" fill="#343434"/>
<path d="M61.62 247.043C61.1857 246.609 60.4378 247.067 60.6308 247.67C60.8238 248.273 61.0892 249.044 61.5235 249.937C62.4885 251.987 65.3353 259.343 66.6622 263.394C67.9891 267.446 69.8709 274.971 69.8709 274.971L72.6936 274.513C72.6936 274.513 70.1122 262.116 67.5548 257.654C65.5042 254.061 63.4535 248.876 61.62 247.043Z" fill="#5F5F5F"/>
<path d="M67.3972 265.9C67.3972 265.9 67.4696 266.021 67.5419 266.238C67.6143 266.455 67.735 266.793 67.8797 267.178C68.1451 267.998 68.4587 269.108 68.7724 270.362C69.086 271.616 69.3514 272.75 69.5444 273.594C69.6409 273.98 69.6891 274.317 69.7615 274.582C69.8098 274.824 69.8339 274.944 69.8098 274.944C69.8098 274.944 69.7615 274.824 69.6891 274.582C69.6168 274.317 69.5444 274.004 69.4237 273.618C69.2066 272.774 68.9171 271.64 68.6035 270.41C68.2898 269.156 67.9762 268.022 67.7349 267.203C67.6143 266.817 67.5178 266.503 67.4455 266.238C67.4213 266.021 67.3731 265.9 67.3972 265.9Z" fill="#343434"/>
<path d="M71.2336 274.707C71.2336 274.707 71.2336 274.683 71.2095 274.634C71.2095 274.586 71.1854 274.514 71.1854 274.417C71.1612 274.224 71.1371 273.935 71.0647 273.549C70.9682 272.801 70.7752 271.74 70.4616 270.414C70.148 269.111 69.7137 267.568 69.1347 265.88C68.5557 264.191 67.8319 262.383 66.9875 260.501C65.3229 256.763 63.6582 253.435 62.5484 250.975C61.9936 249.745 61.5593 248.756 61.2939 248.057C61.1492 247.719 61.0527 247.43 60.9803 247.261C60.9562 247.164 60.932 247.116 60.9079 247.044C60.8838 246.996 60.8838 246.971 60.8838 246.971C60.8838 246.971 60.9079 246.996 60.932 247.044C60.9562 247.092 60.9803 247.164 61.0285 247.261C61.1009 247.454 61.2215 247.719 61.3663 248.057C61.6558 248.756 62.1142 249.745 62.6691 250.951C63.7788 253.387 65.4676 256.715 67.1323 260.477C67.9525 262.358 68.6763 264.167 69.2553 265.856C69.8343 267.544 70.2686 269.087 70.5581 270.414C70.8476 271.74 71.0165 272.801 71.113 273.549C71.1612 273.911 71.1854 274.224 71.2095 274.417C71.2095 274.514 71.2336 274.586 71.2336 274.634C71.2336 274.683 71.2336 274.707 71.2336 274.707Z" fill="#343434"/>
<path d="M72.6679 274.485C72.6679 274.485 72.6197 274.316 72.5714 274.002C72.5232 273.665 72.4508 273.231 72.3543 272.7C72.1613 271.591 71.8718 270.095 71.4375 268.455C71.0033 266.815 70.5449 265.344 70.1589 264.283C69.99 263.776 69.8211 263.366 69.7246 263.029C69.6281 262.739 69.5557 262.571 69.5799 262.571C69.5799 262.571 69.6522 262.715 69.797 263.005C69.9176 263.294 70.0865 263.704 70.2795 264.235C70.6655 265.272 71.1721 266.743 71.6064 268.407C72.0407 270.047 72.3302 271.591 72.499 272.676C72.5714 273.231 72.6438 273.665 72.6679 273.978C72.6679 274.316 72.6679 274.485 72.6679 274.485Z" fill="#343434"/>
<g filter="url(#filter6_d)">
<path fill-rule="evenodd" clip-rule="evenodd" d="M303.654 266.55C273.506 308.581 224.036 335.992 168.121 335.992C123.626 335.992 83.2129 318.635 53.3691 290.366C54.2097 286.07 56.6972 281.483 62.6644 276.378C78.3681 262.941 94.8867 265.687 111.862 268.508C124.573 270.621 137.54 272.776 150.614 268.212C156.009 266.331 161.419 263.3 166.845 258.658C200.954 229.427 271.515 241.397 303.654 266.55Z" fill="#FFAD4D"/>
</g>
<g filter="url(#filter7_d)">
<path d="M285.846 201.169C285.835 201.917 285.775 202.804 285.16 203.263C284.64 203.676 283.916 203.595 283.261 203.632C279.82 203.885 277.751 207.876 278.004 211.317C278.257 214.758 280.105 217.848 281.438 221.024C282.771 224.2 283.556 227.999 281.806 230.99C281.183 232.009 280.352 232.862 279.799 233.906C278.355 236.644 280.179 239.804 280.367 242.893C280.975 252.441 277.697 262.306 280.614 270.579C281.309 272.577 283.027 275.011 284.911 274.103C285.358 273.899 285.645 273.483 286.024 273.161C293.275 266.628 301.642 262.098 306.04 253.956C307.05 252.054 312.481 243.694 311.904 241.627C311.35 239.538 308.401 238.162 306.95 239.801C308.912 235.224 310.896 230.67 312.857 226.093C313.923 223.584 315.04 220.795 314.213 218.187C313.386 215.58 309.576 213.98 307.838 216.082C308.993 212.288 309.798 208.372 310.254 204.428C310.496 202.303 310.463 199.801 308.751 198.56C306.484 196.89 303.346 198.831 301.214 200.67C300.606 195.915 301.544 190.995 300.514 186.327C299.66 182.41 293.652 174.372 289.123 178.724C285.233 182.455 285.966 196.167 285.846 201.169Z" fill="#3EC254"/>
<path d="M291.533 198.657C297.215 220.835 294.353 245.32 285.039 266.482C283.708 269.526 282.261 272.544 280.605 275.442C278.997 278.247 278.549 273.752 279.85 271.152C281.103 268.645 280.936 270.42 282.049 267.864C284.348 262.591 287.239 256.788 288.771 251.246C291.809 240.232 293.007 230.359 292.799 219.04C292.659 212.678 291.39 205.201 290.43 198.944C290.369 198.359 291.378 198.07 291.533 198.657Z" fill="#9DFBA6"/>
<path d="M254.054 222.168C254.121 222.913 254.154 223.802 253.59 224.322C253.116 224.787 252.388 224.782 251.74 224.887C248.344 225.498 246.702 229.683 247.313 233.079C247.924 236.474 250.084 239.355 251.741 242.374C253.397 245.394 254.575 249.091 253.146 252.247C252.632 253.326 251.895 254.261 251.454 255.357C250.304 258.231 252.447 261.183 252.957 264.236C254.557 273.669 252.325 283.822 256.089 291.745C256.989 293.66 258.952 295.901 260.73 294.802C261.154 294.552 261.396 294.108 261.739 293.749C268.269 286.495 276.118 281.118 279.643 272.561C280.45 270.564 284.979 261.683 284.189 259.688C283.42 257.668 280.344 256.607 279.072 258.388C280.546 253.632 282.044 248.896 283.518 244.139C284.316 241.532 285.135 238.642 284.041 236.135C282.947 233.628 278.99 232.435 277.481 234.706C278.234 230.813 278.627 226.834 278.669 222.863C278.688 220.726 278.394 218.24 276.562 217.185C274.133 215.76 271.215 218.018 269.287 220.069C268.186 215.403 268.605 210.413 267.094 205.878C265.836 202.071 259.023 194.703 254.972 199.504C251.493 203.62 253.652 217.18 254.054 222.168Z" fill="#66D97F"/>
<path d="M259.445 219.078C267.409 240.543 267.115 265.192 260.059 287.211C259.053 290.376 257.928 293.529 256.584 296.584C255.277 299.542 254.363 295.117 255.385 292.396C256.37 289.773 256.389 291.555 257.23 288.897C258.966 283.413 261.237 277.34 262.182 271.669C264.055 260.397 264.216 250.454 262.83 239.218C262.027 232.905 259.985 225.601 258.378 219.479C258.255 218.903 259.229 218.51 259.445 219.078Z" fill="#9DFBA6"/>
</g>
<g filter="url(#filter8_d)">
<path fill-rule="evenodd" clip-rule="evenodd" d="M294.5 278.142C264.108 313.809 218.788 336.439 168.167 336.439C126.941 336.439 89.2324 321.43 60.2383 296.593C61.0844 295.72 62.0292 294.831 63.0829 293.926C78.7293 280.49 95.1876 283.235 112.101 286.057C124.766 288.169 137.686 290.324 150.711 285.76C156.087 283.879 161.477 280.849 166.883 276.206C198.055 249.394 259.786 257.247 294.5 278.142Z" fill="#F19138"/>
</g>
</g>
<defs>
<filter id="filter0_ii" x="-1" y="-2" width="343.13" height="345.923" filterUnits="userSpaceOnUse" color-interpolation-filters="sRGB">
<feFlood flood-opacity="0" result="BackgroundImageFix"/>
<feBlend mode="normal" in="SourceGraphic" in2="BackgroundImageFix" result="shape"/>
<feColorMatrix in="SourceAlpha" type="matrix" values="0 0 0 0 0 0 0 0 0 0 0 0 0 0 0 0 0 0 127 0" result="hardAlpha"/>
<feOffset dx="-4" dy="7"/>
<feGaussianBlur stdDeviation="3.5"/>
<feComposite in2="hardAlpha" operator="arithmetic" k2="-1" k3="1"/>
<feColorMatrix type="matrix" values="0 0 0 0 0 0 0 0 0 0 0 0 0 0 0 0 0 0 0.17 0"/>
<feBlend mode="normal" in2="shape" result="effect1_innerShadow"/>
<feColorMatrix in="SourceAlpha" type="matrix" values="0 0 0 0 0 0 0 0 0 0 0 0 0 0 0 0 0 0 127 0" result="hardAlpha"/>
<feOffset dx="3" dy="-7"/>
<feGaussianBlur stdDeviation="4"/>
<feComposite in2="hardAlpha" operator="arithmetic" k2="-1" k3="1"/>
<feColorMatrix type="matrix" values="0 0 0 0 0 0 0 0 0 0 0 0 0 0 0 0 0 0 0.25 0"/>
<feBlend mode="normal" in2="effect1_innerShadow" result="effect2_innerShadow"/>
</filter>
<filter id="filter1_d" x="3.8457" y="1.07361" width="332.017" height="227.892" filterUnits="userSpaceOnUse" color-interpolation-filters="sRGB">
<feFlood flood-opacity="0" result="BackgroundImageFix"/>
<feColorMatrix in="SourceAlpha" type="matrix" values="0 0 0 0 0 0 0 0 0 0 0 0 0 0 0 0 0 0 127 0"/>
<feOffset dy="3"/>
<feGaussianBlur stdDeviation="4"/>
<feColorMatrix type="matrix" values="0 0 0 0 0 0 0 0 0 0 0 0 0 0 0 0 0 0 0.25 0"/>
<feBlend mode="normal" in2="BackgroundImageFix" result="effect1_dropShadow"/>
<feBlend mode="normal" in="SourceGraphic" in2="effect1_dropShadow" result="shape"/>
</filter>
<filter id="filter2_d" x="0.433594" y="0" width="233.09" height="161.475" filterUnits="userSpaceOnUse" color-interpolation-filters="sRGB">
<feFlood flood-opacity="0" result="BackgroundImageFix"/>
<feColorMatrix in="SourceAlpha" type="matrix" values="0 0 0 0 0 0 0 0 0 0 0 0 0 0 0 0 0 0 127 0"/>
<feOffset dx="3" dy="3"/>
<feGaussianBlur stdDeviation="4"/>
<feColorMatrix type="matrix" values="0 0 0 0 0 0 0 0 0 0 0 0 0 0 0 0 0 0 0.25 0"/>
<feBlend mode="normal" in2="BackgroundImageFix" result="effect1_dropShadow"/>
<feBlend mode="normal" in="SourceGraphic" in2="effect1_dropShadow" result="shape"/>
</filter>
<filter id="filter3_d" x="194.358" y="61.3712" width="102.529" height="47.541" filterUnits="userSpaceOnUse" color-interpolation-filters="sRGB">
<feFlood flood-opacity="0" result="BackgroundImageFix"/>
<feColorMatrix in="SourceAlpha" type="matrix" values="0 0 0 0 0 0 0 0 0 0 0 0 0 0 0 0 0 0 127 0"/>
<feOffset dx="3" dy="3"/>
<feGaussianBlur stdDeviation="3"/>
<feColorMatrix type="matrix" values="0 0 0 0 0 0 0 0 0 0 0 0 0 0 0 0 0 0 0.25 0"/>
<feBlend mode="normal" in2="BackgroundImageFix" result="effect1_dropShadow"/>
<feBlend mode="normal" in="SourceGraphic" in2="effect1_dropShadow" result="shape"/>
</filter>
<filter id="filter4_d" x="174.253" y="132.143" width="25.9679" height="134.484" filterUnits="userSpaceOnUse" color-interpolation-filters="sRGB">
<feFlood flood-opacity="0" result="BackgroundImageFix"/>
<feColorMatrix in="SourceAlpha" type="matrix" values="0 0 0 0 0 0 0 0 0 0 0 0 0 0 0 0 0 0 127 0"/>
<feOffset dx="3"/>
<feGaussianBlur stdDeviation="2.5"/>
<feColorMatrix type="matrix" values="0 0 0 0 0 0 0 0 0 0 0 0 0 0 0 0 0 0 0.25 0"/>
<feBlend mode="normal" in2="BackgroundImageFix" result="effect1_dropShadow"/>
<feBlend mode="normal" in="SourceGraphic" in2="effect1_dropShadow" result="shape"/>
</filter>
<filter id="filter5_d" x="17.124" y="159.952" width="93.8695" height="137.059" filterUnits="userSpaceOnUse" color-interpolation-filters="sRGB">
<feFlood flood-opacity="0" result="BackgroundImageFix"/>
<feColorMatrix in="SourceAlpha" type="matrix" values="0 0 0 0 0 0 0 0 0 0 0 0 0 0 0 0 0 0 127 0"/>
<feOffset dx="3" dy="-3"/>
<feGaussianBlur stdDeviation="2.5"/>
<feColorMatrix type="matrix" values="0 0 0 0 0.158333 0 0 0 0 0.124687 0 0 0 0 0.124687 0 0 0 0.25 0"/>
<feBlend mode="normal" in2="BackgroundImageFix" result="effect1_dropShadow"/>
<feBlend mode="normal" in="SourceGraphic" in2="effect1_dropShadow" result="shape"/>
</filter>
<filter id="filter6_d" x="51.3691" y="233.55" width="260.285" height="104.442" filterUnits="userSpaceOnUse" color-interpolation-filters="sRGB">
<feFlood flood-opacity="0" result="BackgroundImageFix"/>
<feColorMatrix in="SourceAlpha" type="matrix" values="0 0 0 0 0 0 0 0 0 0 0 0 0 0 0 0 0 0 127 0"/>
<feOffset dx="3" dy="-3"/>
<feGaussianBlur stdDeviation="2.5"/>
<feColorMatrix type="matrix" values="0 0 0 0 0 0 0 0 0 0 0 0 0 0 0 0 0 0 0.25 0"/>
<feBlend mode="normal" in2="BackgroundImageFix" result="effect1_dropShadow"/>
<feBlend mode="normal" in="SourceGraphic" in2="effect1_dropShadow" result="shape"/>
</filter>
<filter id="filter7_d" x="205.561" y="171.509" width="143.57" height="136.213" filterUnits="userSpaceOnUse" color-interpolation-filters="sRGB">
<feFlood flood-opacity="0" result="BackgroundImageFix"/>
<feColorMatrix in="SourceAlpha" type="matrix" values="0 0 0 0 0 0 0 0 0 0 0 0 0 0 0 0 0 0 127 0"/>
<feOffset dx="3" dy="3"/>
<feGaussianBlur stdDeviation="3.5"/>
<feColorMatrix type="matrix" values="0 0 0 0 0 0 0 0 0 0 0 0 0 0 0 0 0 0 0.25 0"/>
<feBlend mode="normal" in2="BackgroundImageFix" result="effect1_dropShadow"/>
<feBlend mode="normal" in="SourceGraphic" in2="effect1_dropShadow" result="shape"/>
</filter>
<filter id="filter8_d" x="58.2383" y="251.099" width="244.262" height="87.341" filterUnits="userSpaceOnUse" color-interpolation-filters="sRGB">
<feFlood flood-opacity="0" result="BackgroundImageFix"/>
<feColorMatrix in="SourceAlpha" type="matrix" values="0 0 0 0 0 0 0 0 0 0 0 0 0 0 0 0 0 0 127 0"/>
<feOffset dx="3" dy="-3"/>
<feGaussianBlur stdDeviation="2.5"/>
<feColorMatrix type="matrix" values="0 0 0 0 0 0 0 0 0 0 0 0 0 0 0 0 0 0 0.25 0"/>
<feBlend mode="normal" in2="BackgroundImageFix" result="effect1_dropShadow"/>
<feBlend mode="normal" in="SourceGraphic" in2="effect1_dropShadow" result="shape"/>
</filter>
</defs>
</svg>
