<svg width="287" height="203" viewBox="0 0 287 203" fill="none" xmlns="http://www.w3.org/2000/svg">
<path d="M122.789 23.3852C122.789 34.8237 113.516 44.0965 102.078 44.0965C90.639 44.0965 81.3662 34.8237 81.3662 23.3852C81.3662 11.9466 90.639 2.67383 102.078 2.67383C113.516 2.67383 122.789 11.9466 122.789 23.3852Z" fill="#250000"/>
<path d="M213.031 23.3852C213.031 34.8237 203.758 44.0965 192.32 44.0965C180.881 44.0965 171.608 34.8237 171.608 23.3852C171.608 11.9466 180.881 2.67383 192.32 2.67383C203.758 2.67383 213.031 11.9466 213.031 23.3852Z" fill="#250000"/>
<path d="M184.332 175.503C176.113 179.834 167.072 182.923 157.37 184.388C144.921 186.249 132.785 185.321 121.495 182.012C116.998 180.665 112.645 179.003 108.519 176.976C107.707 176.573 106.895 176.171 106.15 175.785C83.3068 163.798 66.2723 141.463 62.1252 113.951C59.9459 99.6113 61.6084 85.5558 66.2512 72.7665C71.1987 59.2818 79.5074 47.2235 90.3694 37.9356C101.948 27.9803 116.364 21.072 132.512 18.6242C148.727 16.1922 164.636 18.5741 178.597 24.7516C197.558 33.094 213.075 48.2973 221.606 67.6358C224.568 74.2728 226.629 81.464 227.773 88.9956C233.224 125.124 214.848 159.295 184.332 175.503Z" fill="#FEB4B4"/>
<path d="M184.332 175.503C176.113 179.834 167.072 182.923 157.37 184.388C144.921 186.249 132.785 185.321 121.494 182.012C122.031 180.045 124.135 178.241 125.758 177.579C128.545 176.426 131.729 176.833 134.75 177.341C137.755 177.915 140.811 178.571 143.752 177.943C145.215 177.662 146.69 177.035 148.128 177.447C150.344 178.112 151.267 180.984 153.42 181.914C158.716 178.425 164.97 176.49 171.294 176.316C171.854 176.31 172.48 176.319 173.021 176.098C173.562 175.877 173.987 175.559 174.493 175.191C175.163 174.722 175.934 174.416 176.688 174.177C179.268 173.603 181.864 174.428 184.332 175.503Z" fill="#E6E6E6"/>
<path d="M221.656 67.7173C220.298 68.4418 218.819 68.7887 217.268 68.5599C214.791 68.1115 212.843 66.3223 210.734 64.914C208.625 63.5057 205.78 62.5509 203.639 63.9271C201.89 65.1174 201.325 67.4963 201.729 69.6167C202.133 71.7371 203.241 73.5361 204.186 75.4359C208.59 84.2304 209.21 94.8488 205.842 104.032C204.024 109.045 201.097 113.725 199.989 118.977C198.775 124.971 200.166 131.165 199.563 137.235C198.349 148.814 189.064 159.105 177.609 161.481C176.59 161.657 170.966 152.713 169.987 136.843C169.606 131.098 175.131 119.007 168.084 115.17C166.227 114.17 162.581 115.119 156.577 114.531C156.099 114.487 147.918 108.077 144.327 101.151C141.209 95.1747 142.356 87.6984 145.581 81.7626C146.936 79.292 148.687 76.9155 151.124 75.4699C157.603 71.7032 165.887 75.6249 173.336 74.532C177.234 73.9917 180.785 71.9729 184.595 70.9229C186.762 70.3207 189.292 69.6648 190.058 67.613C191.205 64.2552 186.342 61.2156 187.092 57.7637C184.222 57.501 181.095 57.7357 178.793 59.4927C176.491 61.2496 175.48 64.9188 177.35 67.0383C177.784 67.5604 178.382 67.9816 178.506 68.6391C178.632 69.5767 177.522 70.4299 176.565 70.3424C175.609 70.2549 174.793 69.5726 174.044 68.906C171.929 66.9377 170.008 64.7364 167.585 63.1835C165.161 61.6306 162.005 60.8113 159.316 61.848C157.167 62.6641 155.608 64.5277 153.595 65.6552C151.582 66.7828 148.467 66.6713 147.651 64.5228C146.784 62.2926 149.083 60.2556 150.576 58.3764C151.956 56.6798 152.82 54.5115 152.58 52.2903C152.324 50.1353 150.866 48.0438 148.767 47.4756C147.065 47.0015 145.193 47.5343 143.431 47.6045C141.669 47.6747 139.52 47.0247 139.022 45.3008C138.454 43.2812 140.492 41.4615 142.496 40.9601C144.5 40.4586 146.677 40.6965 148.596 39.9654C149.76 39.4739 150.788 38.671 151.886 38.1638C157.799 35.3098 165.926 39.8924 171.017 35.7961C174.363 33.1702 174.665 26.61 178.663 24.767C197.558 33.0937 213.075 48.2971 221.656 67.7173Z" fill="#FF6873"/>
<path d="M112.637 175.789C111.713 177.036 110.102 177.351 108.516 176.975C107.704 176.572 106.892 176.17 106.146 175.784C104.349 174.24 103.268 172.029 101.747 170.201C98.8068 166.711 94.3695 164.819 91.4288 161.329C84.3951 153.027 88.7794 139.268 82.3652 130.415C81.0584 128.569 79.327 127.041 78.0203 125.195C75.4885 121.452 74.9349 116.434 76.6158 112.296C78.4569 107.777 82.8091 103.854 82.0607 99.0689C81.2899 93.7898 74.8163 91.0657 73.1741 85.9288C72.6603 84.271 72.7222 82.5405 72.2084 80.8827C71.6095 78.9952 70.306 77.4291 68.9711 75.9952C68.0865 75.0172 67.1514 73.9575 66.2163 72.8977C71.1639 59.4129 79.4726 47.3546 90.3345 38.0667C90.6335 38.2774 90.8351 38.6045 91.087 39.0133C93.2191 42.3818 94.4845 43.52 98.7575 44.0461C102.552 44.5284 106.281 44.995 110.091 45.4113C112.203 45.6334 114.799 46.4594 115.004 48.5327C115.217 51.166 111.668 51.9987 109.495 53.5071C106.504 55.5193 105.802 60.2391 108.075 63.0129C109.747 65.0853 113.014 66.9082 112.072 69.4069C111.258 71.657 107.781 71.5993 106.238 73.3967C105.279 74.4953 105.182 76.078 104.223 77.1766C103.443 78.1083 102.097 78.4867 101.434 79.5159C100.575 80.7781 100.86 82.521 100.316 83.9277C98.6542 88.28 91.206 86.7206 88.6661 90.6549C86.7738 93.6261 89.2932 97.7149 92.5882 99.1256C95.8328 100.455 99.5515 100.081 103.082 100.501C106.612 100.92 110.471 102.604 111.416 105.97C112.397 109.484 110.031 114.158 112.826 116.497C113.707 117.195 114.831 117.462 115.841 117.911C118.491 119.099 120.367 121.779 120.797 124.673C121.227 127.567 120.306 130.56 118.571 132.87C117.452 134.35 115.983 135.537 114.864 137.016C111.83 140.973 111.399 146.315 111.179 151.359C110.89 157.573 110.767 163.967 112.567 169.909C113.085 171.847 113.803 174.112 112.637 175.789Z" fill="#FF6873"/>
<path d="M119.392 42.1057C120.23 43.282 120.741 44.6597 121.481 45.9524C122.236 47.179 123.354 48.352 124.871 48.4329C125.975 48.4857 127.104 47.8464 127.853 47.0468C128.617 46.1811 129.082 45.1048 129.465 44.0789C130.231 42.0271 130.947 39.8934 131.465 37.7127C131.748 36.5233 131.98 35.2521 131.555 34.1039C131.164 33.1036 130.38 32.2892 129.499 31.5912C128.334 30.6165 127.087 29.6922 125.649 29.2809C123.55 28.7126 121.285 29.4313 119.335 30.2946C117.696 31.0223 109.018 35.5234 110.033 37.7189C110.455 38.5871 114.231 38.8555 115.14 39.1412C116.811 39.7475 118.338 40.6685 119.392 42.1057Z" fill="#FF6873"/>
<path d="M57.0565 124.54C55.856 124.983 54.6899 125.374 53.558 125.715C52.4604 126.09 51.2771 126.38 50.008 126.584C48.7733 126.823 47.3499 126.942 45.7378 126.942C44.1944 126.942 42.4965 126.703 40.6444 126.226C38.7922 125.749 36.9058 125.136 34.9851 124.386C33.0643 123.671 31.1779 122.887 29.3257 122.035C27.4736 121.183 25.7586 120.365 24.1808 119.581C22.6031 118.831 21.2654 118.218 20.1679 117.741C19.1389 117.264 18.0413 116.889 16.8751 116.616C15.709 116.344 14.56 116.088 13.4281 115.85C10.2383 115.134 7.64869 113.873 5.65935 112.067C3.7043 110.227 2.26374 108.012 1.33766 105.422C0.445888 102.832 0 100.038 0 97.0387C0 94.4828 0.325841 92.0633 0.977524 89.7801C1.6635 87.4628 2.69248 85.4181 4.06444 83.6461C5.4364 81.8399 7.16851 80.4257 9.26075 79.4034C11.353 78.381 13.8054 77.8699 16.6179 77.8699C19.4304 77.8699 21.8657 78.3981 23.9236 79.4545C26.0158 80.4768 27.7479 81.8911 29.1199 83.6972C30.4919 85.4692 31.5037 87.5139 32.1554 89.8312C32.8414 92.1144 33.1843 94.5169 33.1843 97.0387C33.1843 99.4923 32.8414 101.895 32.1554 104.246C31.4694 106.563 30.3718 108.659 28.8627 110.534C27.3878 112.408 25.4328 113.856 22.9975 114.878C23.1004 114.913 23.2205 114.964 23.3577 115.032C23.4949 115.1 23.6321 115.168 23.7693 115.236C24.5238 115.611 25.57 116.139 26.9076 116.821C28.2796 117.502 29.8402 118.235 31.5894 119.019C33.3387 119.803 35.1565 120.535 37.043 121.217C38.9294 121.933 40.7644 122.512 42.548 122.955C44.3658 123.432 46.0122 123.671 47.4871 123.671C48.2073 123.671 49.0991 123.585 50.1624 123.415C51.2257 123.245 52.3061 123.04 53.4037 122.802C54.5012 122.563 55.4444 122.324 56.2333 122.086L57.0565 124.54ZM16.6179 112.68C18.7787 112.68 20.5966 112.237 22.0715 111.351C23.5463 110.431 24.7296 109.222 25.6214 107.722C26.5475 106.189 27.1992 104.502 27.5765 102.662C27.988 100.787 28.1938 98.913 28.1938 97.0387C28.1938 95.1644 27.988 93.3072 27.5765 91.4669C27.1992 89.6267 26.5475 87.9569 25.6214 86.4575C24.7296 84.924 23.5463 83.7142 22.0715 82.8282C20.5966 81.9081 18.7787 81.448 16.6179 81.448C14.4571 81.448 12.6392 81.9081 11.1643 82.8282C9.68949 83.7483 8.50617 84.9751 7.61439 86.5086C6.72262 88.008 6.07094 89.6779 5.65935 91.5181C5.28206 93.3583 5.09341 95.2155 5.09341 97.0898C5.09341 98.93 5.28206 100.77 5.65935 102.61C6.07094 104.451 6.72262 106.137 7.61439 107.671C8.50617 109.17 9.68949 110.38 11.1643 111.3C12.6392 112.22 14.4571 112.68 16.6179 112.68Z" fill="#272020"/>
<path d="M43.9528 90.189V105.831C43.9528 106.819 44.0385 107.841 44.21 108.898C44.3815 109.92 44.7588 110.772 45.3419 111.454C45.9593 112.135 46.9197 112.476 48.223 112.476C49.4921 112.476 50.6411 112.203 51.6701 111.658C52.7333 111.113 53.5908 110.363 54.2425 109.409C54.8942 108.421 55.22 107.279 55.22 105.984V93.2049C55.22 93.1708 55.1686 92.9323 55.0657 92.4893C54.9628 92.0122 54.8599 91.5351 54.757 91.058C54.6541 90.5468 54.5855 90.2572 54.5512 90.189H59.4903V110.636C59.4903 111.897 59.9533 112.527 60.8794 112.527C61.3596 112.527 62.0112 112.374 62.8344 112.067L63.7605 114.827C62.2856 115.645 60.725 116.054 59.0787 116.054C58.1869 116.054 57.398 115.799 56.712 115.287C56.0261 114.776 55.5802 113.873 55.3744 112.578C54.3797 113.601 53.1792 114.47 51.773 115.185C50.401 115.901 48.9776 116.259 47.5027 116.259C44.6902 116.259 42.6837 115.407 41.4832 113.703C40.2828 111.999 39.6825 109.835 39.6825 107.211V93.2049L39.0137 90.189H43.9528Z" fill="#272020"/>
<path d="M77.638 116.259C75.1341 116.259 73.0247 115.645 71.3098 114.418C69.6291 113.158 68.3601 111.522 67.5026 109.511C66.6794 107.501 66.2678 105.354 66.2678 103.07C66.2678 100.787 66.7137 98.6233 67.6055 96.5786C68.5316 94.4999 69.8692 92.813 71.6185 91.5181C73.3677 90.2231 75.4771 89.5756 77.9466 89.5756C80.4848 89.5756 82.5942 90.189 84.2748 91.4158C85.9898 92.6426 87.2588 94.2613 88.082 96.2719C88.9395 98.2825 89.3682 100.446 89.3682 102.764C89.3682 105.081 88.9223 107.279 88.0306 109.358C87.1388 111.403 85.8183 113.072 84.069 114.367C82.3198 115.628 80.1761 116.259 77.638 116.259ZM77.6894 113.038C79.0271 113.038 80.1418 112.732 81.0336 112.118C81.9596 111.471 82.6971 110.636 83.2458 109.613C83.8289 108.591 84.2405 107.501 84.4806 106.342C84.7207 105.149 84.8408 104.008 84.8408 102.917C84.8408 101.793 84.7207 100.651 84.4806 99.4923C84.2748 98.2996 83.9147 97.2091 83.4002 96.2208C82.8857 95.1985 82.1654 94.3806 81.2394 93.7672C80.3476 93.1197 79.2329 92.796 77.8952 92.796C76.5575 92.796 75.4257 93.1197 74.4996 93.7672C73.6078 94.3806 72.8875 95.1985 72.3387 96.2208C71.79 97.2432 71.3955 98.3507 71.1554 99.5434C70.9153 100.702 70.7953 101.827 70.7953 102.917C70.7953 103.974 70.9153 105.098 71.1554 106.291C71.3955 107.449 71.7728 108.54 72.2873 109.562C72.8361 110.585 73.5564 111.42 74.4481 112.067C75.3399 112.715 76.4203 113.038 77.6894 113.038Z" fill="#272020"/>
<path d="M100.075 76.6431V100.668L109.645 90.189H114.224L104.397 100.872L115.613 115.594H110.519L100.075 101.793V115.594H95.8049V79.659L95.1361 76.6431H100.075Z" fill="#272020"/>
<path d="M123.94 76.6431V100.668L133.51 90.189H138.089L128.262 100.872L139.478 115.594H134.385L123.94 101.793V115.594H119.67V79.659L119.001 76.6431H123.94Z" fill="#272020"/>
<path d="M151.696 116.259C149.192 116.259 147.083 115.645 145.368 114.418C143.687 113.158 142.418 111.522 141.56 109.511C140.737 107.501 140.326 105.354 140.326 103.07C140.326 100.787 140.772 98.6233 141.663 96.5786C142.589 94.4999 143.927 92.813 145.676 91.5181C147.426 90.2231 149.535 89.5756 152.005 89.5756C154.543 89.5756 156.652 90.189 158.333 91.4158C160.048 92.6426 161.317 94.2613 162.14 96.2719C162.997 98.2825 163.426 100.446 163.426 102.764C163.426 105.081 162.98 107.279 162.088 109.358C161.197 111.403 159.876 113.072 158.127 114.367C156.378 115.628 154.234 116.259 151.696 116.259ZM151.747 113.038C153.085 113.038 154.2 112.732 155.091 112.118C156.017 111.471 156.755 110.636 157.304 109.613C157.887 108.591 158.298 107.501 158.538 106.342C158.779 105.149 158.899 104.008 158.899 102.917C158.899 101.793 158.779 100.651 158.538 99.4923C158.333 98.2996 157.973 97.2091 157.458 96.2208C156.944 95.1985 156.223 94.3806 155.297 93.7672C154.405 93.1197 153.291 92.796 151.953 92.796C150.615 92.796 149.484 93.1197 148.557 93.7672C147.666 94.3806 146.945 95.1985 146.397 96.2208C145.848 97.2432 145.453 98.3507 145.213 99.5434C144.973 100.702 144.853 101.827 144.853 102.917C144.853 103.974 144.973 105.098 145.213 106.291C145.453 107.449 145.831 108.54 146.345 109.562C146.894 110.585 147.614 111.42 148.506 112.067C149.398 112.715 150.478 113.038 151.747 113.038Z" fill="#272020"/>
<path d="M172.444 89.7801C172.684 90.3594 172.89 90.9558 173.061 91.5692C173.233 92.1826 173.353 92.796 173.421 93.4094C174.45 92.3871 175.668 91.501 177.074 90.7513C178.48 89.9675 179.921 89.5756 181.396 89.5756C184.243 89.5756 186.249 90.4276 187.415 92.1315C188.616 93.8354 189.216 95.9993 189.216 98.6233V115.594H184.997V100.003C184.997 98.947 184.911 97.9077 184.74 96.8853C184.603 95.863 184.225 95.0281 183.608 94.3806C183.025 93.699 182.047 93.3583 180.675 93.3583C179.406 93.3583 178.137 93.7161 176.868 94.4317C175.633 95.1133 174.57 95.88 173.678 96.732V115.594H169.46V97.601C169.46 96.9194 169.408 96.1356 169.305 95.2496C169.202 94.3295 169.031 93.4435 168.791 92.5915C168.551 91.7055 168.208 90.9728 167.762 90.3935L172.444 89.7801Z" fill="#272020"/>
<path d="M200.58 89.7801C200.82 90.3594 201.025 90.9558 201.197 91.5692C201.368 92.1826 201.489 92.796 201.557 93.4094C202.586 92.3871 203.804 91.501 205.21 90.7513C206.616 89.9675 208.057 89.5756 209.532 89.5756C212.378 89.5756 214.385 90.4276 215.551 92.1315C216.752 93.8354 217.352 95.9993 217.352 98.6233V115.594H213.133V100.003C213.133 98.947 213.047 97.9077 212.876 96.8853C212.739 95.863 212.361 95.0281 211.744 94.3806C211.161 93.699 210.183 93.3583 208.811 93.3583C207.542 93.3583 206.273 93.7161 205.004 94.4317C203.769 95.1133 202.706 95.88 201.814 96.732V115.594H197.596V97.601C197.596 96.9194 197.544 96.1356 197.441 95.2496C197.338 94.3295 197.167 93.4435 196.927 92.5915C196.687 91.7055 196.344 90.9728 195.898 90.3935L200.58 89.7801Z" fill="#272020"/>
<path d="M235.507 89.5756C238.594 89.5756 240.926 90.4957 242.504 92.3359C244.116 94.1421 244.922 96.5275 244.922 99.4923C244.922 99.9694 244.888 100.464 244.819 100.975C244.785 101.452 244.733 101.963 244.665 102.508H228.407C228.407 105.746 229.127 108.25 230.568 110.022C232.008 111.794 233.929 112.68 236.33 112.68C238.285 112.68 240.446 112.067 242.812 110.84L244.407 113.396C243.207 114.35 241.852 115.066 240.343 115.543C238.834 116.02 237.307 116.259 235.764 116.259C233.089 116.259 230.859 115.628 229.076 114.367C227.326 113.106 226.023 111.471 225.166 109.46C224.308 107.449 223.879 105.354 223.879 103.173C223.879 101.469 224.119 99.816 224.6 98.2144C225.08 96.6127 225.8 95.1644 226.761 93.8694C227.755 92.5404 228.973 91.501 230.413 90.7513C231.854 89.9675 233.552 89.5756 235.507 89.5756ZM235.095 92.796C233.929 92.796 232.9 93.1197 232.008 93.7672C231.117 94.4147 230.396 95.2496 229.847 96.2719C229.299 97.2602 228.921 98.2825 228.716 99.3389H240.446C240.514 97.2261 240.069 95.6074 239.108 94.4828C238.148 93.3583 236.81 92.796 235.095 92.796Z" fill="#272020"/>
<path d="M261.135 89.5756C262.439 89.5756 263.742 89.7971 265.046 90.2401C266.383 90.6491 267.687 91.2966 268.956 92.1826L266.64 95.1474C265.68 94.3636 264.737 93.8013 263.811 93.4605C262.885 93.0856 261.993 92.8982 261.135 92.8982C259.763 92.8982 258.529 93.3072 257.431 94.125C256.334 94.9429 255.459 96.1015 254.807 97.601C254.19 99.1004 253.881 100.855 253.881 102.866C253.881 106.069 254.601 108.523 256.042 110.227C257.517 111.931 259.369 112.783 261.598 112.783C262.593 112.783 263.554 112.629 264.48 112.323C265.44 112.016 266.435 111.573 267.464 110.994L268.853 113.703C267.481 114.555 266.16 115.185 264.891 115.594C263.622 116.037 262.199 116.259 260.621 116.259C258.426 116.259 256.471 115.713 254.756 114.623C253.075 113.498 251.737 111.914 250.743 109.869C249.782 107.824 249.302 105.422 249.302 102.662C249.302 100.003 249.834 97.7032 250.897 95.7608C251.995 93.7842 253.435 92.2678 255.219 91.2114C257.037 90.1209 259.009 89.5756 261.135 89.5756Z" fill="#272020"/>
<path d="M281.341 82.9304C281.101 84.0891 280.878 85.2989 280.672 86.5597C280.5 87.7865 280.38 88.9963 280.312 90.189H287L286.125 93.4094H280.312V109.665C280.312 110.653 280.483 111.437 280.826 112.016C281.203 112.595 281.941 112.885 283.038 112.885C283.587 112.885 284.136 112.834 284.685 112.732C285.234 112.629 285.765 112.51 286.28 112.374L287 115.236C286.143 115.475 285.319 115.679 284.53 115.85C283.776 116.054 282.901 116.156 281.907 116.156C279.711 116.156 278.185 115.577 277.328 114.418C276.47 113.26 276.041 111.641 276.041 109.562V93.4094H272.234V90.8535C273.606 90.8195 274.687 90.3765 275.476 89.5245C276.264 88.6385 276.865 87.5821 277.276 86.3553C277.688 85.1285 277.996 83.9869 278.202 82.9304H281.341Z" fill="#272020"/>
<path fill-rule="evenodd" clip-rule="evenodd" d="M217.118 133.811C204.212 159.712 177.419 177.511 146.459 177.511C115.499 177.511 88.7055 159.712 75.7992 133.811H67.9003C81.3199 163.765 111.446 184.638 146.459 184.638C181.471 184.638 211.598 163.765 225.017 133.811H217.118ZM72.6887 70.9612C83.967 41.2665 112.742 20.1566 146.459 20.1566C180.176 20.1566 208.95 41.2665 220.229 70.9612H227.825C216.227 37.255 184.178 13.0298 146.459 13.0298C108.739 13.0298 76.6908 37.255 65.0928 70.9612H72.6887Z" fill="#250000"/>
</svg>
