<svg width="194" height="136" viewBox="0 0 194 136" fill="none" xmlns="http://www.w3.org/2000/svg">
<path d="M83 15.412C83 23.144 76.732 29.412 69 29.412C61.268 29.412 55 23.144 55 15.412C55 7.68 61.268 1.41199 69 1.41199C76.732 1.41199 83 7.68 83 15.412Z" fill="#250000"/>
<path d="M144 15.412C144 23.144 137.732 29.412 130 29.412C122.268 29.412 116 23.144 116 15.412C116 7.68 122.268 1.41199 130 1.41199C137.732 1.41199 144 7.68 144 15.412Z" fill="#250000"/>
<path d="M124.6 118.237C119.045 121.165 112.934 123.253 106.375 124.243C97.9604 125.501 89.7571 124.874 82.125 122.637C79.0853 121.726 76.1433 120.603 73.3543 119.233C72.8055 118.961 72.2566 118.689 71.7524 118.428C56.3117 110.325 44.7971 95.2276 41.9938 76.6306C40.5207 66.9377 41.6444 57.4367 44.7828 48.7917C48.1271 39.6766 53.7435 31.5257 61.0857 25.2475C68.9125 18.5181 78.6567 13.8484 89.5724 12.1938C100.533 10.5498 111.287 12.1599 120.724 16.3356C133.541 21.9747 144.029 32.2516 149.796 45.3236C151.798 49.8099 153.192 54.6708 153.965 59.7619C157.65 84.1835 145.228 107.281 124.6 118.237Z" fill="#FEB4B4"/>
<path d="M124.6 118.237C119.045 121.165 112.933 123.253 106.375 124.243C97.9602 125.501 89.7569 124.874 82.1248 122.637C82.4877 121.307 83.9098 120.088 85.0069 119.641C86.8908 118.861 89.0433 119.136 91.0852 119.48C93.1165 119.868 95.1818 120.311 97.1701 119.887C98.1589 119.697 99.1561 119.273 100.128 119.551C101.626 120.001 102.25 121.942 103.705 122.571C107.285 120.213 111.512 118.904 115.787 118.787C116.166 118.783 116.589 118.789 116.955 118.64C117.32 118.49 117.607 118.275 117.95 118.026C118.402 117.709 118.923 117.503 119.434 117.341C121.177 116.953 122.932 117.511 124.6 118.237Z" fill="#E6E6E6"/>
<path d="M149.83 45.3787C148.912 45.8684 147.912 46.1029 146.864 45.9483C145.19 45.6451 143.873 44.4358 142.447 43.4838C141.022 42.5318 139.099 41.8864 137.651 42.8166C136.469 43.6213 136.087 45.2293 136.36 46.6626C136.633 48.0959 137.383 49.312 138.021 50.5961C140.998 56.5409 141.417 63.7185 139.141 69.9257C137.911 73.3143 135.933 76.478 135.184 80.028C134.364 84.08 135.304 88.267 134.896 92.3698C134.075 100.197 127.799 107.153 120.056 108.759C119.367 108.878 115.565 102.832 114.904 92.1049C114.647 88.2216 118.381 80.0484 113.617 77.4544C112.362 76.7788 109.898 77.4204 105.84 77.0229C105.516 76.9934 99.9863 72.6601 97.5591 67.9784C95.4513 63.9387 96.2267 58.8851 98.4065 54.8727C99.3221 53.2027 100.506 51.5963 102.153 50.6191C106.533 48.073 112.132 50.7239 117.168 49.9851C119.803 49.6199 122.203 48.2553 124.778 47.5456C126.243 47.1385 127.953 46.6951 128.471 45.3082C129.246 43.0385 125.959 40.9838 126.466 38.6504C124.526 38.4729 122.412 38.6315 120.856 39.8192C119.3 41.0068 118.617 43.487 119.881 44.9197C120.175 45.2726 120.579 45.5574 120.662 46.0018C120.748 46.6355 119.997 47.2123 119.351 47.1531C118.704 47.094 118.153 46.6328 117.647 46.1822C116.217 44.8517 114.918 43.3637 113.28 42.314C111.642 41.2644 109.508 40.7105 107.69 41.4113C106.238 41.963 105.184 43.2226 103.823 43.9848C102.463 44.747 100.357 44.6716 99.8055 43.2194C99.2197 41.7118 100.774 40.3349 101.783 39.0646C102.716 37.9178 103.3 36.4521 103.138 34.9507C102.964 33.494 101.979 32.0802 100.56 31.6961C99.4094 31.3756 98.1441 31.7358 96.9532 31.7833C95.7622 31.8308 94.3094 31.3914 93.9727 30.2261C93.5891 28.8609 94.9665 27.6308 96.3211 27.2919C97.6756 26.953 99.1474 27.1137 100.444 26.6196C101.231 26.2873 101.926 25.7446 102.668 25.4018C106.666 23.4726 112.159 26.5702 115.6 23.8013C117.862 22.0263 118.066 17.5918 120.768 16.3461C133.541 21.9746 144.029 32.2514 149.83 45.3787Z" fill="#FF6873"/>
<path d="M76.1381 118.431C75.5133 119.274 74.4245 119.487 73.3525 119.232C72.8036 118.96 72.2548 118.688 71.7506 118.427C70.5356 117.384 69.8052 115.889 68.7773 114.654C66.7895 112.294 63.79 111.016 61.8023 108.656C57.0478 103.044 60.0114 93.7444 55.6757 87.7601C54.7923 86.5122 53.622 85.4793 52.7387 84.2314C51.0273 81.7015 50.6531 78.3095 51.7893 75.5122C53.0338 72.4574 55.9757 69.8057 55.4698 66.5712C54.9488 63.0028 50.5729 61.1614 49.4629 57.6891C49.1155 56.5685 49.1574 55.3987 48.8101 54.2781C48.4053 53.0023 47.5241 51.9437 46.6218 50.9744C46.0238 50.3133 45.3918 49.597 44.7597 48.8806C48.104 39.7655 53.7204 31.6146 61.0626 25.3363C61.2647 25.4787 61.401 25.6998 61.5713 25.9762C63.0124 28.2531 63.8678 29.0225 66.7562 29.3781C69.3212 29.7042 71.8416 30.0196 74.4173 30.3009C75.8444 30.4511 77.5994 31.0094 77.7384 32.4109C77.882 34.1909 75.4833 34.7538 74.0143 35.7733C71.9925 37.1335 71.518 40.324 73.0546 42.1989C74.1847 43.5998 76.393 44.832 75.756 46.521C75.206 48.042 72.8559 48.0029 71.8124 49.2179C71.1641 49.9605 71.0988 51.0303 70.4506 51.773C69.9235 52.4028 69.0134 52.6585 68.5651 53.3542C67.985 54.2074 68.1771 55.3855 67.8097 56.3364C66.6864 59.2784 61.6517 58.2243 59.9348 60.8838C58.6557 62.8922 60.3587 65.656 62.586 66.6096C64.7792 67.508 67.2929 67.2555 69.6793 67.5391C72.0657 67.8227 74.6737 68.9612 75.3131 71.2364C75.9759 73.6116 74.3763 76.7708 76.2658 78.352C76.8616 78.8238 77.6209 79.0042 78.3038 79.3079C80.095 80.1108 81.3636 81.922 81.654 83.8785C81.9443 85.835 81.3224 87.8578 80.1493 89.4196C79.3928 90.4196 78.4 91.222 77.6435 92.222C75.5927 94.8965 75.3013 98.508 75.1523 101.917C74.957 106.118 74.8744 110.439 76.0911 114.456C76.4407 115.766 76.9265 117.297 76.1381 118.431Z" fill="#FF6873"/>
<path d="M80.7046 28.0664C81.2708 28.8615 81.6158 29.7928 82.1161 30.6666C82.627 31.4958 83.3825 32.2886 84.4076 32.3433C85.1542 32.3791 85.9174 31.9469 86.4232 31.4064C86.9397 30.8212 87.2541 30.0937 87.5131 29.4002C88.0312 28.0133 88.5153 26.571 88.8654 25.097C89.0563 24.2929 89.2132 23.4336 88.9256 22.6575C88.6615 21.9814 88.1317 21.4308 87.5359 20.9591C86.7486 20.3002 85.906 19.6754 84.9339 19.3974C83.5151 19.0133 81.9842 19.4991 80.6659 20.0826C79.5582 20.5745 73.6922 23.6171 74.3778 25.1011C74.6632 25.688 77.2154 25.8694 77.8302 26.0626C78.9597 26.4724 79.9915 27.0949 80.7046 28.0664Z" fill="#FF6873"/>
<path d="M38.5678 83.788C37.7563 84.0875 36.9681 84.3524 36.203 84.5827C35.4611 84.8361 34.6612 85.0319 33.8033 85.1701C32.9687 85.3314 32.0065 85.412 30.9168 85.412C29.8735 85.412 28.7259 85.2507 27.4739 84.9282C26.2219 84.6058 24.9468 84.1911 23.6484 83.6843C22.3501 83.2006 21.0749 82.6708 19.823 82.0949C18.571 81.519 17.4117 80.9662 16.3452 80.4364C15.2787 79.9296 14.3745 79.515 13.6326 79.1925C12.9371 78.87 12.1952 78.6166 11.4069 78.4323C10.6186 78.248 9.84192 78.0753 9.07682 77.914C6.92064 77.4303 5.1702 76.578 3.82548 75.3571C2.50395 74.1132 1.53019 72.6159 0.904205 70.8652C0.301402 69.1146 0 67.2257 0 65.1986C0 63.4709 0.220255 61.8354 0.660765 60.2921C1.12446 58.7257 1.82 57.3436 2.74739 56.1457C3.67478 54.9249 4.84561 53.9689 6.25988 53.2778C7.67415 52.5868 9.33186 52.2413 11.233 52.2413C13.1342 52.2413 14.7803 52.5983 16.1714 53.3124C17.5856 54.0034 18.7565 54.9594 19.6838 56.1803C20.6112 57.3781 21.2952 58.7602 21.7357 60.3266C22.1994 61.87 22.4312 63.494 22.4312 65.1986C22.4312 66.8571 22.1994 68.4811 21.7357 70.0705C21.272 71.6369 20.5301 73.0536 19.51 74.3205C18.513 75.5875 17.1915 76.5665 15.5454 77.2575C15.6149 77.2805 15.6961 77.3151 15.7888 77.3612C15.8815 77.4072 15.9743 77.4533 16.067 77.4994C16.5771 77.7528 17.2842 78.1098 18.1884 78.5705C19.1158 79.0312 20.1707 79.5265 21.3531 80.0563C22.5356 80.5861 23.7644 81.0814 25.0395 81.5421C26.3147 82.0258 27.5551 82.4174 28.7607 82.7169C29.9895 83.0394 31.1023 83.2006 32.0993 83.2006C32.5862 83.2006 33.189 83.143 33.9077 83.0278C34.6264 82.9127 35.3567 82.7745 36.0986 82.6132C36.8405 82.452 37.4781 82.2907 38.0114 82.1295L38.5678 83.788ZM11.233 75.7717C12.6936 75.7717 13.9224 75.4723 14.9194 74.8734C15.9163 74.2514 16.7162 73.4337 17.319 72.4201C17.945 71.3835 18.3855 70.2433 18.6405 68.9994C18.9187 67.7324 19.0579 66.4655 19.0579 65.1986C19.0579 63.9316 18.9187 62.6762 18.6405 61.4323C18.3855 60.1884 17.945 59.0597 17.319 58.0461C16.7162 57.0095 15.9163 56.1918 14.9194 55.5929C13.9224 54.9709 12.6936 54.66 11.233 54.66C9.77237 54.66 8.54358 54.9709 7.54663 55.5929C6.54969 56.2148 5.74982 57.0441 5.14701 58.0807C4.54421 59.0942 4.1037 60.223 3.82548 61.4669C3.57045 62.7108 3.44293 63.9662 3.44293 65.2331C3.44293 66.477 3.57045 67.7209 3.82548 68.9648C4.1037 70.2087 4.54421 71.349 5.14701 72.3856C5.74982 73.3991 6.54969 74.2169 7.54663 74.8388C8.54358 75.4608 9.77237 75.7717 11.233 75.7717Z" fill="#272020"/>
<path d="M29.7102 60.5685V71.1417C29.7102 71.8097 29.7682 72.5007 29.8841 73.2148C30.0001 73.9059 30.2551 74.4818 30.6492 74.9425C31.0666 75.4032 31.7157 75.6335 32.5967 75.6335C33.4546 75.6335 34.2313 75.4493 34.9268 75.0807C35.6455 74.7121 36.2252 74.2053 36.6657 73.5604C37.1062 72.8923 37.3264 72.1207 37.3264 71.2453V62.6071C37.3264 62.5841 37.2917 62.4228 37.2221 62.1234C37.1525 61.8009 37.083 61.4784 37.0134 61.1559C36.9439 60.8104 36.8975 60.6146 36.8743 60.5685H40.2129V74.3896C40.2129 75.2419 40.5259 75.6681 41.1519 75.6681C41.4765 75.6681 41.917 75.5644 42.4734 75.3571L43.0994 77.223C42.1025 77.7758 41.0476 78.0522 39.9347 78.0522C39.3319 78.0522 38.7987 77.8795 38.335 77.5339C37.8713 77.1884 37.5699 76.578 37.4308 75.7026C36.7584 76.3937 35.9469 76.9811 34.9964 77.4648C34.069 77.9486 33.1068 78.1904 32.1099 78.1904C30.2087 78.1904 28.8524 77.6146 28.0409 76.4628C27.2295 75.311 26.8237 73.8483 26.8237 72.0746V62.6071L26.3716 60.5685H29.7102Z" fill="#272020"/>
<path d="M52.48 78.1904C50.7875 78.1904 49.3617 77.7758 48.2024 76.9465C47.0664 76.0942 46.2085 74.9885 45.6289 73.6295C45.0725 72.2704 44.7943 70.8192 44.7943 69.2758C44.7943 67.7325 45.0957 66.2697 45.6985 64.8876C46.3245 63.4824 47.2287 62.3422 48.4111 61.4669C49.5935 60.5915 51.0194 60.1539 52.6887 60.1539C54.4043 60.1539 55.8302 60.5685 56.9663 61.3978C58.1255 62.227 58.9833 63.3212 59.5398 64.6803C60.1194 66.0394 60.4092 67.5021 60.4092 69.0685C60.4092 70.6349 60.1078 72.1207 59.505 73.5258C58.9022 74.9079 58.0096 76.0366 56.8271 76.912C55.6447 77.7643 54.1957 78.1904 52.48 78.1904ZM52.5148 76.0136C53.419 76.0136 54.1725 75.8063 54.7753 75.3917C55.4013 74.954 55.8998 74.3896 56.2707 73.6986C56.6649 73.0075 56.9431 72.2704 57.1054 71.4872C57.2677 70.681 57.3488 69.9093 57.3488 69.1722C57.3488 68.412 57.2677 67.6403 57.1054 66.8571C56.9663 66.0509 56.7228 65.3137 56.375 64.6457C56.0273 63.9547 55.5404 63.4018 54.9144 62.9872C54.3116 62.5495 53.5581 62.3307 52.6539 62.3307C51.7497 62.3307 50.9846 62.5495 50.3586 62.9872C49.7558 63.4018 49.2689 63.9547 48.898 64.6457C48.527 65.3368 48.2604 66.0854 48.0981 66.8917C47.9358 67.6749 47.8547 68.435 47.8547 69.1722C47.8547 69.8862 47.9358 70.6464 48.0981 71.4526C48.2604 72.2358 48.5154 72.973 48.8632 73.664C49.2341 74.3551 49.721 74.9194 50.3238 75.3571C50.9266 75.7948 51.657 76.0136 52.5148 76.0136Z" fill="#272020"/>
<path d="M67.6466 51.412V67.6518L74.1152 60.5685H77.2103L70.5679 67.79L78.1493 77.7413H74.7064L67.6466 68.412V77.7413H64.7601V53.4506L64.308 51.412H67.6466Z" fill="#272020"/>
<path d="M83.7786 51.412V67.6518L90.2471 60.5685H93.3423L86.6999 67.79L94.2813 77.7413H90.8383L83.7786 68.412V77.7413H80.8921V53.4506L80.44 51.412H83.7786Z" fill="#272020"/>
<path d="M102.54 78.1904C100.848 78.1904 99.4217 77.7758 98.2624 76.9465C97.1264 76.0942 96.2685 74.9885 95.6889 73.6295C95.1325 72.2704 94.8543 70.8192 94.8543 69.2758C94.8543 67.7325 95.1557 66.2697 95.7585 64.8876C96.3845 63.4824 97.2887 62.3422 98.4711 61.4669C99.6535 60.5915 101.079 60.1539 102.749 60.1539C104.464 60.1539 105.89 60.5685 107.026 61.3978C108.186 62.227 109.043 63.3212 109.6 64.6803C110.179 66.0394 110.469 67.5021 110.469 69.0685C110.469 70.6349 110.168 72.1207 109.565 73.5258C108.962 74.9079 108.07 76.0366 106.887 76.912C105.705 77.7643 104.256 78.1904 102.54 78.1904ZM102.575 76.0136C103.479 76.0136 104.233 75.8063 104.835 75.3917C105.461 74.954 105.96 74.3896 106.331 73.6986C106.725 73.0075 107.003 72.2704 107.165 71.4872C107.328 70.681 107.409 69.9093 107.409 69.1722C107.409 68.412 107.328 67.6403 107.165 66.8571C107.026 66.0509 106.783 65.3137 106.435 64.6457C106.087 63.9547 105.6 63.4018 104.974 62.9872C104.372 62.5495 103.618 62.3307 102.714 62.3307C101.81 62.3307 101.045 62.5495 100.419 62.9872C99.8158 63.4018 99.3289 63.9547 98.958 64.6457C98.587 65.3368 98.3204 66.0854 98.1581 66.8917C97.9958 67.6749 97.9147 68.435 97.9147 69.1722C97.9147 69.8862 97.9958 70.6464 98.1581 71.4526C98.3204 72.2358 98.5754 72.973 98.9232 73.664C99.2942 74.3551 99.781 74.9194 100.384 75.3571C100.987 75.7948 101.717 76.0136 102.575 76.0136Z" fill="#272020"/>
<path d="M116.565 60.2921C116.727 60.6837 116.866 61.0868 116.982 61.5014C117.098 61.9161 117.179 62.3307 117.225 62.7453C117.921 62.0543 118.744 61.4553 119.695 60.9486C120.645 60.4188 121.619 60.1539 122.616 60.1539C124.54 60.1539 125.897 60.7297 126.685 61.8815C127.496 63.0333 127.902 64.496 127.902 66.2697V77.7413H125.05V67.2026C125.05 66.4885 124.992 65.786 124.876 65.0949C124.784 64.4039 124.529 63.8395 124.111 63.4018C123.717 62.9411 123.056 62.7108 122.129 62.7108C121.271 62.7108 120.413 62.9526 119.556 63.4364C118.721 63.8971 118.002 64.4154 117.399 64.9913V77.7413H114.548V65.5787C114.548 65.1179 114.513 64.5881 114.443 63.9892C114.374 63.3673 114.258 62.7684 114.096 62.1925C113.933 61.5936 113.701 61.0983 113.4 60.7067L116.565 60.2921Z" fill="#272020"/>
<path d="M135.583 60.2921C135.746 60.6837 135.885 61.0868 136.001 61.5014C136.117 61.9161 136.198 62.3307 136.244 62.7453C136.94 62.0543 137.763 61.4553 138.713 60.9486C139.664 60.4188 140.638 60.1539 141.635 60.1539C143.559 60.1539 144.915 60.7297 145.704 61.8815C146.515 63.0333 146.921 64.496 146.921 66.2697V77.7413H144.069V67.2026C144.069 66.4885 144.011 65.786 143.895 65.0949C143.802 64.4039 143.547 63.8395 143.13 63.4018C142.736 62.9411 142.075 62.7108 141.148 62.7108C140.29 62.7108 139.432 62.9526 138.574 63.4364C137.74 63.8971 137.021 64.4154 136.418 64.9913V77.7413H133.566V65.5787C133.566 65.1179 133.532 64.5881 133.462 63.9892C133.392 63.3673 133.277 62.7684 133.114 62.1925C132.952 61.5936 132.72 61.0983 132.419 60.7067L135.583 60.2921Z" fill="#272020"/>
<path d="M159.193 60.1539C161.279 60.1539 162.856 60.7758 163.922 62.0197C165.012 63.2406 165.557 64.853 165.557 66.8571C165.557 67.1796 165.534 67.5136 165.487 67.8591C165.464 68.1816 165.429 68.5272 165.383 68.8957H154.393C154.393 71.0841 154.88 72.7772 155.854 73.975C156.828 75.1728 158.126 75.7717 159.749 75.7717C161.071 75.7717 162.531 75.3571 164.131 74.5278L165.209 76.2555C164.398 76.9005 163.482 77.3842 162.462 77.7067C161.442 78.0292 160.41 78.1904 159.367 78.1904C157.558 78.1904 156.051 77.7643 154.846 76.912C153.663 76.0597 152.782 74.954 152.203 73.5949C151.623 72.2358 151.333 70.8192 151.333 69.3449C151.333 68.1932 151.495 67.0759 151.82 65.9933C152.145 64.9106 152.631 63.9316 153.281 63.0563C153.953 62.1579 154.776 61.4553 155.75 60.9486C156.724 60.4188 157.871 60.1539 159.193 60.1539ZM158.915 62.3307C158.126 62.3307 157.431 62.5495 156.828 62.9872C156.225 63.4249 155.738 63.9892 155.367 64.6803C154.996 65.3483 154.741 66.0394 154.602 66.7535H162.531C162.578 65.3253 162.276 64.2311 161.627 63.4709C160.978 62.7108 160.074 62.3307 158.915 62.3307Z" fill="#272020"/>
<path d="M176.517 60.1539C177.398 60.1539 178.279 60.3036 179.16 60.603C180.064 60.8795 180.945 61.3171 181.803 61.9161L180.238 63.9201C179.589 63.3903 178.951 63.0102 178.325 62.7799C177.699 62.5265 177.096 62.3998 176.517 62.3998C175.589 62.3998 174.755 62.6762 174.013 63.2291C173.271 63.7819 172.68 64.5651 172.239 65.5787C171.822 66.5922 171.613 67.7785 171.613 69.1376C171.613 71.3029 172.1 72.9614 173.074 74.1132C174.071 75.265 175.323 75.8409 176.83 75.8409C177.502 75.8409 178.151 75.7372 178.777 75.5299C179.426 75.3226 180.099 75.0231 180.794 74.6315L181.733 76.4628C180.806 77.0387 179.913 77.4648 179.055 77.7413C178.198 78.0407 177.235 78.1904 176.169 78.1904C174.685 78.1904 173.364 77.8219 172.204 77.0848C171.068 76.3246 170.164 75.2535 169.492 73.8713C168.842 72.4892 168.518 70.8652 168.518 68.9994C168.518 67.2026 168.877 65.6478 169.596 64.3348C170.338 62.9987 171.312 61.9736 172.517 61.2595C173.746 60.5224 175.079 60.1539 176.517 60.1539Z" fill="#272020"/>
<path d="M190.175 55.662C190.012 56.4452 189.862 57.2629 189.722 58.1152C189.607 58.9445 189.525 59.7623 189.479 60.5685H194L193.409 62.7453H189.479V73.7331C189.479 74.4011 189.595 74.931 189.827 75.3226C190.082 75.7142 190.58 75.91 191.322 75.91C191.693 75.91 192.064 75.8754 192.435 75.8063C192.806 75.7372 193.165 75.6566 193.513 75.5644L194 77.4994C193.42 77.6606 192.864 77.7988 192.331 77.914C191.821 78.0522 191.229 78.1213 190.557 78.1213C189.073 78.1213 188.042 77.7297 187.462 76.9465C186.882 76.1633 186.592 75.0692 186.592 73.664V62.7453H184.019V61.0177C184.946 60.9946 185.677 60.6952 186.21 60.1193C186.743 59.5204 187.149 58.8063 187.427 57.977C187.705 57.1478 187.914 56.3761 188.053 55.662H190.175Z" fill="#272020"/>
<path fill-rule="evenodd" clip-rule="evenodd" d="M146.763 90.0553C138.039 107.563 119.928 119.595 99 119.595C78.0723 119.595 59.9612 107.563 51.2371 90.0553H45.8977C54.9688 110.303 75.3329 124.412 99 124.412C122.667 124.412 143.031 110.303 152.102 90.0553H146.763ZM49.1345 47.5712C56.7582 27.4988 76.2088 13.2294 99 13.2294C121.791 13.2294 141.242 27.4988 148.865 47.5712H154C146.16 24.7872 124.497 8.41199 99 8.41199C73.5031 8.41199 51.8398 24.7872 44 47.5712H49.1345Z" fill="#250000"/>
</svg>
