<svg width="303" height="301" viewBox="0 0 303 301" fill="none" xmlns="http://www.w3.org/2000/svg">
<g filter="url(#filter0_ii)">
<circle cx="152" cy="151" r="145" fill="#FFCCCC"/>
<g filter="url(#filter1_d)">
<path fill-rule="evenodd" clip-rule="evenodd" d="M93.5683 283.744C99.7986 259.882 108.68 231.464 131.774 216.65C177.996 187.001 206.509 151.921 223.917 109.095C235.295 81.1044 253.508 72.8706 267.67 66.4677C268.218 66.2199 268.76 65.9749 269.295 65.7316C242.932 29.5296 200.216 6 152.004 6C135.503 6 119.646 8.75623 104.868 13.8334L8.12832 132.854C7.38621 138.799 7.00391 144.855 7.00391 151C7.00391 210.291 42.5898 261.27 93.5683 283.744Z" fill="#FFFAC9"/>
</g>
<g filter="url(#filter2_d)">
<path fill-rule="evenodd" clip-rule="evenodd" d="M165.737 272.654C155.807 248.871 142.927 218.022 153.336 189.934C172.418 138.442 174.087 93.2665 162.226 48.5852C157.497 30.7732 159.222 17.3022 162.979 6.40931C159.356 6.13806 155.695 6 152.002 6C71.9207 6 7.00195 70.9187 7.00195 151C7.00195 202.19 33.5288 247.185 73.5863 272.988L167.319 276.451C166.803 275.207 166.274 273.941 165.737 272.654Z" fill="#C9E5FF"/>
</g>
<g filter="url(#filter3_d)">
<path fill-rule="evenodd" clip-rule="evenodd" d="M215.406 243.099C192.434 231.417 162.636 216.264 152.366 188.124C133.54 136.538 105.543 101.045 67.5587 74.6947C57.018 67.3824 50.2221 59.6465 45.65 52C21.6638 77.8688 7 112.504 7 150.564C7 230.645 71.9187 295.564 152 295.564C152.991 295.564 153.98 295.554 154.967 295.534L219.072 244.967C217.873 244.354 216.649 243.732 215.406 243.099Z" fill="#D2FFD7"/>
</g>
<g filter="url(#filter4_d)">
<path fill-rule="evenodd" clip-rule="evenodd" d="M295.652 171.217C286.004 241.94 225.361 296.434 151.99 296.434C77.6326 296.434 16.3478 240.464 7.9668 168.356C11.0664 169.538 14.305 171.157 17.7941 172.902C31.6954 179.854 49.572 188.793 78.4693 179.968C122.682 166.465 167.889 166.465 220.05 183.633C245.895 192.139 273.307 181.359 295.652 171.217Z" fill="white"/>
</g>
<path d="M90.3501 206H88.939V195.118H85.0957V193.864H94.1934V195.118H90.3501V206ZM102.046 206V200.115C102.046 199.373 101.877 198.82 101.54 198.455C101.202 198.089 100.674 197.907 99.9541 197.907C98.9967 197.907 98.2967 198.167 97.854 198.687C97.4168 199.207 97.1982 200.059 97.1982 201.244V206H95.8203V193.084H97.1982V196.994C97.1982 197.464 97.1761 197.854 97.1318 198.164H97.2148C97.486 197.727 97.8706 197.384 98.3687 197.135C98.8722 196.88 99.445 196.753 100.087 196.753C101.199 196.753 102.032 197.019 102.585 197.55C103.144 198.076 103.424 198.914 103.424 200.065V206H102.046ZM110.106 206.166C108.761 206.166 107.699 205.757 106.918 204.938C106.144 204.118 105.756 202.981 105.756 201.526C105.756 200.059 106.116 198.895 106.835 198.031C107.56 197.168 108.532 196.736 109.749 196.736C110.889 196.736 111.791 197.113 112.455 197.865C113.119 198.612 113.451 199.6 113.451 200.829V201.7H107.184C107.212 202.768 107.48 203.579 107.989 204.132C108.504 204.686 109.226 204.962 110.156 204.962C111.135 204.962 112.104 204.758 113.061 204.348V205.577C112.574 205.787 112.112 205.936 111.675 206.025C111.243 206.119 110.72 206.166 110.106 206.166ZM109.732 197.89C109.002 197.89 108.418 198.128 107.981 198.604C107.549 199.08 107.295 199.738 107.217 200.58H111.974C111.974 199.711 111.78 199.047 111.393 198.587C111.005 198.123 110.452 197.89 109.732 197.89ZM114.364 196.902H115.842L117.834 202.09C118.271 203.275 118.542 204.13 118.647 204.655H118.714C118.786 204.373 118.935 203.892 119.162 203.211C119.395 202.525 120.147 200.422 121.42 196.902H122.897L118.988 207.262C118.6 208.285 118.147 209.01 117.626 209.437C117.112 209.868 116.478 210.084 115.726 210.084C115.305 210.084 114.89 210.037 114.48 209.943V208.839C114.785 208.905 115.125 208.938 115.501 208.938C116.448 208.938 117.123 208.407 117.527 207.345L118.033 206.05L114.364 196.902ZM130.169 206H128.791V193.084H130.169V206ZM136.934 206.166C135.589 206.166 134.527 205.757 133.747 204.938C132.972 204.118 132.584 202.981 132.584 201.526C132.584 200.059 132.944 198.895 133.664 198.031C134.389 197.168 135.36 196.736 136.577 196.736C137.717 196.736 138.619 197.113 139.283 197.865C139.947 198.612 140.279 199.6 140.279 200.829V201.7H134.012C134.04 202.768 134.308 203.579 134.817 204.132C135.332 204.686 136.054 204.962 136.984 204.962C137.963 204.962 138.932 204.758 139.889 204.348V205.577C139.402 205.787 138.94 205.936 138.503 206.025C138.071 206.119 137.548 206.166 136.934 206.166ZM136.561 197.89C135.83 197.89 135.246 198.128 134.809 198.604C134.377 199.08 134.123 199.738 134.045 200.58H138.802C138.802 199.711 138.608 199.047 138.221 198.587C137.833 198.123 137.28 197.89 136.561 197.89ZM148.231 206L147.958 204.705H147.891C147.437 205.275 146.984 205.662 146.53 205.867C146.082 206.066 145.52 206.166 144.845 206.166C143.943 206.166 143.234 205.934 142.72 205.469C142.211 205.004 141.956 204.343 141.956 203.485C141.956 201.648 143.425 200.685 146.364 200.596L147.908 200.546V199.982C147.908 199.268 147.753 198.742 147.443 198.405C147.139 198.062 146.649 197.89 145.974 197.89C145.215 197.89 144.358 198.123 143.4 198.587L142.977 197.533C143.425 197.29 143.915 197.099 144.446 196.96C144.983 196.822 145.52 196.753 146.057 196.753C147.141 196.753 147.944 196.994 148.464 197.475C148.99 197.957 149.252 198.729 149.252 199.791V206H148.231ZM145.119 205.029C145.976 205.029 146.649 204.794 147.136 204.323C147.628 203.853 147.875 203.194 147.875 202.348V201.526L146.497 201.584C145.401 201.623 144.61 201.794 144.123 202.099C143.641 202.397 143.4 202.865 143.4 203.501C143.4 204 143.55 204.379 143.849 204.639C144.153 204.899 144.576 205.029 145.119 205.029ZM156.25 196.736C156.654 196.736 157.016 196.77 157.337 196.836L157.146 198.114C156.77 198.031 156.438 197.99 156.15 197.99C155.414 197.99 154.784 198.289 154.258 198.886C153.738 199.484 153.478 200.228 153.478 201.119V206H152.1V196.902H153.237L153.395 198.587H153.461C153.799 197.995 154.205 197.539 154.681 197.218C155.157 196.897 155.68 196.736 156.25 196.736ZM165.265 206V200.115C165.265 199.373 165.096 198.82 164.758 198.455C164.421 198.089 163.892 197.907 163.173 197.907C162.221 197.907 161.524 198.164 161.081 198.679C160.638 199.193 160.417 200.043 160.417 201.227V206H159.039V196.902H160.16L160.384 198.147H160.45C160.732 197.699 161.128 197.353 161.637 197.11C162.146 196.861 162.714 196.736 163.339 196.736C164.435 196.736 165.259 197.002 165.812 197.533C166.366 198.059 166.643 198.903 166.643 200.065V206H165.265ZM179.492 206L179.218 204.705H179.152C178.698 205.275 178.244 205.662 177.791 205.867C177.342 206.066 176.781 206.166 176.105 206.166C175.203 206.166 174.495 205.934 173.98 205.469C173.471 205.004 173.217 204.343 173.217 203.485C173.217 201.648 174.686 200.685 177.625 200.596L179.168 200.546V199.982C179.168 199.268 179.014 198.742 178.704 198.405C178.399 198.062 177.91 197.89 177.234 197.89C176.476 197.89 175.618 198.123 174.661 198.587L174.238 197.533C174.686 197.29 175.176 197.099 175.707 196.96C176.244 196.822 176.781 196.753 177.317 196.753C178.402 196.753 179.204 196.994 179.725 197.475C180.25 197.957 180.513 198.729 180.513 199.791V206H179.492ZM176.379 205.029C177.237 205.029 177.91 204.794 178.396 204.323C178.889 203.853 179.135 203.194 179.135 202.348V201.526L177.757 201.584C176.662 201.623 175.87 201.794 175.383 202.099C174.902 202.397 174.661 202.865 174.661 203.501C174.661 204 174.811 204.379 175.109 204.639C175.414 204.899 175.837 205.029 176.379 205.029ZM187.594 196.753C188.789 196.753 189.716 197.162 190.375 197.981C191.039 198.795 191.371 199.949 191.371 201.443C191.371 202.937 191.036 204.099 190.366 204.929C189.702 205.754 188.778 206.166 187.594 206.166C187.002 206.166 186.459 206.058 185.967 205.842C185.48 205.621 185.07 205.283 184.738 204.83H184.639L184.348 206H183.36V193.084H184.738V196.222C184.738 196.924 184.716 197.555 184.672 198.114H184.738C185.38 197.207 186.332 196.753 187.594 196.753ZM187.395 197.907C186.454 197.907 185.776 198.178 185.361 198.72C184.946 199.257 184.738 200.165 184.738 201.443C184.738 202.721 184.951 203.637 185.377 204.19C185.804 204.738 186.487 205.012 187.428 205.012C188.274 205.012 188.905 204.705 189.32 204.091C189.735 203.471 189.943 202.583 189.943 201.426C189.943 200.242 189.735 199.359 189.32 198.778C188.905 198.197 188.263 197.907 187.395 197.907ZM201.639 201.443C201.639 202.926 201.265 204.085 200.518 204.921C199.771 205.751 198.739 206.166 197.422 206.166C196.608 206.166 195.886 205.975 195.255 205.593C194.625 205.211 194.138 204.664 193.794 203.95C193.451 203.236 193.28 202.4 193.28 201.443C193.28 199.96 193.651 198.806 194.392 197.981C195.134 197.151 196.163 196.736 197.48 196.736C198.753 196.736 199.763 197.16 200.51 198.006C201.262 198.853 201.639 199.999 201.639 201.443ZM194.708 201.443C194.708 202.605 194.94 203.49 195.405 204.099C195.87 204.708 196.553 205.012 197.455 205.012C198.357 205.012 199.041 204.711 199.505 204.107C199.976 203.499 200.211 202.611 200.211 201.443C200.211 200.286 199.976 199.409 199.505 198.812C199.041 198.208 198.352 197.907 197.438 197.907C196.536 197.907 195.856 198.203 195.396 198.795C194.937 199.387 194.708 200.27 194.708 201.443ZM205.357 196.902V202.804C205.357 203.546 205.526 204.099 205.864 204.464C206.201 204.83 206.73 205.012 207.449 205.012C208.401 205.012 209.096 204.752 209.533 204.232C209.975 203.712 210.197 202.862 210.197 201.684V196.902H211.575V206H210.438L210.238 204.78H210.164C209.881 205.228 209.488 205.571 208.985 205.809C208.487 206.047 207.917 206.166 207.275 206.166C206.168 206.166 205.338 205.903 204.785 205.377C204.237 204.852 203.963 204.011 203.963 202.854V196.902H205.357ZM217.443 205.029C217.687 205.029 217.922 205.012 218.149 204.979C218.376 204.94 218.556 204.902 218.688 204.863V205.917C218.539 205.989 218.318 206.047 218.024 206.091C217.737 206.141 217.477 206.166 217.244 206.166C215.484 206.166 214.604 205.239 214.604 203.385V197.973H213.301V197.309L214.604 196.736L215.186 194.794H215.982V196.902H218.622V197.973H215.982V203.327C215.982 203.875 216.112 204.296 216.373 204.589C216.633 204.882 216.99 205.029 217.443 205.029ZM59.9609 225.771C59.9609 226.839 59.5736 227.672 58.7988 228.27C58.0241 228.867 56.9727 229.166 55.6445 229.166C54.2057 229.166 53.099 228.981 52.3242 228.61V227.249C52.8223 227.459 53.3646 227.625 53.9512 227.747C54.5378 227.868 55.1188 227.929 55.6943 227.929C56.6351 227.929 57.3434 227.752 57.8193 227.398C58.2952 227.038 58.5332 226.54 58.5332 225.904C58.5332 225.483 58.4474 225.14 58.2759 224.875C58.1099 224.603 57.8276 224.354 57.4292 224.127C57.0363 223.901 56.4359 223.643 55.6279 223.355C54.499 222.951 53.6911 222.473 53.2041 221.919C52.7227 221.366 52.4819 220.644 52.4819 219.753C52.4819 218.818 52.8333 218.073 53.5361 217.52C54.2389 216.967 55.1686 216.69 56.3252 216.69C57.5316 216.69 58.6411 216.911 59.6538 217.354L59.2139 218.583C58.2122 218.162 57.2383 217.952 56.292 217.952C55.5449 217.952 54.9611 218.112 54.5405 218.433C54.12 218.754 53.9097 219.2 53.9097 219.77C53.9097 220.19 53.9871 220.536 54.1421 220.807C54.297 221.073 54.5571 221.319 54.9224 221.546C55.2931 221.767 55.8576 222.014 56.6157 222.285C57.8885 222.738 58.7629 223.225 59.2388 223.746C59.7202 224.266 59.9609 224.941 59.9609 225.771ZM63.5303 219.902V225.804C63.5303 226.546 63.6991 227.099 64.0366 227.464C64.3742 227.83 64.9027 228.012 65.6221 228.012C66.5739 228.012 67.2684 227.752 67.7056 227.232C68.1483 226.712 68.3696 225.862 68.3696 224.684V219.902H69.7476V229H68.6104L68.4111 227.78H68.3364C68.0542 228.228 67.6613 228.571 67.1577 228.809C66.6597 229.047 66.0897 229.166 65.4478 229.166C64.341 229.166 63.5109 228.903 62.9575 228.377C62.4097 227.852 62.1357 227.011 62.1357 225.854V219.902H63.5303ZM78.5464 226.518C78.5464 227.365 78.231 228.018 77.6001 228.477C76.9692 228.936 76.0838 229.166 74.9438 229.166C73.7375 229.166 72.7967 228.975 72.1216 228.593V227.315C72.5588 227.536 73.0264 227.711 73.5244 227.838C74.028 227.965 74.5122 228.029 74.9771 228.029C75.6965 228.029 76.2498 227.915 76.6372 227.688C77.0246 227.456 77.2183 227.105 77.2183 226.634C77.2183 226.28 77.0633 225.979 76.7534 225.729C76.4491 225.475 75.8514 225.176 74.9604 224.833C74.1138 224.518 73.5106 224.244 73.1509 224.011C72.7967 223.773 72.5311 223.505 72.354 223.206C72.1825 222.907 72.0967 222.55 72.0967 222.135C72.0967 221.394 72.3983 220.81 73.0015 220.384C73.6047 219.952 74.432 219.736 75.4834 219.736C76.4629 219.736 77.4202 219.936 78.3555 220.334L77.8657 221.455C76.9526 221.078 76.1253 220.89 75.3838 220.89C74.7308 220.89 74.2383 220.993 73.9062 221.197C73.5742 221.402 73.4082 221.684 73.4082 222.044C73.4082 222.287 73.4691 222.495 73.5908 222.667C73.7181 222.838 73.9201 223.001 74.1968 223.156C74.4735 223.311 75.0047 223.535 75.7905 223.829C76.8696 224.222 77.5973 224.617 77.9736 225.016C78.3555 225.414 78.5464 225.915 78.5464 226.518ZM83.7344 228.029C83.9779 228.029 84.2131 228.012 84.4399 227.979C84.6668 227.94 84.8467 227.902 84.9795 227.863V228.917C84.8301 228.989 84.6087 229.047 84.3154 229.091C84.0277 229.141 83.7676 229.166 83.5352 229.166C81.7754 229.166 80.8955 228.239 80.8955 226.385V220.973H79.5923V220.309L80.8955 219.736L81.4766 217.794H82.2734V219.902H84.9131V220.973H82.2734V226.327C82.2734 226.875 82.4035 227.296 82.6636 227.589C82.9237 227.882 83.2806 228.029 83.7344 228.029ZM92.4004 229L92.1265 227.705H92.0601C91.6063 228.275 91.1525 228.662 90.6987 228.867C90.2505 229.066 89.6888 229.166 89.0137 229.166C88.1117 229.166 87.4033 228.934 86.8887 228.469C86.3796 228.004 86.125 227.343 86.125 226.485C86.125 224.648 87.5942 223.685 90.5327 223.596L92.0767 223.546V222.982C92.0767 222.268 91.9217 221.742 91.6118 221.405C91.3075 221.062 90.8177 220.89 90.1426 220.89C89.3844 220.89 88.5267 221.123 87.5693 221.587L87.146 220.533C87.5942 220.29 88.084 220.099 88.6152 219.96C89.152 219.822 89.6888 219.753 90.2256 219.753C91.3102 219.753 92.1126 219.994 92.6328 220.475C93.1585 220.957 93.4214 221.729 93.4214 222.791V229H92.4004ZM89.2876 228.029C90.1453 228.029 90.8177 227.794 91.3047 227.323C91.7972 226.853 92.0435 226.194 92.0435 225.348V224.526L90.6655 224.584C89.5698 224.623 88.7785 224.794 88.2915 225.099C87.8101 225.397 87.5693 225.865 87.5693 226.501C87.5693 227 87.7188 227.379 88.0176 227.639C88.3219 227.899 88.7453 228.029 89.2876 228.029ZM97.6465 229H96.2686V219.902H97.6465V229ZM96.1523 217.437C96.1523 217.122 96.2298 216.892 96.3848 216.748C96.5397 216.599 96.7334 216.524 96.9658 216.524C97.1872 216.524 97.3781 216.599 97.5386 216.748C97.6991 216.897 97.7793 217.127 97.7793 217.437C97.7793 217.747 97.6991 217.979 97.5386 218.134C97.3781 218.284 97.1872 218.358 96.9658 218.358C96.7334 218.358 96.5397 218.284 96.3848 218.134C96.2298 217.979 96.1523 217.747 96.1523 217.437ZM106.794 229V223.115C106.794 222.373 106.625 221.82 106.288 221.455C105.95 221.089 105.422 220.907 104.702 220.907C103.75 220.907 103.053 221.164 102.61 221.679C102.168 222.193 101.946 223.043 101.946 224.227V229H100.568V219.902H101.689L101.913 221.147H101.979C102.262 220.699 102.657 220.353 103.167 220.11C103.676 219.861 104.243 219.736 104.868 219.736C105.964 219.736 106.788 220.002 107.342 220.533C107.895 221.059 108.172 221.903 108.172 223.065V229H106.794ZM116.605 229L116.332 227.705H116.265C115.811 228.275 115.358 228.662 114.904 228.867C114.456 229.066 113.894 229.166 113.219 229.166C112.317 229.166 111.608 228.934 111.094 228.469C110.585 228.004 110.33 227.343 110.33 226.485C110.33 224.648 111.799 223.685 114.738 223.596L116.282 223.546V222.982C116.282 222.268 116.127 221.742 115.817 221.405C115.513 221.062 115.023 220.89 114.348 220.89C113.59 220.89 112.732 221.123 111.774 221.587L111.351 220.533C111.799 220.29 112.289 220.099 112.82 219.96C113.357 219.822 113.894 219.753 114.431 219.753C115.515 219.753 116.318 219.994 116.838 220.475C117.364 220.957 117.626 221.729 117.626 222.791V229H116.605ZM113.493 228.029C114.35 228.029 115.023 227.794 115.51 227.323C116.002 226.853 116.249 226.194 116.249 225.348V224.526L114.871 224.584C113.775 224.623 112.984 224.794 112.497 225.099C112.015 225.397 111.774 225.865 111.774 226.501C111.774 227 111.924 227.379 112.223 227.639C112.527 227.899 112.95 228.029 113.493 228.029ZM124.707 219.753C125.902 219.753 126.829 220.162 127.488 220.981C128.152 221.795 128.484 222.949 128.484 224.443C128.484 225.937 128.149 227.099 127.479 227.929C126.815 228.754 125.891 229.166 124.707 229.166C124.115 229.166 123.573 229.058 123.08 228.842C122.593 228.621 122.184 228.283 121.852 227.83H121.752L121.461 229H120.474V216.084H121.852V219.222C121.852 219.924 121.829 220.555 121.785 221.114H121.852C122.493 220.207 123.445 219.753 124.707 219.753ZM124.508 220.907C123.567 220.907 122.889 221.178 122.474 221.72C122.059 222.257 121.852 223.165 121.852 224.443C121.852 225.721 122.065 226.637 122.491 227.19C122.917 227.738 123.6 228.012 124.541 228.012C125.388 228.012 126.019 227.705 126.434 227.091C126.849 226.471 127.056 225.583 127.056 224.426C127.056 223.242 126.849 222.359 126.434 221.778C126.019 221.197 125.377 220.907 124.508 220.907ZM132.277 229H130.899V216.084H132.277V229ZM139.042 229.166C137.698 229.166 136.635 228.757 135.855 227.938C135.08 227.118 134.693 225.981 134.693 224.526C134.693 223.059 135.053 221.895 135.772 221.031C136.497 220.168 137.468 219.736 138.686 219.736C139.826 219.736 140.728 220.113 141.392 220.865C142.056 221.612 142.388 222.6 142.388 223.829V224.7H136.121C136.148 225.768 136.417 226.579 136.926 227.132C137.44 227.686 138.163 227.962 139.092 227.962C140.072 227.962 141.04 227.758 141.998 227.348V228.577C141.511 228.787 141.049 228.936 140.611 229.025C140.18 229.119 139.657 229.166 139.042 229.166ZM138.669 220.89C137.938 220.89 137.355 221.128 136.917 221.604C136.486 222.08 136.231 222.738 136.154 223.58H140.91C140.91 222.711 140.716 222.047 140.329 221.587C139.942 221.123 139.388 220.89 138.669 220.89ZM155.354 227.78H155.279C154.642 228.704 153.691 229.166 152.423 229.166C151.234 229.166 150.307 228.759 149.643 227.946C148.984 227.132 148.655 225.976 148.655 224.476C148.655 222.976 148.987 221.812 149.651 220.981C150.315 220.151 151.239 219.736 152.423 219.736C153.657 219.736 154.604 220.185 155.262 221.081H155.37L155.312 220.425L155.279 219.786V216.084H156.657V229H155.536L155.354 227.78ZM152.598 228.012C153.538 228.012 154.219 227.758 154.64 227.249C155.066 226.734 155.279 225.907 155.279 224.767V224.476C155.279 223.187 155.063 222.268 154.631 221.72C154.205 221.167 153.522 220.89 152.581 220.89C151.773 220.89 151.153 221.206 150.722 221.836C150.296 222.462 150.083 223.347 150.083 224.493C150.083 225.655 150.296 226.532 150.722 227.124C151.148 227.716 151.773 228.012 152.598 228.012ZM163.43 229.166C162.085 229.166 161.023 228.757 160.243 227.938C159.468 227.118 159.081 225.981 159.081 224.526C159.081 223.059 159.44 221.895 160.16 221.031C160.885 220.168 161.856 219.736 163.073 219.736C164.213 219.736 165.115 220.113 165.779 220.865C166.443 221.612 166.775 222.6 166.775 223.829V224.7H160.508C160.536 225.768 160.804 226.579 161.313 227.132C161.828 227.686 162.55 227.962 163.48 227.962C164.459 227.962 165.428 227.758 166.385 227.348V228.577C165.898 228.787 165.436 228.936 164.999 229.025C164.567 229.119 164.044 229.166 163.43 229.166ZM163.057 220.89C162.326 220.89 161.742 221.128 161.305 221.604C160.874 222.08 160.619 222.738 160.542 223.58H165.298C165.298 222.711 165.104 222.047 164.717 221.587C164.329 221.123 163.776 220.89 163.057 220.89ZM171.125 229L167.672 219.902H169.149L171.108 225.298C171.551 226.56 171.811 227.379 171.889 227.755H171.955C172.016 227.462 172.207 226.856 172.528 225.937C172.854 225.013 173.582 223.001 174.711 219.902H176.188L172.735 229H171.125ZM181.493 229.166C180.148 229.166 179.085 228.757 178.305 227.938C177.53 227.118 177.143 225.981 177.143 224.526C177.143 223.059 177.503 221.895 178.222 221.031C178.947 220.168 179.918 219.736 181.136 219.736C182.276 219.736 183.178 220.113 183.842 220.865C184.506 221.612 184.838 222.6 184.838 223.829V224.7H178.571C178.598 225.768 178.867 226.579 179.376 227.132C179.891 227.686 180.613 227.962 181.542 227.962C182.522 227.962 183.49 227.758 184.448 227.348V228.577C183.961 228.787 183.499 228.936 183.062 229.025C182.63 229.119 182.107 229.166 181.493 229.166ZM181.119 220.89C180.389 220.89 179.805 221.128 179.368 221.604C178.936 222.08 178.681 222.738 178.604 223.58H183.36C183.36 222.711 183.167 222.047 182.779 221.587C182.392 221.123 181.839 220.89 181.119 220.89ZM188.573 229H187.195V216.084H188.573V229ZM199.348 224.443C199.348 225.926 198.974 227.085 198.227 227.921C197.48 228.751 196.448 229.166 195.131 229.166C194.317 229.166 193.595 228.975 192.964 228.593C192.333 228.211 191.847 227.664 191.503 226.95C191.16 226.236 190.989 225.4 190.989 224.443C190.989 222.96 191.36 221.806 192.101 220.981C192.843 220.151 193.872 219.736 195.189 219.736C196.462 219.736 197.472 220.16 198.219 221.006C198.971 221.853 199.348 222.999 199.348 224.443ZM192.417 224.443C192.417 225.605 192.649 226.49 193.114 227.099C193.579 227.708 194.262 228.012 195.164 228.012C196.066 228.012 196.75 227.711 197.214 227.107C197.685 226.499 197.92 225.611 197.92 224.443C197.92 223.286 197.685 222.409 197.214 221.812C196.75 221.208 196.061 220.907 195.147 220.907C194.245 220.907 193.565 221.203 193.105 221.795C192.646 222.387 192.417 223.27 192.417 224.443ZM206.005 229.166C205.413 229.166 204.87 229.058 204.378 228.842C203.891 228.621 203.481 228.283 203.149 227.83H203.05C203.116 228.361 203.149 228.864 203.149 229.34V233.084H201.771V219.902H202.892L203.083 221.147H203.149C203.504 220.649 203.916 220.29 204.386 220.068C204.857 219.847 205.396 219.736 206.005 219.736C207.211 219.736 208.141 220.149 208.794 220.973C209.452 221.798 209.782 222.954 209.782 224.443C209.782 225.937 209.447 227.099 208.777 227.929C208.113 228.754 207.189 229.166 206.005 229.166ZM205.806 220.907C204.876 220.907 204.204 221.164 203.789 221.679C203.374 222.193 203.16 223.012 203.149 224.136V224.443C203.149 225.721 203.362 226.637 203.789 227.19C204.215 227.738 204.898 228.012 205.839 228.012C206.625 228.012 207.239 227.694 207.682 227.058C208.13 226.421 208.354 225.544 208.354 224.426C208.354 223.292 208.13 222.423 207.682 221.82C207.239 221.211 206.614 220.907 205.806 220.907ZM223.793 229V223.082C223.793 222.357 223.639 221.814 223.329 221.455C223.019 221.089 222.537 220.907 221.884 220.907C221.027 220.907 220.393 221.153 219.983 221.646C219.574 222.138 219.369 222.896 219.369 223.92V229H217.991V223.082C217.991 222.357 217.836 221.814 217.526 221.455C217.216 221.089 216.732 220.907 216.074 220.907C215.21 220.907 214.577 221.167 214.173 221.687C213.774 222.202 213.575 223.048 213.575 224.227V229H212.197V219.902H213.318L213.542 221.147H213.608C213.868 220.705 214.234 220.359 214.704 220.11C215.18 219.861 215.711 219.736 216.298 219.736C217.72 219.736 218.65 220.251 219.087 221.28H219.153C219.424 220.804 219.817 220.428 220.332 220.151C220.847 219.875 221.433 219.736 222.092 219.736C223.121 219.736 223.89 220.002 224.399 220.533C224.914 221.059 225.171 221.903 225.171 223.065V229H223.793ZM231.862 229.166C230.517 229.166 229.455 228.757 228.674 227.938C227.9 227.118 227.512 225.981 227.512 224.526C227.512 223.059 227.872 221.895 228.591 221.031C229.316 220.168 230.287 219.736 231.505 219.736C232.645 219.736 233.547 220.113 234.211 220.865C234.875 221.612 235.207 222.6 235.207 223.829V224.7H228.94C228.968 225.768 229.236 226.579 229.745 227.132C230.26 227.686 230.982 227.962 231.912 227.962C232.891 227.962 233.86 227.758 234.817 227.348V228.577C234.33 228.787 233.868 228.936 233.431 229.025C232.999 229.119 232.476 229.166 231.862 229.166ZM231.488 220.89C230.758 220.89 230.174 221.128 229.737 221.604C229.305 222.08 229.051 222.738 228.973 223.58H233.729C233.729 222.711 233.536 222.047 233.148 221.587C232.761 221.123 232.208 220.89 231.488 220.89ZM243.79 229V223.115C243.79 222.373 243.621 221.82 243.284 221.455C242.946 221.089 242.418 220.907 241.698 220.907C240.746 220.907 240.049 221.164 239.606 221.679C239.164 222.193 238.942 223.043 238.942 224.227V229H237.564V219.902H238.685L238.909 221.147H238.976C239.258 220.699 239.653 220.353 240.163 220.11C240.672 219.861 241.239 219.736 241.864 219.736C242.96 219.736 243.785 220.002 244.338 220.533C244.891 221.059 245.168 221.903 245.168 223.065V229H243.79ZM250.945 228.029C251.189 228.029 251.424 228.012 251.651 227.979C251.878 227.94 252.058 227.902 252.19 227.863V228.917C252.041 228.989 251.82 229.047 251.526 229.091C251.239 229.141 250.979 229.166 250.746 229.166C248.986 229.166 248.106 228.239 248.106 226.385V220.973H246.803V220.309L248.106 219.736L248.688 217.794H249.484V219.902H252.124V220.973H249.484V226.327C249.484 226.875 249.614 227.296 249.875 227.589C250.135 227.882 250.492 228.029 250.945 228.029ZM81.9663 252L81.6924 250.705H81.626C81.1722 251.275 80.7184 251.662 80.2646 251.867C79.8164 252.066 79.2547 252.166 78.5796 252.166C77.6776 252.166 76.9692 251.934 76.4546 251.469C75.9455 251.004 75.6909 250.343 75.6909 249.485C75.6909 247.648 77.1602 246.685 80.0986 246.596L81.6426 246.546V245.982C81.6426 245.268 81.4876 244.742 81.1777 244.405C80.8734 244.062 80.3836 243.89 79.7085 243.89C78.9504 243.89 78.0926 244.123 77.1353 244.587L76.7119 243.533C77.1602 243.29 77.6499 243.099 78.1812 242.96C78.7179 242.822 79.2547 242.753 79.7915 242.753C80.8761 242.753 81.6785 242.994 82.1987 243.475C82.7244 243.957 82.9873 244.729 82.9873 245.791V252H81.9663ZM78.8535 251.029C79.7113 251.029 80.3836 250.794 80.8706 250.323C81.3631 249.853 81.6094 249.194 81.6094 248.348V247.526L80.2314 247.584C79.1357 247.623 78.3444 247.794 77.8574 248.099C77.376 248.397 77.1353 248.865 77.1353 249.501C77.1353 250 77.2847 250.379 77.5835 250.639C77.8879 250.899 78.3112 251.029 78.8535 251.029ZM92.0601 252V246.115C92.0601 245.373 91.8913 244.82 91.5537 244.455C91.2161 244.089 90.6877 243.907 89.9683 243.907C89.0164 243.907 88.3192 244.164 87.8765 244.679C87.4338 245.193 87.2124 246.043 87.2124 247.227V252H85.8345V242.902H86.9551L87.1792 244.147H87.2456C87.5278 243.699 87.9235 243.353 88.4326 243.11C88.9417 242.861 89.509 242.736 90.1343 242.736C91.23 242.736 92.0545 243.002 92.6079 243.533C93.1613 244.059 93.438 244.903 93.438 246.065V252H92.0601ZM102.469 250.78H102.395C101.758 251.704 100.806 252.166 99.5391 252.166C98.3493 252.166 97.4224 251.759 96.7583 250.946C96.0998 250.132 95.7705 248.976 95.7705 247.476C95.7705 245.976 96.1025 244.812 96.7666 243.981C97.4307 243.151 98.3548 242.736 99.5391 242.736C100.773 242.736 101.719 243.185 102.378 244.081H102.486L102.428 243.425L102.395 242.786V239.084H103.772V252H102.652L102.469 250.78ZM99.7134 251.012C100.654 251.012 101.335 250.758 101.755 250.249C102.181 249.734 102.395 248.907 102.395 247.767V247.476C102.395 246.187 102.179 245.268 101.747 244.72C101.321 244.167 100.638 243.89 99.6968 243.89C98.8888 243.89 98.269 244.206 97.8374 244.836C97.4113 245.462 97.1982 246.347 97.1982 247.493C97.1982 248.655 97.4113 249.532 97.8374 250.124C98.2635 250.716 98.8888 251.012 99.7134 251.012ZM118.548 252L116.879 246.663C116.774 246.336 116.578 245.595 116.29 244.438H116.224C116.002 245.406 115.809 246.153 115.643 246.679L113.924 252H112.331L109.849 242.902H111.293C111.88 245.188 112.325 246.928 112.629 248.124C112.939 249.319 113.116 250.124 113.161 250.539H113.227C113.288 250.224 113.385 249.817 113.518 249.319C113.656 248.815 113.775 248.417 113.875 248.124L115.543 242.902H117.037L118.664 248.124C118.974 249.075 119.184 249.875 119.295 250.522H119.361C119.383 250.323 119.442 250.016 119.536 249.601C119.635 249.186 120.214 246.953 121.271 242.902H122.698L120.183 252H118.548ZM130.576 252V246.115C130.576 245.373 130.407 244.82 130.069 244.455C129.732 244.089 129.203 243.907 128.484 243.907C127.527 243.907 126.826 244.167 126.384 244.687C125.947 245.207 125.728 246.059 125.728 247.244V252H124.35V239.084H125.728V242.994C125.728 243.464 125.706 243.854 125.662 244.164H125.745C126.016 243.727 126.4 243.384 126.898 243.135C127.402 242.88 127.975 242.753 128.617 242.753C129.729 242.753 130.562 243.019 131.115 243.55C131.674 244.076 131.954 244.914 131.954 246.065V252H130.576ZM133.348 242.902H134.826L136.818 248.09C137.255 249.275 137.526 250.13 137.631 250.655H137.698C137.77 250.373 137.919 249.892 138.146 249.211C138.378 248.525 139.131 246.422 140.404 242.902H141.881L137.972 253.262C137.584 254.285 137.131 255.01 136.61 255.437C136.096 255.868 135.462 256.084 134.709 256.084C134.289 256.084 133.874 256.037 133.464 255.943V254.839C133.769 254.905 134.109 254.938 134.485 254.938C135.432 254.938 136.107 254.407 136.511 253.345L137.017 252.05L133.348 242.902ZM149.153 252H147.775V242.902H149.153V252ZM147.659 240.437C147.659 240.122 147.736 239.892 147.891 239.748C148.046 239.599 148.24 239.524 148.472 239.524C148.694 239.524 148.884 239.599 149.045 239.748C149.205 239.897 149.286 240.127 149.286 240.437C149.286 240.747 149.205 240.979 149.045 241.134C148.884 241.284 148.694 241.358 148.472 241.358C148.24 241.358 148.046 241.284 147.891 241.134C147.736 240.979 147.659 240.747 147.659 240.437ZM155.013 251.029C155.257 251.029 155.492 251.012 155.719 250.979C155.946 250.94 156.125 250.902 156.258 250.863V251.917C156.109 251.989 155.888 252.047 155.594 252.091C155.306 252.141 155.046 252.166 154.814 252.166C153.054 252.166 152.174 251.239 152.174 249.385V243.973H150.871V243.309L152.174 242.736L152.755 240.794H153.552V242.902H156.192V243.973H153.552V249.327C153.552 249.875 153.682 250.296 153.942 250.589C154.202 250.882 154.559 251.029 155.013 251.029ZM163.953 249.518C163.953 250.365 163.638 251.018 163.007 251.477C162.376 251.936 161.491 252.166 160.351 252.166C159.144 252.166 158.203 251.975 157.528 251.593V250.315C157.965 250.536 158.433 250.711 158.931 250.838C159.435 250.965 159.919 251.029 160.384 251.029C161.103 251.029 161.657 250.915 162.044 250.688C162.431 250.456 162.625 250.105 162.625 249.634C162.625 249.28 162.47 248.979 162.16 248.729C161.856 248.475 161.258 248.176 160.367 247.833C159.521 247.518 158.917 247.244 158.558 247.011C158.203 246.773 157.938 246.505 157.761 246.206C157.589 245.907 157.503 245.55 157.503 245.135C157.503 244.394 157.805 243.81 158.408 243.384C159.011 242.952 159.839 242.736 160.89 242.736C161.87 242.736 162.827 242.936 163.762 243.334L163.272 244.455C162.359 244.078 161.532 243.89 160.791 243.89C160.138 243.89 159.645 243.993 159.313 244.197C158.981 244.402 158.815 244.684 158.815 245.044C158.815 245.287 158.876 245.495 158.998 245.667C159.125 245.838 159.327 246.001 159.604 246.156C159.88 246.311 160.411 246.535 161.197 246.829C162.276 247.222 163.004 247.617 163.38 248.016C163.762 248.414 163.953 248.915 163.953 249.518ZM176.844 252V246.115C176.844 245.373 176.675 244.82 176.338 244.455C176 244.089 175.472 243.907 174.752 243.907C173.801 243.907 173.103 244.164 172.661 244.679C172.218 245.193 171.997 246.043 171.997 247.227V252H170.619V242.902H171.739L171.963 244.147H172.03C172.312 243.699 172.708 243.353 173.217 243.11C173.726 242.861 174.293 242.736 174.918 242.736C176.014 242.736 176.839 243.002 177.392 243.533C177.945 244.059 178.222 244.903 178.222 246.065V252H176.844ZM184.904 252.166C183.56 252.166 182.497 251.757 181.717 250.938C180.942 250.118 180.555 248.981 180.555 247.526C180.555 246.059 180.914 244.895 181.634 244.031C182.359 243.168 183.33 242.736 184.547 242.736C185.687 242.736 186.589 243.113 187.253 243.865C187.917 244.612 188.25 245.6 188.25 246.829V247.7H181.982C182.01 248.768 182.278 249.579 182.788 250.132C183.302 250.686 184.024 250.962 184.954 250.962C185.934 250.962 186.902 250.758 187.859 250.348V251.577C187.372 251.787 186.91 251.936 186.473 252.025C186.042 252.119 185.519 252.166 184.904 252.166ZM184.531 243.89C183.8 243.89 183.216 244.128 182.779 244.604C182.348 245.08 182.093 245.738 182.016 246.58H186.772C186.772 245.711 186.578 245.047 186.191 244.587C185.804 244.123 185.25 243.89 184.531 243.89ZM194.45 252.166C193.105 252.166 192.043 251.757 191.263 250.938C190.488 250.118 190.101 248.981 190.101 247.526C190.101 246.059 190.46 244.895 191.18 244.031C191.905 243.168 192.876 242.736 194.093 242.736C195.233 242.736 196.135 243.113 196.799 243.865C197.463 244.612 197.795 245.6 197.795 246.829V247.7H191.528C191.556 248.768 191.824 249.579 192.333 250.132C192.848 250.686 193.57 250.962 194.5 250.962C195.479 250.962 196.448 250.758 197.405 250.348V251.577C196.918 251.787 196.456 251.936 196.019 252.025C195.587 252.119 195.064 252.166 194.45 252.166ZM194.077 243.89C193.346 243.89 192.762 244.128 192.325 244.604C191.894 245.08 191.639 245.738 191.562 246.58H196.318C196.318 245.711 196.124 245.047 195.737 244.587C195.349 244.123 194.796 243.89 194.077 243.89ZM206.345 250.78H206.271C205.634 251.704 204.682 252.166 203.415 252.166C202.225 252.166 201.298 251.759 200.634 250.946C199.976 250.132 199.646 248.976 199.646 247.476C199.646 245.976 199.979 244.812 200.643 243.981C201.307 243.151 202.231 242.736 203.415 242.736C204.649 242.736 205.595 243.185 206.254 244.081H206.362L206.304 243.425L206.271 242.786V239.084H207.648V252H206.528L206.345 250.78ZM203.589 251.012C204.53 251.012 205.211 250.758 205.631 250.249C206.057 249.734 206.271 248.907 206.271 247.767V247.476C206.271 246.187 206.055 245.268 205.623 244.72C205.197 244.167 204.514 243.89 203.573 243.89C202.765 243.89 202.145 244.206 201.713 244.836C201.287 245.462 201.074 246.347 201.074 247.493C201.074 248.655 201.287 249.532 201.713 250.124C202.139 250.716 202.765 251.012 203.589 251.012ZM214.422 252.166C213.077 252.166 212.015 251.757 211.234 250.938C210.46 250.118 210.072 248.981 210.072 247.526C210.072 246.059 210.432 244.895 211.151 244.031C211.876 243.168 212.847 242.736 214.065 242.736C215.205 242.736 216.107 243.113 216.771 243.865C217.435 244.612 217.767 245.6 217.767 246.829V247.7H211.5C211.528 248.768 211.796 249.579 212.305 250.132C212.82 250.686 213.542 250.962 214.472 250.962C215.451 250.962 216.42 250.758 217.377 250.348V251.577C216.89 251.787 216.428 251.936 215.991 252.025C215.559 252.119 215.036 252.166 214.422 252.166ZM214.048 243.89C213.318 243.89 212.734 244.128 212.297 244.604C211.865 245.08 211.611 245.738 211.533 246.58H216.29C216.29 245.711 216.096 245.047 215.708 244.587C215.321 244.123 214.768 243.89 214.048 243.89ZM226.317 250.78H226.242C225.606 251.704 224.654 252.166 223.387 252.166C222.197 252.166 221.27 251.759 220.606 250.946C219.947 250.132 219.618 248.976 219.618 247.476C219.618 245.976 219.95 244.812 220.614 243.981C221.278 243.151 222.202 242.736 223.387 242.736C224.621 242.736 225.567 243.185 226.226 244.081H226.333L226.275 243.425L226.242 242.786V239.084H227.62V252H226.5L226.317 250.78ZM223.561 251.012C224.502 251.012 225.182 250.758 225.603 250.249C226.029 249.734 226.242 248.907 226.242 247.767V247.476C226.242 246.187 226.026 245.268 225.595 244.72C225.169 244.167 224.485 243.89 223.544 243.89C222.736 243.89 222.117 244.206 221.685 244.836C221.259 245.462 221.046 246.347 221.046 247.493C221.046 248.655 221.259 249.532 221.685 250.124C222.111 250.716 222.736 251.012 223.561 251.012Z" fill="black"/>
<path d="M209.882 76.1554C209.882 76.1554 209.882 76.107 209.882 76.1554C209.882 76.0103 209.834 75.9135 209.834 75.8168V75.7684C209.834 75.7201 209.786 75.6233 209.786 75.575C209.689 75.188 209.544 74.8495 209.302 74.5109C209.254 74.4625 209.205 74.3658 209.157 74.3174C209.157 74.269 209.109 74.2691 209.109 74.2207C209.06 74.1723 209.06 74.1723 209.012 74.124C208.963 74.0756 208.915 74.0272 208.867 73.9789C208.867 73.9789 208.867 73.9788 208.818 73.9305C208.577 73.6886 208.286 73.4952 207.948 73.3017C207.851 73.2533 207.803 73.205 207.706 73.205C207.609 73.1566 207.512 73.1082 207.367 73.1082C207.271 73.0599 207.126 73.0599 207.029 73.0115L189.23 69.4807C187.295 69.0937 185.457 70.3513 185.07 72.2376C184.683 74.1723 185.941 76.0103 187.827 76.3972L202.821 79.3476V84.3295C202.821 86.2641 204.417 87.8603 206.352 87.8603C208.286 87.8603 209.882 86.2641 209.882 84.3295V76.4456C209.882 76.3489 209.882 76.2521 209.882 76.1554Z" fill="#DFC900"/>
<path d="M212.445 62.3709C212.204 62.3709 212.01 62.3708 211.768 62.3225L187.875 57.6308C185.94 57.2439 184.731 55.406 185.118 53.4713C185.505 51.5366 187.343 50.3274 189.277 50.7143L213.171 55.406C215.106 55.7929 216.315 57.6308 215.928 59.5655C215.589 61.21 214.09 62.3709 212.445 62.3709Z" fill="#DFC900"/>
<path d="M212.447 52.9389C212.205 52.9389 212.011 52.9389 211.769 52.8905L197.017 49.9885C195.083 49.6016 193.874 47.7636 194.26 45.8289C194.647 43.8942 196.485 42.685 198.42 43.072L213.172 45.974C215.107 46.361 216.316 48.1989 215.929 50.1336C215.59 51.7781 214.091 52.9389 212.447 52.9389Z" fill="#DFC900"/>
<path d="M212.445 71.8023C212.204 71.8023 212.01 71.8022 211.768 71.7539L187.875 67.0622C185.94 66.6753 184.731 64.8374 185.118 62.9027C185.505 60.968 187.343 59.7588 189.277 60.1457L213.171 64.8374C215.106 65.2243 216.315 67.0622 215.928 68.9969C215.589 70.6414 214.09 71.8023 212.445 71.8023Z" fill="#DFC900"/>
<path d="M188.552 57.6306C186.907 57.6306 185.408 56.4698 185.118 54.777C184.731 52.8423 185.989 51.0043 187.875 50.6174L211.768 45.9257C213.703 45.5388 215.541 46.7963 215.928 48.6827C216.315 50.6174 215.057 52.4553 213.171 52.8423L189.277 57.5339C188.987 57.6306 188.794 57.6306 188.552 57.6306Z" fill="#FFEE56"/>
<path d="M188.552 67.0623C186.907 67.0623 185.408 65.9015 185.118 64.2086C184.731 62.2739 185.989 60.4359 187.875 60.049L211.768 55.3574C213.703 54.9705 215.541 56.228 215.928 58.1143C216.315 60.049 215.057 61.887 213.171 62.2739L189.277 66.9655C188.987 67.0623 188.794 67.0623 188.552 67.0623Z" fill="#FFEE56"/>
<path d="M215.879 67.5943C215.492 65.6596 213.654 64.4504 211.72 64.8374L187.826 69.529C187.73 69.529 187.584 69.5774 187.488 69.6257C187.391 69.6741 187.294 69.6741 187.197 69.7225C187.149 69.7225 187.101 69.7708 187.052 69.7708C186.811 69.8676 186.569 70.0127 186.375 70.2061L186.327 70.2545C186.279 70.3029 186.23 70.3512 186.182 70.3996C186.133 70.448 186.085 70.448 186.085 70.4963C186.037 70.5447 186.037 70.5447 185.988 70.5931C185.94 70.6415 185.892 70.6898 185.843 70.7865C185.843 70.7865 185.843 70.7866 185.843 70.8349C185.601 71.1251 185.456 71.4153 185.311 71.7539C185.263 71.8506 185.263 71.899 185.214 71.9957V72.0441C185.166 72.1408 185.166 72.2376 185.118 72.3343V72.3827C185.118 72.4794 185.069 72.5761 185.069 72.6729C185.069 72.7212 185.069 72.7696 185.069 72.818C185.069 72.8663 185.069 72.9631 185.069 73.0115C185.069 73.0598 185.069 73.1565 185.069 73.2049C185.069 73.2533 185.069 73.3016 185.069 73.35C185.069 73.4467 185.118 73.5435 185.118 73.6402V73.6886C185.166 73.882 185.214 74.0755 185.263 74.2206C185.263 74.2206 185.263 74.269 185.311 74.269C185.36 74.4141 185.456 74.6076 185.553 74.7527C185.553 74.801 185.601 74.801 185.601 74.8494C185.698 74.9945 185.795 75.1396 185.892 75.2363L185.94 75.2847C186.037 75.4298 186.182 75.5266 186.327 75.6717C186.472 75.7684 186.617 75.9135 186.762 75.9619C186.762 75.9619 186.762 75.9619 186.811 75.9619C186.956 76.0586 187.149 76.107 187.294 76.2037C187.343 76.2037 187.343 76.2037 187.391 76.252C187.536 76.3004 187.681 76.3488 187.875 76.3972H187.923L191.067 77.0259V84.1359C191.067 86.0706 192.663 87.6667 194.598 87.6667C196.532 87.6667 198.129 86.0706 198.129 84.1359V74.6076L213.122 71.6571C215.057 71.3186 216.266 69.4806 215.879 67.5943Z" fill="#FFEE56"/>
<path d="M189.182 82.2498V90.0853C189.182 90.3755 189.278 90.6658 189.472 90.9076L193.099 95.6476C193.341 95.9862 193.777 96.1796 194.212 96.1796H206.787C207.223 96.1796 207.61 95.9862 207.9 95.6476L211.527 90.9076C211.721 90.6658 211.818 90.3755 211.818 90.0853V82.2498C211.818 81.476 211.189 80.8472 210.415 80.8472H190.536C189.81 80.8472 189.182 81.476 189.182 82.2498Z" fill="#FFEE56"/>
<path d="M206.786 97.8239H194.211C193.776 97.8239 193.389 97.4854 193.389 97.0017C193.389 96.5664 193.727 96.1794 194.211 96.1794H206.786C207.222 96.1794 207.609 96.518 207.609 97.0017C207.609 97.4854 207.222 97.8239 206.786 97.8239Z" fill="#FFEE56"/>
<path d="M206.786 99.4684H194.211C193.776 99.4684 193.389 99.1299 193.389 98.6462C193.389 98.2109 193.727 97.824 194.211 97.824H206.786C207.222 97.824 207.609 98.1626 207.609 98.6462C207.609 99.0815 207.222 99.4684 206.786 99.4684Z" fill="#FFEE56"/>
<path d="M206.786 101.113H194.211C193.776 101.113 193.389 100.774 193.389 100.291C193.389 99.8552 193.727 99.4683 194.211 99.4683H206.786C207.222 99.4683 207.609 99.8068 207.609 100.291C207.609 100.726 207.222 101.113 206.786 101.113Z" fill="#FFEE56"/>
<path d="M206.786 102.709H194.211C193.776 102.709 193.389 102.371 193.389 101.887C193.389 101.452 193.727 101.065 194.211 101.065H206.786C207.222 101.065 207.609 101.403 207.609 101.887C207.609 102.371 207.222 102.709 206.786 102.709Z" fill="#FFEE56"/>
<path d="M201.321 104.45H199.676C199.241 104.45 198.806 104.305 198.515 104.015L197.161 102.757H203.836L202.482 104.015C202.191 104.256 201.756 104.45 201.321 104.45Z" fill="#C2B53C"/>
<path d="M193.389 101.887C193.389 102.322 193.727 102.709 194.211 102.709H206.786C207.222 102.709 207.609 102.37 207.609 101.887H193.389Z" fill="#FFEE56"/>
<path d="M193.389 100.291C193.389 100.726 193.727 101.113 194.211 101.113H206.786C207.222 101.113 207.609 100.774 207.609 100.291H193.389Z" fill="#FFEE56"/>
<path d="M193.389 98.646C193.389 99.0813 193.727 99.4682 194.211 99.4682H206.786C207.222 99.4682 207.609 99.1297 207.609 98.646H193.389Z" fill="#FFEE56"/>
<path d="M193.389 97.0017C193.389 97.437 193.727 97.824 194.211 97.824H206.786C207.222 97.824 207.609 97.4854 207.609 97.0017H193.389Z" fill="#FFEE56"/>
<path d="M189.472 90.9072L193.099 95.6472C193.341 95.9858 193.777 96.1792 194.212 96.1792H206.787C207.223 96.1792 207.61 95.9858 207.9 95.6472L211.527 90.9072C211.721 90.6654 211.818 90.3752 211.818 90.085H189.182C189.182 90.3752 189.278 90.6654 189.472 90.9072Z" fill="#FFEE56"/>
<path d="M127 99.0627C114.308 99.0627 104 88.7542 104 76.0627C104 60.0458 124.617 35.8265 125.504 34.7735L127 33L128.496 34.7735C129.383 35.7711 150 60.0458 150 76.0627C150 88.7542 139.692 99.0627 127 99.0627Z" fill="#8CC2F3"/>
<path d="M148.004 78.5564C148.004 90.1396 138.582 99.5613 126.999 99.5613C115.416 99.5613 105.994 90.1396 105.994 78.5564C105.994 63.0938 126.999 38.542 126.999 38.542C126.999 38.542 148.004 63.0938 148.004 78.5564Z" fill="#CCE7FF"/>
<path d="M148.004 76.0625C148.004 87.6457 138.582 97.0674 126.999 97.0674C115.416 97.0674 105.994 87.6457 105.994 76.0625C105.994 60.5999 126.999 36.0481 126.999 36.0481C126.999 36.0481 148.004 60.5999 148.004 76.0625Z" fill="#AED8FF"/>
<path d="M126.999 93.2433C117.522 93.2433 109.818 85.5397 109.818 76.0625C109.818 75.2312 110.483 74.5662 111.315 74.5662C112.146 74.5662 112.811 75.2312 112.811 76.0625C112.811 83.877 119.185 90.2505 126.999 90.2505C127.83 90.2505 128.495 90.9156 128.495 91.7469C128.495 92.5782 127.83 93.2433 126.999 93.2433Z" fill="#D8E5FF"/>
<path d="M65.168 154.99L69.2105 164.314H89.4234L78.6649 145.666H69.2105L65.168 154.99Z" fill="#50E85F"/>
<path d="M60.0159 154.99L64.0585 145.666H55.5169H34L44.7585 164.314H64.0585L60.0159 154.99Z" fill="#39994E"/>
<path d="M54.2129 129.299L44.1064 128.191L34 145.665H55.5169L60.2115 137.45L54.2129 129.299Z" fill="#50E85F"/>
<path d="M56.8213 124.8L62.8199 132.951L67.1233 125.583L77.8165 107H56.3648L46.7148 123.692L56.8213 124.8Z" fill="#39994E"/>
<path d="M81.9241 132.625L87.9227 124.474L77.8163 107L67.123 125.583L71.8177 133.798L81.9241 132.625Z" fill="#50E85F"/>
<path d="M84.5332 137.124L74.4268 138.297L78.6649 145.665L89.4234 164.313L100.182 145.665L90.5318 128.973L84.5332 137.124Z" fill="#39994E"/>
<path d="M268.366 157.208H219.469C218.342 157.208 217.403 156.269 217.403 155.142V155.079C217.403 153.953 218.342 153.013 219.469 153.013H268.366C269.493 153.013 270.432 153.953 270.432 155.079V155.142C270.432 156.332 269.493 157.208 268.366 157.208Z" fill="#615E5E"/>
<path d="M278.197 157.208H275.004C273.877 157.208 272.938 156.269 272.938 155.142V155.079C272.938 153.953 273.877 153.013 275.004 153.013H278.197C279.324 153.013 280.263 153.953 280.263 155.079V155.142C280.263 156.332 279.324 157.208 278.197 157.208Z" fill="#615E5E"/>
<path d="M230.864 165.159H203.066C201.939 165.159 201 164.22 201 163.093V163.031C201 161.904 201.939 160.965 203.066 160.965H230.864C231.991 160.965 232.93 161.904 232.93 163.031V163.093C232.93 164.22 231.991 165.159 230.864 165.159Z" fill="#615E5E"/>
<path d="M266.988 165.159H237.813C236.686 165.159 235.747 164.22 235.747 163.093V163.031C235.747 161.904 236.686 160.965 237.813 160.965H266.988C268.115 160.965 269.054 161.904 269.054 163.031V163.093C269.117 164.22 268.178 165.159 266.988 165.159Z" fill="#615E5E"/>
<path d="M272.749 140.492H219.345L232.805 109H286.147L272.749 140.492Z" fill="#EEEEEE"/>
<path d="M228.11 123.838L249.46 110.44L243.7 123.838H228.11Z" fill="#BF3535"/>
<path d="M245.39 123.838L266.676 110.44L260.979 123.838H245.39Z" fill="#BF3535"/>
<path d="M221.6 139.114L242.949 125.716L237.189 139.114H221.6Z" fill="#BF3535"/>
<path d="M238.816 139.114L260.166 125.716L254.468 139.114H238.816Z" fill="#BF3535"/>
<path d="M262.607 123.838L283.957 110.44L278.197 123.838H262.607Z" fill="#BF3535"/>
<path d="M256.097 139.114L277.383 125.716L271.686 139.114H256.097Z" fill="#BF3535"/>
<path d="M247.456 155.142H254.593V147.629L247.456 140.492V155.142Z" fill="#EEEEEE"/>
</g>
<defs>
<filter id="filter0_ii" x="5" y="4" width="294" height="294.435" filterUnits="userSpaceOnUse" color-interpolation-filters="sRGB">
<feFlood flood-opacity="0" result="BackgroundImageFix"/>
<feBlend mode="normal" in="SourceGraphic" in2="BackgroundImageFix" result="shape"/>
<feColorMatrix in="SourceAlpha" type="matrix" values="0 0 0 0 0 0 0 0 0 0 0 0 0 0 0 0 0 0 127 0" result="hardAlpha"/>
<feOffset dx="2" dy="2"/>
<feGaussianBlur stdDeviation="2.5"/>
<feComposite in2="hardAlpha" operator="arithmetic" k2="-1" k3="1"/>
<feColorMatrix type="matrix" values="0 0 0 0 0 0 0 0 0 0 0 0 0 0 0 0 0 0 0.17 0"/>
<feBlend mode="normal" in2="shape" result="effect1_innerShadow"/>
<feColorMatrix in="SourceAlpha" type="matrix" values="0 0 0 0 0 0 0 0 0 0 0 0 0 0 0 0 0 0 127 0" result="hardAlpha"/>
<feOffset dx="-2" dy="-2"/>
<feGaussianBlur stdDeviation="2.5"/>
<feComposite in2="hardAlpha" operator="arithmetic" k2="-1" k3="1"/>
<feColorMatrix type="matrix" values="0 0 0 0 0 0 0 0 0 0 0 0 0 0 0 0 0 0 0.17 0"/>
<feBlend mode="normal" in2="effect1_innerShadow" result="effect2_innerShadow"/>
</filter>
<filter id="filter1_d" x="1.00391" y="0" width="276.291" height="291.744" filterUnits="userSpaceOnUse" color-interpolation-filters="sRGB">
<feFlood flood-opacity="0" result="BackgroundImageFix"/>
<feColorMatrix in="SourceAlpha" type="matrix" values="0 0 0 0 0 0 0 0 0 0 0 0 0 0 0 0 0 0 127 0"/>
<feOffset dx="1" dy="1"/>
<feGaussianBlur stdDeviation="3.5"/>
<feColorMatrix type="matrix" values="0 0 0 0 0 0 0 0 0 0 0 0 0 0 0 0 0 0 0.14 0"/>
<feBlend mode="normal" in2="BackgroundImageFix" result="effect1_dropShadow"/>
<feBlend mode="normal" in="SourceGraphic" in2="effect1_dropShadow" result="shape"/>
</filter>
<filter id="filter2_d" x="1.00195" y="0" width="176.723" height="284.451" filterUnits="userSpaceOnUse" color-interpolation-filters="sRGB">
<feFlood flood-opacity="0" result="BackgroundImageFix"/>
<feColorMatrix in="SourceAlpha" type="matrix" values="0 0 0 0 0 0 0 0 0 0 0 0 0 0 0 0 0 0 127 0"/>
<feOffset dx="1" dy="1"/>
<feGaussianBlur stdDeviation="3.5"/>
<feColorMatrix type="matrix" values="0 0 0 0 0 0 0 0 0 0 0 0 0 0 0 0 0 0 0.14 0"/>
<feBlend mode="normal" in2="BackgroundImageFix" result="effect1_dropShadow"/>
<feBlend mode="normal" in="SourceGraphic" in2="effect1_dropShadow" result="shape"/>
</filter>
<filter id="filter3_d" x="6" y="47" width="222.072" height="253.564" filterUnits="userSpaceOnUse" color-interpolation-filters="sRGB">
<feFlood flood-opacity="0" result="BackgroundImageFix"/>
<feColorMatrix in="SourceAlpha" type="matrix" values="0 0 0 0 0 0 0 0 0 0 0 0 0 0 0 0 0 0 127 0"/>
<feOffset dx="4"/>
<feGaussianBlur stdDeviation="2.5"/>
<feColorMatrix type="matrix" values="0 0 0 0 0 0 0 0 0 0 0 0 0 0 0 0 0 0 0.14 0"/>
<feBlend mode="normal" in2="BackgroundImageFix" result="effect1_dropShadow"/>
<feBlend mode="normal" in="SourceGraphic" in2="effect1_dropShadow" result="shape"/>
</filter>
<filter id="filter4_d" x="0.966797" y="158.356" width="301.685" height="142.079" filterUnits="userSpaceOnUse" color-interpolation-filters="sRGB">
<feFlood flood-opacity="0" result="BackgroundImageFix"/>
<feColorMatrix in="SourceAlpha" type="matrix" values="0 0 0 0 0 0 0 0 0 0 0 0 0 0 0 0 0 0 127 0"/>
<feOffset dy="-3"/>
<feGaussianBlur stdDeviation="3.5"/>
<feColorMatrix type="matrix" values="0 0 0 0 0 0 0 0 0 0 0 0 0 0 0 0 0 0 0.17 0"/>
<feBlend mode="normal" in2="BackgroundImageFix" result="effect1_dropShadow"/>
<feBlend mode="normal" in="SourceGraphic" in2="effect1_dropShadow" result="shape"/>
</filter>
</defs>
</svg>
