<svg width="303" height="296" viewBox="0 0 303 296" fill="none" xmlns="http://www.w3.org/2000/svg">
<circle cx="152" cy="145" r="145" fill="#FFCCCC"/>
<g filter="url(#filter0_d)">
<path d="M195.278 93.2778C195.278 93.2778 202.661 96.887 205.301 106.206C207.941 115.525 215.863 139.766 215.863 139.766C215.863 139.766 220.389 145.099 220.874 149.085C221.359 153.072 220.389 162.606 218.934 164.438C217.479 166.215 215.378 165.946 215.378 165.946L196.248 164.115L188.704 113.64L195.278 93.2778Z" fill="#076FBE"/>
<path d="M131.963 92.3624C131.963 92.3624 118.276 96.6719 114.881 100.389L126.089 152.533L125.927 168.963H190.806C190.806 168.155 191.399 114.341 191.399 114.341L195.279 93.2243L172.215 89.1842L167.689 85.6289L142.039 86.9218L138.16 90.8003L131.963 92.3624Z" fill="#076FBE"/>
<g opacity="0.3">
<path opacity="0.3" d="M137.136 137.612C136.92 137.181 136.651 136.696 136.166 136.588C135.358 136.426 134.873 137.342 134.603 138.096C132.502 144.076 129.7 149.57 126.089 154.742L125.928 162.768C129.7 159.59 133.418 156.196 135.843 151.887C138.268 147.523 139.184 142.137 137.136 137.612Z" fill="black"/>
</g>
<path d="M114.827 100.389C114.827 100.389 110.3 106.53 108.468 110.57C106.582 114.556 91.063 148.278 90.147 151.779C89.2309 155.28 86.806 166.216 93.919 168.748H108.468L123.125 139.174L123.88 104.806L114.827 100.389Z" fill="#076FBE"/>
<path d="M109.385 147.362C109.385 147.362 109.061 147.093 108.415 146.715C107.768 146.338 106.69 145.907 105.343 145.584C104.643 145.423 103.942 145.315 103.134 145.261C102.325 145.207 101.463 145.207 100.601 145.423C98.8229 145.8 97.0986 146.931 95.6975 148.493C94.2965 150.055 93.4343 151.887 92.8955 153.664C92.3566 155.442 92.1411 157.058 92.0333 158.459C91.8716 159.859 91.8716 160.937 91.8177 161.745C91.8177 162.122 91.7639 162.391 91.7639 162.66C91.7639 162.876 91.71 162.984 91.71 162.984C91.71 162.984 91.71 162.876 91.71 162.66C91.71 162.445 91.71 162.122 91.71 161.745C91.71 160.991 91.7638 159.859 91.8716 158.459C91.9794 157.058 92.1949 155.388 92.6799 153.611C93.1649 151.833 94.0809 149.948 95.482 148.332C96.883 146.715 98.7151 145.584 100.547 145.207C101.463 144.992 102.379 144.992 103.188 145.046C103.996 145.099 104.75 145.261 105.451 145.423C106.798 145.746 107.876 146.231 108.522 146.608C108.846 146.823 109.115 146.985 109.223 147.146C109.331 147.308 109.385 147.362 109.385 147.362Z" fill="#343434"/>
<path d="M102.486 141.49C102.486 141.49 102.648 141.436 102.971 141.436C103.295 141.383 103.78 141.383 104.318 141.436C104.911 141.436 105.558 141.544 106.312 141.706C107.067 141.867 107.821 142.137 108.629 142.514C109.438 142.891 110.138 143.322 110.731 143.807C111.324 144.291 111.809 144.722 112.186 145.153C112.563 145.584 112.832 145.961 113.048 146.231C113.21 146.5 113.317 146.662 113.317 146.662C113.264 146.715 112.886 146.123 112.078 145.315C111.701 144.884 111.162 144.453 110.569 144.022C109.976 143.591 109.276 143.16 108.522 142.783C107.767 142.406 106.959 142.137 106.258 141.975C105.558 141.813 104.857 141.652 104.318 141.652C103.187 141.49 102.486 141.544 102.486 141.49Z" fill="#343434"/>
<path d="M115.688 139.874C115.688 139.874 115.419 139.874 114.988 139.82C114.557 139.766 113.91 139.713 113.156 139.659C111.593 139.551 109.491 139.497 107.121 139.766C104.75 140.036 102.702 140.574 101.247 141.059C100.493 141.275 99.8998 141.49 99.5226 141.652C99.0915 141.813 98.876 141.867 98.876 141.867C98.876 141.867 99.0915 141.76 99.4687 141.544C99.8459 141.382 100.439 141.113 101.193 140.844C102.648 140.305 104.75 139.766 107.121 139.443C109.491 139.174 111.647 139.228 113.21 139.389C113.964 139.497 114.611 139.551 115.042 139.659C115.419 139.766 115.688 139.82 115.688 139.874Z" fill="#343434"/>
<path d="M157.181 111.055C157.181 111.055 157.128 111.001 157.02 110.893C156.912 110.731 156.804 110.57 156.643 110.354C156.265 109.87 155.78 109.169 155.188 108.307C153.948 106.53 152.17 104.052 150.122 101.143L150.338 101.089C149.53 103.405 148.667 105.937 147.751 108.631L147.698 108.792L147.536 108.684C147.428 108.631 147.32 108.577 147.213 108.469C146.027 107.715 144.949 106.799 144.033 105.776C143.117 104.752 142.363 103.729 141.77 102.651C140.531 100.496 139.776 98.3956 139.291 96.6179C138.806 94.8402 138.537 93.3319 138.321 92.3084C138.214 91.8236 138.16 91.4465 138.106 91.1233C138.106 91.0156 138.052 90.9079 138.052 90.8001C138.052 90.7462 137.998 90.6924 137.998 90.6924C138.052 90.6924 138.214 91.2311 138.429 92.2546C138.645 93.2781 138.914 94.7325 139.453 96.5102C139.992 98.2878 140.746 100.335 141.986 102.49C142.578 103.513 143.333 104.59 144.249 105.56C145.165 106.53 146.189 107.445 147.374 108.2C147.482 108.253 147.59 108.307 147.698 108.415L147.482 108.469C148.398 105.776 149.26 103.244 150.069 100.927L150.176 100.712L150.338 100.927C152.386 103.89 154.11 106.368 155.349 108.146C155.942 109.008 156.427 109.708 156.75 110.193C156.912 110.408 157.02 110.624 157.128 110.731C157.181 111.001 157.235 111.055 157.181 111.055Z" fill="#343434"/>
<g opacity="0.3">
<path opacity="0.3" d="M174.102 135.942C173.509 141.975 174.856 148.17 177.874 153.449C180.891 158.674 185.31 163.361 190.806 165.892C190.968 160.559 190.752 154.257 190.914 148.87L174.102 135.942Z" fill="black"/>
</g>
<path d="M173.509 128.885C173.509 128.885 171.138 129.531 172.916 134.38C174.694 139.228 175.287 138.905 176.473 143.429C177.658 147.954 179.005 152.048 181.107 154.634C183.154 157.166 190.806 162.391 190.806 162.391L197.704 155.927C197.704 155.927 196.572 151.079 196.841 147.793C197.111 144.507 197.811 136.48 197.704 135.08C197.596 133.679 196.141 130.393 196.141 130.393V128.131L192.585 117.249C192.585 117.249 190.645 116.388 189.944 119.512L188.759 116.172C188.759 116.172 186.873 115.849 186.388 119.727C185.903 123.552 186.765 128.885 186.765 128.885L185.795 135.565L184.34 140.09L183.047 140.305C183.047 140.305 181.107 139.766 180.083 136.157C179.005 132.44 176.149 128.131 173.509 128.885Z" fill="#FFBE9D"/>
<path d="M195.332 146.015C195.332 146.015 195.332 145.907 195.278 145.745C195.278 145.584 195.224 145.315 195.224 145.045C195.17 144.399 195.116 143.483 195.062 142.352C194.954 139.982 194.793 136.75 194.631 132.925L194.685 132.979C194.362 132.602 193.823 132.494 193.284 132.602C192.745 132.709 192.314 133.033 191.991 133.517C191.398 134.487 191.344 135.726 191.182 136.965C190.805 139.712 190.428 142.352 190.105 144.722C189.943 145.907 189.781 147.038 189.512 148.116C189.296 149.193 188.973 150.109 188.65 150.971C188.326 151.833 188.057 152.587 187.895 153.287C187.734 153.987 187.68 154.58 187.68 155.119C187.68 156.142 188.003 156.627 187.949 156.681C187.949 156.681 187.895 156.573 187.788 156.304C187.734 156.034 187.572 155.657 187.572 155.119C187.518 154.58 187.572 153.987 187.734 153.287C187.895 152.587 188.165 151.779 188.434 150.917C188.757 150.055 189.027 149.139 189.242 148.062C189.458 147.038 189.62 145.907 189.781 144.722C190.105 142.352 190.428 139.712 190.805 136.965C190.913 136.372 190.967 135.726 191.075 135.133C191.182 134.541 191.344 133.948 191.667 133.41C191.991 132.871 192.529 132.494 193.122 132.386C193.715 132.225 194.362 132.386 194.793 132.817L194.847 132.871V132.925C194.954 136.75 195.116 139.982 195.17 142.352C195.224 143.483 195.224 144.399 195.224 145.045C195.224 145.315 195.224 145.584 195.224 145.745C195.385 145.907 195.332 146.015 195.332 146.015Z" fill="#EB996E"/>
<path d="M191.614 133.625C191.614 133.625 191.506 133.41 191.344 133.033C191.183 132.602 190.967 132.009 190.752 131.255C190.536 130.501 190.374 129.585 190.267 128.562C190.213 128.023 190.159 127.484 190.213 126.946C190.267 126.353 190.428 125.761 190.805 125.276C191.129 124.845 191.56 124.468 192.045 124.306L192.153 124.252L192.207 124.36C193.176 126.138 194.093 127.646 194.685 128.777C194.955 129.316 195.224 129.747 195.386 130.07C195.547 130.393 195.601 130.555 195.601 130.555C195.601 130.555 195.494 130.393 195.278 130.124C195.062 129.801 194.793 129.37 194.524 128.831C193.877 127.754 192.961 126.191 191.991 124.468L192.153 124.522C191.722 124.629 191.344 124.952 191.021 125.383C190.698 125.868 190.536 126.407 190.482 126.946C190.428 127.484 190.428 128.023 190.482 128.508C190.59 129.531 190.752 130.447 190.913 131.201C191.075 131.955 191.29 132.548 191.398 132.979C191.56 133.356 191.614 133.625 191.614 133.625Z" fill="#EB996E"/>
<path d="M189.944 134.487C189.944 134.487 189.89 134.272 189.89 133.841C189.89 133.356 189.836 132.817 189.836 132.117C189.782 130.663 189.728 128.669 189.728 126.461C189.728 124.252 189.62 122.259 189.836 120.805C189.944 120.104 190.051 119.512 190.213 119.135C190.321 118.758 190.429 118.542 190.483 118.542C190.536 118.542 190.159 119.404 190.051 120.805C189.89 122.205 190.051 124.252 190.051 126.407C190.105 128.616 190.105 130.609 190.105 132.063C190.105 132.763 190.105 133.302 190.105 133.787C189.998 134.272 189.944 134.487 189.944 134.487Z" fill="#EB996E"/>
<path d="M184.124 152.587C184.07 152.533 184.501 152.048 185.04 151.133C185.309 150.702 185.579 150.109 185.848 149.463C186.117 148.816 186.333 148.062 186.441 147.254C186.602 146.446 186.656 145.692 186.656 144.992C186.656 144.291 186.602 143.645 186.495 143.16C186.333 142.137 186.117 141.49 186.117 141.49C186.117 141.49 186.225 141.652 186.333 141.921C186.441 142.191 186.549 142.621 186.71 143.16C186.818 143.699 186.926 144.345 186.926 145.046C186.926 145.746 186.872 146.554 186.764 147.362C186.602 148.17 186.387 148.924 186.117 149.57C185.848 150.217 185.525 150.809 185.255 151.24C184.986 151.671 184.716 152.048 184.501 152.264C184.285 152.479 184.124 152.641 184.124 152.587Z" fill="#EB996E"/>
<path d="M196.195 149.247L202.177 151.294C202.177 151.294 207.889 148.332 211.822 151.294C215.756 154.257 219.151 162.014 218.073 165.138C218.073 165.138 215.379 168.478 213.277 168.963C211.23 169.448 203.201 167.509 199.86 166.808C196.519 166.108 190.753 162.391 190.753 162.391L196.195 149.247Z" fill="#FFBE9D"/>
<path d="M196.95 158.028C196.95 158.028 196.896 157.866 196.896 157.489C196.896 157.112 196.842 156.627 196.788 156.034C196.734 154.795 196.627 153.126 196.627 151.294C196.573 149.409 196.627 147.739 196.788 146.5C196.842 145.907 196.896 145.422 196.95 145.045C197.004 144.722 197.058 144.507 197.058 144.507C197.112 144.507 197.004 145.261 196.95 146.5C196.896 147.739 196.842 149.409 196.896 151.24C196.95 153.072 196.95 154.688 197.004 155.981C197.004 156.573 197.004 157.058 197.004 157.435C196.95 157.812 196.95 158.028 196.95 158.028Z" fill="#EB996E"/>
<path d="M216.617 151.079C216.563 151.132 215.97 150.271 214.623 149.301C213.33 148.331 211.175 147.254 208.696 147.146C206.163 146.985 203.954 147.793 202.553 148.654C201.098 149.462 200.397 150.271 200.397 150.217C200.397 150.217 200.559 150.001 200.882 149.678C201.206 149.355 201.745 148.924 202.445 148.493C203.846 147.631 206.109 146.769 208.696 146.877C211.282 147.038 213.438 148.116 214.731 149.139C215.378 149.678 215.863 150.163 216.186 150.486C216.455 150.863 216.617 151.079 216.617 151.079Z" fill="#343434"/>
<path d="M215.863 146.069C215.809 146.123 215.054 145.315 213.384 144.722C211.767 144.076 209.235 143.806 206.648 144.507C205.355 144.884 204.169 145.369 203.199 145.961C202.176 146.554 201.367 147.146 200.667 147.739C200.02 148.331 199.481 148.816 199.158 149.139C198.781 149.463 198.619 149.678 198.619 149.678C198.619 149.678 198.781 149.463 199.104 149.086C199.427 148.708 199.912 148.17 200.559 147.577C201.206 146.985 202.068 146.338 203.092 145.746C204.116 145.153 205.301 144.614 206.594 144.237C209.235 143.483 211.821 143.806 213.438 144.507C214.246 144.83 214.893 145.261 215.27 145.53C215.485 145.692 215.593 145.8 215.701 145.907C215.809 146.015 215.863 146.069 215.863 146.069Z" fill="#343434"/>
<path d="M215.916 141.759C215.916 141.813 214.839 141.49 213.114 141.274C212.252 141.167 211.228 141.059 210.043 141.059C208.911 141.059 207.618 141.167 206.325 141.382C205.032 141.598 203.792 141.975 202.714 142.352C201.637 142.729 200.667 143.16 199.912 143.591C198.35 144.399 197.487 145.045 197.434 144.991C197.434 144.991 197.649 144.83 198.026 144.507C198.242 144.345 198.457 144.183 198.781 144.022C199.104 143.86 199.427 143.591 199.805 143.429C200.559 142.998 201.529 142.567 202.607 142.136C203.684 141.759 204.924 141.382 206.271 141.167C207.618 140.951 208.911 140.844 210.043 140.844C211.228 140.844 212.252 140.951 213.114 141.113C213.545 141.167 213.923 141.274 214.3 141.328C214.623 141.382 214.947 141.49 215.162 141.544C215.647 141.652 215.916 141.759 215.916 141.759Z" fill="#343434"/>
<path d="M170.168 89.0225C170.168 89.0225 170.437 89.5611 170.599 90.5846C170.761 91.662 170.707 93.2242 170.383 95.2173C170.222 96.1869 169.952 97.2643 169.629 98.4494C169.252 99.5806 168.713 100.766 168.066 102.059C166.773 104.537 165.156 107.23 163.27 110.139L163.055 110.462V110.085C163.055 108.2 163.055 106.206 163.055 104.106L163.27 104.213C161.654 105.506 159.983 106.853 158.259 108.253L158.313 108.2C157.127 111.916 156.373 116.01 156.05 120.266C155.565 126.838 155.942 133.087 156.265 138.797C156.535 144.507 156.696 149.624 156.858 153.934C157.02 158.243 157.181 161.745 157.289 164.115C157.343 165.3 157.397 166.216 157.451 166.862C157.451 167.185 157.505 167.401 157.505 167.562C157.505 167.724 157.505 167.832 157.505 167.832C157.505 167.832 157.505 167.724 157.451 167.562C157.451 167.401 157.397 167.131 157.397 166.862C157.343 166.216 157.235 165.3 157.181 164.115C157.02 161.691 156.858 158.243 156.642 153.934C156.427 149.624 156.211 144.507 155.942 138.797C155.619 133.087 155.187 126.838 155.726 120.266C156.05 115.957 156.804 111.809 157.99 108.092V108.038H158.043C159.768 106.637 161.492 105.291 163.109 103.998L163.324 103.836V104.106C163.324 106.206 163.324 108.2 163.324 110.085L163.109 110.031C166.827 104.267 169.844 99.3113 170.276 95.2712C170.653 93.3319 170.707 91.7159 170.545 90.6924C170.491 90.1537 170.383 89.7766 170.329 89.5073C170.222 89.1841 170.168 89.0225 170.168 89.0225Z" fill="#343434"/>
<path d="M160.522 158.512H160.306C159.552 158.512 158.852 159.267 158.852 160.021C158.852 160.775 159.552 161.529 160.306 161.529C161.061 161.583 161.815 160.883 161.869 160.128C161.923 159.374 161.276 158.62 160.522 158.512Z" fill="white"/>
<path d="M160.522 137.773H160.306C159.552 137.773 158.852 138.528 158.852 139.282C158.852 140.036 159.552 140.79 160.306 140.79C161.061 140.844 161.815 140.144 161.869 139.389C161.923 138.581 161.276 137.827 160.522 137.773Z" fill="white"/>
<path d="M160.306 119.189C161.061 119.243 161.815 118.542 161.869 117.788C161.923 117.034 161.276 116.226 160.522 116.172H160.306C159.552 116.172 158.852 116.926 158.852 117.68C158.852 118.435 159.552 119.135 160.306 119.189Z" fill="white"/>
<path d="M137.028 64.7278C135.142 62.627 133.256 60.5261 131.855 58.0482C130.454 55.5702 129.646 52.7152 130.131 49.9141C130.4 48.298 131.101 46.7358 131.208 45.1198C131.37 42.8573 130.4 40.4871 131.208 38.3862C132.448 35.0464 136.92 34.5616 139.615 32.2453C141.716 30.4676 142.74 27.5587 145.057 26.0504C147.105 24.7576 149.691 24.7576 152.062 25.0808C154.433 25.404 156.858 25.9965 159.229 25.6733C160.953 25.4579 162.516 24.7576 164.187 24.3266C165.857 23.8957 167.743 23.7879 169.198 24.6498C170.707 25.5117 171.515 27.6126 170.545 29.0132C173.293 27.7203 176.85 29.8751 177.604 32.8378C178.359 35.8006 176.85 38.9788 174.479 40.9181C172.108 42.8573 169.09 43.7731 166.073 44.3118C157.612 45.9278 148.398 45.012 141.069 40.4332" fill="#343434"/>
<path d="M166.88 93.2247C166.449 89.9926 166.126 87.3531 166.126 86.976C166.126 86.976 176.849 84.552 176.256 73.7244C175.987 68.4992 174.478 57.7256 173.077 48.0293C171.514 37.5788 162.192 30.0911 151.684 30.7914L150.66 30.8453C139.398 32.2459 134.333 42.5886 136.057 53.7932L142.146 91.3394C142.146 91.3394 144.733 99.6351 150.283 101.09L157.288 111.055L158.42 106.746L163.647 102.221C163.647 102.221 164.832 100.928 166.233 98.3961C167.257 96.3491 167.042 94.2482 166.88 93.2247Z" fill="#FFBE9D"/>
<path d="M166.126 86.8686C166.126 86.8686 159.282 87.8921 151.738 83.7981C151.738 83.7981 155.618 91.3935 166.341 89.6697L166.126 86.8686Z" fill="#EB996E"/>
<path d="M169.573 57.3485C169.681 58.1565 169.035 58.9107 168.172 59.0184C167.31 59.1261 166.556 58.5336 166.502 57.7256C166.394 56.9175 167.041 56.1634 167.903 56.0556C168.711 55.9479 169.466 56.5404 169.573 57.3485Z" fill="#343434"/>
<path d="M171.083 53.5239C170.921 53.7394 169.682 52.9314 168.011 53.0391C166.341 53.1468 165.155 54.0626 164.993 53.901C164.886 53.7933 165.047 53.4162 165.586 53.0391C166.071 52.6082 166.933 52.1772 168.011 52.1233C169.035 52.0695 169.951 52.3927 170.49 52.7159C170.975 53.0391 171.19 53.4162 171.083 53.5239Z" fill="#343434"/>
<path d="M153.84 58.4801C153.948 59.2881 153.301 60.0422 152.439 60.15C151.577 60.2577 150.822 59.6652 150.769 58.8571C150.661 58.0491 151.307 57.295 152.17 57.1872C152.978 57.0795 153.732 57.672 153.84 58.4801Z" fill="#343434"/>
<path d="M154.702 54.9248C154.54 55.1403 153.301 54.3323 151.63 54.44C149.96 54.5477 148.774 55.4635 148.613 55.3019C148.505 55.1941 148.666 54.8171 149.205 54.44C149.69 54.009 150.552 53.5781 151.63 53.5242C152.654 53.4704 153.57 53.7936 154.109 54.1168C154.594 54.44 154.809 54.8171 154.702 54.9248Z" fill="#343434"/>
<path d="M161.598 66.8831C161.598 66.7754 162.622 66.5599 164.293 66.2367C164.724 66.1828 165.101 66.0751 165.155 65.7519C165.209 65.4287 165.047 64.9977 164.778 64.5129C164.293 63.4894 163.808 62.4659 163.323 61.3347C161.275 56.8636 159.766 53.1467 159.928 53.039C160.09 52.9312 161.922 56.5404 163.969 61.0115C164.454 62.1427 164.939 63.1662 165.37 64.1897C165.586 64.6745 165.855 65.2132 165.694 65.8596C165.586 66.1828 165.316 66.4522 165.047 66.506C164.778 66.6138 164.562 66.6138 164.347 66.6676C162.676 66.8831 161.598 66.937 161.598 66.8831Z" fill="#343434"/>
<path d="M154.702 48.3527C154.594 48.8375 152.869 48.7298 150.93 49.053C148.99 49.3762 147.427 50.0765 147.158 49.6456C147.05 49.484 147.265 48.9991 147.858 48.5143C148.451 48.0295 149.421 47.5447 150.606 47.3292C151.792 47.1138 152.869 47.2215 153.57 47.4908C154.378 47.814 154.755 48.1372 154.702 48.3527Z" fill="#343434"/>
<path d="M170.166 48.7296C169.897 49.1066 168.711 48.8373 167.364 48.8912C165.963 48.8912 164.832 49.3221 164.562 48.945C164.454 48.7834 164.616 48.3525 165.101 47.9754C165.586 47.5983 166.394 47.2212 167.364 47.2212C168.334 47.1674 169.142 47.4906 169.681 47.8138C170.059 48.137 170.274 48.5141 170.166 48.7296Z" fill="#343434"/>
<path d="M137.458 61.8195C137.243 61.7656 129.86 60.0957 130.615 67.5295C131.369 74.9095 139.344 72.5393 139.344 72.3238C139.344 72.0545 137.458 61.8195 137.458 61.8195Z" fill="#FFBE9D"/>
<path d="M136.057 69.846C136.003 69.846 135.949 69.9537 135.734 70.0615C135.518 70.1692 135.195 70.2769 134.764 70.1692C133.955 69.9537 133.147 68.7686 132.985 67.4758C132.878 66.8294 132.985 66.1291 133.147 65.5904C133.309 65.0517 133.632 64.6208 134.009 64.513C134.386 64.4053 134.71 64.5669 134.818 64.7824C134.925 64.9979 134.925 65.1056 134.925 65.1595C134.925 65.1595 135.087 64.9979 134.979 64.7285C134.925 64.5669 134.818 64.4053 134.656 64.2976C134.44 64.1898 134.171 64.136 133.901 64.1898C133.309 64.2976 132.878 64.8363 132.662 65.4827C132.447 66.0752 132.339 66.8294 132.393 67.5835C132.608 69.0918 133.47 70.3847 134.602 70.6002C135.141 70.7079 135.572 70.4924 135.787 70.2769C136.057 70.0076 136.057 69.846 136.057 69.846Z" fill="#EB996E"/>
<path d="M172.484 37.9018C171.999 40.8645 166.018 43.5579 161.06 43.3963C156.48 43.2886 154.217 40.9723 150.93 39.4101C148.828 38.3866 148.828 38.3866 145.972 38.8714C143.655 39.2485 142.47 41.9419 141.176 43.8811C143.655 49.268 142.631 55.5167 141.608 61.3345C141.5 61.9809 141.338 62.6812 140.853 63.1121C140.045 63.8663 138.698 63.3815 137.835 62.6812C136.542 61.4961 135.949 59.7184 135.518 57.9946C134.548 54.0623 134.171 49.9683 134.764 45.982C135.411 41.9958 137.027 38.1172 139.775 35.1006C143.17 31.3837 148.182 29.229 153.247 28.9596C158.312 28.6903 163.377 30.2525 167.581 33.0536C169.574 34.2926 171.406 35.8548 172.484 37.9018Z" fill="#343434"/>
<path d="M162.676 70.5996C161.437 70.007 160.144 69.4145 158.904 68.8219C158.689 68.7142 158.473 68.6065 158.204 68.6603C157.934 68.7142 157.719 68.8758 157.557 69.0913C156.695 70.1686 156.479 71.7308 157.126 72.9698C157.826 74.1549 159.389 74.8013 160.682 74.2626C162.03 73.7239 162.676 72.1618 162.784 70.7073L162.676 70.5996Z" fill="#EB996E"/>
<path d="M160.791 74.5317C160.791 74.5856 160.63 74.6934 160.252 74.7472C159.875 74.8011 159.282 74.855 158.636 74.6395C157.989 74.424 157.235 73.8853 156.75 73.0773C156.265 72.2693 156.103 71.1381 156.534 70.1146C156.75 69.6297 157.019 69.1449 157.396 68.8217C157.612 68.6601 157.774 68.4985 157.989 68.3369C158.097 68.283 158.259 68.2292 158.42 68.1753C158.582 68.1753 158.744 68.2292 158.851 68.283C159.121 68.3908 159.282 68.4985 159.444 68.6062C159.606 68.714 159.767 68.8217 159.983 68.9294C160.306 69.1449 160.63 69.3065 160.899 69.522C162.031 70.2223 162.677 70.7071 162.677 70.761C162.623 70.8148 161.869 70.4916 160.737 69.8452C160.414 69.6836 160.145 69.522 159.767 69.3065C159.606 69.1988 159.444 69.0911 159.229 69.0372C159.067 68.9295 158.851 68.8217 158.69 68.7678C158.528 68.714 158.42 68.714 158.259 68.8217C158.097 68.9294 157.935 69.0372 157.774 69.1988C157.45 69.522 157.181 69.8991 157.019 70.33C156.696 71.1919 156.804 72.1615 157.181 72.8618C157.558 73.5621 158.151 74.0469 158.744 74.3163C159.336 74.5317 159.821 74.5856 160.198 74.5856C160.576 74.5317 160.791 74.4779 160.791 74.5317Z" fill="#343434"/>
<path d="M159.605 57.5634C159.552 57.5634 159.605 56.8631 159.336 55.678C159.013 54.4929 158.258 52.823 156.534 51.4763C155.672 50.8298 154.594 50.2912 153.301 50.0757C152.061 49.8602 150.66 49.9141 149.313 50.3989C148.613 50.6144 147.966 50.9914 147.373 51.4224C146.781 51.8533 146.242 52.392 145.757 53.0384C144.841 54.2774 144.302 55.8934 144.302 57.5095C144.302 59.1794 144.841 60.7416 145.757 61.9806C146.188 62.627 146.781 63.1657 147.373 63.5966C147.966 64.0276 148.613 64.4046 149.313 64.6201C150.66 65.1049 152.061 65.1588 153.301 64.9433C154.54 64.7278 155.672 64.1892 156.534 63.5427C158.258 62.196 159.067 60.5261 159.336 59.341C159.605 58.2098 159.605 57.5095 159.605 57.5634C159.605 57.5634 159.605 57.6172 159.605 57.6711C159.605 57.7788 159.605 57.8866 159.605 58.0482C159.605 58.2098 159.605 58.4253 159.552 58.6407C159.498 58.8562 159.498 59.1255 159.39 59.4488C159.282 60.0413 159.013 60.7955 158.528 61.5496C158.097 62.3038 157.45 63.1118 156.588 63.7582C155.726 64.4046 154.594 64.9972 153.301 65.2665C152.008 65.482 150.553 65.482 149.152 64.9433C148.451 64.7278 147.804 64.3508 147.158 63.866C146.511 63.435 145.972 62.8425 145.487 62.196C144.517 60.9032 143.979 59.2333 143.979 57.5634C143.979 55.8396 144.517 54.2235 145.487 52.9307C145.972 52.2843 146.511 51.6917 147.158 51.2608C147.751 50.776 148.451 50.4528 149.152 50.1834C150.553 49.6447 152.008 49.6447 153.301 49.8602C154.594 50.0757 155.726 50.6682 156.588 51.3685C157.45 52.0688 158.097 52.823 158.582 53.5771C159.013 54.3313 159.282 55.0316 159.444 55.678C159.552 56.0012 159.552 56.2705 159.605 56.486C159.659 56.7015 159.659 56.9169 159.659 57.0785C159.659 57.2402 159.659 57.3479 159.659 57.4556C159.605 57.5095 159.605 57.5634 159.605 57.5634Z" fill="#343434"/>
<path d="M178.089 56.8094C178.035 56.8094 178.089 56.163 177.819 54.9779C177.55 53.8466 176.795 52.1767 175.071 50.8839C174.209 50.2375 173.185 49.6988 171.946 49.4833C170.706 49.2678 169.359 49.3217 168.066 49.8065C167.419 50.022 166.773 50.3991 166.18 50.83C165.587 51.261 165.048 51.7996 164.617 52.3922C163.701 53.5773 163.216 55.1395 163.162 56.7555C163.162 58.3716 163.701 59.9338 164.617 61.1189C165.048 61.7114 165.587 62.2501 166.18 62.681C166.773 63.112 167.419 63.4352 168.066 63.7045C169.359 64.1894 170.76 64.2432 171.946 64.0277C173.185 63.8123 174.209 63.2736 175.071 62.6272C176.795 61.3343 177.55 59.6644 177.819 58.5332C178.089 57.5097 178.035 56.8094 178.089 56.8094C178.089 56.8094 178.089 56.971 178.089 57.2942C178.089 57.4558 178.089 57.6713 178.035 57.8868C177.981 58.1022 177.981 58.3716 177.873 58.6948C177.604 59.826 176.849 61.5498 175.125 62.8965C174.263 63.5429 173.185 64.1355 171.946 64.351C170.706 64.5664 169.251 64.5664 167.904 64.0277C167.204 63.8123 166.557 63.4352 165.964 63.0042C165.372 62.5733 164.779 62.0346 164.348 61.3882C163.378 60.1492 162.893 58.5332 162.839 56.8633C162.839 55.1934 163.378 53.5773 164.348 52.3383C164.833 51.6919 165.372 51.1532 165.964 50.7223C166.557 50.2913 167.204 49.9143 167.904 49.6988C169.251 49.214 170.652 49.1601 171.946 49.3756C173.185 49.5911 174.317 50.1836 175.125 50.83C176.849 52.1767 177.604 53.9005 177.873 55.0318C177.981 55.3011 177.981 55.5704 178.035 55.8398C178.089 56.0552 178.089 56.2707 178.089 56.4323C178.089 56.6478 178.089 56.8094 178.089 56.8094Z" fill="#343434"/>
<path d="M163.001 55.0854C162.947 55.1393 162.785 54.9777 162.462 54.8161C162.138 54.6545 161.653 54.4929 161.115 54.4929C160.576 54.4929 160.091 54.6545 159.767 54.8161C159.444 54.9777 159.282 55.1393 159.229 55.0854C159.229 55.0854 159.336 54.87 159.66 54.6006C159.983 54.3852 160.522 54.1697 161.115 54.1697C161.707 54.1697 162.246 54.3852 162.569 54.6006C162.893 54.87 163.054 55.0854 163.001 55.0854Z" fill="#343434"/>
<path d="M144.626 56.432C144.679 56.4859 143.171 57.7249 141.231 59.1254C139.345 60.526 137.728 61.6572 137.674 61.6034C137.62 61.5495 139.129 60.3105 141.069 58.91C143.009 57.5094 144.572 56.3782 144.626 56.432Z" fill="#343434"/>
<g opacity="0.3">
<path opacity="0.3" d="M138.267 91.5007C137.513 98.8268 140.315 106.53 146.188 110.947C146.673 111.27 147.212 111.647 147.751 111.432C148.128 111.27 148.344 110.947 148.559 110.57C150.23 107.661 150.769 104.483 150.284 101.197C149.368 103.621 148.559 106.045 147.643 108.577C142.524 105.506 139.345 98.9346 138.267 91.5007Z" fill="black"/>
</g>
<path opacity="0.3" d="M158.097 108.146L162.408 106.584L163.108 113.856C163.108 113.856 167.742 105.398 169.682 101.52C171.622 97.6414 170.598 90.854 170.598 90.854C170.598 90.854 171.299 96.7795 166.611 104.375L163.108 110.085V104.106L158.097 108.146Z" fill="black"/>
<g opacity="0.3">
<path opacity="0.3" d="M108.037 145.099C106.097 144.183 103.888 144.076 101.787 144.291C99.5772 144.56 97.314 145.207 95.5897 146.661C93.8653 148.062 92.6799 150.271 92.8954 152.533L93.1109 152.587C94.6197 148.547 97.5835 145.584 101.463 145.207C105.289 144.83 109.061 146.554 111.702 149.409C111.432 147.254 109.977 146.015 108.037 145.099Z" fill="black"/>
</g>
<g opacity="0.3">
<path opacity="0.3" d="M216.887 149.248C215.432 147.685 213.438 146.77 211.336 146.392C207.672 145.746 203.738 146.877 200.99 149.409L201.799 148.763C203.9 147.524 206.271 146.823 208.696 146.877C211.121 146.931 213.546 147.847 215.27 149.517C216.887 151.025 217.857 153.126 218.773 155.119C219.15 153.018 218.342 150.81 216.887 149.248Z" fill="black"/>
</g>
<path d="M189.135 115.472C189.135 115.472 189.189 115.256 189.35 114.879C189.512 114.448 189.728 113.91 189.943 113.317C190.482 111.97 191.182 110.193 191.937 108.146C192.691 106.099 193.338 104.267 193.823 102.921C194.038 102.274 194.254 101.789 194.362 101.358C194.523 100.981 194.577 100.766 194.577 100.766C194.577 100.766 194.523 100.981 194.469 101.358C194.362 101.736 194.2 102.274 193.984 102.974C193.553 104.321 192.961 106.207 192.206 108.254C191.452 110.301 190.697 112.078 190.159 113.425C189.889 114.071 189.62 114.61 189.458 114.933C189.243 115.256 189.189 115.472 189.135 115.472Z" fill="#343434"/>
<path d="M121.185 116.011C121.131 116.011 120.538 113.479 119.891 110.301C119.245 107.122 118.76 104.537 118.868 104.537C118.921 104.537 119.514 107.068 120.161 110.247C120.807 113.371 121.292 115.957 121.185 116.011Z" fill="#343434"/>
<path d="M120.215 148.062C120.377 148.17 118.222 131.255 118.222 131.255C118.222 131.255 119.569 118.435 120.323 117.842V113.317C120.323 113.317 122.425 112.024 122.964 114.071C122.964 114.071 124.796 112.455 125.119 116.28C125.442 120.104 125.496 124.037 125.496 124.037L129.645 134.38L130.346 134.703C130.346 134.703 131.208 126.622 131.747 125.437C132.286 124.252 132.609 121.343 134.603 121.774C136.543 122.205 136.705 123.821 136.381 126.461C136.004 129.1 135.573 131.848 135.735 133.518C135.896 135.241 136.651 138.958 136.435 141.975C136.22 144.938 134.549 148.116 132.825 150.325C131.1 152.533 127.813 157.112 126.035 158.459C125.496 159.051 120.215 148.062 120.215 148.062Z" fill="#FFBE9D"/>
<path d="M122.263 134.326C122.263 134.326 122.263 134.057 122.263 133.626C122.317 133.087 122.371 132.44 122.425 131.686C122.532 130.016 122.748 127.754 122.963 125.222C123.071 123.983 123.179 122.744 123.287 121.667C123.341 121.128 123.395 120.589 123.287 120.159C123.233 119.674 123.017 119.297 122.748 118.973C122.209 118.381 121.509 118.219 121.077 118.219C120.646 118.219 120.377 118.327 120.377 118.327C120.377 118.327 120.431 118.273 120.539 118.219C120.646 118.165 120.808 118.112 121.077 118.112C121.562 118.058 122.317 118.219 122.91 118.812C123.233 119.135 123.448 119.566 123.502 120.051C123.61 120.536 123.556 121.074 123.502 121.613C123.395 122.69 123.287 123.929 123.179 125.168C122.963 127.7 122.748 129.963 122.532 131.632C122.425 132.44 122.371 133.087 122.317 133.572C122.317 134.057 122.317 134.326 122.263 134.326Z" fill="#EB996E"/>
<path d="M124.528 127.43C124.582 127.484 124.097 127.861 123.773 128.777C123.45 129.639 123.342 130.986 123.073 132.44C122.857 133.895 122.642 135.188 122.48 136.103C122.319 137.019 122.211 137.612 122.157 137.612C122.103 137.612 122.157 137.019 122.319 136.049C122.426 135.08 122.642 133.787 122.857 132.332C123.073 130.878 123.235 129.585 123.612 128.669C123.773 128.238 124.043 127.861 124.205 127.7C124.366 127.484 124.474 127.377 124.528 127.43Z" fill="#EB996E"/>
<path d="M122.964 113.91C122.964 113.91 123.018 114.071 123.126 114.448C123.179 114.772 123.287 115.31 123.395 115.903C123.61 117.142 123.826 118.866 123.988 120.805C124.149 122.744 124.149 124.468 124.149 125.707C124.149 126.353 124.095 126.838 124.095 127.215C124.095 127.592 124.042 127.754 124.042 127.754C123.988 127.754 123.988 127 123.934 125.707C123.88 124.468 123.826 122.69 123.718 120.805C123.557 118.866 123.395 117.142 123.233 115.903C123.072 114.664 122.964 113.91 122.964 113.91Z" fill="#EB996E"/>
<path d="M134.926 129.693C134.98 129.747 134.334 130.07 133.525 129.801C132.717 129.585 132.34 128.939 132.448 128.939C132.502 128.885 132.933 129.316 133.633 129.531C134.28 129.801 134.873 129.639 134.926 129.693Z" fill="#EB996E"/>
<path d="M120.432 145.961L109.493 150.54H102.973C102.973 150.54 96.5602 152.533 95.5363 158.566C94.5664 164.6 94.4047 167.724 97.2607 168.424C100.117 169.178 108.092 169.232 112.025 167.939C116.013 166.647 126.359 158.243 126.359 158.243L127.383 152.21L120.432 145.961Z" fill="#FFBE9D"/>
<path d="M122.964 152.587C122.964 152.587 122.857 152.479 122.641 152.318C122.426 152.102 122.21 151.833 121.941 151.402C121.402 150.594 120.809 149.355 120.432 147.954C120.001 146.554 119.839 145.207 119.785 144.237C119.677 143.268 119.731 142.675 119.731 142.675C119.785 142.675 119.839 143.268 119.947 144.237C120.108 145.207 120.27 146.5 120.701 147.901C121.078 149.301 121.617 150.486 122.102 151.348C122.641 152.102 123.018 152.587 122.964 152.587Z" fill="#EB996E"/>
<path d="M127.759 154.526C127.705 154.526 128.19 153.664 128.406 152.21C128.514 151.456 128.514 150.594 128.298 149.624C128.083 148.655 127.652 147.685 126.951 146.769C126.304 145.854 125.55 145.046 124.903 144.237C124.257 143.483 123.772 142.675 123.448 142.029C123.125 141.329 122.963 140.736 122.91 140.305C122.856 139.874 122.856 139.659 122.91 139.659C122.963 139.659 122.963 140.628 123.664 141.975C123.987 142.621 124.526 143.376 125.173 144.13C125.819 144.884 126.574 145.692 127.22 146.662C127.921 147.631 128.406 148.655 128.568 149.624C128.783 150.648 128.783 151.564 128.621 152.318C128.514 153.072 128.298 153.664 128.136 154.042C128.029 154.257 127.975 154.365 127.921 154.472C127.759 154.472 127.759 154.526 127.759 154.526Z" fill="#EB996E"/>
<path d="M110.893 128.239C110.839 128.293 109.654 126.084 108.253 123.391C106.852 120.697 105.774 118.435 105.828 118.435C105.882 118.381 107.067 120.59 108.469 123.283C109.87 125.976 110.947 128.185 110.893 128.239Z" fill="white"/>
<path d="M128.567 108.577C128.513 108.523 129.214 106.745 130.238 104.537C131.208 102.328 132.07 100.604 132.124 100.604C132.178 100.658 131.477 102.436 130.453 104.645C129.483 106.853 128.621 108.631 128.567 108.577Z" fill="white"/>
<path d="M145.865 121.344C145.811 121.397 144.68 120.158 143.386 118.596C142.093 117.034 141.069 115.687 141.123 115.634C141.177 115.58 142.309 116.819 143.602 118.381C144.895 119.943 145.919 121.29 145.865 121.344Z" fill="white"/>
<path d="M141.878 138.851C141.824 138.797 142.632 137.558 143.764 136.05C144.841 134.541 145.811 133.356 145.865 133.41C145.919 133.464 145.111 134.703 143.979 136.211C142.901 137.719 141.931 138.905 141.878 138.851Z" fill="white"/>
<path d="M136.542 163.684C136.488 163.684 136.272 163.307 135.895 162.607C135.518 161.907 135.087 160.937 134.602 159.86C134.117 158.782 133.74 157.759 133.524 157.058C133.255 156.304 133.147 155.873 133.201 155.873C133.255 155.873 133.417 156.304 133.74 157.005C134.063 157.813 134.494 158.728 134.925 159.806C135.356 160.829 135.788 161.745 136.111 162.553C136.38 163.199 136.542 163.63 136.542 163.684Z" fill="white"/>
<path d="M151.739 153.126C151.739 153.18 150.284 152.964 148.452 152.641C146.674 152.318 145.219 151.941 145.219 151.887C145.219 151.833 146.674 152.049 148.506 152.372C150.338 152.695 151.739 153.072 151.739 153.126Z" fill="white"/>
<path d="M163.54 129.963C163.486 129.909 164.887 128.293 166.665 126.407C168.443 124.468 169.952 122.96 170.006 123.014C170.06 123.067 168.659 124.684 166.881 126.569C165.102 128.508 163.593 130.016 163.54 129.963Z" fill="white"/>
<path d="M175.394 160.829C175.34 160.883 173.616 158.836 171.514 156.304C169.413 153.772 167.796 151.671 167.85 151.617C167.904 151.564 169.628 153.611 171.73 156.142C173.831 158.728 175.502 160.829 175.394 160.829Z" fill="white"/>
<path d="M101.732 147.685C101.786 147.739 100.17 148.547 98.4453 149.894C96.721 151.24 95.4816 152.533 95.4277 152.479C95.4277 152.479 95.6433 152.102 96.1821 151.564C96.6671 151.025 97.4215 150.325 98.2837 149.678C99.1459 149.032 100.008 148.493 100.655 148.17C101.301 147.793 101.678 147.631 101.732 147.685Z" fill="white"/>
<path d="M106.15 135.781C106.204 135.834 105.665 136.804 104.911 137.935C104.157 139.067 103.456 139.982 103.402 139.928C103.348 139.875 103.887 138.905 104.642 137.774C105.396 136.642 106.096 135.727 106.15 135.781Z" fill="white"/>
<path d="M116.174 147.47C116.12 147.524 115.527 146.554 115.258 145.261C114.934 143.968 115.042 142.837 115.15 142.891C115.258 142.891 115.258 143.968 115.581 145.207C115.796 146.446 116.227 147.416 116.174 147.47Z" fill="white"/>
<path d="M117.628 110.355C117.628 110.409 116.712 110.624 115.526 110.786C114.395 110.947 113.425 111.001 113.425 110.947C113.425 110.893 114.341 110.678 115.526 110.516C116.658 110.355 117.628 110.247 117.628 110.355Z" fill="white"/>
<path d="M125.173 97.049C125.227 97.1029 124.419 97.6416 123.341 98.2341C122.317 98.8267 121.401 99.2037 121.401 99.1499C121.347 99.096 122.155 98.5573 123.233 97.9648C124.257 97.3722 125.119 96.9413 125.173 97.049Z" fill="white"/>
<path d="M146.296 102.651C146.242 102.705 145.326 101.574 144.195 100.173C143.117 98.7727 142.255 97.5337 142.363 97.4799C142.417 97.426 143.333 98.5572 144.464 99.9578C145.488 101.412 146.35 102.597 146.296 102.651Z" fill="white"/>
<path d="M173.078 116.065C173.024 116.119 172.054 115.095 171.138 113.641C170.222 112.186 169.737 110.84 169.845 110.84C169.899 110.786 170.492 112.078 171.408 113.479C172.27 114.934 173.186 116.011 173.078 116.065Z" fill="white"/>
<path d="M183.315 119.405C183.369 119.458 182.884 120.697 182.183 122.206C181.483 123.714 180.89 124.899 180.836 124.899C180.782 124.845 181.267 123.606 181.968 122.098C182.668 120.59 183.261 119.405 183.315 119.405Z" fill="white"/>
<path d="M184.77 105.452C184.716 105.506 183.477 104.159 182.022 102.382C180.567 100.658 179.435 99.2036 179.489 99.1498C179.543 99.0959 180.782 100.443 182.237 102.22C183.692 103.944 184.824 105.398 184.77 105.452Z" fill="white"/>
<path d="M169.143 94.0863C169.089 94.0863 168.981 92.9012 168.873 91.5006C168.819 90.0462 168.819 88.8611 168.927 88.8611C168.981 88.8611 169.089 90.0462 169.197 91.4468C169.25 92.9551 169.197 94.0863 169.143 94.0863Z" fill="white"/>
<path d="M181.862 93.386C181.862 93.4399 180.407 93.7092 178.521 93.9786C176.688 94.2479 175.18 94.3556 175.18 94.3018C175.18 94.2479 176.635 93.9786 178.521 93.7092C180.353 93.4399 181.862 93.3322 181.862 93.386Z" fill="white"/>
<path d="M201.96 108.146C201.906 108.2 200.99 106.476 199.966 104.321C198.943 102.167 198.134 100.443 198.242 100.389C198.296 100.335 199.212 102.059 200.236 104.214C201.26 106.368 202.014 108.092 201.96 108.146Z" fill="white"/>
<path d="M198.565 120.859C198.511 120.859 198.673 119.458 199.05 117.788C199.373 116.118 199.696 114.772 199.804 114.772C199.858 114.772 199.696 116.172 199.319 117.842C198.996 119.566 198.673 120.913 198.565 120.859Z" fill="white"/>
<path d="M207.887 130.932C207.833 130.932 207.079 129.101 206.27 126.784C205.462 124.468 204.869 122.582 204.923 122.529C204.977 122.529 205.732 124.36 206.54 126.676C207.348 128.993 207.941 130.878 207.887 130.932Z" fill="white"/>
<path d="M206.595 136.804C206.595 136.858 205.301 136.588 203.847 135.834C202.446 135.08 201.476 134.11 201.529 134.11C201.583 134.057 202.553 134.865 203.954 135.619C205.409 136.319 206.595 136.696 206.595 136.804Z" fill="white"/>
<path d="M218.503 150.217C218.45 150.271 218.018 149.409 217.533 148.385C217.049 147.362 216.779 146.5 216.833 146.446C216.887 146.392 217.318 147.254 217.803 148.278C218.288 149.301 218.611 150.163 218.503 150.217Z" fill="white"/>
<path d="M148.075 168.856C148.021 168.856 147.805 167.778 147.644 166.485C147.482 165.139 147.428 164.061 147.482 164.061C147.536 164.061 147.752 165.139 147.913 166.431C148.075 167.778 148.129 168.856 148.075 168.856Z" fill="white"/>
<path d="M184.663 167.94C184.609 167.94 184.77 166.862 185.04 165.623C185.309 164.331 185.579 163.307 185.686 163.361C185.74 163.361 185.579 164.438 185.309 165.677C185.04 166.97 184.717 167.994 184.663 167.94Z" fill="white"/>
</g>
<g filter="url(#filter1_d)">
<path fill-rule="evenodd" clip-rule="evenodd" d="M295.652 165.217C286.004 235.94 225.361 290.434 151.99 290.434C77.6326 290.434 16.3478 234.464 7.9668 162.356C11.0664 163.538 14.305 165.157 17.7941 166.902C31.6954 173.854 49.572 182.793 78.4693 173.968C122.682 160.465 167.889 160.465 220.05 177.633C245.895 186.139 273.307 175.359 295.652 165.217Z" fill="white"/>
</g>
<path d="M62.6138 220H61.2026V209.118H57.3594V207.864H66.457V209.118H62.6138V220ZM72.2344 210.736C72.6383 210.736 73.0008 210.77 73.3218 210.836L73.1309 212.114C72.7546 212.031 72.4225 211.99 72.1348 211.99C71.3988 211.99 70.7679 212.289 70.2422 212.886C69.722 213.484 69.4619 214.228 69.4619 215.119V220H68.084V210.902H69.2212L69.3789 212.587H69.4453C69.7829 211.995 70.1896 211.539 70.6655 211.218C71.1414 210.897 71.6644 210.736 72.2344 210.736ZM80.6182 220L80.3442 218.705H80.2778C79.8241 219.275 79.3703 219.662 78.9165 219.867C78.4683 220.066 77.9066 220.166 77.2314 220.166C76.3294 220.166 75.6211 219.934 75.1064 219.469C74.5973 219.004 74.3428 218.343 74.3428 217.485C74.3428 215.648 75.812 214.685 78.7505 214.596L80.2944 214.546V213.982C80.2944 213.268 80.1395 212.742 79.8296 212.405C79.5252 212.062 79.0355 211.89 78.3604 211.89C77.6022 211.89 76.7445 212.123 75.7871 212.587L75.3638 211.533C75.812 211.29 76.3018 211.099 76.833 210.96C77.3698 210.822 77.9066 210.753 78.4434 210.753C79.528 210.753 80.3304 210.994 80.8506 211.475C81.3763 211.957 81.6392 212.729 81.6392 213.791V220H80.6182ZM77.5054 219.029C78.3631 219.029 79.0355 218.794 79.5225 218.323C80.015 217.853 80.2612 217.194 80.2612 216.348V215.526L78.8833 215.584C77.7876 215.623 76.9963 215.794 76.5093 216.099C76.0278 216.397 75.7871 216.865 75.7871 217.501C75.7871 218 75.9365 218.379 76.2354 218.639C76.5397 218.899 76.9631 219.029 77.5054 219.029ZM85.8643 220H84.4863V210.902H85.8643V220ZM84.3701 208.437C84.3701 208.122 84.4476 207.892 84.6025 207.748C84.7575 207.599 84.9512 207.524 85.1836 207.524C85.4049 207.524 85.5959 207.599 85.7563 207.748C85.9168 207.897 85.9971 208.127 85.9971 208.437C85.9971 208.747 85.9168 208.979 85.7563 209.134C85.5959 209.284 85.4049 209.358 85.1836 209.358C84.9512 209.358 84.7575 209.284 84.6025 209.134C84.4476 208.979 84.3701 208.747 84.3701 208.437ZM95.0117 220V214.115C95.0117 213.373 94.8429 212.82 94.5054 212.455C94.1678 212.089 93.6393 211.907 92.9199 211.907C91.9681 211.907 91.2708 212.164 90.8281 212.679C90.3854 213.193 90.1641 214.043 90.1641 215.227V220H88.7861V210.902H89.9067L90.1309 212.147H90.1973C90.4795 211.699 90.8752 211.353 91.3843 211.11C91.8934 210.861 92.4606 210.736 93.0859 210.736C94.1816 210.736 95.0062 211.002 95.5596 211.533C96.113 212.059 96.3896 212.903 96.3896 214.065V220H95.0117ZM103.072 220.166C101.727 220.166 100.665 219.757 99.8843 218.938C99.1095 218.118 98.7222 216.981 98.7222 215.526C98.7222 214.059 99.0819 212.895 99.8013 212.031C100.526 211.168 101.497 210.736 102.715 210.736C103.855 210.736 104.757 211.113 105.421 211.865C106.085 212.612 106.417 213.6 106.417 214.829V215.7H100.15C100.178 216.768 100.446 217.579 100.955 218.132C101.47 218.686 102.192 218.962 103.122 218.962C104.101 218.962 105.069 218.758 106.027 218.348V219.577C105.54 219.787 105.078 219.936 104.641 220.025C104.209 220.119 103.686 220.166 103.072 220.166ZM102.698 211.89C101.968 211.89 101.384 212.128 100.947 212.604C100.515 213.08 100.261 213.738 100.183 214.58H104.939C104.939 213.711 104.746 213.047 104.358 212.587C103.971 212.123 103.418 211.89 102.698 211.89ZM114.967 218.78H114.892C114.256 219.704 113.304 220.166 112.037 220.166C110.847 220.166 109.92 219.759 109.256 218.946C108.597 218.132 108.268 216.976 108.268 215.476C108.268 213.976 108.6 212.812 109.264 211.981C109.928 211.151 110.852 210.736 112.037 210.736C113.271 210.736 114.217 211.185 114.875 212.081H114.983L114.925 211.425L114.892 210.786V207.084H116.27V220H115.149L114.967 218.78ZM112.211 219.012C113.152 219.012 113.832 218.758 114.253 218.249C114.679 217.734 114.892 216.907 114.892 215.767V215.476C114.892 214.187 114.676 213.268 114.245 212.72C113.819 212.167 113.135 211.89 112.194 211.89C111.386 211.89 110.767 212.206 110.335 212.836C109.909 213.462 109.696 214.347 109.696 215.493C109.696 216.655 109.909 217.532 110.335 218.124C110.761 218.716 111.386 219.012 112.211 219.012ZM135.212 220V214.082C135.212 213.357 135.057 212.814 134.748 212.455C134.438 212.089 133.956 211.907 133.303 211.907C132.445 211.907 131.812 212.153 131.402 212.646C130.993 213.138 130.788 213.896 130.788 214.92V220H129.41V214.082C129.41 213.357 129.255 212.814 128.945 212.455C128.635 212.089 128.151 211.907 127.493 211.907C126.629 211.907 125.996 212.167 125.592 212.687C125.193 213.202 124.994 214.048 124.994 215.227V220H123.616V210.902H124.737L124.961 212.147H125.027C125.287 211.705 125.653 211.359 126.123 211.11C126.599 210.861 127.13 210.736 127.717 210.736C129.139 210.736 130.069 211.251 130.506 212.28H130.572C130.843 211.804 131.236 211.428 131.751 211.151C132.266 210.875 132.852 210.736 133.511 210.736C134.54 210.736 135.309 211.002 135.818 211.533C136.333 212.059 136.59 212.903 136.59 214.065V220H135.212ZM143.281 220.166C141.936 220.166 140.874 219.757 140.093 218.938C139.319 218.118 138.931 216.981 138.931 215.526C138.931 214.059 139.291 212.895 140.01 212.031C140.735 211.168 141.706 210.736 142.924 210.736C144.064 210.736 144.966 211.113 145.63 211.865C146.294 212.612 146.626 213.6 146.626 214.829V215.7H140.359C140.387 216.768 140.655 217.579 141.164 218.132C141.679 218.686 142.401 218.962 143.331 218.962C144.31 218.962 145.278 218.758 146.236 218.348V219.577C145.749 219.787 145.287 219.936 144.85 220.025C144.418 220.119 143.895 220.166 143.281 220.166ZM142.907 211.89C142.177 211.89 141.593 212.128 141.156 212.604C140.724 213.08 140.47 213.738 140.392 214.58H145.148C145.148 213.711 144.955 213.047 144.567 212.587C144.18 212.123 143.627 211.89 142.907 211.89ZM155.209 220V214.115C155.209 213.373 155.04 212.82 154.703 212.455C154.365 212.089 153.837 211.907 153.117 211.907C152.165 211.907 151.468 212.164 151.025 212.679C150.583 213.193 150.361 214.043 150.361 215.227V220H148.983V210.902H150.104L150.328 212.147H150.395C150.677 211.699 151.072 211.353 151.582 211.11C152.091 210.861 152.658 210.736 153.283 210.736C154.379 210.736 155.203 211.002 155.757 211.533C156.31 212.059 156.587 212.903 156.587 214.065V220H155.209ZM162.364 219.029C162.608 219.029 162.843 219.012 163.07 218.979C163.297 218.94 163.477 218.902 163.609 218.863V219.917C163.46 219.989 163.239 220.047 162.945 220.091C162.658 220.141 162.397 220.166 162.165 220.166C160.405 220.166 159.525 219.239 159.525 217.385V211.973H158.222V211.309L159.525 210.736L160.106 208.794H160.903V210.902H163.543V211.973H160.903V217.327C160.903 217.875 161.033 218.296 161.293 218.589C161.554 218.882 161.91 219.029 162.364 219.029ZM173.288 215.443C173.288 216.926 172.915 218.085 172.167 218.921C171.42 219.751 170.388 220.166 169.071 220.166C168.258 220.166 167.536 219.975 166.905 219.593C166.274 219.211 165.787 218.664 165.444 217.95C165.101 217.236 164.929 216.4 164.929 215.443C164.929 213.96 165.3 212.806 166.042 211.981C166.783 211.151 167.812 210.736 169.129 210.736C170.402 210.736 171.412 211.16 172.159 212.006C172.912 212.853 173.288 213.999 173.288 215.443ZM166.357 215.443C166.357 216.605 166.589 217.49 167.054 218.099C167.519 218.708 168.202 219.012 169.104 219.012C170.007 219.012 170.69 218.711 171.155 218.107C171.625 217.499 171.86 216.611 171.86 215.443C171.86 214.286 171.625 213.409 171.155 212.812C170.69 212.208 170.001 211.907 169.088 211.907C168.186 211.907 167.505 212.203 167.046 212.795C166.587 213.387 166.357 214.27 166.357 215.443ZM179.862 210.736C180.266 210.736 180.629 210.77 180.95 210.836L180.759 212.114C180.382 212.031 180.05 211.99 179.763 211.99C179.027 211.99 178.396 212.289 177.87 212.886C177.35 213.484 177.09 214.228 177.09 215.119V220H175.712V210.902H176.849L177.007 212.587H177.073C177.411 211.995 177.818 211.539 178.293 211.218C178.769 210.897 179.292 210.736 179.862 210.736ZM188.52 217.518C188.52 218.365 188.205 219.018 187.574 219.477C186.943 219.936 186.057 220.166 184.917 220.166C183.711 220.166 182.77 219.975 182.095 219.593V218.315C182.532 218.536 183 218.711 183.498 218.838C184.002 218.965 184.486 219.029 184.951 219.029C185.67 219.029 186.223 218.915 186.611 218.688C186.998 218.456 187.192 218.105 187.192 217.634C187.192 217.28 187.037 216.979 186.727 216.729C186.423 216.475 185.825 216.176 184.934 215.833C184.087 215.518 183.484 215.244 183.125 215.011C182.77 214.773 182.505 214.505 182.328 214.206C182.156 213.907 182.07 213.55 182.07 213.135C182.07 212.394 182.372 211.81 182.975 211.384C183.578 210.952 184.406 210.736 185.457 210.736C186.437 210.736 187.394 210.936 188.329 211.334L187.839 212.455C186.926 212.078 186.099 211.89 185.357 211.89C184.704 211.89 184.212 211.993 183.88 212.197C183.548 212.402 183.382 212.684 183.382 213.044C183.382 213.287 183.443 213.495 183.564 213.667C183.692 213.838 183.894 214.001 184.17 214.156C184.447 214.311 184.978 214.535 185.764 214.829C186.843 215.222 187.571 215.617 187.947 216.016C188.329 216.414 188.52 216.915 188.52 217.518ZM206.782 220V214.082C206.782 213.357 206.627 212.814 206.317 212.455C206.007 212.089 205.526 211.907 204.873 211.907C204.015 211.907 203.381 212.153 202.972 212.646C202.562 213.138 202.357 213.896 202.357 214.92V220H200.979V214.082C200.979 213.357 200.825 212.814 200.515 212.455C200.205 212.089 199.721 211.907 199.062 211.907C198.199 211.907 197.565 212.167 197.161 212.687C196.763 213.202 196.563 214.048 196.563 215.227V220H195.186V210.902H196.306L196.53 212.147H196.597C196.857 211.705 197.222 211.359 197.692 211.11C198.168 210.861 198.7 210.736 199.286 210.736C200.708 210.736 201.638 211.251 202.075 212.28H202.142C202.413 211.804 202.806 211.428 203.32 211.151C203.835 210.875 204.422 210.736 205.08 210.736C206.109 210.736 206.879 211.002 207.388 211.533C207.902 212.059 208.16 212.903 208.16 214.065V220H206.782ZM218.859 215.443C218.859 216.926 218.486 218.085 217.739 218.921C216.992 219.751 215.96 220.166 214.643 220.166C213.829 220.166 213.107 219.975 212.476 219.593C211.845 219.211 211.358 218.664 211.015 217.95C210.672 217.236 210.5 216.4 210.5 215.443C210.5 213.96 210.871 212.806 211.613 211.981C212.354 211.151 213.384 210.736 214.701 210.736C215.973 210.736 216.983 211.16 217.73 212.006C218.483 212.853 218.859 213.999 218.859 215.443ZM211.928 215.443C211.928 216.605 212.161 217.49 212.625 218.099C213.09 218.708 213.774 219.012 214.676 219.012C215.578 219.012 216.261 218.711 216.726 218.107C217.196 217.499 217.432 216.611 217.432 215.443C217.432 214.286 217.196 213.409 216.726 212.812C216.261 212.208 215.572 211.907 214.659 211.907C213.757 211.907 213.076 212.203 212.617 212.795C212.158 213.387 211.928 214.27 211.928 215.443ZM227.509 220V214.115C227.509 213.373 227.34 212.82 227.002 212.455C226.665 212.089 226.136 211.907 225.417 211.907C224.465 211.907 223.768 212.164 223.325 212.679C222.882 213.193 222.661 214.043 222.661 215.227V220H221.283V210.902H222.404L222.628 212.147H222.694C222.977 211.699 223.372 211.353 223.881 211.11C224.39 210.861 224.958 210.736 225.583 210.736C226.679 210.736 227.503 211.002 228.057 211.533C228.61 212.059 228.887 212.903 228.887 214.065V220H227.509ZM233.104 220H231.726V210.902H233.104V220ZM231.609 208.437C231.609 208.122 231.687 207.892 231.842 207.748C231.997 207.599 232.19 207.524 232.423 207.524C232.644 207.524 232.835 207.599 232.996 207.748C233.156 207.897 233.236 208.127 233.236 208.437C233.236 208.747 233.156 208.979 232.996 209.134C232.835 209.284 232.644 209.358 232.423 209.358C232.19 209.358 231.997 209.284 231.842 209.134C231.687 208.979 231.609 208.747 231.609 208.437ZM238.964 219.029C239.207 219.029 239.443 219.012 239.669 218.979C239.896 218.94 240.076 218.902 240.209 218.863V219.917C240.06 219.989 239.838 220.047 239.545 220.091C239.257 220.141 238.997 220.166 238.765 220.166C237.005 220.166 236.125 219.239 236.125 217.385V211.973H234.822V211.309L236.125 210.736L236.706 208.794H237.503V210.902H240.143V211.973H237.503V217.327C237.503 217.875 237.633 218.296 237.893 218.589C238.153 218.882 238.51 219.029 238.964 219.029ZM249.888 215.443C249.888 216.926 249.514 218.085 248.767 218.921C248.02 219.751 246.988 220.166 245.671 220.166C244.857 220.166 244.135 219.975 243.504 219.593C242.874 219.211 242.387 218.664 242.043 217.95C241.7 217.236 241.529 216.4 241.529 215.443C241.529 213.96 241.9 212.806 242.641 211.981C243.383 211.151 244.412 210.736 245.729 210.736C247.002 210.736 248.012 211.16 248.759 212.006C249.511 212.853 249.888 213.999 249.888 215.443ZM242.957 215.443C242.957 216.605 243.189 217.49 243.654 218.099C244.119 218.708 244.802 219.012 245.704 219.012C246.606 219.012 247.29 218.711 247.754 218.107C248.225 217.499 248.46 216.611 248.46 215.443C248.46 214.286 248.225 213.409 247.754 212.812C247.29 212.208 246.601 211.907 245.688 211.907C244.785 211.907 244.105 212.203 243.646 212.795C243.186 213.387 242.957 214.27 242.957 215.443ZM256.462 210.736C256.866 210.736 257.228 210.77 257.549 210.836L257.358 212.114C256.982 212.031 256.65 211.99 256.362 211.99C255.626 211.99 254.995 212.289 254.47 212.886C253.95 213.484 253.689 214.228 253.689 215.119V220H252.312V210.902H253.449L253.606 212.587H253.673C254.01 211.995 254.417 211.539 254.893 211.218C255.369 210.897 255.892 210.736 256.462 210.736ZM88.4043 243L88.1304 241.705H88.064C87.6102 242.275 87.1564 242.662 86.7026 242.867C86.2544 243.066 85.6927 243.166 85.0176 243.166C84.1156 243.166 83.4072 242.934 82.8926 242.469C82.3835 242.004 82.1289 241.343 82.1289 240.485C82.1289 238.648 83.5981 237.685 86.5366 237.596L88.0806 237.546V236.982C88.0806 236.268 87.9256 235.742 87.6157 235.405C87.3114 235.062 86.8216 234.89 86.1465 234.89C85.3883 234.89 84.5306 235.123 83.5732 235.587L83.1499 234.533C83.5981 234.29 84.0879 234.099 84.6191 233.96C85.1559 233.822 85.6927 233.753 86.2295 233.753C87.3141 233.753 88.1165 233.994 88.6367 234.475C89.1624 234.957 89.4253 235.729 89.4253 236.791V243H88.4043ZM85.2915 242.029C86.1493 242.029 86.8216 241.794 87.3086 241.323C87.8011 240.853 88.0474 240.194 88.0474 239.348V238.526L86.6694 238.584C85.5737 238.623 84.7824 238.794 84.2954 239.099C83.814 239.397 83.5732 239.865 83.5732 240.501C83.5732 241 83.7227 241.379 84.0215 241.639C84.3258 241.899 84.7492 242.029 85.2915 242.029ZM98.498 243V237.115C98.498 236.373 98.3293 235.82 97.9917 235.455C97.6541 235.089 97.1257 234.907 96.4062 234.907C95.4544 234.907 94.7572 235.164 94.3145 235.679C93.8717 236.193 93.6504 237.043 93.6504 238.227V243H92.2725V233.902H93.3931L93.6172 235.147H93.6836C93.9658 234.699 94.3615 234.353 94.8706 234.11C95.3797 233.861 95.9469 233.736 96.5723 233.736C97.668 233.736 98.4925 234.002 99.0459 234.533C99.5993 235.059 99.876 235.903 99.876 237.065V243H98.498ZM108.907 241.78H108.833C108.196 242.704 107.244 243.166 105.977 243.166C104.787 243.166 103.86 242.759 103.196 241.946C102.538 241.132 102.208 239.976 102.208 238.476C102.208 236.976 102.541 235.812 103.205 234.981C103.869 234.151 104.793 233.736 105.977 233.736C107.211 233.736 108.157 234.185 108.816 235.081H108.924L108.866 234.425L108.833 233.786V230.084H110.21V243H109.09L108.907 241.78ZM106.151 242.012C107.092 242.012 107.773 241.758 108.193 241.249C108.619 240.734 108.833 239.907 108.833 238.767V238.476C108.833 237.187 108.617 236.268 108.185 235.72C107.759 235.167 107.076 234.89 106.135 234.89C105.327 234.89 104.707 235.206 104.275 235.836C103.849 236.462 103.636 237.347 103.636 238.493C103.636 239.655 103.849 240.532 104.275 241.124C104.701 241.716 105.327 242.012 106.151 242.012ZM125.002 233.902V234.774L123.317 234.973C123.472 235.167 123.611 235.421 123.732 235.737C123.854 236.047 123.915 236.398 123.915 236.791C123.915 237.682 123.611 238.393 123.002 238.924C122.393 239.456 121.558 239.721 120.495 239.721C120.224 239.721 119.969 239.699 119.731 239.655C119.145 239.965 118.852 240.355 118.852 240.825C118.852 241.074 118.954 241.26 119.159 241.381C119.363 241.498 119.715 241.556 120.213 241.556H121.823C122.808 241.556 123.564 241.763 124.089 242.178C124.621 242.593 124.886 243.196 124.886 243.988C124.886 244.995 124.482 245.761 123.674 246.287C122.866 246.818 121.688 247.084 120.138 247.084C118.948 247.084 118.03 246.863 117.382 246.42C116.74 245.977 116.419 245.352 116.419 244.544C116.419 243.991 116.597 243.512 116.951 243.108C117.305 242.704 117.803 242.43 118.445 242.286C118.212 242.181 118.016 242.018 117.855 241.796C117.701 241.575 117.623 241.318 117.623 241.024C117.623 240.692 117.712 240.402 117.889 240.153C118.066 239.904 118.345 239.663 118.727 239.431C118.257 239.237 117.872 238.908 117.573 238.443C117.28 237.978 117.133 237.447 117.133 236.849C117.133 235.853 117.432 235.087 118.03 234.55C118.627 234.007 119.474 233.736 120.57 233.736C121.046 233.736 121.475 233.792 121.856 233.902H125.002ZM117.748 244.527C117.748 245.02 117.955 245.393 118.37 245.648C118.785 245.903 119.38 246.03 120.155 246.03C121.311 246.03 122.166 245.855 122.72 245.507C123.279 245.164 123.558 244.696 123.558 244.104C123.558 243.611 123.406 243.268 123.102 243.075C122.797 242.887 122.224 242.792 121.383 242.792H119.731C119.106 242.792 118.619 242.942 118.271 243.241C117.922 243.54 117.748 243.968 117.748 244.527ZM118.495 236.816C118.495 237.452 118.674 237.934 119.034 238.26C119.394 238.587 119.895 238.75 120.537 238.75C121.881 238.75 122.554 238.097 122.554 236.791C122.554 235.424 121.873 234.741 120.512 234.741C119.864 234.741 119.366 234.915 119.018 235.264C118.669 235.612 118.495 236.13 118.495 236.816ZM128.165 233.902V239.804C128.165 240.546 128.334 241.099 128.671 241.464C129.009 241.83 129.537 242.012 130.257 242.012C131.209 242.012 131.903 241.752 132.34 241.232C132.783 240.712 133.004 239.862 133.004 238.684V233.902H134.382V243H133.245L133.046 241.78H132.971C132.689 242.228 132.296 242.571 131.792 242.809C131.294 243.047 130.724 243.166 130.083 243.166C128.976 243.166 128.146 242.903 127.592 242.377C127.044 241.852 126.771 241.011 126.771 239.854V233.902H128.165ZM138.69 243H137.312V233.902H138.69V243ZM137.196 231.437C137.196 231.122 137.274 230.892 137.429 230.748C137.584 230.599 137.777 230.524 138.01 230.524C138.231 230.524 138.422 230.599 138.583 230.748C138.743 230.897 138.823 231.127 138.823 231.437C138.823 231.747 138.743 231.979 138.583 232.134C138.422 232.284 138.231 232.358 138.01 232.358C137.777 232.358 137.584 232.284 137.429 232.134C137.274 231.979 137.196 231.747 137.196 231.437ZM147.805 241.78H147.73C147.094 242.704 146.142 243.166 144.875 243.166C143.685 243.166 142.758 242.759 142.094 241.946C141.435 241.132 141.106 239.976 141.106 238.476C141.106 236.976 141.438 235.812 142.102 234.981C142.766 234.151 143.69 233.736 144.875 233.736C146.109 233.736 147.055 234.185 147.713 235.081H147.821L147.763 234.425L147.73 233.786V230.084H149.108V243H147.987L147.805 241.78ZM145.049 242.012C145.99 242.012 146.67 241.758 147.091 241.249C147.517 240.734 147.73 239.907 147.73 238.767V238.476C147.73 237.187 147.514 236.268 147.083 235.72C146.656 235.167 145.973 234.89 145.032 234.89C144.224 234.89 143.604 235.206 143.173 235.836C142.747 236.462 142.534 237.347 142.534 238.493C142.534 239.655 142.747 240.532 143.173 241.124C143.599 241.716 144.224 242.012 145.049 242.012ZM155.881 243.166C154.537 243.166 153.474 242.757 152.694 241.938C151.919 241.118 151.532 239.981 151.532 238.526C151.532 237.059 151.891 235.895 152.611 235.031C153.336 234.168 154.307 233.736 155.524 233.736C156.664 233.736 157.566 234.113 158.23 234.865C158.895 235.612 159.227 236.6 159.227 237.829V238.7H152.959C152.987 239.768 153.256 240.579 153.765 241.132C154.279 241.686 155.001 241.962 155.931 241.962C156.911 241.962 157.879 241.758 158.836 241.348V242.577C158.349 242.787 157.887 242.936 157.45 243.025C157.019 243.119 156.496 243.166 155.881 243.166ZM155.508 234.89C154.777 234.89 154.194 235.128 153.756 235.604C153.325 236.08 153.07 236.738 152.993 237.58H157.749C157.749 236.711 157.555 236.047 157.168 235.587C156.781 235.123 156.227 234.89 155.508 234.89ZM171.869 240.518C171.869 241.365 171.553 242.018 170.922 242.477C170.292 242.936 169.406 243.166 168.266 243.166C167.06 243.166 166.119 242.975 165.444 242.593V241.315C165.881 241.536 166.349 241.711 166.847 241.838C167.35 241.965 167.834 242.029 168.299 242.029C169.019 242.029 169.572 241.915 169.959 241.688C170.347 241.456 170.541 241.105 170.541 240.634C170.541 240.28 170.386 239.979 170.076 239.729C169.771 239.475 169.174 239.176 168.283 238.833C167.436 238.518 166.833 238.244 166.473 238.011C166.119 237.773 165.853 237.505 165.676 237.206C165.505 236.907 165.419 236.55 165.419 236.135C165.419 235.394 165.721 234.81 166.324 234.384C166.927 233.952 167.754 233.736 168.806 233.736C169.785 233.736 170.743 233.936 171.678 234.334L171.188 235.455C170.275 235.078 169.448 234.89 168.706 234.89C168.053 234.89 167.561 234.993 167.229 235.197C166.896 235.402 166.73 235.684 166.73 236.044C166.73 236.287 166.791 236.495 166.913 236.667C167.04 236.838 167.242 237.001 167.519 237.156C167.796 237.311 168.327 237.535 169.113 237.829C170.192 238.222 170.92 238.617 171.296 239.016C171.678 239.414 171.869 239.915 171.869 240.518ZM177.057 242.029C177.3 242.029 177.535 242.012 177.762 241.979C177.989 241.94 178.169 241.902 178.302 241.863V242.917C178.152 242.989 177.931 243.047 177.638 243.091C177.35 243.141 177.09 243.166 176.857 243.166C175.098 243.166 174.218 242.239 174.218 240.385V234.973H172.915V234.309L174.218 233.736L174.799 231.794H175.596V233.902H178.235V234.973H175.596V240.327C175.596 240.875 175.726 241.296 175.986 241.589C176.246 241.882 176.603 242.029 177.057 242.029ZM181.423 233.902V239.804C181.423 240.546 181.592 241.099 181.929 241.464C182.267 241.83 182.795 242.012 183.515 242.012C184.466 242.012 185.161 241.752 185.598 241.232C186.041 240.712 186.262 239.862 186.262 238.684V233.902H187.64V243H186.503L186.304 241.78H186.229C185.947 242.228 185.554 242.571 185.05 242.809C184.552 243.047 183.982 243.166 183.34 243.166C182.234 243.166 181.403 242.903 180.85 242.377C180.302 241.852 180.028 241.011 180.028 239.854V233.902H181.423ZM196.763 241.78H196.688C196.052 242.704 195.1 243.166 193.833 243.166C192.643 243.166 191.716 242.759 191.052 241.946C190.393 241.132 190.064 239.976 190.064 238.476C190.064 236.976 190.396 235.812 191.06 234.981C191.724 234.151 192.648 233.736 193.833 233.736C195.067 233.736 196.013 234.185 196.671 235.081H196.779L196.721 234.425L196.688 233.786V230.084H198.066V243H196.945L196.763 241.78ZM194.007 242.012C194.948 242.012 195.628 241.758 196.049 241.249C196.475 240.734 196.688 239.907 196.688 238.767V238.476C196.688 237.187 196.472 236.268 196.041 235.72C195.614 235.167 194.931 234.89 193.99 234.89C193.182 234.89 192.562 235.206 192.131 235.836C191.705 236.462 191.492 237.347 191.492 238.493C191.492 239.655 191.705 240.532 192.131 241.124C192.557 241.716 193.182 242.012 194.007 242.012ZM204.839 243.166C203.495 243.166 202.432 242.757 201.652 241.938C200.877 241.118 200.49 239.981 200.49 238.526C200.49 237.059 200.849 235.895 201.569 235.031C202.294 234.168 203.265 233.736 204.482 233.736C205.622 233.736 206.524 234.113 207.188 234.865C207.853 235.612 208.185 236.6 208.185 237.829V238.7H201.917C201.945 239.768 202.214 240.579 202.723 241.132C203.237 241.686 203.959 241.962 204.889 241.962C205.869 241.962 206.837 241.758 207.794 241.348V242.577C207.307 242.787 206.845 242.936 206.408 243.025C205.977 243.119 205.454 243.166 204.839 243.166ZM204.466 234.89C203.735 234.89 203.152 235.128 202.714 235.604C202.283 236.08 202.028 236.738 201.951 237.58H206.707C206.707 236.711 206.513 236.047 206.126 235.587C205.739 235.123 205.185 234.89 204.466 234.89ZM216.768 243V237.115C216.768 236.373 216.599 235.82 216.261 235.455C215.924 235.089 215.395 234.907 214.676 234.907C213.724 234.907 213.027 235.164 212.584 235.679C212.141 236.193 211.92 237.043 211.92 238.227V243H210.542V233.902H211.663L211.887 235.147H211.953C212.235 234.699 212.631 234.353 213.14 234.11C213.649 233.861 214.216 233.736 214.842 233.736C215.938 233.736 216.762 234.002 217.315 234.533C217.869 235.059 218.146 235.903 218.146 237.065V243H216.768ZM223.923 242.029C224.166 242.029 224.402 242.012 224.628 241.979C224.855 241.94 225.035 241.902 225.168 241.863V242.917C225.019 242.989 224.797 243.047 224.504 243.091C224.216 243.141 223.956 243.166 223.724 243.166C221.964 243.166 221.084 242.239 221.084 240.385V234.973H219.781V234.309L221.084 233.736L221.665 231.794H222.462V233.902H225.102V234.973H222.462V240.327C222.462 240.875 222.592 241.296 222.852 241.589C223.112 241.882 223.469 242.029 223.923 242.029ZM232.863 240.518C232.863 241.365 232.547 242.018 231.917 242.477C231.286 242.936 230.4 243.166 229.26 243.166C228.054 243.166 227.113 242.975 226.438 242.593V241.315C226.875 241.536 227.343 241.711 227.841 241.838C228.344 241.965 228.829 242.029 229.293 242.029C230.013 242.029 230.566 241.915 230.954 241.688C231.341 241.456 231.535 241.105 231.535 240.634C231.535 240.28 231.38 239.979 231.07 239.729C230.765 239.475 230.168 239.176 229.277 238.833C228.43 238.518 227.827 238.244 227.467 238.011C227.113 237.773 226.847 237.505 226.67 237.206C226.499 236.907 226.413 236.55 226.413 236.135C226.413 235.394 226.715 234.81 227.318 234.384C227.921 233.952 228.748 233.736 229.8 233.736C230.779 233.736 231.737 233.936 232.672 234.334L232.182 235.455C231.269 235.078 230.442 234.89 229.7 234.89C229.047 234.89 228.555 234.993 228.223 235.197C227.891 235.402 227.725 235.684 227.725 236.044C227.725 236.287 227.785 236.495 227.907 236.667C228.035 236.838 228.236 237.001 228.513 237.156C228.79 237.311 229.321 237.535 230.107 237.829C231.186 238.222 231.914 238.617 232.29 239.016C232.672 239.414 232.863 239.915 232.863 240.518Z" fill="black"/>
<g filter="url(#filter2_i)">
<ellipse cx="152" cy="145.25" rx="145" ry="145.25" fill="#FFDCB1" fill-opacity="0.01"/>
</g>
<g filter="url(#filter3_i)">
<ellipse cx="152" cy="145.25" rx="145" ry="145.25" fill="#FFDCB1" fill-opacity="0.01"/>
</g>
<defs>
<filter id="filter0_d" x="86" y="21" width="142" height="155.04" filterUnits="userSpaceOnUse" color-interpolation-filters="sRGB">
<feFlood flood-opacity="0" result="BackgroundImageFix"/>
<feColorMatrix in="SourceAlpha" type="matrix" values="0 0 0 0 0 0 0 0 0 0 0 0 0 0 0 0 0 0 127 0"/>
<feOffset dx="2" dy="2"/>
<feGaussianBlur stdDeviation="2.5"/>
<feColorMatrix type="matrix" values="0 0 0 0 0 0 0 0 0 0 0 0 0 0 0 0 0 0 0.25 0"/>
<feBlend mode="normal" in2="BackgroundImageFix" result="effect1_dropShadow"/>
<feBlend mode="normal" in="SourceGraphic" in2="effect1_dropShadow" result="shape"/>
</filter>
<filter id="filter1_d" x="0.966797" y="153.356" width="301.685" height="142.079" filterUnits="userSpaceOnUse" color-interpolation-filters="sRGB">
<feFlood flood-opacity="0" result="BackgroundImageFix"/>
<feColorMatrix in="SourceAlpha" type="matrix" values="0 0 0 0 0 0 0 0 0 0 0 0 0 0 0 0 0 0 127 0"/>
<feOffset dy="-2"/>
<feGaussianBlur stdDeviation="3.5"/>
<feColorMatrix type="matrix" values="0 0 0 0 0 0 0 0 0 0 0 0 0 0 0 0 0 0 0.17 0"/>
<feBlend mode="normal" in2="BackgroundImageFix" result="effect1_dropShadow"/>
<feBlend mode="normal" in="SourceGraphic" in2="effect1_dropShadow" result="shape"/>
</filter>
<filter id="filter2_i" x="7" y="0" width="292" height="292.5" filterUnits="userSpaceOnUse" color-interpolation-filters="sRGB">
<feFlood flood-opacity="0" result="BackgroundImageFix"/>
<feBlend mode="normal" in="SourceGraphic" in2="BackgroundImageFix" result="shape"/>
<feColorMatrix in="SourceAlpha" type="matrix" values="0 0 0 0 0 0 0 0 0 0 0 0 0 0 0 0 0 0 127 0" result="hardAlpha"/>
<feOffset dx="2" dy="2"/>
<feGaussianBlur stdDeviation="2"/>
<feComposite in2="hardAlpha" operator="arithmetic" k2="-1" k3="1"/>
<feColorMatrix type="matrix" values="0 0 0 0 0 0 0 0 0 0 0 0 0 0 0 0 0 0 0.15 0"/>
<feBlend mode="normal" in2="shape" result="effect1_innerShadow"/>
</filter>
<filter id="filter3_i" x="5" y="-2" width="292" height="292.5" filterUnits="userSpaceOnUse" color-interpolation-filters="sRGB">
<feFlood flood-opacity="0" result="BackgroundImageFix"/>
<feBlend mode="normal" in="SourceGraphic" in2="BackgroundImageFix" result="shape"/>
<feColorMatrix in="SourceAlpha" type="matrix" values="0 0 0 0 0 0 0 0 0 0 0 0 0 0 0 0 0 0 127 0" result="hardAlpha"/>
<feOffset dx="-2" dy="-2"/>
<feGaussianBlur stdDeviation="2"/>
<feComposite in2="hardAlpha" operator="arithmetic" k2="-1" k3="1"/>
<feColorMatrix type="matrix" values="0 0 0 0 0 0 0 0 0 0 0 0 0 0 0 0 0 0 0.15 0"/>
<feBlend mode="normal" in2="shape" result="effect1_innerShadow"/>
</filter>
</defs>
</svg>
