<svg width="303" height="296" viewBox="0 0 303 296" fill="none" xmlns="http://www.w3.org/2000/svg">
<circle cx="154" cy="145" r="145" fill="#FFCCCC"/>
<path d="M65.5212 115.312C65.5212 115.312 64.6954 109.623 64.053 107.237C63.4106 104.851 64.053 99.712 64.053 99.712C64.053 99.712 62.2177 99.5285 61.3918 100.997C60.5659 102.465 59.8318 107.787 59.0977 108.246C58.3635 108.613 56.253 108.063 55.9777 107.696C55.7024 107.329 48.82 98.7026 47.627 98.9779C46.5258 99.2532 45.5164 100.446 46.1588 101.456C46.8011 102.465 51.1141 106.686 50.4717 107.237C49.8294 107.696 44.1399 102.557 43.2223 103.107C42.3046 103.658 41.8458 104.943 42.5799 105.769C43.4058 106.594 47.627 110.54 47.1682 110.999C46.7094 111.55 42.3046 107.053 41.6623 107.329C41.0199 107.604 40.7446 108.98 41.2952 109.531C41.8458 109.99 47.26 115.129 46.8011 116.046C46.2505 116.872 42.3964 115.037 41.754 115.037C40.9282 115.129 41.0199 116.78 42.8552 117.514C43.4058 117.698 56.0694 122.562 57.5377 123.02C59.0977 123.387 65.5212 115.312 65.5212 115.312Z" fill="#D1977A"/>
<path d="M119.938 111.091C119.387 111.091 102.502 114.027 87.5443 114.853L62.0336 112.008L57.5371 122.837L85.709 128.526H110.853L119.938 111.091Z" fill="#D1977A"/>
<path d="M51.2061 116.78C51.2061 116.78 51.7566 116.23 52.8578 115.863C53.959 115.496 55.7943 115.312 57.5379 116.138C57.6296 116.23 57.7214 116.23 57.9049 116.321L57.5379 116.597C57.3543 114.853 57.5379 113.293 57.9049 112.192C58.1802 111.091 58.5473 110.54 58.5473 110.54C58.7308 110.54 57.6296 113.201 57.9967 116.597L58.0884 117.056L57.7214 116.872C57.6296 116.872 57.5379 116.78 57.4461 116.689C55.8861 115.954 54.2343 116.046 53.1331 116.321C51.8484 116.413 51.2061 116.872 51.2061 116.78Z" fill="#A96541"/>
<path d="M234.384 118.226C234.384 118.226 235.165 112.846 235.772 110.591C236.379 108.335 235.772 103.476 235.772 103.476C235.772 103.476 237.507 103.303 238.288 104.691C239.069 106.079 239.763 111.111 240.457 111.545C241.151 111.892 243.147 111.372 243.407 111.024C243.667 110.677 250.174 102.522 251.302 102.782C252.343 103.043 253.298 104.17 252.69 105.125C252.083 106.079 248.005 110.07 248.612 110.591C249.22 111.024 254.599 106.166 255.467 106.686C256.334 107.207 256.768 108.422 256.074 109.202C255.293 109.983 251.302 113.714 251.736 114.148C252.17 114.668 256.334 110.417 256.941 110.677C257.636 110.938 257.809 112.239 257.289 112.76C256.768 113.193 251.649 118.052 252.083 118.92C252.603 119.701 256.247 117.965 256.855 117.965C257.636 118.052 257.549 119.614 255.814 120.308C255.293 120.481 243.32 125.08 241.932 125.513C240.544 125.86 234.384 118.226 234.384 118.226Z" fill="#D1977A"/>
<path d="M182.936 114.234C183.456 114.234 199.42 117.011 213.562 117.792L237.681 115.102L241.933 125.34L215.297 130.719H191.525L182.936 114.234Z" fill="#D1977A"/>
<path d="M247.919 119.614C247.919 119.701 247.312 119.267 246.271 119.006C245.23 118.746 243.668 118.659 242.193 119.353C242.106 119.44 242.02 119.44 241.933 119.527L241.586 119.701L241.673 119.267C242.02 116.057 241.065 113.627 241.152 113.541C241.239 113.541 241.499 114.061 241.759 115.102C242.02 116.143 242.28 117.618 242.106 119.267L241.759 119.006C241.846 118.92 241.933 118.92 242.106 118.833C243.755 118.139 245.403 118.226 246.531 118.573C247.486 119.093 248.006 119.527 247.919 119.614Z" fill="#A96541"/>
<path d="M159.683 72.1555C158.729 66.0822 155.345 60.5296 150.487 56.7989L151.007 56.5386C146.322 54.4563 140.249 56.7121 138.08 61.3972C137.212 63.3059 136.952 65.3882 136.432 67.4704C135.911 69.4659 135.043 71.5481 133.308 72.7628C132.354 73.3701 131.313 73.7171 130.358 74.3245C129.404 74.9318 128.536 75.8862 128.623 77.014C128.71 78.4022 130.185 79.3566 131.66 79.6169C133.048 79.8771 134.61 79.8771 135.824 80.658C133.829 81.9594 133.308 84.996 134.61 86.9915C135.998 88.9002 139.034 89.4208 140.943 88.0326C139.902 90.2884 141.03 93.2382 143.199 94.5396C145.368 95.841 148.144 95.7543 150.4 94.7132C152.656 93.672 154.478 91.7633 155.866 89.6811C159.25 84.5622 160.638 78.1419 159.683 72.1555Z" fill="#2E2E2E"/>
<path d="M192.652 62.1782C192.479 60.443 191.004 59.1416 189.356 58.5342C187.707 58.0137 185.972 58.1004 184.237 58.274C185.018 56.105 185.798 53.8492 185.625 51.5934C185.451 49.3376 184.237 46.9084 181.981 46.2143C180.072 45.6069 178.077 46.3878 176.342 47.3422C174.606 48.3833 173.045 49.5979 171.223 50.292C166.364 51.8537 161.158 48.47 156.04 48.9038C150.747 49.3376 145.715 54.7168 145.802 59.9224C153.871 64.1737 161.939 68.4249 168.88 74.3246C172.611 77.5348 176.602 81.3522 181.46 81.1787C184.497 81.0919 187.447 79.1832 188.748 76.4069C190.136 73.6306 189.789 70.1601 188.054 67.7308C190.31 66.5162 192.913 64.781 192.652 62.1782Z" fill="#2E2E2E"/>
<path d="M182.848 72.9363C183.195 66.0822 176.514 58.4473 169.66 58.4473L147.189 60.2692L146.842 63.9132L143.285 109.462C143.285 109.462 143.632 124.298 156.039 124.819C167.231 125.253 167.838 113.453 167.838 113.453L168.446 104.864C168.446 104.864 177.469 105.471 180.505 94.2793C182.067 88.7266 182.501 80.5712 182.848 72.9363Z" fill="#D1977A"/>
<path d="M177.382 82.7403C177.296 83.5211 176.602 84.1284 175.821 84.0417C175.04 83.9549 174.433 83.3476 174.433 82.5668C174.519 81.7859 175.213 81.1786 175.994 81.2653C176.862 81.2653 177.469 81.9594 177.382 82.7403Z" fill="#2E2E2E"/>
<path d="M180.159 78.7493C179.985 78.9228 178.944 77.9684 177.382 77.7949C175.821 77.6214 174.606 78.3155 174.432 78.0552C174.346 77.9684 174.606 77.6214 175.127 77.3611C175.647 77.0141 176.515 76.7538 177.556 76.9273C178.51 77.0141 179.291 77.4479 179.725 77.8817C180.159 78.3155 180.332 78.6625 180.159 78.7493Z" fill="#2E2E2E"/>
<path d="M164.543 81.3521C164.456 82.1329 163.762 82.7403 162.981 82.6535C162.2 82.5667 161.593 81.9594 161.593 81.1786C161.68 80.3977 162.374 79.7904 163.154 79.8772C164.022 79.8772 164.629 80.5712 164.543 81.3521Z" fill="#2E2E2E"/>
<path d="M165.756 77.448C165.583 77.6215 164.542 76.6672 162.98 76.4936C161.418 76.3201 160.204 77.0142 160.03 76.7539C159.943 76.6672 160.204 76.3201 160.724 76.0598C161.245 75.7128 162.112 75.4525 163.067 75.626C164.021 75.7128 164.802 76.1466 165.236 76.5804C165.756 77.0142 165.843 77.3612 165.756 77.448Z" fill="#2E2E2E"/>
<path d="M169.314 88.2931C169.314 88.2063 170.269 88.2063 171.917 88.2063C172.351 88.2063 172.698 88.2063 172.785 87.946C172.872 87.7725 172.785 87.4254 172.611 86.9916C172.351 86.2108 172.004 85.43 171.744 84.5624C171.397 83.6947 169.835 78.6627 169.835 78.1421C170.009 78.1421 171.136 80.9184 172.438 84.3888C172.698 85.2564 173.045 86.0373 173.305 86.8181C173.392 87.1652 173.652 87.599 173.392 88.0328C173.219 88.293 172.958 88.3798 172.698 88.3798C172.438 88.3798 172.178 88.3798 172.004 88.3798C170.269 88.4666 169.314 88.3798 169.314 88.2931Z" fill="#2E2E2E"/>
<path d="M168.619 104.951C168.619 104.951 160.898 104.604 153.87 99.2246C153.87 99.2246 156.907 107.554 168.359 107.727L168.619 104.951Z" fill="#A96541"/>
<path d="M165.843 72.1557C165.582 72.5895 164.281 72.1557 162.632 72.0689C160.984 71.9822 159.596 72.3292 159.422 71.8087C159.336 71.5484 159.683 71.2013 160.29 70.7675C160.897 70.4205 161.852 70.0735 162.806 70.1602C163.76 70.247 164.628 70.594 165.149 71.0278C165.669 71.4616 165.929 71.8954 165.843 72.1557Z" fill="#2E2E2E"/>
<path d="M180.853 73.3704C180.506 73.8042 179.465 73.2836 178.077 73.1969C176.689 73.1101 175.561 73.3704 175.301 72.9366C175.214 72.6763 175.387 72.3293 175.908 71.8955C176.428 71.5484 177.296 71.2014 178.25 71.2881C179.205 71.3749 179.986 71.8087 180.419 72.2425C180.853 72.7631 180.94 73.1969 180.853 73.3704Z" fill="#2E2E2E"/>
<path d="M182.588 66.3429C180.94 62.2652 177.382 59.1418 173.305 57.4066C169.227 55.7582 164.715 55.4111 160.291 55.9317C155.866 56.3655 151.615 57.4934 147.363 58.6213C146.322 58.8816 145.194 59.2286 144.587 60.183C144.24 60.7903 144.153 61.5711 144.066 62.2652C143.719 68.3384 143.286 74.4984 142.938 80.5716L144.153 84.4759C146.149 84.7361 147.971 83.4347 149.359 82.1333C154.478 77.4483 157.601 70.7677 158.035 63.8269C158.555 64.6077 158.642 65.6489 158.816 66.6032C158.989 67.5576 159.51 68.512 160.377 68.859C161.852 69.4663 163.327 67.8179 163.761 66.3429C164.195 64.7813 164.108 63.0461 165.062 61.7446C166.364 64.1739 168.186 66.3429 170.442 67.9046C171.483 68.6855 172.958 69.2928 173.999 68.5987C174.78 68.0782 175.04 67.1238 174.953 66.1694C174.866 65.2151 174.346 64.4342 173.912 63.6534C175.56 65.9091 177.816 67.6444 180.419 68.6855C181.026 68.859 181.634 69.0325 182.154 68.7722C183.022 68.3384 182.935 67.2105 182.588 66.3429Z" fill="#2E2E2E"/>
<path d="M147.885 77.0144C147.711 76.9276 141.117 74.238 140.683 81.1789C140.163 88.1197 147.277 87.1653 147.277 86.9918C147.277 86.7315 147.885 77.0144 147.885 77.0144Z" fill="#D1977A"/>
<path d="M145.368 84.2152C145.368 84.2152 145.282 84.302 145.021 84.3887C144.848 84.4755 144.501 84.4755 144.154 84.302C143.46 83.9549 142.939 82.7403 142.939 81.5256C142.939 80.9183 143.113 80.311 143.373 79.7904C143.633 79.2699 143.98 78.9228 144.327 78.9228C144.674 78.8361 144.935 79.0963 145.021 79.2699C145.108 79.4434 145.021 79.6169 145.108 79.6169C145.108 79.6169 145.282 79.5301 145.195 79.1831C145.195 79.0096 145.108 78.8361 144.935 78.7493C144.761 78.5758 144.501 78.489 144.24 78.489C143.72 78.489 143.199 78.9228 142.939 79.4434C142.592 79.9639 142.418 80.658 142.418 81.3521C142.332 82.7403 143.026 84.1284 143.98 84.4755C144.501 84.649 144.848 84.4755 145.108 84.3887C145.282 84.3887 145.368 84.2152 145.368 84.2152Z" fill="#A96541"/>
<path d="M156.733 62.8724C156.733 62.8724 156.647 63.0459 156.56 63.3062C156.386 63.5665 156.213 63.9135 155.953 64.3473C155.345 65.2149 154.478 66.5163 153.09 67.9045C152.395 68.5986 151.615 69.2927 150.747 69.9868C150.313 70.3338 149.793 70.6808 149.272 71.0279C148.752 71.3749 148.144 71.6352 147.45 71.6352C146.756 71.6352 146.062 71.2014 145.715 70.5941C145.368 69.9868 145.194 69.2927 145.194 68.5118C145.281 67.0369 146.062 65.7355 146.322 64.3473C146.322 64.1738 146.409 64.0003 146.409 63.8268L146.756 64.0003C145.715 64.9547 144.674 65.909 143.633 66.7766C143.112 67.2104 142.592 67.6442 142.158 68.078C141.637 68.5118 141.117 68.9456 140.423 69.0324C140.076 69.1192 139.728 69.0324 139.468 68.8589C139.208 68.6854 138.948 68.4251 138.861 68.078C138.601 67.4707 138.601 66.8634 138.601 66.3428C138.601 65.2149 138.774 64.1738 139.034 63.3062C139.555 61.4842 140.336 60.1828 140.943 59.3152C141.29 58.8814 141.55 58.6212 141.724 58.3609C141.897 58.1873 141.984 58.1006 142.071 58.1006C142.071 58.1006 141.724 58.5344 141.117 59.402C140.509 60.2696 139.728 61.571 139.295 63.393C139.034 64.2606 138.861 65.3017 138.861 66.3428C138.861 66.8634 138.861 67.4707 139.121 67.9913C139.295 68.5118 139.815 68.8589 140.336 68.7721C140.856 68.6854 141.377 68.2516 141.897 67.8178C142.418 67.384 142.852 66.9501 143.372 66.5163C144.414 65.6487 145.455 64.6944 146.496 63.74L146.843 63.393L146.756 63.9135C146.756 64.0871 146.669 64.2606 146.669 64.5209C146.322 65.9958 145.628 67.2972 145.541 68.5986C145.541 69.2927 145.715 69.9 145.975 70.4206C146.322 70.9411 146.843 71.2882 147.45 71.2882C148.057 71.2882 148.578 71.0279 149.099 70.7676C149.619 70.4206 150.053 70.0735 150.487 69.8132C151.354 69.1192 152.135 68.4251 152.829 67.731C154.217 66.3428 155.085 65.1282 155.692 64.2606C156.039 63.8268 156.213 63.4797 156.386 63.2194C156.647 63.0459 156.733 62.8724 156.733 62.8724Z" fill="#455A64"/>
<path d="M164.542 89.074C164.021 89.8548 163.501 91.243 163.588 92.1106C163.588 92.9782 164.108 93.9326 164.889 94.3664C165.757 94.8002 166.885 94.6266 167.665 94.1061C168.533 93.5855 169.14 92.8914 169.748 92.1106C168.186 91.1562 166.19 90.0283 164.542 89.074Z" fill="#A96541"/>
<path d="M166.797 94.9738C166.797 94.9738 165.93 95.1473 164.802 94.4532C164.281 94.1062 163.674 93.4121 163.414 92.5445C163.153 91.6769 163.24 90.6358 163.761 89.7682C163.934 89.4211 164.281 89.0741 164.541 88.8138L164.628 88.7271L164.715 88.8138C166.19 89.5947 167.491 90.3755 168.359 90.9828C169.227 91.5901 169.66 92.0239 169.66 92.1107C169.574 92.1975 167.578 90.6358 164.541 89.1609H164.802C164.541 89.4211 164.281 89.6814 164.108 89.9417C163.674 90.7225 163.587 91.6769 163.761 92.4577C163.934 93.2386 164.455 93.8459 164.889 94.193C165.93 94.887 166.797 94.887 166.797 94.9738Z" fill="#2E2E2E"/>
<path d="M143.806 103.997H139.207C137.125 103.997 135.043 104.257 132.961 104.777L109.015 110.677V129.504L127.234 130.198L126.28 149.025L123.937 168.72C123.937 168.72 137.299 180.085 148.057 180.346C158.902 180.606 177.382 173.318 177.382 173.318L180.939 132.194L192.044 133.495L199.506 114.234C199.506 114.234 181.893 107.727 179.551 107.467C178.683 107.38 168.532 107.38 168.532 107.38C166.016 113.714 160.377 114.148 155.518 113.887C147.797 113.193 143.545 103.997 143.806 103.997Z" fill="#FFB905"/>
<path d="M127.407 120.221C127.407 120.221 127.407 120.394 127.407 120.655C127.407 121.002 127.407 121.435 127.407 121.956C127.407 123.171 127.407 124.819 127.407 126.814C127.321 130.892 127.234 136.618 126.887 142.865C126.54 149.112 125.846 154.751 125.325 158.829C125.065 160.825 124.718 162.473 124.544 163.601C124.458 164.121 124.371 164.555 124.284 164.902C124.197 165.163 124.197 165.336 124.197 165.336C124.197 165.336 124.197 165.163 124.197 164.902C124.284 164.555 124.284 164.121 124.371 163.601C124.544 162.386 124.718 160.738 124.978 158.742C125.499 154.665 126.106 149.025 126.453 142.778C126.8 136.532 126.974 130.805 127.147 126.728C127.234 124.732 127.234 123.084 127.321 121.869C127.321 121.349 127.407 120.915 127.407 120.568C127.407 120.394 127.407 120.221 127.407 120.221Z" fill="#2E2E2E"/>
<path d="M184.496 120.134C184.583 120.134 183.975 121.436 183.281 123.605C182.587 125.774 181.893 128.81 181.372 132.194C180.852 135.578 180.592 138.701 180.331 140.957C180.245 141.998 180.158 142.866 180.071 143.646C179.984 144.254 179.984 144.601 179.897 144.601C179.897 144.601 179.897 144.254 179.897 143.646C179.897 143.039 179.984 142.085 179.984 140.957C180.158 138.701 180.331 135.578 180.852 132.107C181.372 128.637 182.153 125.6 182.934 123.431C183.368 122.39 183.715 121.522 183.975 120.915C184.235 120.481 184.409 120.134 184.496 120.134Z" fill="#2E2E2E"/>
<path d="M163.152 153.103C163.152 153.103 162.892 153.363 162.285 153.797C161.764 154.231 160.897 154.751 159.855 155.359C157.773 156.66 154.823 158.135 151.353 159.436C147.883 160.738 144.586 161.519 142.243 161.866C141.028 162.039 140.074 162.213 139.38 162.213C138.686 162.3 138.339 162.3 138.339 162.3C138.339 162.3 138.686 162.213 139.38 162.039C140.074 161.953 141.028 161.779 142.156 161.519C144.499 161.085 147.796 160.217 151.179 159.003C154.65 157.701 157.6 156.226 159.682 155.012C160.723 154.404 161.591 153.884 162.111 153.537C162.805 153.276 163.152 153.016 163.152 153.103Z" fill="#2E2E2E"/>
<path d="M180.245 135.837C180.245 135.837 180.071 135.837 179.724 135.924C179.291 135.924 178.77 136.011 178.163 136.011C176.861 136.098 174.866 136.184 172.437 136.184C167.665 136.271 160.984 136.358 153.696 136.184C146.408 136.011 139.728 135.751 134.956 135.404C132.527 135.23 130.618 135.143 129.317 134.97C128.709 134.883 128.189 134.883 127.755 134.796C127.408 134.796 127.234 134.709 127.234 134.709C127.234 134.709 127.408 134.709 127.755 134.709C128.189 134.709 128.709 134.709 129.317 134.796C130.705 134.883 132.614 134.97 134.956 135.057C139.728 135.317 146.408 135.577 153.696 135.664C160.984 135.837 167.665 135.837 172.437 135.751C174.779 135.751 176.688 135.751 178.163 135.664C178.77 135.664 179.291 135.664 179.724 135.664C180.071 135.751 180.245 135.751 180.245 135.837Z" fill="white"/>
<path d="M118.731 129.417C118.644 129.417 118.644 128.29 118.557 126.381C118.47 124.385 118.383 121.869 118.297 119.006C118.123 116.23 118.036 113.627 117.863 111.632C117.776 109.723 117.689 108.595 117.776 108.595C117.776 108.595 117.863 108.855 117.95 109.376C118.036 109.896 118.123 110.677 118.21 111.632C118.383 113.54 118.644 116.143 118.731 119.006C118.904 121.869 118.904 124.472 118.904 126.381C118.904 127.335 118.904 128.116 118.817 128.637C118.817 129.157 118.731 129.417 118.731 129.417Z" fill="white"/>
<path d="M194.994 112.239C194.994 112.239 194.994 112.586 194.82 113.106C194.647 113.627 194.473 114.408 194.213 115.362C193.606 117.271 192.738 119.874 191.697 122.737C190.656 125.6 189.528 128.116 188.747 129.938C188.313 130.805 187.966 131.586 187.706 132.107C187.446 132.627 187.272 132.888 187.272 132.888C187.185 132.888 187.706 131.76 188.4 129.851C189.181 128.029 190.135 125.426 191.176 122.65C192.217 119.787 193.172 117.271 193.779 115.362C194.473 113.367 194.907 112.152 194.994 112.239Z" fill="white"/>
<g filter="url(#filter0_d)">
<path fill-rule="evenodd" clip-rule="evenodd" d="M297.652 165.217C288.004 235.94 227.361 290.434 153.99 290.434C79.6326 290.434 18.3478 234.464 9.9668 162.356C13.0664 163.538 16.305 165.157 19.7941 166.902C33.6954 173.854 51.572 182.793 80.4693 173.968C124.682 160.465 169.889 160.465 222.05 177.633C247.895 186.139 275.307 175.359 297.652 165.217Z" fill="white"/>
</g>
<path d="M85.4585 205V192.864H86.8696V205H85.4585ZM92.9375 204.029C93.181 204.029 93.4162 204.012 93.6431 203.979C93.87 203.94 94.0498 203.902 94.1826 203.863V204.917C94.0332 204.989 93.8118 205.047 93.5186 205.091C93.2308 205.141 92.9707 205.166 92.7383 205.166C90.9785 205.166 90.0986 204.239 90.0986 202.385V196.973H88.7954V196.309L90.0986 195.736L90.6797 193.794H91.4766V195.902H94.1162V196.973H91.4766V202.327C91.4766 202.875 91.6066 203.296 91.8667 203.589C92.1268 203.882 92.4837 204.029 92.9375 204.029ZM101.803 205H100.425V195.902H101.803V205ZM100.309 193.437C100.309 193.122 100.386 192.892 100.541 192.748C100.696 192.599 100.89 192.524 101.122 192.524C101.343 192.524 101.534 192.599 101.695 192.748C101.855 192.897 101.936 193.127 101.936 193.437C101.936 193.747 101.855 193.979 101.695 194.134C101.534 194.284 101.343 194.358 101.122 194.358C100.89 194.358 100.696 194.284 100.541 194.134C100.386 193.979 100.309 193.747 100.309 193.437ZM110.593 202.518C110.593 203.365 110.278 204.018 109.647 204.477C109.016 204.936 108.131 205.166 106.991 205.166C105.784 205.166 104.844 204.975 104.168 204.593V203.315C104.606 203.536 105.073 203.711 105.571 203.838C106.075 203.965 106.559 204.029 107.024 204.029C107.743 204.029 108.297 203.915 108.684 203.688C109.071 203.456 109.265 203.105 109.265 202.634C109.265 202.28 109.11 201.979 108.8 201.729C108.496 201.475 107.898 201.176 107.007 200.833C106.161 200.518 105.557 200.244 105.198 200.011C104.844 199.773 104.578 199.505 104.401 199.206C104.229 198.907 104.144 198.55 104.144 198.135C104.144 197.394 104.445 196.81 105.048 196.384C105.652 195.952 106.479 195.736 107.53 195.736C108.51 195.736 109.467 195.936 110.402 196.334L109.913 197.455C109 197.078 108.172 196.89 107.431 196.89C106.778 196.89 106.285 196.993 105.953 197.197C105.621 197.402 105.455 197.684 105.455 198.044C105.455 198.287 105.516 198.495 105.638 198.667C105.765 198.838 105.967 199.001 106.244 199.156C106.52 199.311 107.052 199.535 107.837 199.829C108.917 200.222 109.644 200.617 110.021 201.016C110.402 201.414 110.593 201.915 110.593 202.518ZM122.854 205L122.58 203.705H122.513C122.059 204.275 121.606 204.662 121.152 204.867C120.704 205.066 120.142 205.166 119.467 205.166C118.565 205.166 117.856 204.934 117.342 204.469C116.833 204.004 116.578 203.343 116.578 202.485C116.578 200.648 118.047 199.685 120.986 199.596L122.53 199.546V198.982C122.53 198.268 122.375 197.742 122.065 197.405C121.761 197.062 121.271 196.89 120.596 196.89C119.838 196.89 118.98 197.123 118.022 197.587L117.599 196.533C118.047 196.29 118.537 196.099 119.068 195.96C119.605 195.822 120.142 195.753 120.679 195.753C121.763 195.753 122.566 195.994 123.086 196.475C123.612 196.957 123.875 197.729 123.875 198.791V205H122.854ZM119.741 204.029C120.598 204.029 121.271 203.794 121.758 203.323C122.25 202.853 122.497 202.194 122.497 201.348V200.526L121.119 200.584C120.023 200.623 119.232 200.794 118.745 201.099C118.263 201.397 118.022 201.865 118.022 202.501C118.022 203 118.172 203.379 118.471 203.639C118.775 203.899 119.198 204.029 119.741 204.029ZM130.357 205.166C129.04 205.166 128.019 204.762 127.294 203.954C126.575 203.141 126.215 201.992 126.215 200.509C126.215 198.987 126.581 197.812 127.311 196.981C128.047 196.151 129.093 195.736 130.449 195.736C130.886 195.736 131.323 195.783 131.76 195.877C132.197 195.972 132.541 196.082 132.79 196.209L132.366 197.38C132.062 197.258 131.73 197.159 131.37 197.081C131.01 196.998 130.692 196.957 130.416 196.957C128.567 196.957 127.643 198.135 127.643 200.493C127.643 201.611 127.867 202.468 128.315 203.066C128.769 203.664 129.439 203.962 130.324 203.962C131.082 203.962 131.86 203.799 132.657 203.473V204.693C132.048 205.008 131.282 205.166 130.357 205.166ZM138.459 205.166C137.142 205.166 136.121 204.762 135.396 203.954C134.677 203.141 134.317 201.992 134.317 200.509C134.317 198.987 134.682 197.812 135.413 196.981C136.149 196.151 137.194 195.736 138.55 195.736C138.987 195.736 139.425 195.783 139.862 195.877C140.299 195.972 140.642 196.082 140.891 196.209L140.468 197.38C140.163 197.258 139.831 197.159 139.472 197.081C139.112 196.998 138.794 196.957 138.517 196.957C136.669 196.957 135.745 198.135 135.745 200.493C135.745 201.611 135.969 202.468 136.417 203.066C136.871 203.664 137.54 203.962 138.426 203.962C139.184 203.962 139.961 203.799 140.758 203.473V204.693C140.15 205.008 139.383 205.166 138.459 205.166ZM146.768 205.166C145.423 205.166 144.361 204.757 143.581 203.938C142.806 203.118 142.418 201.981 142.418 200.526C142.418 199.059 142.778 197.895 143.498 197.031C144.222 196.168 145.194 195.736 146.411 195.736C147.551 195.736 148.453 196.113 149.117 196.865C149.781 197.612 150.113 198.6 150.113 199.829V200.7H143.846C143.874 201.768 144.142 202.579 144.651 203.132C145.166 203.686 145.888 203.962 146.818 203.962C147.797 203.962 148.766 203.758 149.723 203.348V204.577C149.236 204.787 148.774 204.936 148.337 205.025C147.905 205.119 147.382 205.166 146.768 205.166ZM146.395 196.89C145.664 196.89 145.08 197.128 144.643 197.604C144.211 198.08 143.957 198.738 143.879 199.58H148.636C148.636 198.711 148.442 198.047 148.055 197.587C147.667 197.123 147.114 196.89 146.395 196.89ZM158.339 202.518C158.339 203.365 158.024 204.018 157.393 204.477C156.762 204.936 155.877 205.166 154.737 205.166C153.53 205.166 152.59 204.975 151.915 204.593V203.315C152.352 203.536 152.819 203.711 153.317 203.838C153.821 203.965 154.305 204.029 154.77 204.029C155.489 204.029 156.043 203.915 156.43 203.688C156.818 203.456 157.011 203.105 157.011 202.634C157.011 202.28 156.856 201.979 156.546 201.729C156.242 201.475 155.644 201.176 154.753 200.833C153.907 200.518 153.304 200.244 152.944 200.011C152.59 199.773 152.324 199.505 152.147 199.206C151.975 198.907 151.89 198.55 151.89 198.135C151.89 197.394 152.191 196.81 152.794 196.384C153.398 195.952 154.225 195.736 155.276 195.736C156.256 195.736 157.213 195.936 158.148 196.334L157.659 197.455C156.746 197.078 155.918 196.89 155.177 196.89C154.524 196.89 154.031 196.993 153.699 197.197C153.367 197.402 153.201 197.684 153.201 198.044C153.201 198.287 153.262 198.495 153.384 198.667C153.511 198.838 153.713 199.001 153.99 199.156C154.266 199.311 154.798 199.535 155.583 199.829C156.663 200.222 157.39 200.617 157.767 201.016C158.148 201.414 158.339 201.915 158.339 202.518ZM166.458 202.518C166.458 203.365 166.142 204.018 165.511 204.477C164.88 204.936 163.995 205.166 162.855 205.166C161.649 205.166 160.708 204.975 160.033 204.593V203.315C160.47 203.536 160.938 203.711 161.436 203.838C161.939 203.965 162.423 204.029 162.888 204.029C163.608 204.029 164.161 203.915 164.548 203.688C164.936 203.456 165.129 203.105 165.129 202.634C165.129 202.28 164.974 201.979 164.665 201.729C164.36 201.475 163.763 201.176 162.872 200.833C162.025 200.518 161.422 200.244 161.062 200.011C160.708 199.773 160.442 199.505 160.265 199.206C160.094 198.907 160.008 198.55 160.008 198.135C160.008 197.394 160.309 196.81 160.913 196.384C161.516 195.952 162.343 195.736 163.395 195.736C164.374 195.736 165.331 195.936 166.267 196.334L165.777 197.455C164.864 197.078 164.036 196.89 163.295 196.89C162.642 196.89 162.149 196.993 161.817 197.197C161.485 197.402 161.319 197.684 161.319 198.044C161.319 198.287 161.38 198.495 161.502 198.667C161.629 198.838 161.831 199.001 162.108 199.156C162.385 199.311 162.916 199.535 163.702 199.829C164.781 200.222 165.508 200.617 165.885 201.016C166.267 201.414 166.458 201.915 166.458 202.518ZM170.085 205H168.707V195.902H170.085V205ZM168.591 193.437C168.591 193.122 168.668 192.892 168.823 192.748C168.978 192.599 169.172 192.524 169.404 192.524C169.626 192.524 169.817 192.599 169.977 192.748C170.138 192.897 170.218 193.127 170.218 193.437C170.218 193.747 170.138 193.979 169.977 194.134C169.817 194.284 169.626 194.358 169.404 194.358C169.172 194.358 168.978 194.284 168.823 194.134C168.668 193.979 168.591 193.747 168.591 193.437ZM177.24 195.753C178.436 195.753 179.362 196.162 180.021 196.981C180.685 197.795 181.017 198.949 181.017 200.443C181.017 201.937 180.682 203.099 180.013 203.929C179.349 204.754 178.424 205.166 177.24 205.166C176.648 205.166 176.106 205.058 175.613 204.842C175.126 204.621 174.717 204.283 174.385 203.83H174.285L173.995 205H173.007V192.084H174.385V195.222C174.385 195.924 174.363 196.555 174.318 197.114H174.385C175.027 196.207 175.979 195.753 177.24 195.753ZM177.041 196.907C176.1 196.907 175.422 197.178 175.007 197.72C174.592 198.257 174.385 199.165 174.385 200.443C174.385 201.721 174.598 202.637 175.024 203.19C175.45 203.738 176.133 204.012 177.074 204.012C177.921 204.012 178.552 203.705 178.967 203.091C179.382 202.471 179.589 201.583 179.589 200.426C179.589 199.242 179.382 198.359 178.967 197.778C178.552 197.197 177.91 196.907 177.041 196.907ZM184.811 205H183.433V192.084H184.811V205ZM191.576 205.166C190.231 205.166 189.168 204.757 188.388 203.938C187.613 203.118 187.226 201.981 187.226 200.526C187.226 199.059 187.586 197.895 188.305 197.031C189.03 196.168 190.001 195.736 191.219 195.736C192.359 195.736 193.261 196.113 193.925 196.865C194.589 197.612 194.921 198.6 194.921 199.829V200.7H188.654C188.681 201.768 188.95 202.579 189.459 203.132C189.974 203.686 190.696 203.962 191.625 203.962C192.605 203.962 193.573 203.758 194.531 203.348V204.577C194.044 204.787 193.582 204.936 193.145 205.025C192.713 205.119 192.19 205.166 191.576 205.166ZM191.202 196.89C190.472 196.89 189.888 197.128 189.451 197.604C189.019 198.08 188.764 198.738 188.687 199.58H193.443C193.443 198.711 193.25 198.047 192.862 197.587C192.475 197.123 191.922 196.89 191.202 196.89ZM205.795 196.973H203.479V205H202.101V196.973H200.474V196.351L202.101 195.853V195.346C202.101 193.111 203.078 191.993 205.031 191.993C205.513 191.993 206.077 192.09 206.725 192.283L206.368 193.387C205.836 193.216 205.383 193.13 205.006 193.13C204.486 193.13 204.102 193.304 203.853 193.653C203.604 193.996 203.479 194.549 203.479 195.313V195.902H205.795V196.973ZM215.308 200.443C215.308 201.926 214.934 203.085 214.187 203.921C213.44 204.751 212.408 205.166 211.091 205.166C210.277 205.166 209.555 204.975 208.924 204.593C208.293 204.211 207.806 203.664 207.463 202.95C207.12 202.236 206.949 201.4 206.949 200.443C206.949 198.96 207.319 197.806 208.061 196.981C208.803 196.151 209.832 195.736 211.149 195.736C212.422 195.736 213.432 196.16 214.179 197.006C214.931 197.853 215.308 198.999 215.308 200.443ZM208.376 200.443C208.376 201.605 208.609 202.49 209.074 203.099C209.539 203.708 210.222 204.012 211.124 204.012C212.026 204.012 212.709 203.711 213.174 203.107C213.645 202.499 213.88 201.611 213.88 200.443C213.88 199.286 213.645 198.409 213.174 197.812C212.709 197.208 212.021 196.907 211.107 196.907C210.205 196.907 209.525 197.203 209.065 197.795C208.606 198.387 208.376 199.27 208.376 200.443ZM221.882 195.736C222.286 195.736 222.648 195.77 222.969 195.836L222.778 197.114C222.402 197.031 222.07 196.99 221.782 196.99C221.046 196.99 220.415 197.289 219.89 197.886C219.369 198.484 219.109 199.228 219.109 200.119V205H217.731V195.902H218.869L219.026 197.587H219.093C219.43 196.995 219.837 196.539 220.313 196.218C220.789 195.897 221.312 195.736 221.882 195.736ZM66.5908 218.902H68.0684L70.0605 224.09C70.4977 225.275 70.7689 226.13 70.874 226.655H70.9404C71.0124 226.373 71.1618 225.892 71.3887 225.211C71.6211 224.525 72.3737 222.422 73.6465 218.902H75.124L71.2144 229.262C70.827 230.285 70.3732 231.01 69.853 231.437C69.3384 231.868 68.7048 232.084 67.9521 232.084C67.5316 232.084 67.1165 232.037 66.707 231.943V230.839C67.0114 230.905 67.3517 230.938 67.728 230.938C68.6743 230.938 69.3494 230.407 69.7534 229.345L70.2598 228.05L66.5908 218.902ZM84.4541 223.443C84.4541 224.926 84.0806 226.085 83.3335 226.921C82.5864 227.751 81.5544 228.166 80.2373 228.166C79.4238 228.166 78.7017 227.975 78.0708 227.593C77.4399 227.211 76.953 226.664 76.6099 225.95C76.2668 225.236 76.0952 224.4 76.0952 223.443C76.0952 221.96 76.466 220.806 77.2075 219.981C77.9491 219.151 78.9784 218.736 80.2954 218.736C81.5682 218.736 82.5781 219.16 83.3252 220.006C84.0778 220.853 84.4541 221.999 84.4541 223.443ZM77.5229 223.443C77.5229 224.605 77.7554 225.49 78.2202 226.099C78.6851 226.708 79.3685 227.012 80.2705 227.012C81.1725 227.012 81.856 226.711 82.3208 226.107C82.7912 225.499 83.0264 224.611 83.0264 223.443C83.0264 222.286 82.7912 221.409 82.3208 220.812C81.856 220.208 81.167 219.907 80.2539 219.907C79.3519 219.907 78.6712 220.203 78.2119 220.795C77.7526 221.387 77.5229 222.27 77.5229 223.443ZM88.1729 218.902V224.804C88.1729 225.546 88.3416 226.099 88.6792 226.464C89.0168 226.83 89.5452 227.012 90.2646 227.012C91.2165 227.012 91.911 226.752 92.3481 226.232C92.7909 225.712 93.0122 224.862 93.0122 223.684V218.902H94.3901V228H93.2529L93.0537 226.78H92.979C92.6968 227.228 92.3039 227.571 91.8003 227.809C91.3022 228.047 90.7323 228.166 90.0903 228.166C88.9836 228.166 88.1535 227.903 87.6001 227.377C87.0522 226.852 86.7783 226.011 86.7783 224.854V218.902H88.1729ZM103.546 228V222.115C103.546 221.373 103.377 220.82 103.04 220.455C102.702 220.089 102.174 219.907 101.454 219.907C100.502 219.907 99.805 220.164 99.3623 220.679C98.9196 221.193 98.6982 222.043 98.6982 223.227V228H97.3203V218.902H98.4409L98.665 220.147H98.7314C99.0137 219.699 99.4093 219.353 99.9185 219.11C100.428 218.861 100.995 218.736 101.62 218.736C102.716 218.736 103.54 219.002 104.094 219.533C104.647 220.059 104.924 220.903 104.924 222.065V228H103.546ZM115.208 218.902V219.774L113.523 219.973C113.678 220.167 113.817 220.421 113.938 220.737C114.06 221.047 114.121 221.398 114.121 221.791C114.121 222.682 113.817 223.393 113.208 223.924C112.599 224.456 111.764 224.721 110.701 224.721C110.43 224.721 110.175 224.699 109.938 224.655C109.351 224.965 109.058 225.355 109.058 225.825C109.058 226.074 109.16 226.26 109.365 226.381C109.569 226.498 109.921 226.556 110.419 226.556H112.029C113.014 226.556 113.77 226.763 114.295 227.178C114.827 227.593 115.092 228.196 115.092 228.988C115.092 229.995 114.688 230.761 113.88 231.287C113.072 231.818 111.894 232.084 110.344 232.084C109.154 232.084 108.236 231.863 107.588 231.42C106.946 230.977 106.625 230.352 106.625 229.544C106.625 228.991 106.803 228.512 107.157 228.108C107.511 227.704 108.009 227.43 108.651 227.286C108.418 227.181 108.222 227.018 108.062 226.796C107.907 226.575 107.829 226.318 107.829 226.024C107.829 225.692 107.918 225.402 108.095 225.153C108.272 224.904 108.551 224.663 108.933 224.431C108.463 224.237 108.078 223.908 107.779 223.443C107.486 222.978 107.339 222.447 107.339 221.849C107.339 220.853 107.638 220.087 108.236 219.55C108.833 219.007 109.68 218.736 110.776 218.736C111.252 218.736 111.681 218.792 112.062 218.902H115.208ZM107.954 229.527C107.954 230.02 108.161 230.393 108.576 230.648C108.991 230.903 109.586 231.03 110.361 231.03C111.517 231.03 112.372 230.855 112.926 230.507C113.485 230.164 113.764 229.696 113.764 229.104C113.764 228.611 113.612 228.268 113.308 228.075C113.003 227.887 112.431 227.792 111.589 227.792H109.938C109.312 227.792 108.825 227.942 108.477 228.241C108.128 228.54 107.954 228.968 107.954 229.527ZM108.701 221.816C108.701 222.452 108.881 222.934 109.24 223.26C109.6 223.587 110.101 223.75 110.743 223.75C112.087 223.75 112.76 223.097 112.76 221.791C112.76 220.424 112.079 219.741 110.718 219.741C110.07 219.741 109.572 219.915 109.224 220.264C108.875 220.612 108.701 221.13 108.701 221.816ZM127.361 225.518C127.361 226.365 127.045 227.018 126.415 227.477C125.784 227.936 124.898 228.166 123.758 228.166C122.552 228.166 121.611 227.975 120.936 227.593V226.315C121.373 226.536 121.841 226.711 122.339 226.838C122.842 226.965 123.327 227.029 123.792 227.029C124.511 227.029 125.064 226.915 125.452 226.688C125.839 226.456 126.033 226.105 126.033 225.634C126.033 225.28 125.878 224.979 125.568 224.729C125.264 224.475 124.666 224.176 123.775 223.833C122.928 223.518 122.325 223.244 121.965 223.011C121.611 222.773 121.346 222.505 121.168 222.206C120.997 221.907 120.911 221.55 120.911 221.135C120.911 220.394 121.213 219.81 121.816 219.384C122.419 218.952 123.246 218.736 124.298 218.736C125.277 218.736 126.235 218.936 127.17 219.334L126.68 220.455C125.767 220.078 124.94 219.89 124.198 219.89C123.545 219.89 123.053 219.993 122.721 220.197C122.389 220.402 122.223 220.684 122.223 221.044C122.223 221.287 122.284 221.495 122.405 221.667C122.533 221.838 122.735 222.001 123.011 222.156C123.288 222.311 123.819 222.535 124.605 222.829C125.684 223.222 126.412 223.617 126.788 224.016C127.17 224.414 127.361 224.915 127.361 225.518ZM132.549 227.029C132.792 227.029 133.028 227.012 133.254 226.979C133.481 226.94 133.661 226.902 133.794 226.863V227.917C133.645 227.989 133.423 228.047 133.13 228.091C132.842 228.141 132.582 228.166 132.35 228.166C130.59 228.166 129.71 227.239 129.71 225.385V219.973H128.407V219.309L129.71 218.736L130.291 216.794H131.088V218.902H133.728V219.973H131.088V225.327C131.088 225.875 131.218 226.296 131.478 226.589C131.738 226.882 132.095 227.029 132.549 227.029ZM136.915 218.902V224.804C136.915 225.546 137.084 226.099 137.421 226.464C137.759 226.83 138.287 227.012 139.007 227.012C139.959 227.012 140.653 226.752 141.09 226.232C141.533 225.712 141.754 224.862 141.754 223.684V218.902H143.132V228H141.995L141.796 226.78H141.721C141.439 227.228 141.046 227.571 140.542 227.809C140.044 228.047 139.474 228.166 138.833 228.166C137.726 228.166 136.896 227.903 136.342 227.377C135.794 226.852 135.521 226.011 135.521 224.854V218.902H136.915ZM152.255 226.78H152.18C151.544 227.704 150.592 228.166 149.325 228.166C148.135 228.166 147.208 227.759 146.544 226.946C145.885 226.132 145.556 224.976 145.556 223.476C145.556 221.976 145.888 220.812 146.552 219.981C147.216 219.151 148.14 218.736 149.325 218.736C150.559 218.736 151.505 219.185 152.164 220.081H152.271L152.213 219.425L152.18 218.786V215.084H153.558V228H152.438L152.255 226.78ZM149.499 227.012C150.44 227.012 151.12 226.758 151.541 226.249C151.967 225.734 152.18 224.907 152.18 223.767V223.476C152.18 222.187 151.964 221.268 151.533 220.72C151.107 220.167 150.423 219.89 149.482 219.89C148.674 219.89 148.055 220.206 147.623 220.836C147.197 221.462 146.984 222.347 146.984 223.493C146.984 224.655 147.197 225.532 147.623 226.124C148.049 226.716 148.674 227.012 149.499 227.012ZM160.332 228.166C158.987 228.166 157.924 227.757 157.144 226.938C156.369 226.118 155.982 224.981 155.982 223.526C155.982 222.059 156.342 220.895 157.061 220.031C157.786 219.168 158.757 218.736 159.975 218.736C161.115 218.736 162.017 219.113 162.681 219.865C163.345 220.612 163.677 221.6 163.677 222.829V223.7H157.41C157.437 224.768 157.706 225.579 158.215 226.132C158.729 226.686 159.452 226.962 160.381 226.962C161.361 226.962 162.329 226.758 163.287 226.348V227.577C162.8 227.787 162.338 227.936 161.9 228.025C161.469 228.119 160.946 228.166 160.332 228.166ZM159.958 219.89C159.228 219.89 158.644 220.128 158.207 220.604C157.775 221.08 157.52 221.738 157.443 222.58H162.199C162.199 221.711 162.006 221.047 161.618 220.587C161.231 220.123 160.677 219.89 159.958 219.89ZM172.26 228V222.115C172.26 221.373 172.091 220.82 171.753 220.455C171.416 220.089 170.887 219.907 170.168 219.907C169.216 219.907 168.519 220.164 168.076 220.679C167.633 221.193 167.412 222.043 167.412 223.227V228H166.034V218.902H167.155L167.379 220.147H167.445C167.728 219.699 168.123 219.353 168.632 219.11C169.141 218.861 169.709 218.736 170.334 218.736C171.43 218.736 172.254 219.002 172.808 219.533C173.361 220.059 173.638 220.903 173.638 222.065V228H172.26ZM179.415 227.029C179.659 227.029 179.894 227.012 180.121 226.979C180.347 226.94 180.527 226.902 180.66 226.863V227.917C180.511 227.989 180.289 228.047 179.996 228.091C179.708 228.141 179.448 228.166 179.216 228.166C177.456 228.166 176.576 227.239 176.576 225.385V219.973H175.273V219.309L176.576 218.736L177.157 216.794H177.954V218.902H180.594V219.973H177.954V225.327C177.954 225.875 178.084 226.296 178.344 226.589C178.604 226.882 178.961 227.029 179.415 227.029ZM188.355 225.518C188.355 226.365 188.04 227.018 187.409 227.477C186.778 227.936 185.892 228.166 184.752 228.166C183.546 228.166 182.605 227.975 181.93 227.593V226.315C182.367 226.536 182.835 226.711 183.333 226.838C183.837 226.965 184.321 227.029 184.786 227.029C185.505 227.029 186.058 226.915 186.446 226.688C186.833 226.456 187.027 226.105 187.027 225.634C187.027 225.28 186.872 224.979 186.562 224.729C186.258 224.475 185.66 224.176 184.769 223.833C183.922 223.518 183.319 223.244 182.959 223.011C182.605 222.773 182.34 222.505 182.163 222.206C181.991 221.907 181.905 221.55 181.905 221.135C181.905 220.394 182.207 219.81 182.81 219.384C183.413 218.952 184.241 218.736 185.292 218.736C186.271 218.736 187.229 218.936 188.164 219.334L187.674 220.455C186.761 220.078 185.934 219.89 185.192 219.89C184.539 219.89 184.047 219.993 183.715 220.197C183.383 220.402 183.217 220.684 183.217 221.044C183.217 221.287 183.278 221.495 183.399 221.667C183.527 221.838 183.729 222.001 184.005 222.156C184.282 222.311 184.813 222.535 185.599 222.829C186.678 223.222 187.406 223.617 187.782 224.016C188.164 224.414 188.355 224.915 188.355 225.518ZM200.615 228L200.341 226.705H200.275C199.821 227.275 199.367 227.662 198.914 227.867C198.465 228.066 197.904 228.166 197.229 228.166C196.326 228.166 195.618 227.934 195.104 227.469C194.594 227.004 194.34 226.343 194.34 225.485C194.34 223.648 195.809 222.685 198.748 222.596L200.292 222.546V221.982C200.292 221.268 200.137 220.742 199.827 220.405C199.522 220.062 199.033 219.89 198.357 219.89C197.599 219.89 196.742 220.123 195.784 220.587L195.361 219.533C195.809 219.29 196.299 219.099 196.83 218.96C197.367 218.822 197.904 218.753 198.44 218.753C199.525 218.753 200.327 218.994 200.848 219.475C201.373 219.957 201.636 220.729 201.636 221.791V228H200.615ZM197.502 227.029C198.36 227.029 199.033 226.794 199.52 226.323C200.012 225.853 200.258 225.194 200.258 224.348V223.526L198.88 223.584C197.785 223.623 196.993 223.794 196.506 224.099C196.025 224.397 195.784 224.865 195.784 225.501C195.784 226 195.934 226.379 196.232 226.639C196.537 226.899 196.96 227.029 197.502 227.029ZM211.929 218.902V219.774L210.244 219.973C210.399 220.167 210.537 220.421 210.659 220.737C210.781 221.047 210.842 221.398 210.842 221.791C210.842 222.682 210.537 223.393 209.929 223.924C209.32 224.456 208.484 224.721 207.422 224.721C207.151 224.721 206.896 224.699 206.658 224.655C206.072 224.965 205.778 225.355 205.778 225.825C205.778 226.074 205.881 226.26 206.085 226.381C206.29 226.498 206.642 226.556 207.14 226.556H208.75C209.735 226.556 210.49 226.763 211.016 227.178C211.547 227.593 211.813 228.196 211.813 228.988C211.813 229.995 211.409 230.761 210.601 231.287C209.793 231.818 208.614 232.084 207.065 232.084C205.875 232.084 204.957 231.863 204.309 231.42C203.667 230.977 203.346 230.352 203.346 229.544C203.346 228.991 203.523 228.512 203.877 228.108C204.232 227.704 204.73 227.43 205.372 227.286C205.139 227.181 204.943 227.018 204.782 226.796C204.627 226.575 204.55 226.318 204.55 226.024C204.55 225.692 204.638 225.402 204.815 225.153C204.993 224.904 205.272 224.663 205.654 224.431C205.183 224.237 204.799 223.908 204.5 223.443C204.207 222.978 204.06 222.447 204.06 221.849C204.06 220.853 204.359 220.087 204.957 219.55C205.554 219.007 206.401 218.736 207.497 218.736C207.972 218.736 208.401 218.792 208.783 218.902H211.929ZM204.674 229.527C204.674 230.02 204.882 230.393 205.297 230.648C205.712 230.903 206.307 231.03 207.082 231.03C208.238 231.03 209.093 230.855 209.646 230.507C210.205 230.164 210.485 229.696 210.485 229.104C210.485 228.611 210.333 228.268 210.028 228.075C209.724 227.887 209.151 227.792 208.31 227.792H206.658C206.033 227.792 205.546 227.942 205.197 228.241C204.849 228.54 204.674 228.968 204.674 229.527ZM205.421 221.816C205.421 222.452 205.601 222.934 205.961 223.26C206.321 223.587 206.821 223.75 207.463 223.75C208.808 223.75 209.48 223.097 209.48 221.791C209.48 220.424 208.8 219.741 207.438 219.741C206.791 219.741 206.293 219.915 205.944 220.264C205.596 220.612 205.421 221.13 205.421 221.816ZM217.64 228.166C216.295 228.166 215.233 227.757 214.453 226.938C213.678 226.118 213.291 224.981 213.291 223.526C213.291 222.059 213.65 220.895 214.37 220.031C215.095 219.168 216.066 218.736 217.283 218.736C218.423 218.736 219.325 219.113 219.989 219.865C220.653 220.612 220.985 221.6 220.985 222.829V223.7H214.718C214.746 224.768 215.014 225.579 215.523 226.132C216.038 226.686 216.76 226.962 217.69 226.962C218.669 226.962 219.638 226.758 220.595 226.348V227.577C220.108 227.787 219.646 227.936 219.209 228.025C218.777 228.119 218.254 228.166 217.64 228.166ZM217.267 219.89C216.536 219.89 215.952 220.128 215.515 220.604C215.083 221.08 214.829 221.738 214.751 222.58H219.508C219.508 221.711 219.314 221.047 218.927 220.587C218.539 220.123 217.986 219.89 217.267 219.89ZM229.211 225.518C229.211 226.365 228.896 227.018 228.265 227.477C227.634 227.936 226.749 228.166 225.609 228.166C224.403 228.166 223.462 227.975 222.787 227.593V226.315C223.224 226.536 223.691 226.711 224.189 226.838C224.693 226.965 225.177 227.029 225.642 227.029C226.361 227.029 226.915 226.915 227.302 226.688C227.69 226.456 227.883 226.105 227.883 225.634C227.883 225.28 227.728 224.979 227.418 224.729C227.114 224.475 226.516 224.176 225.625 223.833C224.779 223.518 224.176 223.244 223.816 223.011C223.462 222.773 223.196 222.505 223.019 222.206C222.847 221.907 222.762 221.55 222.762 221.135C222.762 220.394 223.063 219.81 223.667 219.384C224.27 218.952 225.097 218.736 226.148 218.736C227.128 218.736 228.085 218.936 229.021 219.334L228.531 220.455C227.618 220.078 226.79 219.89 226.049 219.89C225.396 219.89 224.903 219.993 224.571 220.197C224.239 220.402 224.073 220.684 224.073 221.044C224.073 221.287 224.134 221.495 224.256 221.667C224.383 221.838 224.585 222.001 224.862 222.156C225.139 222.311 225.67 222.535 226.456 222.829C227.535 223.222 228.262 223.617 228.639 224.016C229.021 224.414 229.211 224.915 229.211 225.518ZM237.653 226.78H237.579C236.942 227.704 235.99 228.166 234.723 228.166C233.533 228.166 232.606 227.759 231.942 226.946C231.284 226.132 230.955 224.976 230.955 223.476C230.955 221.976 231.287 220.812 231.951 219.981C232.615 219.151 233.539 218.736 234.723 218.736C235.957 218.736 236.903 219.185 237.562 220.081H237.67L237.612 219.425L237.579 218.786V215.084H238.957V228H237.836L237.653 226.78ZM234.897 227.012C235.838 227.012 236.519 226.758 236.939 226.249C237.366 225.734 237.579 224.907 237.579 223.767V223.476C237.579 222.187 237.363 221.268 236.931 220.72C236.505 220.167 235.822 219.89 234.881 219.89C234.073 219.89 233.453 220.206 233.021 220.836C232.595 221.462 232.382 222.347 232.382 223.493C232.382 224.655 232.595 225.532 233.021 226.124C233.448 226.716 234.073 227.012 234.897 227.012ZM88.3306 241.753C89.5259 241.753 90.4528 242.162 91.1113 242.981C91.7754 243.795 92.1074 244.949 92.1074 246.443C92.1074 247.937 91.7726 249.099 91.103 249.929C90.439 250.754 89.5148 251.166 88.3306 251.166C87.7384 251.166 87.1961 251.058 86.7036 250.842C86.2166 250.621 85.8071 250.283 85.4751 249.83H85.3755L85.085 251H84.0972V238.084H85.4751V241.222C85.4751 241.924 85.453 242.555 85.4087 243.114H85.4751C86.117 242.207 87.0688 241.753 88.3306 241.753ZM88.1313 242.907C87.1906 242.907 86.5127 243.178 86.0977 243.72C85.6826 244.257 85.4751 245.165 85.4751 246.443C85.4751 247.721 85.6882 248.637 86.1143 249.19C86.5404 249.738 87.2238 250.012 88.1646 250.012C89.0112 250.012 89.6421 249.705 90.0571 249.091C90.4722 248.471 90.6797 247.583 90.6797 246.426C90.6797 245.242 90.4722 244.359 90.0571 243.778C89.6421 243.197 89.0002 242.907 88.1313 242.907ZM98.3662 251.166C97.0215 251.166 95.959 250.757 95.1787 249.938C94.404 249.118 94.0166 247.981 94.0166 246.526C94.0166 245.059 94.3763 243.895 95.0957 243.031C95.8206 242.168 96.7918 241.736 98.0093 241.736C99.1493 241.736 100.051 242.113 100.715 242.865C101.379 243.612 101.711 244.6 101.711 245.829V246.7H95.4443C95.472 247.768 95.7404 248.579 96.2495 249.132C96.7642 249.686 97.4863 249.962 98.416 249.962C99.3955 249.962 100.364 249.758 101.321 249.348V250.577C100.834 250.787 100.372 250.936 99.9351 251.025C99.5034 251.119 98.9805 251.166 98.3662 251.166ZM97.9927 242.89C97.2622 242.89 96.6784 243.128 96.2412 243.604C95.8096 244.08 95.555 244.738 95.4775 245.58H100.234C100.234 244.711 100.04 244.047 99.6528 243.587C99.2655 243.123 98.7121 242.89 97.9927 242.89ZM107.007 250.029C107.251 250.029 107.486 250.012 107.713 249.979C107.94 249.94 108.12 249.902 108.252 249.863V250.917C108.103 250.989 107.882 251.047 107.588 251.091C107.301 251.141 107.041 251.166 106.808 251.166C105.048 251.166 104.168 250.239 104.168 248.385V242.973H102.865V242.309L104.168 241.736L104.75 239.794H105.546V241.902H108.186V242.973H105.546V248.327C105.546 248.875 105.676 249.296 105.937 249.589C106.197 249.882 106.554 250.029 107.007 250.029ZM117.508 251L115.839 245.663C115.734 245.336 115.538 244.595 115.25 243.438H115.184C114.962 244.406 114.769 245.153 114.603 245.679L112.884 251H111.291L108.809 241.902H110.253C110.84 244.188 111.285 245.928 111.589 247.124C111.899 248.319 112.076 249.124 112.121 249.539H112.187C112.248 249.224 112.345 248.817 112.478 248.319C112.616 247.815 112.735 247.417 112.834 247.124L114.503 241.902H115.997L117.624 247.124C117.934 248.075 118.144 248.875 118.255 249.522H118.321C118.343 249.323 118.402 249.016 118.496 248.601C118.595 248.186 119.174 245.953 120.23 241.902H121.658L119.143 251H117.508ZM127.153 251.166C125.809 251.166 124.746 250.757 123.966 249.938C123.191 249.118 122.804 247.981 122.804 246.526C122.804 245.059 123.163 243.895 123.883 243.031C124.608 242.168 125.579 241.736 126.796 241.736C127.936 241.736 128.838 242.113 129.502 242.865C130.167 243.612 130.499 244.6 130.499 245.829V246.7H124.231C124.259 247.768 124.528 248.579 125.037 249.132C125.551 249.686 126.273 249.962 127.203 249.962C128.183 249.962 129.151 249.758 130.108 249.348V250.577C129.621 250.787 129.159 250.936 128.722 251.025C128.291 251.119 127.768 251.166 127.153 251.166ZM126.78 242.89C126.049 242.89 125.465 243.128 125.028 243.604C124.597 244.08 124.342 244.738 124.265 245.58H129.021C129.021 244.711 128.827 244.047 128.44 243.587C128.053 243.123 127.499 242.89 126.78 242.89ZM136.699 251.166C135.354 251.166 134.292 250.757 133.512 249.938C132.737 249.118 132.35 247.981 132.35 246.526C132.35 245.059 132.709 243.895 133.429 243.031C134.154 242.168 135.125 241.736 136.342 241.736C137.482 241.736 138.384 242.113 139.048 242.865C139.712 243.612 140.044 244.6 140.044 245.829V246.7H133.777C133.805 247.768 134.073 248.579 134.583 249.132C135.097 249.686 135.819 249.962 136.749 249.962C137.729 249.962 138.697 249.758 139.654 249.348V250.577C139.167 250.787 138.705 250.936 138.268 251.025C137.836 251.119 137.313 251.166 136.699 251.166ZM136.326 242.89C135.595 242.89 135.011 243.128 134.574 243.604C134.143 244.08 133.888 244.738 133.811 245.58H138.567C138.567 244.711 138.373 244.047 137.986 243.587C137.598 243.123 137.045 242.89 136.326 242.89ZM148.627 251V245.115C148.627 244.373 148.459 243.82 148.121 243.455C147.784 243.089 147.255 242.907 146.536 242.907C145.584 242.907 144.887 243.164 144.444 243.679C144.001 244.193 143.78 245.043 143.78 246.227V251H142.402V241.902H143.522L143.747 243.147H143.813C144.095 242.699 144.491 242.353 145 242.11C145.509 241.861 146.076 241.736 146.702 241.736C147.797 241.736 148.622 242.002 149.175 242.533C149.729 243.059 150.005 243.903 150.005 245.065V251H148.627ZM161.734 251H160.39V242.351C160.39 241.631 160.412 240.951 160.456 240.309C160.34 240.425 160.21 240.547 160.066 240.674C159.922 240.801 159.264 241.341 158.09 242.292L157.36 241.346L160.572 238.864H161.734V251ZM174.401 244.916C174.401 247.013 174.069 248.579 173.405 249.614C172.747 250.649 171.737 251.166 170.375 251.166C169.069 251.166 168.076 250.638 167.396 249.581C166.715 248.518 166.375 246.963 166.375 244.916C166.375 242.802 166.704 241.233 167.362 240.209C168.021 239.185 169.025 238.673 170.375 238.673C171.693 238.673 172.691 239.207 173.372 240.275C174.058 241.343 174.401 242.89 174.401 244.916ZM167.769 244.916C167.769 246.681 167.977 247.967 168.392 248.775C168.807 249.578 169.468 249.979 170.375 249.979C171.294 249.979 171.958 249.572 172.368 248.759C172.783 247.94 172.99 246.659 172.99 244.916C172.99 243.172 172.783 241.897 172.368 241.089C171.958 240.275 171.294 239.869 170.375 239.869C169.468 239.869 168.807 240.27 168.392 241.072C167.977 241.869 167.769 243.15 167.769 244.916ZM184.072 250.029C184.315 250.029 184.55 250.012 184.777 249.979C185.004 249.94 185.184 249.902 185.317 249.863V250.917C185.167 250.989 184.946 251.047 184.653 251.091C184.365 251.141 184.105 251.166 183.873 251.166C182.113 251.166 181.233 250.239 181.233 248.385V242.973H179.93V242.309L181.233 241.736L181.814 239.794H182.611V241.902H185.25V242.973H182.611V248.327C182.611 248.875 182.741 249.296 183.001 249.589C183.261 249.882 183.618 250.029 184.072 250.029ZM194.996 246.443C194.996 247.926 194.622 249.085 193.875 249.921C193.128 250.751 192.096 251.166 190.779 251.166C189.965 251.166 189.243 250.975 188.612 250.593C187.981 250.211 187.494 249.664 187.151 248.95C186.808 248.236 186.637 247.4 186.637 246.443C186.637 244.96 187.007 243.806 187.749 242.981C188.491 242.151 189.52 241.736 190.837 241.736C192.11 241.736 193.12 242.16 193.867 243.006C194.619 243.853 194.996 244.999 194.996 246.443ZM188.064 246.443C188.064 247.605 188.297 248.49 188.762 249.099C189.227 249.708 189.91 250.012 190.812 250.012C191.714 250.012 192.397 249.711 192.862 249.107C193.333 248.499 193.568 247.611 193.568 246.443C193.568 245.286 193.333 244.409 192.862 243.812C192.397 243.208 191.708 242.907 190.795 242.907C189.893 242.907 189.213 243.203 188.753 243.795C188.294 244.387 188.064 245.27 188.064 246.443ZM206.31 251H204.965V242.351C204.965 241.631 204.987 240.951 205.031 240.309C204.915 240.425 204.785 240.547 204.641 240.674C204.497 240.801 203.839 241.341 202.666 242.292L201.935 241.346L205.147 238.864H206.31V251ZM214.727 243.587C216.005 243.587 217.009 243.906 217.74 244.542C218.476 245.173 218.844 246.039 218.844 247.14C218.844 248.396 218.443 249.381 217.64 250.095C216.843 250.809 215.742 251.166 214.336 251.166C212.97 251.166 211.926 250.947 211.207 250.51V249.182C211.594 249.431 212.076 249.628 212.651 249.771C213.227 249.91 213.794 249.979 214.353 249.979C215.327 249.979 216.082 249.749 216.619 249.29C217.161 248.831 217.433 248.167 217.433 247.298C217.433 245.604 216.395 244.758 214.32 244.758C213.794 244.758 213.091 244.838 212.211 244.999L211.498 244.542L211.954 238.864H217.989V240.134H213.133L212.826 243.778C213.462 243.651 214.096 243.587 214.727 243.587ZM221.093 250.12C221.093 249.749 221.176 249.47 221.342 249.282C221.514 249.088 221.757 248.991 222.073 248.991C222.394 248.991 222.643 249.088 222.82 249.282C223.002 249.47 223.094 249.749 223.094 250.12C223.094 250.48 223.002 250.757 222.82 250.95C222.637 251.144 222.388 251.241 222.073 251.241C221.791 251.241 221.555 251.155 221.367 250.983C221.185 250.806 221.093 250.519 221.093 250.12Z" fill="black"/>
<g filter="url(#filter1_i)">
<ellipse cx="154" cy="145.25" rx="145" ry="145.25" fill="#FFDCB1" fill-opacity="0.01"/>
</g>
<g filter="url(#filter2_i)">
<ellipse cx="154" cy="145.25" rx="145" ry="145.25" fill="#FFDCB1" fill-opacity="0.01"/>
</g>
<defs>
<filter id="filter0_d" x="0.966797" y="153.356" width="301.685" height="142.079" filterUnits="userSpaceOnUse" color-interpolation-filters="sRGB">
<feFlood flood-opacity="0" result="BackgroundImageFix"/>
<feColorMatrix in="SourceAlpha" type="matrix" values="0 0 0 0 0 0 0 0 0 0 0 0 0 0 0 0 0 0 127 0"/>
<feOffset dx="-2" dy="-2"/>
<feGaussianBlur stdDeviation="3.5"/>
<feColorMatrix type="matrix" values="0 0 0 0 0 0 0 0 0 0 0 0 0 0 0 0 0 0 0.17 0"/>
<feBlend mode="normal" in2="BackgroundImageFix" result="effect1_dropShadow"/>
<feBlend mode="normal" in="SourceGraphic" in2="effect1_dropShadow" result="shape"/>
</filter>
<filter id="filter1_i" x="9" y="0" width="292" height="292.5" filterUnits="userSpaceOnUse" color-interpolation-filters="sRGB">
<feFlood flood-opacity="0" result="BackgroundImageFix"/>
<feBlend mode="normal" in="SourceGraphic" in2="BackgroundImageFix" result="shape"/>
<feColorMatrix in="SourceAlpha" type="matrix" values="0 0 0 0 0 0 0 0 0 0 0 0 0 0 0 0 0 0 127 0" result="hardAlpha"/>
<feOffset dx="2" dy="2"/>
<feGaussianBlur stdDeviation="2"/>
<feComposite in2="hardAlpha" operator="arithmetic" k2="-1" k3="1"/>
<feColorMatrix type="matrix" values="0 0 0 0 0 0 0 0 0 0 0 0 0 0 0 0 0 0 0.15 0"/>
<feBlend mode="normal" in2="shape" result="effect1_innerShadow"/>
</filter>
<filter id="filter2_i" x="7" y="-2" width="292" height="292.5" filterUnits="userSpaceOnUse" color-interpolation-filters="sRGB">
<feFlood flood-opacity="0" result="BackgroundImageFix"/>
<feBlend mode="normal" in="SourceGraphic" in2="BackgroundImageFix" result="shape"/>
<feColorMatrix in="SourceAlpha" type="matrix" values="0 0 0 0 0 0 0 0 0 0 0 0 0 0 0 0 0 0 127 0" result="hardAlpha"/>
<feOffset dx="-2" dy="-2"/>
<feGaussianBlur stdDeviation="2"/>
<feComposite in2="hardAlpha" operator="arithmetic" k2="-1" k3="1"/>
<feColorMatrix type="matrix" values="0 0 0 0 0 0 0 0 0 0 0 0 0 0 0 0 0 0 0.15 0"/>
<feBlend mode="normal" in2="shape" result="effect1_innerShadow"/>
</filter>
</defs>
</svg>
