<svg width="304" height="295" viewBox="0 0 304 295" fill="none" xmlns="http://www.w3.org/2000/svg">
<g filter="url(#filter0_ii)">
<circle cx="154" cy="145" r="145" fill="#FFCCCC"/>
<g filter="url(#filter1_d)">
<path fill-rule="evenodd" clip-rule="evenodd" d="M298.652 164.217C288.938 234.94 227.88 289.435 154.008 289.435C79.1421 289.435 17.4382 233.464 9 161.356C12.1208 162.538 15.3816 164.157 18.8945 165.902C32.8909 172.854 50.8897 181.793 79.9846 172.968C124.5 159.465 170.015 159.465 222.533 176.633C248.555 185.139 276.154 174.359 298.652 164.217Z" fill="white"/>
</g>
<path d="M44.9424 210V197.864H46.3535V208.722H51.7075V210H44.9424ZM57.4102 210.166C56.0654 210.166 55.0029 209.757 54.2227 208.938C53.4479 208.118 53.0605 206.981 53.0605 205.526C53.0605 204.059 53.4202 202.895 54.1396 202.031C54.8646 201.168 55.8358 200.736 57.0532 200.736C58.1932 200.736 59.0952 201.113 59.7593 201.865C60.4233 202.612 60.7554 203.6 60.7554 204.829V205.7H54.4883C54.516 206.768 54.7843 207.579 55.2935 208.132C55.8081 208.686 56.5303 208.962 57.46 208.962C58.4395 208.962 59.4079 208.758 60.3652 208.348V209.577C59.8783 209.787 59.4162 209.936 58.979 210.025C58.5474 210.119 58.0244 210.166 57.4102 210.166ZM57.0366 201.89C56.3062 201.89 55.7223 202.128 55.2852 202.604C54.8535 203.08 54.599 203.738 54.5215 204.58H59.2778C59.2778 203.711 59.0841 203.047 58.6968 202.587C58.3094 202.123 57.756 201.89 57.0366 201.89ZM68.7075 210L68.4336 208.705H68.3672C67.9134 209.275 67.4596 209.662 67.0059 209.867C66.5576 210.066 65.9959 210.166 65.3208 210.166C64.4188 210.166 63.7104 209.934 63.1958 209.469C62.6867 209.004 62.4321 208.343 62.4321 207.485C62.4321 205.648 63.9014 204.685 66.8398 204.596L68.3838 204.546V203.982C68.3838 203.268 68.2288 202.742 67.9189 202.405C67.6146 202.062 67.1248 201.89 66.4497 201.89C65.6916 201.89 64.8338 202.123 63.8765 202.587L63.4531 201.533C63.9014 201.29 64.3911 201.099 64.9224 200.96C65.4591 200.822 65.9959 200.753 66.5327 200.753C67.6174 200.753 68.4198 200.994 68.9399 201.475C69.4657 201.957 69.7285 202.729 69.7285 203.791V210H68.7075ZM65.5947 209.029C66.4525 209.029 67.1248 208.794 67.6118 208.323C68.1043 207.853 68.3506 207.194 68.3506 206.348V205.526L66.9727 205.584C65.877 205.623 65.0856 205.794 64.5986 206.099C64.1172 206.397 63.8765 206.865 63.8765 207.501C63.8765 208 64.0259 208.379 64.3247 208.639C64.6291 208.899 65.0524 209.029 65.5947 209.029ZM76.7261 200.736C77.13 200.736 77.4925 200.77 77.8135 200.836L77.6226 202.114C77.2463 202.031 76.9142 201.99 76.6265 201.99C75.8905 201.99 75.2596 202.289 74.7339 202.886C74.2137 203.484 73.9536 204.228 73.9536 205.119V210H72.5757V200.902H73.7129L73.8706 202.587H73.937C74.2746 201.995 74.6813 201.539 75.1572 201.218C75.6331 200.897 76.1561 200.736 76.7261 200.736ZM85.7407 210V204.115C85.7407 203.373 85.5719 202.82 85.2344 202.455C84.8968 202.089 84.3683 201.907 83.6489 201.907C82.6971 201.907 81.9998 202.164 81.5571 202.679C81.1144 203.193 80.8931 204.043 80.8931 205.227V210H79.5151V200.902H80.6357L80.8599 202.147H80.9263C81.2085 201.699 81.6042 201.353 82.1133 201.11C82.6224 200.861 83.1896 200.736 83.8149 200.736C84.9106 200.736 85.7352 201.002 86.2886 201.533C86.842 202.059 87.1187 202.903 87.1187 204.065V210H85.7407ZM91.3354 210H89.9575V200.902H91.3354V210ZM89.8413 198.437C89.8413 198.122 89.9188 197.892 90.0737 197.748C90.2287 197.599 90.4224 197.524 90.6548 197.524C90.8761 197.524 91.0671 197.599 91.2275 197.748C91.388 197.897 91.4683 198.127 91.4683 198.437C91.4683 198.747 91.388 198.979 91.2275 199.134C91.0671 199.284 90.8761 199.358 90.6548 199.358C90.4224 199.358 90.2287 199.284 90.0737 199.134C89.9188 198.979 89.8413 198.747 89.8413 198.437ZM100.483 210V204.115C100.483 203.373 100.314 202.82 99.9766 202.455C99.639 202.089 99.1105 201.907 98.3911 201.907C97.4393 201.907 96.742 202.164 96.2993 202.679C95.8566 203.193 95.6353 204.043 95.6353 205.227V210H94.2573V200.902H95.3779L95.6021 202.147H95.6685C95.9507 201.699 96.3464 201.353 96.8555 201.11C97.3646 200.861 97.9318 200.736 98.5571 200.736C99.6528 200.736 100.477 201.002 101.031 201.533C101.584 202.059 101.861 202.903 101.861 204.065V210H100.483ZM112.146 200.902V201.774L110.46 201.973C110.615 202.167 110.754 202.421 110.875 202.737C110.997 203.047 111.058 203.398 111.058 203.791C111.058 204.682 110.754 205.393 110.145 205.924C109.536 206.456 108.701 206.721 107.638 206.721C107.367 206.721 107.112 206.699 106.875 206.655C106.288 206.965 105.995 207.355 105.995 207.825C105.995 208.074 106.097 208.26 106.302 208.381C106.507 208.498 106.858 208.556 107.356 208.556H108.966C109.951 208.556 110.707 208.763 111.232 209.178C111.764 209.593 112.029 210.196 112.029 210.988C112.029 211.995 111.625 212.761 110.817 213.287C110.009 213.818 108.831 214.084 107.281 214.084C106.091 214.084 105.173 213.863 104.525 213.42C103.883 212.977 103.562 212.352 103.562 211.544C103.562 210.991 103.74 210.512 104.094 210.108C104.448 209.704 104.946 209.43 105.588 209.286C105.355 209.181 105.159 209.018 104.999 208.796C104.844 208.575 104.766 208.318 104.766 208.024C104.766 207.692 104.855 207.402 105.032 207.153C105.209 206.904 105.488 206.663 105.87 206.431C105.4 206.237 105.015 205.908 104.716 205.443C104.423 204.978 104.276 204.447 104.276 203.849C104.276 202.853 104.575 202.087 105.173 201.55C105.771 201.007 106.617 200.736 107.713 200.736C108.189 200.736 108.618 200.792 109 200.902H112.146ZM104.891 211.527C104.891 212.02 105.098 212.393 105.513 212.648C105.928 212.903 106.523 213.03 107.298 213.03C108.454 213.03 109.309 212.855 109.863 212.507C110.422 212.164 110.701 211.696 110.701 211.104C110.701 210.611 110.549 210.268 110.245 210.075C109.94 209.887 109.368 209.792 108.526 209.792H106.875C106.249 209.792 105.762 209.942 105.414 210.241C105.065 210.54 104.891 210.968 104.891 211.527ZM105.638 203.816C105.638 204.452 105.818 204.934 106.177 205.26C106.537 205.587 107.038 205.75 107.68 205.75C109.024 205.75 109.697 205.097 109.697 203.791C109.697 202.424 109.016 201.741 107.655 201.741C107.007 201.741 106.509 201.915 106.161 202.264C105.812 202.612 105.638 203.13 105.638 203.816ZM130.025 210V204.082C130.025 203.357 129.87 202.814 129.561 202.455C129.251 202.089 128.769 201.907 128.116 201.907C127.258 201.907 126.625 202.153 126.215 202.646C125.806 203.138 125.601 203.896 125.601 204.92V210H124.223V204.082C124.223 203.357 124.068 202.814 123.758 202.455C123.448 202.089 122.964 201.907 122.306 201.907C121.442 201.907 120.809 202.167 120.405 202.687C120.006 203.202 119.807 204.048 119.807 205.227V210H118.429V200.902H119.55L119.774 202.147H119.84C120.1 201.705 120.466 201.359 120.936 201.11C121.412 200.861 121.943 200.736 122.53 200.736C123.952 200.736 124.882 201.251 125.319 202.28H125.385C125.656 201.804 126.049 201.428 126.564 201.151C127.079 200.875 127.665 200.736 128.324 200.736C129.353 200.736 130.122 201.002 130.631 201.533C131.146 202.059 131.403 202.903 131.403 204.065V210H130.025ZM139.845 210L139.571 208.705H139.505C139.051 209.275 138.597 209.662 138.144 209.867C137.695 210.066 137.134 210.166 136.458 210.166C135.556 210.166 134.848 209.934 134.333 209.469C133.824 209.004 133.57 208.343 133.57 207.485C133.57 205.648 135.039 204.685 137.978 204.596L139.521 204.546V203.982C139.521 203.268 139.367 202.742 139.057 202.405C138.752 202.062 138.263 201.89 137.587 201.89C136.829 201.89 135.972 202.123 135.014 202.587L134.591 201.533C135.039 201.29 135.529 201.099 136.06 200.96C136.597 200.822 137.134 200.753 137.67 200.753C138.755 200.753 139.557 200.994 140.078 201.475C140.603 201.957 140.866 202.729 140.866 203.791V210H139.845ZM136.732 209.029C137.59 209.029 138.263 208.794 138.75 208.323C139.242 207.853 139.488 207.194 139.488 206.348V205.526L138.11 205.584C137.015 205.623 136.223 205.794 135.736 206.099C135.255 206.397 135.014 206.865 135.014 207.501C135.014 208 135.164 208.379 135.462 208.639C135.767 208.899 136.19 209.029 136.732 209.029ZM149.906 208.78H149.831C149.195 209.704 148.243 210.166 146.976 210.166C145.786 210.166 144.859 209.759 144.195 208.946C143.536 208.132 143.207 206.976 143.207 205.476C143.207 203.976 143.539 202.812 144.203 201.981C144.867 201.151 145.791 200.736 146.976 200.736C148.21 200.736 149.156 201.185 149.814 202.081H149.922L149.864 201.425L149.831 200.786V197.084H151.209V210H150.088L149.906 208.78ZM147.15 209.012C148.091 209.012 148.771 208.758 149.192 208.249C149.618 207.734 149.831 206.907 149.831 205.767V205.476C149.831 204.187 149.615 203.268 149.184 202.72C148.757 202.167 148.074 201.89 147.133 201.89C146.325 201.89 145.706 202.206 145.274 202.836C144.848 203.462 144.635 204.347 144.635 205.493C144.635 206.655 144.848 207.532 145.274 208.124C145.7 208.716 146.325 209.012 147.15 209.012ZM157.982 210.166C156.638 210.166 155.575 209.757 154.795 208.938C154.02 208.118 153.633 206.981 153.633 205.526C153.633 204.059 153.993 202.895 154.712 202.031C155.437 201.168 156.408 200.736 157.625 200.736C158.765 200.736 159.667 201.113 160.332 201.865C160.996 202.612 161.328 203.6 161.328 204.829V205.7H155.061C155.088 206.768 155.357 207.579 155.866 208.132C156.38 208.686 157.103 208.962 158.032 208.962C159.012 208.962 159.98 208.758 160.938 208.348V209.577C160.451 209.787 159.988 209.936 159.551 210.025C159.12 210.119 158.597 210.166 157.982 210.166ZM157.609 201.89C156.878 201.89 156.295 202.128 155.857 202.604C155.426 203.08 155.171 203.738 155.094 204.58H159.85C159.85 203.711 159.656 203.047 159.269 202.587C158.882 202.123 158.328 201.89 157.609 201.89ZM172.202 201.973H169.886V210H168.508V201.973H166.881V201.351L168.508 200.853V200.346C168.508 198.111 169.485 196.993 171.438 196.993C171.919 196.993 172.484 197.09 173.131 197.283L172.774 198.387C172.243 198.216 171.789 198.13 171.413 198.13C170.893 198.13 170.508 198.304 170.259 198.653C170.01 198.996 169.886 199.549 169.886 200.313V200.902H172.202V201.973ZM175.157 200.902V206.804C175.157 207.546 175.326 208.099 175.663 208.464C176.001 208.83 176.529 209.012 177.249 209.012C178.2 209.012 178.895 208.752 179.332 208.232C179.775 207.712 179.996 206.862 179.996 205.684V200.902H181.374V210H180.237L180.038 208.78H179.963C179.681 209.228 179.288 209.571 178.784 209.809C178.286 210.047 177.716 210.166 177.074 210.166C175.967 210.166 175.137 209.903 174.584 209.377C174.036 208.852 173.762 208.011 173.762 206.854V200.902H175.157ZM190.53 210V204.115C190.53 203.373 190.361 202.82 190.023 202.455C189.686 202.089 189.157 201.907 188.438 201.907C187.486 201.907 186.789 202.164 186.346 202.679C185.903 203.193 185.682 204.043 185.682 205.227V210H184.304V200.902H185.425L185.649 202.147H185.715C185.998 201.699 186.393 201.353 186.902 201.11C187.411 200.861 187.979 200.736 188.604 200.736C189.7 200.736 190.524 201.002 191.078 201.533C191.631 202.059 191.908 202.903 191.908 204.065V210H190.53ZM203.396 200.753C204.591 200.753 205.518 201.162 206.177 201.981C206.841 202.795 207.173 203.949 207.173 205.443C207.173 206.937 206.838 208.099 206.168 208.929C205.504 209.754 204.58 210.166 203.396 210.166C202.804 210.166 202.262 210.058 201.769 209.842C201.282 209.621 200.873 209.283 200.541 208.83H200.441L200.15 210H199.163V197.084H200.541V200.222C200.541 200.924 200.518 201.555 200.474 202.114H200.541C201.182 201.207 202.134 200.753 203.396 200.753ZM203.197 201.907C202.256 201.907 201.578 202.178 201.163 202.72C200.748 203.257 200.541 204.165 200.541 205.443C200.541 206.721 200.754 207.637 201.18 208.19C201.606 208.738 202.289 209.012 203.23 209.012C204.077 209.012 204.708 208.705 205.123 208.091C205.538 207.471 205.745 206.583 205.745 205.426C205.745 204.242 205.538 203.359 205.123 202.778C204.708 202.197 204.066 201.907 203.197 201.907ZM208.144 200.902H209.622L211.614 206.09C212.051 207.275 212.322 208.13 212.427 208.655H212.494C212.566 208.373 212.715 207.892 212.942 207.211C213.174 206.525 213.927 204.422 215.2 200.902H216.677L212.768 211.262C212.38 212.285 211.926 213.01 211.406 213.437C210.892 213.868 210.258 214.084 209.505 214.084C209.085 214.084 208.67 214.037 208.26 213.943V212.839C208.565 212.905 208.905 212.938 209.281 212.938C210.228 212.938 210.903 212.407 211.307 211.345L211.813 210.05L208.144 200.902ZM223.866 200.902V206.804C223.866 207.546 224.035 208.099 224.372 208.464C224.71 208.83 225.238 209.012 225.958 209.012C226.909 209.012 227.604 208.752 228.041 208.232C228.484 207.712 228.705 206.862 228.705 205.684V200.902H230.083V210H228.946L228.747 208.78H228.672C228.39 209.228 227.997 209.571 227.493 209.809C226.995 210.047 226.425 210.166 225.783 210.166C224.676 210.166 223.846 209.903 223.293 209.377C222.745 208.852 222.471 208.011 222.471 206.854V200.902H223.866ZM238.882 207.518C238.882 208.365 238.566 209.018 237.936 209.477C237.305 209.936 236.419 210.166 235.279 210.166C234.073 210.166 233.132 209.975 232.457 209.593V208.315C232.894 208.536 233.362 208.711 233.86 208.838C234.363 208.965 234.848 209.029 235.312 209.029C236.032 209.029 236.585 208.915 236.973 208.688C237.36 208.456 237.554 208.105 237.554 207.634C237.554 207.28 237.399 206.979 237.089 206.729C236.785 206.475 236.187 206.176 235.296 205.833C234.449 205.518 233.846 205.244 233.486 205.011C233.132 204.773 232.867 204.505 232.689 204.206C232.518 203.907 232.432 203.55 232.432 203.135C232.432 202.394 232.734 201.81 233.337 201.384C233.94 200.952 234.767 200.736 235.819 200.736C236.798 200.736 237.756 200.936 238.691 201.334L238.201 202.455C237.288 202.078 236.461 201.89 235.719 201.89C235.066 201.89 234.574 201.993 234.242 202.197C233.91 202.402 233.744 202.684 233.744 203.044C233.744 203.287 233.805 203.495 233.926 203.667C234.054 203.838 234.256 204.001 234.532 204.156C234.809 204.311 235.34 204.535 236.126 204.829C237.205 205.222 237.933 205.617 238.309 206.016C238.691 206.414 238.882 206.915 238.882 207.518ZM242.509 210H241.131V200.902H242.509V210ZM241.015 198.437C241.015 198.122 241.093 197.892 241.248 197.748C241.403 197.599 241.596 197.524 241.829 197.524C242.05 197.524 242.241 197.599 242.401 197.748C242.562 197.897 242.642 198.127 242.642 198.437C242.642 198.747 242.562 198.979 242.401 199.134C242.241 199.284 242.05 199.358 241.829 199.358C241.596 199.358 241.403 199.284 241.248 199.134C241.093 198.979 241.015 198.747 241.015 198.437ZM251.657 210V204.115C251.657 203.373 251.488 202.82 251.15 202.455C250.813 202.089 250.284 201.907 249.565 201.907C248.613 201.907 247.916 202.164 247.473 202.679C247.03 203.193 246.809 204.043 246.809 205.227V210H245.431V200.902H246.552L246.776 202.147H246.842C247.125 201.699 247.52 201.353 248.029 201.11C248.538 200.861 249.106 200.736 249.731 200.736C250.827 200.736 251.651 201.002 252.205 201.533C252.758 202.059 253.035 202.903 253.035 204.065V210H251.657ZM263.319 200.902V201.774L261.634 201.973C261.789 202.167 261.928 202.421 262.049 202.737C262.171 203.047 262.232 203.398 262.232 203.791C262.232 204.682 261.928 205.393 261.319 205.924C260.71 206.456 259.875 206.721 258.812 206.721C258.541 206.721 258.286 206.699 258.048 206.655C257.462 206.965 257.168 207.355 257.168 207.825C257.168 208.074 257.271 208.26 257.476 208.381C257.68 208.498 258.032 208.556 258.53 208.556H260.14C261.125 208.556 261.881 208.763 262.406 209.178C262.938 209.593 263.203 210.196 263.203 210.988C263.203 211.995 262.799 212.761 261.991 213.287C261.183 213.818 260.005 214.084 258.455 214.084C257.265 214.084 256.347 213.863 255.699 213.42C255.057 212.977 254.736 212.352 254.736 211.544C254.736 210.991 254.913 210.512 255.268 210.108C255.622 209.704 256.12 209.43 256.762 209.286C256.529 209.181 256.333 209.018 256.172 208.796C256.017 208.575 255.94 208.318 255.94 208.024C255.94 207.692 256.028 207.402 256.206 207.153C256.383 206.904 256.662 206.663 257.044 206.431C256.574 206.237 256.189 205.908 255.89 205.443C255.597 204.978 255.45 204.447 255.45 203.849C255.45 202.853 255.749 202.087 256.347 201.55C256.944 201.007 257.791 200.736 258.887 200.736C259.363 200.736 259.792 200.792 260.173 200.902H263.319ZM256.064 211.527C256.064 212.02 256.272 212.393 256.687 212.648C257.102 212.903 257.697 213.03 258.472 213.03C259.628 213.03 260.483 212.855 261.037 212.507C261.596 212.164 261.875 211.696 261.875 211.104C261.875 210.611 261.723 210.268 261.418 210.075C261.114 209.887 260.541 209.792 259.7 209.792H258.048C257.423 209.792 256.936 209.942 256.587 210.241C256.239 210.54 256.064 210.968 256.064 211.527ZM256.812 203.816C256.812 204.452 256.991 204.934 257.351 205.26C257.711 205.587 258.212 205.75 258.854 205.75C260.198 205.75 260.871 205.097 260.871 203.791C260.871 202.424 260.19 201.741 258.829 201.741C258.181 201.741 257.683 201.915 257.334 202.264C256.986 202.612 256.812 203.13 256.812 203.816ZM70.6167 233.166C70.0246 233.166 69.4823 233.058 68.9897 232.842C68.5028 232.621 68.0933 232.283 67.7612 231.83H67.6616C67.728 232.361 67.7612 232.864 67.7612 233.34V237.084H66.3833V223.902H67.5039L67.6948 225.147H67.7612C68.1154 224.649 68.5277 224.29 68.998 224.068C69.4684 223.847 70.008 223.736 70.6167 223.736C71.8231 223.736 72.7528 224.149 73.4058 224.973C74.0643 225.798 74.3936 226.954 74.3936 228.443C74.3936 229.937 74.0588 231.099 73.3892 231.929C72.7251 232.754 71.8009 233.166 70.6167 233.166ZM70.4175 224.907C69.4878 224.907 68.8154 225.164 68.4004 225.679C67.9854 226.193 67.7723 227.012 67.7612 228.136V228.443C67.7612 229.721 67.9743 230.637 68.4004 231.19C68.8265 231.738 69.5099 232.012 70.4507 232.012C71.2365 232.012 71.8507 231.694 72.2935 231.058C72.7417 230.421 72.9658 229.544 72.9658 228.426C72.9658 227.292 72.7417 226.423 72.2935 225.82C71.8507 225.211 71.2254 224.907 70.4175 224.907ZM80.9595 223.736C81.3634 223.736 81.7259 223.77 82.0469 223.836L81.856 225.114C81.4797 225.031 81.1476 224.99 80.8599 224.99C80.1239 224.99 79.493 225.289 78.9673 225.886C78.4471 226.484 78.187 227.228 78.187 228.119V233H76.8091V223.902H77.9463L78.104 225.587H78.1704C78.508 224.995 78.9147 224.539 79.3906 224.218C79.8665 223.897 80.3895 223.736 80.9595 223.736ZM91.6011 228.443C91.6011 229.926 91.2275 231.085 90.4805 231.921C89.7334 232.751 88.7013 233.166 87.3843 233.166C86.5708 233.166 85.8486 232.975 85.2178 232.593C84.5869 232.211 84.0999 231.664 83.7568 230.95C83.4137 230.236 83.2422 229.4 83.2422 228.443C83.2422 226.96 83.613 225.806 84.3545 224.981C85.096 224.151 86.1253 223.736 87.4424 223.736C88.7152 223.736 89.7251 224.16 90.4722 225.006C91.2248 225.853 91.6011 226.999 91.6011 228.443ZM84.6699 228.443C84.6699 229.605 84.9023 230.49 85.3672 231.099C85.832 231.708 86.5155 232.012 87.4175 232.012C88.3195 232.012 89.0029 231.711 89.4678 231.107C89.9382 230.499 90.1733 229.611 90.1733 228.443C90.1733 227.286 89.9382 226.409 89.4678 225.812C89.0029 225.208 88.314 224.907 87.4009 224.907C86.4989 224.907 85.8182 225.203 85.3589 225.795C84.8996 226.387 84.6699 227.27 84.6699 228.443ZM92.9209 237.084C92.3952 237.084 91.9691 237.015 91.6426 236.876V235.756C92.0244 235.867 92.4007 235.922 92.7715 235.922C93.2031 235.922 93.5186 235.803 93.7178 235.565C93.9225 235.333 94.0249 234.976 94.0249 234.494V223.902H95.4028V234.395C95.4028 236.188 94.5755 237.084 92.9209 237.084ZM93.9087 221.437C93.9087 221.122 93.9862 220.892 94.1411 220.748C94.2961 220.599 94.4897 220.524 94.7222 220.524C94.9435 220.524 95.1344 220.599 95.2949 220.748C95.4554 220.897 95.5356 221.127 95.5356 221.437C95.5356 221.747 95.4554 221.979 95.2949 222.134C95.1344 222.284 94.9435 222.358 94.7222 222.358C94.4897 222.358 94.2961 222.284 94.1411 222.134C93.9862 221.979 93.9087 221.747 93.9087 221.437ZM102.168 233.166C100.823 233.166 99.7607 232.757 98.9805 231.938C98.2057 231.118 97.8184 229.981 97.8184 228.526C97.8184 227.059 98.1781 225.895 98.8975 225.031C99.6224 224.168 100.594 223.736 101.811 223.736C102.951 223.736 103.853 224.113 104.517 224.865C105.181 225.612 105.513 226.6 105.513 227.829V228.7H99.2461C99.2738 229.768 99.5422 230.579 100.051 231.132C100.566 231.686 101.288 231.962 102.218 231.962C103.197 231.962 104.166 231.758 105.123 231.348V232.577C104.636 232.787 104.174 232.936 103.737 233.025C103.305 233.119 102.782 233.166 102.168 233.166ZM101.794 224.89C101.064 224.89 100.48 225.128 100.043 225.604C99.6113 226.08 99.3568 226.738 99.2793 227.58H104.036C104.036 226.711 103.842 226.047 103.455 225.587C103.067 225.123 102.514 224.89 101.794 224.89ZM111.506 233.166C110.189 233.166 109.168 232.762 108.443 231.954C107.724 231.141 107.364 229.992 107.364 228.509C107.364 226.987 107.729 225.812 108.46 224.981C109.196 224.151 110.242 223.736 111.598 223.736C112.035 223.736 112.472 223.783 112.909 223.877C113.346 223.972 113.689 224.082 113.938 224.209L113.515 225.38C113.211 225.258 112.879 225.159 112.519 225.081C112.159 224.998 111.841 224.957 111.564 224.957C109.716 224.957 108.792 226.135 108.792 228.493C108.792 229.611 109.016 230.468 109.464 231.066C109.918 231.664 110.588 231.962 111.473 231.962C112.231 231.962 113.009 231.799 113.806 231.473V232.693C113.197 233.008 112.431 233.166 111.506 233.166ZM118.911 232.029C119.154 232.029 119.389 232.012 119.616 231.979C119.843 231.94 120.023 231.902 120.156 231.863V232.917C120.006 232.989 119.785 233.047 119.492 233.091C119.204 233.141 118.944 233.166 118.711 233.166C116.952 233.166 116.072 232.239 116.072 230.385V224.973H114.769V224.309L116.072 223.736L116.653 221.794H117.45V223.902H120.089V224.973H117.45V230.327C117.45 230.875 117.58 231.296 117.84 231.589C118.1 231.882 118.457 232.029 118.911 232.029ZM130.631 223.753C131.827 223.753 132.754 224.162 133.412 224.981C134.076 225.795 134.408 226.949 134.408 228.443C134.408 229.937 134.073 231.099 133.404 231.929C132.74 232.754 131.816 233.166 130.631 233.166C130.039 233.166 129.497 233.058 129.004 232.842C128.517 232.621 128.108 232.283 127.776 231.83H127.676L127.386 233H126.398V220.084H127.776V223.222C127.776 223.924 127.754 224.555 127.709 225.114H127.776C128.418 224.207 129.37 223.753 130.631 223.753ZM130.432 224.907C129.491 224.907 128.813 225.178 128.398 225.72C127.983 226.257 127.776 227.165 127.776 228.443C127.776 229.721 127.989 230.637 128.415 231.19C128.841 231.738 129.525 232.012 130.465 232.012C131.312 232.012 131.943 231.705 132.358 231.091C132.773 230.471 132.98 229.583 132.98 228.426C132.98 227.242 132.773 226.359 132.358 225.778C131.943 225.197 131.301 224.907 130.432 224.907ZM142.418 233L142.145 231.705H142.078C141.624 232.275 141.171 232.662 140.717 232.867C140.269 233.066 139.707 233.166 139.032 233.166C138.13 233.166 137.421 232.934 136.907 232.469C136.398 232.004 136.143 231.343 136.143 230.485C136.143 228.648 137.612 227.685 140.551 227.596L142.095 227.546V226.982C142.095 226.268 141.94 225.742 141.63 225.405C141.326 225.062 140.836 224.89 140.161 224.89C139.403 224.89 138.545 225.123 137.587 225.587L137.164 224.533C137.612 224.29 138.102 224.099 138.633 223.96C139.17 223.822 139.707 223.753 140.244 223.753C141.328 223.753 142.131 223.994 142.651 224.475C143.177 224.957 143.439 225.729 143.439 226.791V233H142.418ZM139.306 232.029C140.163 232.029 140.836 231.794 141.323 231.323C141.815 230.853 142.062 230.194 142.062 229.348V228.526L140.684 228.584C139.588 228.623 138.797 228.794 138.31 229.099C137.828 229.397 137.587 229.865 137.587 230.501C137.587 231 137.737 231.379 138.036 231.639C138.34 231.899 138.763 232.029 139.306 232.029ZM152.155 230.518C152.155 231.365 151.84 232.018 151.209 232.477C150.578 232.936 149.693 233.166 148.553 233.166C147.346 233.166 146.406 232.975 145.73 232.593V231.315C146.168 231.536 146.635 231.711 147.133 231.838C147.637 231.965 148.121 232.029 148.586 232.029C149.305 232.029 149.859 231.915 150.246 231.688C150.633 231.456 150.827 231.105 150.827 230.634C150.827 230.28 150.672 229.979 150.362 229.729C150.058 229.475 149.46 229.176 148.569 228.833C147.723 228.518 147.119 228.244 146.76 228.011C146.406 227.773 146.14 227.505 145.963 227.206C145.791 226.907 145.706 226.55 145.706 226.135C145.706 225.394 146.007 224.81 146.61 224.384C147.214 223.952 148.041 223.736 149.092 223.736C150.072 223.736 151.029 223.936 151.964 224.334L151.475 225.455C150.562 225.078 149.734 224.89 148.993 224.89C148.34 224.89 147.847 224.993 147.515 225.197C147.183 225.402 147.017 225.684 147.017 226.044C147.017 226.287 147.078 226.495 147.2 226.667C147.327 226.838 147.529 227.001 147.806 227.156C148.082 227.311 148.614 227.535 149.399 227.829C150.479 228.222 151.206 228.617 151.583 229.016C151.964 229.414 152.155 229.915 152.155 230.518ZM158.248 233.166C156.903 233.166 155.841 232.757 155.061 231.938C154.286 231.118 153.898 229.981 153.898 228.526C153.898 227.059 154.258 225.895 154.978 225.031C155.702 224.168 156.674 223.736 157.891 223.736C159.031 223.736 159.933 224.113 160.597 224.865C161.261 225.612 161.593 226.6 161.593 227.829V228.7H155.326C155.354 229.768 155.622 230.579 156.131 231.132C156.646 231.686 157.368 231.962 158.298 231.962C159.277 231.962 160.246 231.758 161.203 231.348V232.577C160.716 232.787 160.254 232.936 159.817 233.025C159.385 233.119 158.862 233.166 158.248 233.166ZM157.875 224.89C157.144 224.89 156.56 225.128 156.123 225.604C155.691 226.08 155.437 226.738 155.359 227.58H160.116C160.116 226.711 159.922 226.047 159.535 225.587C159.147 225.123 158.594 224.89 157.875 224.89ZM170.143 231.78H170.068C169.432 232.704 168.48 233.166 167.213 233.166C166.023 233.166 165.096 232.759 164.432 231.946C163.774 231.132 163.444 229.976 163.444 228.476C163.444 226.976 163.776 225.812 164.44 224.981C165.104 224.151 166.029 223.736 167.213 223.736C168.447 223.736 169.393 224.185 170.052 225.081H170.16L170.102 224.425L170.068 223.786V220.084H171.446V233H170.326L170.143 231.78ZM167.387 232.012C168.328 232.012 169.009 231.758 169.429 231.249C169.855 230.734 170.068 229.907 170.068 228.767V228.476C170.068 227.187 169.853 226.268 169.421 225.72C168.995 225.167 168.311 224.89 167.371 224.89C166.563 224.89 165.943 225.206 165.511 225.836C165.085 226.462 164.872 227.347 164.872 228.493C164.872 229.655 165.085 230.532 165.511 231.124C165.937 231.716 166.563 232.012 167.387 232.012ZM180.17 233H178.792V220.084H180.17V233ZM186.936 233.166C185.591 233.166 184.528 232.757 183.748 231.938C182.973 231.118 182.586 229.981 182.586 228.526C182.586 227.059 182.946 225.895 183.665 225.031C184.39 224.168 185.361 223.736 186.579 223.736C187.719 223.736 188.621 224.113 189.285 224.865C189.949 225.612 190.281 226.6 190.281 227.829V228.7H184.014C184.041 229.768 184.31 230.579 184.819 231.132C185.333 231.686 186.056 231.962 186.985 231.962C187.965 231.962 188.933 231.758 189.891 231.348V232.577C189.404 232.787 188.942 232.936 188.504 233.025C188.073 233.119 187.55 233.166 186.936 233.166ZM186.562 224.89C185.832 224.89 185.248 225.128 184.811 225.604C184.379 226.08 184.124 226.738 184.047 227.58H188.803C188.803 226.711 188.61 226.047 188.222 225.587C187.835 225.123 187.281 224.89 186.562 224.89ZM198.233 233L197.959 231.705H197.893C197.439 232.275 196.985 232.662 196.531 232.867C196.083 233.066 195.521 233.166 194.846 233.166C193.944 233.166 193.236 232.934 192.721 232.469C192.212 232.004 191.958 231.343 191.958 230.485C191.958 228.648 193.427 227.685 196.365 227.596L197.909 227.546V226.982C197.909 226.268 197.754 225.742 197.444 225.405C197.14 225.062 196.65 224.89 195.975 224.89C195.217 224.89 194.359 225.123 193.402 225.587L192.979 224.533C193.427 224.29 193.917 224.099 194.448 223.96C194.985 223.822 195.521 223.753 196.058 223.753C197.143 223.753 197.945 223.994 198.465 224.475C198.991 224.957 199.254 225.729 199.254 226.791V233H198.233ZM195.12 232.029C195.978 232.029 196.65 231.794 197.137 231.323C197.63 230.853 197.876 230.194 197.876 229.348V228.526L196.498 228.584C195.402 228.623 194.611 228.794 194.124 229.099C193.643 229.397 193.402 229.865 193.402 230.501C193.402 231 193.551 231.379 193.85 231.639C194.154 231.899 194.578 232.029 195.12 232.029ZM206.251 223.736C206.655 223.736 207.018 223.77 207.339 223.836L207.148 225.114C206.772 225.031 206.44 224.99 206.152 224.99C205.416 224.99 204.785 225.289 204.259 225.886C203.739 226.484 203.479 227.228 203.479 228.119V233H202.101V223.902H203.238L203.396 225.587H203.462C203.8 224.995 204.207 224.539 204.683 224.218C205.159 223.897 205.681 223.736 206.251 223.736ZM215.266 233V227.115C215.266 226.373 215.097 225.82 214.76 225.455C214.422 225.089 213.894 224.907 213.174 224.907C212.222 224.907 211.525 225.164 211.083 225.679C210.64 226.193 210.418 227.043 210.418 228.227V233H209.041V223.902H210.161L210.385 225.147H210.452C210.734 224.699 211.13 224.353 211.639 224.11C212.148 223.861 212.715 223.736 213.34 223.736C214.436 223.736 215.261 224.002 215.814 224.533C216.367 225.059 216.644 225.903 216.644 227.065V233H215.266ZM220.861 233H219.483V223.902H220.861V233ZM219.367 221.437C219.367 221.122 219.444 220.892 219.599 220.748C219.754 220.599 219.948 220.524 220.18 220.524C220.402 220.524 220.592 220.599 220.753 220.748C220.913 220.897 220.994 221.127 220.994 221.437C220.994 221.747 220.913 221.979 220.753 222.134C220.592 222.284 220.402 222.358 220.18 222.358C219.948 222.358 219.754 222.284 219.599 222.134C219.444 221.979 219.367 221.747 219.367 221.437ZM230.008 233V227.115C230.008 226.373 229.84 225.82 229.502 225.455C229.164 225.089 228.636 224.907 227.917 224.907C226.965 224.907 226.267 225.164 225.825 225.679C225.382 226.193 225.161 227.043 225.161 228.227V233H223.783V223.902H224.903L225.127 225.147H225.194C225.476 224.699 225.872 224.353 226.381 224.11C226.89 223.861 227.457 223.736 228.083 223.736C229.178 223.736 230.003 224.002 230.556 224.533C231.11 225.059 231.386 225.903 231.386 227.065V233H230.008ZM241.671 223.902V224.774L239.986 224.973C240.141 225.167 240.279 225.421 240.401 225.737C240.523 226.047 240.583 226.398 240.583 226.791C240.583 227.682 240.279 228.393 239.67 228.924C239.062 229.456 238.226 229.721 237.164 229.721C236.892 229.721 236.638 229.699 236.4 229.655C235.813 229.965 235.52 230.355 235.52 230.825C235.52 231.074 235.622 231.26 235.827 231.381C236.032 231.498 236.383 231.556 236.881 231.556H238.492C239.477 231.556 240.232 231.763 240.758 232.178C241.289 232.593 241.555 233.196 241.555 233.988C241.555 234.995 241.151 235.761 240.343 236.287C239.535 236.818 238.356 237.084 236.807 237.084C235.617 237.084 234.698 236.863 234.051 236.42C233.409 235.977 233.088 235.352 233.088 234.544C233.088 233.991 233.265 233.512 233.619 233.108C233.973 232.704 234.471 232.43 235.113 232.286C234.881 232.181 234.684 232.018 234.524 231.796C234.369 231.575 234.292 231.318 234.292 231.024C234.292 230.692 234.38 230.402 234.557 230.153C234.734 229.904 235.014 229.663 235.396 229.431C234.925 229.237 234.541 228.908 234.242 228.443C233.948 227.978 233.802 227.447 233.802 226.849C233.802 225.853 234.101 225.087 234.698 224.55C235.296 224.007 236.143 223.736 237.238 223.736C237.714 223.736 238.143 223.792 238.525 223.902H241.671ZM234.416 234.527C234.416 235.02 234.624 235.393 235.039 235.648C235.454 235.903 236.049 236.03 236.823 236.03C237.98 236.03 238.835 235.855 239.388 235.507C239.947 235.164 240.227 234.696 240.227 234.104C240.227 233.611 240.074 233.268 239.77 233.075C239.466 232.887 238.893 232.792 238.052 232.792H236.4C235.775 232.792 235.288 232.942 234.939 233.241C234.59 233.54 234.416 233.968 234.416 234.527ZM235.163 226.816C235.163 227.452 235.343 227.934 235.703 228.26C236.062 228.587 236.563 228.75 237.205 228.75C238.55 228.75 239.222 228.097 239.222 226.791C239.222 225.424 238.542 224.741 237.18 224.741C236.533 224.741 236.035 224.915 235.686 225.264C235.337 225.612 235.163 226.13 235.163 226.816Z" fill="black"/>
<path d="M145.892 104.281L158.502 107.551L151.029 126.701L142.622 123.431L138.886 119.695L140.754 111.287L145.892 104.281Z" fill="#C4C4C4"/>
<path d="M200.926 124.902L186.06 117.359L175.783 141.646L185.124 146.783L192.598 146.784L198.553 135.974C200.516 131.68 201.137 129.256 200.926 124.902Z" fill="#EA5C5C"/>
<path d="M162.638 106.419C160.705 105.616 158.479 106.536 157.676 108.47L156.881 110.385C156.664 110.909 156.912 111.509 157.436 111.726C157.959 111.944 158.559 111.696 158.777 111.172L159.572 109.256C159.94 108.368 160.963 107.946 161.851 108.314C162.282 108.493 162.617 108.828 162.795 109.259C162.973 109.689 162.972 110.164 162.794 110.594L155.257 128.752C155.078 129.182 154.743 129.517 154.312 129.695C153.882 129.873 153.408 129.873 152.977 129.694C152.547 129.516 152.212 129.18 152.034 128.749C151.856 128.319 151.856 127.845 152.035 127.414L157.701 113.763C157.918 113.24 157.67 112.64 157.147 112.422C156.624 112.205 156.023 112.453 155.806 112.977L150.139 126.628C149.337 128.561 150.257 130.787 152.19 131.59C153.127 131.979 154.159 131.979 155.096 131.592C156.034 131.204 156.764 130.475 157.152 129.539L164.69 111.381C165.078 110.444 165.079 109.412 164.692 108.475C164.304 107.538 163.575 106.808 162.638 106.419Z" fill="#585858"/>
<path d="M156.175 105.862L150.47 103.494C148.787 102.795 146.934 102.794 145.25 103.49C143.567 104.186 142.255 105.495 141.557 107.178L141.445 107.447L135.569 105.008C135.318 104.903 135.036 104.903 134.784 105.007C134.533 105.111 134.333 105.311 134.228 105.562L133.481 107.363L127.643 104.939C127.119 104.722 126.519 104.97 126.302 105.494C126.084 106.017 126.333 106.618 126.856 106.835L132.694 109.258L131.947 111.059C131.73 111.582 131.978 112.183 132.501 112.4L138.377 114.839L138.265 115.108C136.823 118.581 138.476 122.579 141.949 124.02L147.654 126.389C147.916 126.497 148.197 126.49 148.44 126.389C148.682 126.289 148.887 126.096 148.995 125.835C149.213 125.311 148.965 124.711 148.441 124.494L142.736 122.125C140.308 121.118 139.153 118.323 140.161 115.895L143.453 107.964C143.941 106.788 144.858 105.873 146.034 105.386C147.211 104.9 148.507 104.901 149.683 105.389L155.388 107.757C155.912 107.975 156.512 107.726 156.729 107.203C156.947 106.68 156.699 106.079 156.175 105.862ZM139.911 111.143L139.164 112.943L134.236 110.898L135.73 107.297L140.659 109.342L139.911 111.143Z" fill="#585858"/>
<path d="M172.022 115.91L166.557 113.642C166.034 113.424 165.433 113.673 165.216 114.196C164.999 114.719 165.247 115.32 165.771 115.537L171.235 117.805C171.915 118.087 172.238 118.869 171.956 119.549C171.674 120.228 170.892 120.551 170.212 120.269L164.748 118.001C164.224 117.784 163.624 118.032 163.407 118.555C163.189 119.079 163.438 119.679 163.961 119.896L169.426 122.165C170.288 122.522 171.215 122.496 172.017 122.165C172.818 121.834 173.493 121.197 173.851 120.335C174.567 118.611 173.746 116.626 172.022 115.91Z" fill="#585858"/>
<path d="M167.471 125.79L162.006 123.521C161.483 123.304 160.883 123.552 160.665 124.076C160.448 124.599 160.696 125.199 161.22 125.417L166.685 127.685C167.014 127.822 167.27 128.078 167.406 128.407C167.542 128.737 167.542 129.099 167.405 129.428C167.123 130.108 166.341 130.431 165.662 130.149L160.197 127.88C159.674 127.663 159.073 127.911 158.856 128.435C158.639 128.958 158.887 129.559 159.41 129.776L164.875 132.044C165.737 132.402 166.665 132.376 167.466 132.045C168.267 131.713 168.943 131.077 169.3 130.215C169.647 129.38 169.648 128.459 169.302 127.623C168.957 126.788 168.307 126.136 167.471 125.79Z" fill="#585858"/>
<path d="M185.182 112.011C184.245 111.623 183.213 111.622 182.276 112.009C181.338 112.397 180.608 113.126 180.22 114.062L169.563 139.735C169.174 140.672 169.174 141.704 169.561 142.641C169.948 143.578 170.677 144.308 171.614 144.697C172.551 145.086 173.583 145.087 174.52 144.699C175.457 144.312 176.188 143.583 176.576 142.646L187.233 116.974C187.621 116.037 187.622 115.005 187.235 114.068C186.847 113.13 186.118 112.4 185.182 112.011ZM185.337 116.187L174.681 141.859C174.312 142.748 173.289 143.17 172.401 142.802C171.513 142.433 171.09 141.41 171.459 140.522L182.115 114.849C182.294 114.419 182.629 114.084 183.06 113.906C183.49 113.728 183.965 113.728 184.395 113.907C184.825 114.085 185.16 114.421 185.338 114.852C185.516 115.282 185.516 115.756 185.337 116.187Z" fill="#585858"/>
<path d="M201.21 124.339C200.284 122.935 198.97 121.851 197.411 121.204L189.879 118.077C189.356 117.86 188.755 118.108 188.538 118.632C188.321 119.155 188.569 119.755 189.092 119.973L196.624 123.099C197.804 123.589 198.797 124.408 199.497 125.469C199.772 125.886 200.299 126.037 200.744 125.853C200.804 125.828 200.863 125.797 200.918 125.76C201.391 125.448 201.522 124.812 201.21 124.339Z" fill="#585858"/>
<path d="M213.272 142.542L206.177 139.597L206.925 137.796C207.142 137.273 206.894 136.672 206.37 136.455L200.495 134.016L201.24 132.221C201.777 130.926 201.985 129.509 201.84 128.122C201.781 127.558 201.276 127.149 200.713 127.208C200.149 127.267 199.74 127.772 199.799 128.336C199.908 129.383 199.751 130.454 199.344 131.435L194.786 142.417C194.133 143.989 192.908 145.213 191.335 145.863C189.762 146.513 188.03 146.512 186.459 145.859L178.927 142.733C178.403 142.516 177.803 142.764 177.586 143.287C177.369 143.811 177.617 144.411 178.14 144.628L185.672 147.754C187.75 148.617 190.04 148.619 192.119 147.759C194.198 146.9 195.819 145.282 196.682 143.204L197.427 141.408L203.302 143.847C203.554 143.952 203.836 143.952 204.088 143.848C204.339 143.744 204.539 143.544 204.643 143.293L205.391 141.492L212.485 144.437C212.747 144.546 213.028 144.538 213.271 144.438C213.513 144.338 213.718 144.145 213.826 143.883C214.043 143.359 213.795 142.759 213.272 142.542ZM203.889 139.757C203.888 139.757 203.888 139.758 203.888 139.758C203.888 139.758 203.888 139.758 203.888 139.758L203.141 141.558L198.213 139.513L198.96 137.712L199.708 135.912L204.636 137.957L203.889 139.757Z" fill="#585858"/>
<path d="M258.185 65.0348L207.24 74.7974L220.921 146.189L271.866 136.426L258.185 65.0348Z" fill="white"/>
<path d="M220.824 146.153C220.824 146.153 220.824 146.037 220.708 145.804C220.708 145.571 220.592 145.223 220.475 144.874C220.243 143.943 220.01 142.664 219.661 141.035C218.963 137.662 218.033 132.661 216.753 126.381C214.544 113.819 211.054 95.9077 206.867 74.8559V74.507H207.1C222.453 71.5993 239.782 68.2263 258.043 64.7371H258.392V65.086C263.509 91.8369 268.162 116.494 272 136.499V136.732H271.767C256.298 139.64 243.504 142.082 234.549 143.711C230.129 144.525 226.64 145.223 224.313 145.571C223.15 145.804 222.22 145.92 221.638 146.037C221.173 146.153 220.824 146.153 220.824 146.153C220.824 146.153 221.173 146.037 221.755 145.92C222.336 145.804 223.267 145.571 224.43 145.339C226.872 144.874 230.245 144.176 234.665 143.362C243.504 141.617 256.298 139.174 271.651 136.15L271.418 136.383C267.58 116.494 262.812 91.7206 257.694 64.9697L258.043 65.2023C239.782 68.6916 222.453 71.9482 207.1 74.9722L207.332 74.6233C211.287 95.6751 214.66 113.47 217.102 126.032C218.265 132.312 219.196 137.314 219.894 140.686C220.243 142.431 220.475 143.711 220.592 144.641C220.708 145.106 220.708 145.455 220.824 145.688C220.824 146.037 220.824 146.153 220.824 146.153Z" fill="#263238"/>
<path d="M215.709 91.1389C215.709 91.0226 224.083 89.278 234.551 87.1844C245.019 85.2072 253.393 83.6952 253.509 83.8115C253.509 83.9278 245.135 85.6724 234.667 87.7659C224.2 89.8595 215.709 91.2552 215.709 91.1389Z" fill="#263238"/>
<path d="M216.636 96.1408C216.636 96.0245 225.01 94.2799 235.478 92.1864C245.945 90.2091 254.32 88.6971 254.436 88.8134C254.436 88.9297 246.062 90.6743 235.594 92.7679C225.126 94.8614 216.752 96.3735 216.636 96.1408Z" fill="#263238"/>
<path d="M217.681 101.258C217.681 101.142 226.055 99.3973 236.523 97.3038C246.99 95.3265 255.365 93.8145 255.481 93.9308C255.481 94.0472 247.107 95.7918 236.639 97.8853C226.171 99.8626 217.681 101.375 217.681 101.258Z" fill="#263238"/>
<path d="M218.616 106.259C218.616 106.143 226.99 104.398 237.458 102.305C247.926 100.328 256.3 98.8155 256.416 98.9318C256.416 99.0481 248.042 100.793 237.574 102.886C227.107 104.98 218.616 106.376 218.616 106.259Z" fill="#263238"/>
<path d="M219.543 111.261C219.543 111.144 227.917 109.4 238.385 107.306C248.853 105.329 257.227 103.817 257.343 103.933C257.343 104.05 248.969 105.794 238.501 107.888C228.033 109.981 219.543 111.493 219.543 111.261Z" fill="#263238"/>
<path d="M220.475 116.378C220.475 116.262 228.849 114.517 239.317 112.424C249.784 110.446 258.159 108.934 258.275 109.051C258.275 109.167 249.901 110.912 239.433 113.005C229.081 114.982 220.591 116.494 220.475 116.378Z" fill="#263238"/>
<path d="M221.521 121.38C221.521 121.263 229.895 119.519 240.362 117.425C250.83 115.448 259.204 113.936 259.321 114.052C259.321 114.168 250.947 115.913 240.479 118.007C230.011 120.1 221.521 121.496 221.521 121.38Z" fill="#263238"/>
<path d="M222.447 126.381C222.447 126.265 230.821 124.52 241.289 122.426C251.757 120.449 260.131 118.937 260.248 119.053C260.248 119.17 251.873 120.914 241.406 123.008C230.938 125.101 222.447 126.613 222.447 126.381Z" fill="#263238"/>
<path d="M223.383 131.498C223.383 131.382 231.757 129.637 242.225 127.544C252.693 125.567 261.067 124.055 261.183 124.171C261.183 124.287 252.809 126.032 242.341 128.125C231.873 130.103 223.499 131.615 223.383 131.498Z" fill="#263238"/>
<path d="M251.184 69.041C251.184 69.041 251.3 69.5062 251.533 70.3204C251.765 71.2508 251.998 72.4139 252.347 73.8096C252.463 74.1585 252.463 74.6238 252.58 74.9727C252.696 75.4379 252.696 75.9032 252.463 76.3684C252.231 77.2989 251.3 78.113 250.253 78.3456C249.207 78.5783 247.927 77.9967 247.229 76.9499C247.113 76.7173 246.997 76.3684 246.881 76.1358C246.881 75.9032 246.764 75.5542 246.764 75.3216C246.648 74.7401 246.532 74.1585 246.415 73.6933C246.183 72.5302 245.95 71.4834 245.834 70.3204C245.717 69.7388 245.601 69.2736 245.485 68.692C245.368 68.2268 245.252 67.6453 245.368 67.0637C245.485 66.0169 245.95 64.9702 246.764 64.3886C247.462 63.8071 248.393 63.5745 249.207 63.5745C250.835 63.5745 251.882 64.7376 252.347 65.4354C252.58 65.7843 252.696 66.1333 252.696 66.3659C252.696 66.5985 252.696 66.7148 252.696 66.7148C252.58 66.7148 252.58 66.2496 252.114 65.5517C251.649 64.8539 250.719 64.0397 249.207 64.0397C248.509 64.0397 247.695 64.2723 247.113 64.8539C246.532 65.4354 246.066 66.2496 245.95 67.18C245.95 67.6453 246.066 68.1105 246.066 68.5757C246.183 69.041 246.299 69.6225 246.415 70.204C246.648 71.2508 246.88 72.4139 247.113 73.4607C247.229 74.0422 247.346 74.6238 247.462 75.089C247.462 75.3216 247.578 75.6705 247.578 75.9032C247.578 76.1358 247.695 76.3684 247.811 76.601C248.276 77.4152 249.323 77.8804 250.137 77.7641C251.068 77.6478 251.765 76.9499 251.998 76.2521C252.114 75.9032 252.114 75.4379 252.114 75.089C251.998 74.7401 251.998 74.2748 251.882 73.9259C251.649 72.5302 251.417 71.3671 251.3 70.4367C251.184 69.5062 251.068 69.041 251.184 69.041Z" fill="#263238"/>
<path d="M115.467 80.0095L82.6926 71.5581L86.1277 58.2369L118.902 66.6883L115.467 80.0095Z" fill="#52A2FF"/>
<path d="M74.3434 65.6229C73.5368 69.0217 75.6346 72.4313 79.032 73.2435L82.1239 73.9709L114.915 81.789L114.985 81.8053C115.002 81.8094 115.013 81.8025 115.02 81.8137C115.065 81.8153 115.117 81.828 115.163 81.8293C115.174 81.8227 115.18 81.8338 115.191 81.8271C115.237 81.8288 115.265 81.826 115.311 81.828C115.328 81.8318 115.338 81.8254 115.356 81.8293C115.395 81.8202 115.423 81.8177 115.463 81.8089C115.473 81.8025 115.479 81.8129 115.491 81.8061L131.812 77.9751C132.279 77.8699 132.644 77.5066 132.752 77.0402C132.828 76.7124 132.771 76.368 132.594 76.0823C132.52 75.9666 132.43 75.8618 132.328 75.7706L119.482 65.0119C119.476 65.0014 119.476 65.0014 119.458 64.9967C119.427 64.9689 119.393 64.9451 119.355 64.9267C119.349 64.9189 119.341 64.9138 119.331 64.9113C119.29 64.8925 119.242 64.8628 119.2 64.8437C119.159 64.8248 119.107 64.812 119.065 64.7929C119.047 64.789 119.041 64.7785 119.031 64.7849C119.013 64.7805 118.989 64.7653 118.961 64.768L83.0776 56.2227C79.6787 55.4165 76.2688 57.5145 75.4566 60.9116L74.3434 65.6229ZM117.161 66.9154L114.275 79.0326L83.9454 71.81L86.832 59.6928L117.161 66.9154ZM116.919 78.8624L119.44 68.2766L128.772 76.1013L116.919 78.8624ZM82.5032 58.6708L84.3597 59.1037L81.4727 71.2217L79.6097 70.7775C77.5722 70.2914 76.3137 68.2459 76.7982 66.2078L77.9263 61.4724C78.4235 59.4399 80.4674 58.1889 82.5032 58.6708Z" fill="#585858"/>
<path d="M40.6045 105.814L96.0136 94.8408L102.257 126.365L46.8476 137.338L40.6045 105.814Z" fill="#9CC3EF"/>
<path d="M43.4072 143.877L105.947 131.492L107.953 141.622L45.4134 154.008L43.4072 143.877Z" fill="#FF922E"/>
<path d="M94.7671 89.9333L39.7234 100.81C37.1189 101.324 35.4447 103.994 35.9913 106.76L44.7148 150.908C45.2615 153.674 47.825 155.506 50.4296 154.991L70.5901 151.007L70.2882 155.459C70.167 157.246 68.6605 159.034 66.9985 159.362L59.8818 160.769C59.3601 160.872 59.0259 161.404 59.1354 161.959C59.2449 162.513 59.7566 162.878 60.2784 162.775L99.3254 155.06C99.8471 154.957 100.181 154.424 100.072 153.87C99.9623 153.315 99.4506 152.95 98.9289 153.053L91.8122 154.459C90.1502 154.788 88.077 153.707 87.285 152.1L85.3128 148.098L105.473 144.115C108.078 143.6 109.752 140.931 109.205 138.164L100.482 94.0167C99.9353 91.2504 97.3717 89.4186 94.7671 89.9333ZM40.12 102.817L95.1637 91.94C96.7264 91.6312 98.2646 92.7304 98.5925 94.3901L105.532 129.508L44.8199 141.504L37.8807 106.387C37.5527 104.727 38.5572 103.125 40.12 102.817ZM85.5773 153.011C86.0269 153.923 86.7172 154.707 87.5371 155.304L71.2736 158.518C71.8048 157.654 72.1451 156.666 72.2139 155.651L72.555 150.619L83.3477 148.487L85.5773 153.011ZM105.077 142.108L50.0331 152.984C48.4703 153.293 46.9322 152.194 46.6042 150.534L45.2164 143.511L105.928 131.514L107.316 138.538C107.644 140.197 106.64 141.799 105.077 142.108Z" fill="#585858"/>
<path d="M47.2579 138.941L102.302 128.064C102.823 127.961 103.158 127.429 103.048 126.874L96.7036 94.7669C96.5941 94.2126 96.0824 93.8471 95.5607 93.9502L40.517 104.827C39.9952 104.93 39.661 105.463 39.7705 106.017L42.5462 120.064C42.6557 120.618 43.1674 120.984 43.6891 120.88C44.2109 120.777 44.5451 120.245 44.4356 119.69L41.8582 106.647L95.0125 96.1436L100.96 126.244L47.806 136.748L45.2286 123.704C45.1191 123.15 44.6074 122.784 44.0857 122.887C43.564 122.99 43.2297 123.523 43.3392 124.077L46.1149 138.124C46.2244 138.678 46.7361 139.044 47.2579 138.941Z" fill="#585858"/>
<path d="M75.9698 139.52C74.407 139.829 73.4026 141.431 73.7305 143.09C74.0585 144.75 75.5966 145.849 77.1594 145.54C78.7221 145.232 79.7266 143.63 79.3986 141.97C79.0707 140.311 77.5326 139.212 75.9698 139.52ZM76.7628 143.534C76.2419 143.637 75.7292 143.27 75.6199 142.717C75.5106 142.164 75.8454 141.63 76.3663 141.527C76.8873 141.424 77.3999 141.79 77.5093 142.344C77.6186 142.897 77.2838 143.431 76.7628 143.534Z" fill="#585858"/>
<rect x="151.242" y="56.929" width="16.0819" height="5.89197" transform="rotate(-14.2222 151.242 56.929)" fill="#FF5656"/>
<rect x="154.612" y="63.0103" width="13.1372" height="7.78207" transform="rotate(-12.7962 154.612 63.0103)" fill="#FFA4A4"/>
<path d="M146.618 50.9639L153.624 34.6167H154.558L168.103 45.8262L164.834 52.8322L152.69 55.6345L146.618 50.9639Z" fill="#CED6FF"/>
<path d="M165.097 69.6685C164.69 69.7707 164.276 69.5179 164.172 69.104L163.672 67.1113C163.601 66.8259 163.314 66.651 163.033 66.7214L161.053 67.2178C160.773 67.2883 160.602 67.5778 160.674 67.8632L161.174 69.8559C161.277 70.2698 161.031 70.6881 160.624 70.7902C160.217 70.8923 159.802 70.6396 159.699 70.2257L159.199 68.233C158.92 67.1211 159.584 65.9934 160.678 65.719L162.657 65.2226C163.751 64.9483 164.868 65.6296 165.147 66.7415L165.647 68.7342C165.751 69.1481 165.505 69.5664 165.097 69.6685Z" fill="#585858"/>
<path d="M162.748 39.7467C162.425 39.4832 161.947 39.5307 161.68 39.8524C161.414 40.1743 161.46 40.6488 161.783 40.9123L166.665 44.8935C167.208 45.3363 167.384 46.1641 167.066 46.7782L164.248 52.2236L153.163 55.003L148.109 51.5318C147.539 51.1404 147.303 50.3273 147.573 49.6806L152.39 38.1385L153.779 43.6788C153.035 44.6108 152.767 45.8183 153.06 46.9891C153.574 49.0404 155.674 50.2875 157.741 49.7692C159.808 49.2509 161.072 47.1605 160.557 45.1093C160.277 43.9911 159.514 43.0726 158.48 42.5842L157.104 37.0963L159.262 38.8568C159.585 39.1203 160.063 39.0728 160.33 38.7511C160.596 38.4292 160.55 37.9546 160.227 37.6911L156.01 34.2522C155.346 33.7108 154.51 33.5146 153.716 33.7137C152.921 33.9129 152.276 34.4806 151.947 35.2711L146.173 49.1082C145.631 50.4059 146.091 51.9809 147.243 52.7719L151.459 55.6667C150.734 56.2516 150.371 57.2196 150.611 58.1748L151.484 61.6585C151.751 62.725 152.688 63.4519 153.74 63.5099L155.384 69.215C155.496 69.6061 155.901 69.8347 156.296 69.7357C156.304 69.7335 156.313 69.7313 156.321 69.7288C156.724 69.613 156.957 69.1953 156.842 68.7958L155.243 63.2476L166.402 60.4496L167.61 66.0957C167.697 66.5022 168.1 66.7605 168.509 66.6727C168.518 66.6708 168.527 66.6687 168.535 66.6666C168.93 66.5676 169.179 66.1752 169.094 65.7773L167.844 59.9378C168.685 59.3746 169.127 58.3294 168.868 57.2994L167.995 53.8157C167.755 52.8605 166.979 52.1782 166.064 52.0045L168.415 47.4633C169.057 46.2225 168.72 44.6166 167.63 43.7279L162.748 39.7467ZM154.082 35.1741C154.41 35.0919 154.752 35.1784 155.045 35.4176L155.137 35.4927L157.1 43.3202C157.162 43.5658 157.344 43.7639 157.584 43.847C158.333 44.1059 158.894 44.7157 159.086 45.4781C159.398 46.724 158.631 47.9938 157.375 48.3086C156.12 48.6234 154.844 47.8659 154.532 46.6199C154.331 45.8215 154.562 44.9946 155.148 44.4079C155.335 44.2204 155.411 43.9495 155.347 43.6939L153.368 35.8008C153.516 35.4753 153.768 35.2528 154.082 35.1741ZM167.397 57.6682C167.524 58.1762 167.211 58.6941 166.699 58.8225L154.115 61.9779C153.603 62.1063 153.083 61.7973 152.956 61.2893L152.082 57.8056C151.955 57.2976 152.268 56.7797 152.779 56.6514L165.364 53.4959C165.876 53.3675 166.396 53.6765 166.523 54.1845L167.397 57.6682Z" fill="#585858"/>
<path d="M137.55 49.5434C136.947 46.5679 137.057 43.4825 137.878 40.5701C138.021 40.0612 137.725 39.5323 137.216 39.3889C136.707 39.2453 136.178 39.5416 136.035 40.0506C135.125 43.2781 135.008 46.6981 135.687 49.9923C134.183 50.7951 133.351 52.5444 133.777 54.274C134.28 56.3185 136.353 57.5725 138.397 57.0693C140.442 56.5661 141.696 54.4934 141.193 52.4488C140.77 50.7317 139.24 49.5727 137.55 49.5434ZM137.94 55.21C136.92 55.4608 135.887 54.8356 135.636 53.8164C135.385 52.7971 136.011 51.7637 137.03 51.5128C138.049 51.262 139.082 51.8872 139.333 52.9064C139.584 53.9257 138.959 54.9591 137.94 55.21Z" fill="#585858"/>
<path d="M180.265 15.4844L177.277 16.2197C176.192 16.4868 175.526 17.5872 175.793 18.6726L175.932 19.2367L154.733 24.4541L154.594 23.89C154.327 22.8046 153.227 22.1389 152.141 22.406L149.154 23.1413C148.068 23.4084 147.403 24.5088 147.67 25.5942L147.809 26.1583L126.609 31.3757L126.47 30.8116C126.203 29.7262 125.103 29.0605 124.018 29.3276L121.03 30.0629C119.945 30.33 119.279 31.4304 119.546 32.5158L120.281 35.5034C120.548 36.5887 121.649 37.2545 122.734 36.9873L125.722 36.2521C126.807 35.9849 127.473 34.8845 127.206 33.7992L127.067 33.2351L143.206 29.2631C140.916 31.0839 139.01 33.3794 137.632 36.0237C137.387 36.4926 137.569 37.0708 138.038 37.3152C138.253 37.4272 138.491 37.4498 138.709 37.396C138.967 37.3326 139.198 37.1628 139.33 36.9089C141.31 33.1095 144.487 30.1012 148.346 28.3415L148.405 28.5819C148.672 29.6672 149.773 30.333 150.858 30.0658L153.845 29.3306C154.931 29.0634 155.597 27.963 155.329 26.8777L155.27 26.6372C164.101 26.1503 172.198 31.8765 174.676 40.4077C173.192 41.2179 172.374 42.9549 172.797 44.6724C173.3 46.7169 175.373 47.9709 177.417 47.4677C179.462 46.9646 180.716 44.8918 180.212 42.8473C179.787 41.118 178.238 39.9545 176.534 39.9413C174.312 32.1941 167.882 26.5362 160.252 25.0681L176.39 21.0963L176.529 21.6604C176.796 22.7457 177.896 23.4115 178.982 23.1444L181.969 22.4091C183.055 22.142 183.72 21.0416 183.453 19.9562L182.718 16.9684C182.451 15.883 181.35 15.2173 180.265 15.4844ZM125.346 34.2568C125.361 34.3169 125.324 34.3779 125.264 34.3927L122.277 35.128C122.216 35.1428 122.155 35.1059 122.141 35.0458L121.405 32.0582C121.391 31.9981 121.427 31.937 121.488 31.9222L124.475 31.187C124.535 31.1722 124.596 31.2091 124.611 31.2692L125.346 34.2568ZM178.353 43.3046C178.604 44.3239 177.979 45.3573 176.959 45.6081C175.94 45.859 174.907 45.2338 174.656 44.2145C174.405 43.1953 175.03 42.1619 176.05 41.911C177.069 41.6602 178.102 42.2853 178.353 43.3046ZM153.47 27.3352C153.485 27.3953 153.448 27.4563 153.388 27.4711L150.4 28.2064C150.34 28.2212 150.279 28.1843 150.264 28.1241L149.529 25.1366C149.514 25.0764 149.551 25.0154 149.611 25.0006L152.599 24.2654C152.659 24.2506 152.72 24.2875 152.735 24.3476L153.47 27.3352ZM181.594 20.4136C181.609 20.4737 181.572 20.5347 181.512 20.5495L178.524 21.2848C178.464 21.2996 178.403 21.2627 178.388 21.2025L177.653 18.2149C177.638 18.1548 177.675 18.0938 177.735 18.079L180.723 17.3437C180.783 17.3289 180.844 17.3659 180.859 17.426L181.594 20.4136Z" fill="#585858"/>
</g>
<defs>
<filter id="filter0_ii" x="7" y="-2" width="294" height="294" filterUnits="userSpaceOnUse" color-interpolation-filters="sRGB">
<feFlood flood-opacity="0" result="BackgroundImageFix"/>
<feBlend mode="normal" in="SourceGraphic" in2="BackgroundImageFix" result="shape"/>
<feColorMatrix in="SourceAlpha" type="matrix" values="0 0 0 0 0 0 0 0 0 0 0 0 0 0 0 0 0 0 127 0" result="hardAlpha"/>
<feOffset dx="2" dy="2"/>
<feGaussianBlur stdDeviation="2.5"/>
<feComposite in2="hardAlpha" operator="arithmetic" k2="-1" k3="1"/>
<feColorMatrix type="matrix" values="0 0 0 0 0 0 0 0 0 0 0 0 0 0 0 0 0 0 0.17 0"/>
<feBlend mode="normal" in2="shape" result="effect1_innerShadow"/>
<feColorMatrix in="SourceAlpha" type="matrix" values="0 0 0 0 0 0 0 0 0 0 0 0 0 0 0 0 0 0 127 0" result="hardAlpha"/>
<feOffset dx="-2" dy="-2"/>
<feGaussianBlur stdDeviation="2.5"/>
<feComposite in2="hardAlpha" operator="arithmetic" k2="-1" k3="1"/>
<feColorMatrix type="matrix" values="0 0 0 0 0 0 0 0 0 0 0 0 0 0 0 0 0 0 0.17 0"/>
<feBlend mode="normal" in2="effect1_innerShadow" result="effect2_innerShadow"/>
</filter>
<filter id="filter1_d" x="0" y="152.356" width="303.652" height="142.079" filterUnits="userSpaceOnUse" color-interpolation-filters="sRGB">
<feFlood flood-opacity="0" result="BackgroundImageFix"/>
<feColorMatrix in="SourceAlpha" type="matrix" values="0 0 0 0 0 0 0 0 0 0 0 0 0 0 0 0 0 0 127 0"/>
<feOffset dx="-2" dy="-2"/>
<feGaussianBlur stdDeviation="3.5"/>
<feColorMatrix type="matrix" values="0 0 0 0 0 0 0 0 0 0 0 0 0 0 0 0 0 0 0.17 0"/>
<feBlend mode="normal" in2="BackgroundImageFix" result="effect1_dropShadow"/>
<feBlend mode="normal" in="SourceGraphic" in2="effect1_dropShadow" result="shape"/>
</filter>
</defs>
</svg>
