<svg width="303" height="296" viewBox="0 0 303 296" fill="none" xmlns="http://www.w3.org/2000/svg">
<g filter="url(#filter0_ii)">
<circle cx="153" cy="145" r="145" fill="#FFCCCC"/>
<path d="M64.5212 115.312C64.5212 115.312 63.6954 109.623 63.053 107.237C62.4106 104.851 63.053 99.712 63.053 99.712C63.053 99.712 61.2177 99.5285 60.3918 100.997C59.5659 102.465 58.8318 107.787 58.0977 108.246C57.3635 108.613 55.253 108.063 54.9777 107.696C54.7024 107.329 47.82 98.7026 46.627 98.9779C45.5258 99.2532 44.5164 100.446 45.1588 101.456C45.8011 102.465 50.1141 106.686 49.4717 107.237C48.8294 107.696 43.1399 102.557 42.2223 103.107C41.3046 103.658 40.8458 104.943 41.5799 105.769C42.4058 106.594 46.627 110.54 46.1682 110.999C45.7094 111.55 41.3046 107.053 40.6623 107.329C40.0199 107.604 39.7446 108.98 40.2952 109.531C40.8458 109.99 46.26 115.129 45.8011 116.046C45.2505 116.872 41.3964 115.037 40.754 115.037C39.9282 115.129 40.0199 116.78 41.8552 117.514C42.4058 117.698 55.0694 122.562 56.5377 123.02C58.0977 123.387 64.5212 115.312 64.5212 115.312Z" fill="#D1977A"/>
<path d="M118.938 111.091C118.387 111.091 101.502 114.027 86.5443 114.853L61.0336 112.008L56.5371 122.837L84.709 128.526H109.853L118.938 111.091Z" fill="#D1977A"/>
<path d="M50.2061 116.78C50.2061 116.78 50.7566 116.23 51.8578 115.863C52.959 115.496 54.7943 115.312 56.5379 116.138C56.6296 116.23 56.7214 116.23 56.9049 116.321L56.5379 116.597C56.3543 114.853 56.5379 113.293 56.9049 112.192C57.1802 111.091 57.5473 110.54 57.5473 110.54C57.7308 110.54 56.6296 113.201 56.9967 116.597L57.0884 117.056L56.7214 116.872C56.6296 116.872 56.5379 116.78 56.4461 116.689C54.8861 115.954 53.2343 116.046 52.1331 116.321C50.8484 116.413 50.2061 116.872 50.2061 116.78Z" fill="#A96541"/>
<path d="M233.384 118.226C233.384 118.226 234.165 112.846 234.772 110.591C235.379 108.335 234.772 103.476 234.772 103.476C234.772 103.476 236.507 103.303 237.288 104.691C238.069 106.079 238.763 111.111 239.457 111.545C240.151 111.892 242.147 111.372 242.407 111.024C242.667 110.677 249.174 102.522 250.302 102.782C251.343 103.043 252.298 104.17 251.69 105.125C251.083 106.079 247.005 110.07 247.612 110.591C248.22 111.024 253.599 106.166 254.467 106.686C255.334 107.207 255.768 108.422 255.074 109.202C254.293 109.983 250.302 113.714 250.736 114.148C251.17 114.668 255.334 110.417 255.941 110.677C256.636 110.938 256.809 112.239 256.289 112.76C255.768 113.193 250.649 118.052 251.083 118.92C251.603 119.701 255.247 117.965 255.855 117.965C256.636 118.052 256.549 119.614 254.814 120.308C254.293 120.481 242.32 125.08 240.932 125.513C239.544 125.86 233.384 118.226 233.384 118.226Z" fill="#D1977A"/>
<path d="M181.936 114.234C182.456 114.234 198.42 117.011 212.562 117.792L236.681 115.102L240.933 125.34L214.297 130.719H190.525L181.936 114.234Z" fill="#D1977A"/>
<path d="M246.919 119.614C246.919 119.701 246.312 119.267 245.271 119.006C244.23 118.746 242.668 118.659 241.193 119.353C241.106 119.44 241.02 119.44 240.933 119.527L240.586 119.701L240.673 119.267C241.02 116.057 240.065 113.627 240.152 113.541C240.239 113.541 240.499 114.061 240.759 115.102C241.02 116.143 241.28 117.618 241.106 119.267L240.759 119.006C240.846 118.92 240.933 118.92 241.106 118.833C242.755 118.139 244.403 118.226 245.531 118.573C246.486 119.093 247.006 119.527 246.919 119.614Z" fill="#A96541"/>
<path d="M158.683 72.1555C157.729 66.0822 154.345 60.5296 149.487 56.7989L150.007 56.5386C145.322 54.4563 139.249 56.7121 137.08 61.3972C136.212 63.3059 135.952 65.3882 135.432 67.4704C134.911 69.4659 134.043 71.5481 132.308 72.7628C131.354 73.3701 130.313 73.7171 129.358 74.3245C128.404 74.9318 127.536 75.8862 127.623 77.014C127.71 78.4022 129.185 79.3566 130.66 79.6169C132.048 79.8771 133.61 79.8771 134.824 80.658C132.829 81.9594 132.308 84.996 133.61 86.9915C134.998 88.9002 138.034 89.4208 139.943 88.0326C138.902 90.2884 140.03 93.2382 142.199 94.5396C144.368 95.841 147.144 95.7543 149.4 94.7132C151.656 93.672 153.478 91.7633 154.866 89.6811C158.25 84.5622 159.638 78.1419 158.683 72.1555Z" fill="#2E2E2E"/>
<path d="M191.652 62.1782C191.479 60.443 190.004 59.1416 188.356 58.5342C186.707 58.0137 184.972 58.1004 183.237 58.274C184.018 56.105 184.798 53.8492 184.625 51.5934C184.451 49.3376 183.237 46.9084 180.981 46.2143C179.072 45.6069 177.077 46.3878 175.342 47.3422C173.606 48.3833 172.045 49.5979 170.223 50.292C165.364 51.8537 160.158 48.47 155.04 48.9038C149.747 49.3376 144.715 54.7168 144.802 59.9224C152.871 64.1737 160.939 68.4249 167.88 74.3246C171.611 77.5348 175.602 81.3522 180.46 81.1787C183.497 81.0919 186.447 79.1832 187.748 76.4069C189.136 73.6306 188.789 70.1601 187.054 67.7308C189.31 66.5162 191.913 64.781 191.652 62.1782Z" fill="#2E2E2E"/>
<path d="M181.848 72.9363C182.195 66.0822 175.514 58.4473 168.66 58.4473L146.189 60.2692L145.842 63.9132L142.285 109.462C142.285 109.462 142.632 124.298 155.039 124.819C166.231 125.253 166.838 113.453 166.838 113.453L167.446 104.864C167.446 104.864 176.469 105.471 179.505 94.2793C181.067 88.7266 181.501 80.5712 181.848 72.9363Z" fill="#D1977A"/>
<path d="M176.382 82.7403C176.296 83.5211 175.602 84.1284 174.821 84.0417C174.04 83.9549 173.433 83.3476 173.433 82.5668C173.519 81.7859 174.213 81.1786 174.994 81.2653C175.862 81.2653 176.469 81.9594 176.382 82.7403Z" fill="#2E2E2E"/>
<path d="M179.159 78.7493C178.985 78.9228 177.944 77.9684 176.382 77.7949C174.821 77.6214 173.606 78.3155 173.432 78.0552C173.346 77.9684 173.606 77.6214 174.127 77.3611C174.647 77.0141 175.515 76.7538 176.556 76.9273C177.51 77.0141 178.291 77.4479 178.725 77.8817C179.159 78.3155 179.332 78.6625 179.159 78.7493Z" fill="#2E2E2E"/>
<path d="M163.543 81.3521C163.456 82.1329 162.762 82.7403 161.981 82.6535C161.2 82.5667 160.593 81.9594 160.593 81.1786C160.68 80.3977 161.374 79.7904 162.154 79.8772C163.022 79.8772 163.629 80.5712 163.543 81.3521Z" fill="#2E2E2E"/>
<path d="M164.756 77.448C164.583 77.6215 163.542 76.6672 161.98 76.4936C160.418 76.3201 159.204 77.0142 159.03 76.7539C158.943 76.6672 159.204 76.3201 159.724 76.0598C160.245 75.7128 161.112 75.4525 162.067 75.626C163.021 75.7128 163.802 76.1466 164.236 76.5804C164.756 77.0142 164.843 77.3612 164.756 77.448Z" fill="#2E2E2E"/>
<path d="M168.314 88.2931C168.314 88.2063 169.269 88.2063 170.917 88.2063C171.351 88.2063 171.698 88.2063 171.785 87.946C171.872 87.7725 171.785 87.4254 171.611 86.9916C171.351 86.2108 171.004 85.43 170.744 84.5624C170.397 83.6947 168.835 78.6627 168.835 78.1421C169.009 78.1421 170.136 80.9184 171.438 84.3888C171.698 85.2564 172.045 86.0373 172.305 86.8181C172.392 87.1652 172.652 87.599 172.392 88.0328C172.219 88.293 171.958 88.3798 171.698 88.3798C171.438 88.3798 171.178 88.3798 171.004 88.3798C169.269 88.4666 168.314 88.3798 168.314 88.2931Z" fill="#2E2E2E"/>
<path d="M167.619 104.951C167.619 104.951 159.898 104.604 152.87 99.2246C152.87 99.2246 155.907 107.554 167.359 107.727L167.619 104.951Z" fill="#A96541"/>
<path d="M164.843 72.1557C164.582 72.5895 163.281 72.1557 161.632 72.0689C159.984 71.9822 158.596 72.3292 158.422 71.8087C158.336 71.5484 158.683 71.2013 159.29 70.7675C159.897 70.4205 160.852 70.0735 161.806 70.1602C162.76 70.247 163.628 70.594 164.149 71.0278C164.669 71.4616 164.929 71.8954 164.843 72.1557Z" fill="#2E2E2E"/>
<path d="M179.853 73.3704C179.506 73.8042 178.465 73.2836 177.077 73.1969C175.689 73.1101 174.561 73.3704 174.301 72.9366C174.214 72.6763 174.387 72.3293 174.908 71.8955C175.428 71.5484 176.296 71.2014 177.25 71.2881C178.205 71.3749 178.986 71.8087 179.419 72.2425C179.853 72.7631 179.94 73.1969 179.853 73.3704Z" fill="#2E2E2E"/>
<path d="M181.588 66.3429C179.94 62.2652 176.382 59.1418 172.305 57.4066C168.227 55.7582 163.715 55.4111 159.291 55.9317C154.866 56.3655 150.615 57.4934 146.363 58.6213C145.322 58.8816 144.194 59.2286 143.587 60.183C143.24 60.7903 143.153 61.5711 143.066 62.2652C142.719 68.3384 142.286 74.4984 141.938 80.5716L143.153 84.4759C145.149 84.7361 146.971 83.4347 148.359 82.1333C153.478 77.4483 156.601 70.7677 157.035 63.8269C157.555 64.6077 157.642 65.6489 157.816 66.6032C157.989 67.5576 158.51 68.512 159.377 68.859C160.852 69.4663 162.327 67.8179 162.761 66.3429C163.195 64.7813 163.108 63.0461 164.062 61.7446C165.364 64.1739 167.186 66.3429 169.442 67.9046C170.483 68.6855 171.958 69.2928 172.999 68.5987C173.78 68.0782 174.04 67.1238 173.953 66.1694C173.866 65.2151 173.346 64.4342 172.912 63.6534C174.56 65.9091 176.816 67.6444 179.419 68.6855C180.026 68.859 180.634 69.0325 181.154 68.7722C182.022 68.3384 181.935 67.2105 181.588 66.3429Z" fill="#2E2E2E"/>
<path d="M146.885 77.0144C146.711 76.9276 140.117 74.238 139.683 81.1789C139.163 88.1197 146.277 87.1653 146.277 86.9918C146.277 86.7315 146.885 77.0144 146.885 77.0144Z" fill="#D1977A"/>
<path d="M144.368 84.2152C144.368 84.2152 144.282 84.302 144.021 84.3887C143.848 84.4755 143.501 84.4755 143.154 84.302C142.46 83.9549 141.939 82.7403 141.939 81.5256C141.939 80.9183 142.113 80.311 142.373 79.7904C142.633 79.2699 142.98 78.9228 143.327 78.9228C143.674 78.8361 143.935 79.0963 144.021 79.2699C144.108 79.4434 144.021 79.6169 144.108 79.6169C144.108 79.6169 144.282 79.5301 144.195 79.1831C144.195 79.0096 144.108 78.8361 143.935 78.7493C143.761 78.5758 143.501 78.489 143.24 78.489C142.72 78.489 142.199 78.9228 141.939 79.4434C141.592 79.9639 141.418 80.658 141.418 81.3521C141.332 82.7403 142.026 84.1284 142.98 84.4755C143.501 84.649 143.848 84.4755 144.108 84.3887C144.282 84.3887 144.368 84.2152 144.368 84.2152Z" fill="#A96541"/>
<path d="M155.733 62.8724C155.733 62.8724 155.647 63.0459 155.56 63.3062C155.386 63.5665 155.213 63.9135 154.953 64.3473C154.345 65.2149 153.478 66.5163 152.09 67.9045C151.395 68.5986 150.615 69.2927 149.747 69.9868C149.313 70.3338 148.793 70.6808 148.272 71.0279C147.752 71.3749 147.144 71.6352 146.45 71.6352C145.756 71.6352 145.062 71.2014 144.715 70.5941C144.368 69.9868 144.194 69.2927 144.194 68.5118C144.281 67.0369 145.062 65.7355 145.322 64.3473C145.322 64.1738 145.409 64.0003 145.409 63.8268L145.756 64.0003C144.715 64.9547 143.674 65.909 142.633 66.7766C142.112 67.2104 141.592 67.6442 141.158 68.078C140.637 68.5118 140.117 68.9456 139.423 69.0324C139.076 69.1192 138.728 69.0324 138.468 68.8589C138.208 68.6854 137.948 68.4251 137.861 68.078C137.601 67.4707 137.601 66.8634 137.601 66.3428C137.601 65.2149 137.774 64.1738 138.034 63.3062C138.555 61.4842 139.336 60.1828 139.943 59.3152C140.29 58.8814 140.55 58.6212 140.724 58.3609C140.897 58.1873 140.984 58.1006 141.071 58.1006C141.071 58.1006 140.724 58.5344 140.117 59.402C139.509 60.2696 138.728 61.571 138.295 63.393C138.034 64.2606 137.861 65.3017 137.861 66.3428C137.861 66.8634 137.861 67.4707 138.121 67.9913C138.295 68.5118 138.815 68.8589 139.336 68.7721C139.856 68.6854 140.377 68.2516 140.897 67.8178C141.418 67.384 141.852 66.9501 142.372 66.5163C143.414 65.6487 144.455 64.6944 145.496 63.74L145.843 63.393L145.756 63.9135C145.756 64.0871 145.669 64.2606 145.669 64.5209C145.322 65.9958 144.628 67.2972 144.541 68.5986C144.541 69.2927 144.715 69.9 144.975 70.4206C145.322 70.9411 145.843 71.2882 146.45 71.2882C147.057 71.2882 147.578 71.0279 148.099 70.7676C148.619 70.4206 149.053 70.0735 149.487 69.8132C150.354 69.1192 151.135 68.4251 151.829 67.731C153.217 66.3428 154.085 65.1282 154.692 64.2606C155.039 63.8268 155.213 63.4797 155.386 63.2194C155.647 63.0459 155.733 62.8724 155.733 62.8724Z" fill="#455A64"/>
<path d="M163.542 89.074C163.021 89.8548 162.501 91.243 162.588 92.1106C162.588 92.9782 163.108 93.9326 163.889 94.3664C164.757 94.8002 165.885 94.6266 166.665 94.1061C167.533 93.5855 168.14 92.8914 168.748 92.1106C167.186 91.1562 165.19 90.0283 163.542 89.074Z" fill="#A96541"/>
<path d="M165.797 94.9738C165.797 94.9738 164.93 95.1473 163.802 94.4532C163.281 94.1062 162.674 93.4121 162.414 92.5445C162.153 91.6769 162.24 90.6358 162.761 89.7682C162.934 89.4211 163.281 89.0741 163.541 88.8138L163.628 88.7271L163.715 88.8138C165.19 89.5947 166.491 90.3755 167.359 90.9828C168.227 91.5901 168.66 92.0239 168.66 92.1107C168.574 92.1975 166.578 90.6358 163.541 89.1609H163.802C163.541 89.4211 163.281 89.6814 163.108 89.9417C162.674 90.7225 162.587 91.6769 162.761 92.4577C162.934 93.2386 163.455 93.8459 163.889 94.193C164.93 94.887 165.797 94.887 165.797 94.9738Z" fill="#2E2E2E"/>
<path d="M142.806 103.997H138.207C136.125 103.997 134.043 104.257 131.961 104.777L108.015 110.677V129.504L126.234 130.198L125.28 149.025L122.937 168.72C122.937 168.72 136.299 180.085 147.057 180.346C157.902 180.606 176.382 173.318 176.382 173.318L179.939 132.194L191.044 133.495L198.506 114.234C198.506 114.234 180.893 107.727 178.551 107.467C177.683 107.38 167.532 107.38 167.532 107.38C165.016 113.714 159.377 114.148 154.518 113.887C146.797 113.193 142.545 103.997 142.806 103.997Z" fill="#FFB905"/>
<path d="M126.407 120.221C126.407 120.221 126.407 120.394 126.407 120.655C126.407 121.002 126.407 121.435 126.407 121.956C126.407 123.171 126.407 124.819 126.407 126.814C126.321 130.892 126.234 136.618 125.887 142.865C125.54 149.112 124.846 154.751 124.325 158.829C124.065 160.825 123.718 162.473 123.544 163.601C123.458 164.121 123.371 164.555 123.284 164.902C123.197 165.163 123.197 165.336 123.197 165.336C123.197 165.336 123.197 165.163 123.197 164.902C123.284 164.555 123.284 164.121 123.371 163.601C123.544 162.386 123.718 160.738 123.978 158.742C124.499 154.665 125.106 149.025 125.453 142.778C125.8 136.532 125.974 130.805 126.147 126.728C126.234 124.732 126.234 123.084 126.321 121.869C126.321 121.349 126.407 120.915 126.407 120.568C126.407 120.394 126.407 120.221 126.407 120.221Z" fill="#2E2E2E"/>
<path d="M183.496 120.134C183.583 120.134 182.975 121.436 182.281 123.605C181.587 125.774 180.893 128.81 180.372 132.194C179.852 135.578 179.592 138.701 179.331 140.957C179.245 141.998 179.158 142.866 179.071 143.646C178.984 144.254 178.984 144.601 178.897 144.601C178.897 144.601 178.897 144.254 178.897 143.646C178.897 143.039 178.984 142.085 178.984 140.957C179.158 138.701 179.331 135.578 179.852 132.107C180.372 128.637 181.153 125.6 181.934 123.431C182.368 122.39 182.715 121.522 182.975 120.915C183.235 120.481 183.409 120.134 183.496 120.134Z" fill="#2E2E2E"/>
<path d="M162.152 153.103C162.152 153.103 161.892 153.363 161.285 153.797C160.764 154.231 159.897 154.751 158.855 155.359C156.773 156.66 153.823 158.135 150.353 159.436C146.883 160.738 143.586 161.519 141.243 161.866C140.028 162.039 139.074 162.213 138.38 162.213C137.686 162.3 137.339 162.3 137.339 162.3C137.339 162.3 137.686 162.213 138.38 162.039C139.074 161.953 140.028 161.779 141.156 161.519C143.499 161.085 146.796 160.217 150.179 159.003C153.65 157.701 156.6 156.226 158.682 155.012C159.723 154.404 160.591 153.884 161.111 153.537C161.805 153.276 162.152 153.016 162.152 153.103Z" fill="#2E2E2E"/>
<path d="M179.245 135.837C179.245 135.837 179.071 135.837 178.724 135.924C178.291 135.924 177.77 136.011 177.163 136.011C175.861 136.098 173.866 136.184 171.437 136.184C166.665 136.271 159.984 136.358 152.696 136.184C145.408 136.011 138.728 135.751 133.956 135.404C131.527 135.23 129.618 135.143 128.317 134.97C127.709 134.883 127.189 134.883 126.755 134.796C126.408 134.796 126.234 134.709 126.234 134.709C126.234 134.709 126.408 134.709 126.755 134.709C127.189 134.709 127.709 134.709 128.317 134.796C129.705 134.883 131.614 134.97 133.956 135.057C138.728 135.317 145.408 135.577 152.696 135.664C159.984 135.837 166.665 135.837 171.437 135.751C173.779 135.751 175.688 135.751 177.163 135.664C177.77 135.664 178.291 135.664 178.724 135.664C179.071 135.751 179.245 135.751 179.245 135.837Z" fill="white"/>
<path d="M117.731 129.417C117.644 129.417 117.644 128.29 117.557 126.381C117.47 124.385 117.383 121.869 117.297 119.006C117.123 116.23 117.036 113.627 116.863 111.632C116.776 109.723 116.689 108.595 116.776 108.595C116.776 108.595 116.863 108.855 116.95 109.376C117.036 109.896 117.123 110.677 117.21 111.632C117.383 113.54 117.644 116.143 117.731 119.006C117.904 121.869 117.904 124.472 117.904 126.381C117.904 127.335 117.904 128.116 117.817 128.637C117.817 129.157 117.731 129.417 117.731 129.417Z" fill="white"/>
<path d="M193.994 112.239C193.994 112.239 193.994 112.586 193.82 113.106C193.647 113.627 193.473 114.408 193.213 115.362C192.606 117.271 191.738 119.874 190.697 122.737C189.656 125.6 188.528 128.116 187.747 129.938C187.313 130.805 186.966 131.586 186.706 132.107C186.446 132.627 186.272 132.888 186.272 132.888C186.185 132.888 186.706 131.76 187.4 129.851C188.181 128.029 189.135 125.426 190.176 122.65C191.217 119.787 192.172 117.271 192.779 115.362C193.473 113.367 193.907 112.152 193.994 112.239Z" fill="white"/>
<g filter="url(#filter1_d)">
<path fill-rule="evenodd" clip-rule="evenodd" d="M297.652 165.217C288.004 235.94 227.361 290.434 153.99 290.434C79.6326 290.434 18.3478 234.464 9.9668 162.356C13.0664 163.538 16.305 165.157 19.7941 166.902C33.6954 173.854 51.572 182.793 80.4693 173.968C124.682 160.465 169.889 160.465 222.05 177.633C247.895 186.139 275.307 175.359 297.652 165.217Z" fill="white"/>
</g>
<path d="M84.4585 205V192.864H85.8696V205H84.4585ZM91.9375 204.029C92.181 204.029 92.4162 204.012 92.6431 203.979C92.87 203.94 93.0498 203.902 93.1826 203.863V204.917C93.0332 204.989 92.8118 205.047 92.5186 205.091C92.2308 205.141 91.9707 205.166 91.7383 205.166C89.9785 205.166 89.0986 204.239 89.0986 202.385V196.973H87.7954V196.309L89.0986 195.736L89.6797 193.794H90.4766V195.902H93.1162V196.973H90.4766V202.327C90.4766 202.875 90.6066 203.296 90.8667 203.589C91.1268 203.882 91.4837 204.029 91.9375 204.029ZM100.803 205H99.4248V195.902H100.803V205ZM99.3086 193.437C99.3086 193.122 99.3861 192.892 99.541 192.748C99.696 192.599 99.8896 192.524 100.122 192.524C100.343 192.524 100.534 192.599 100.695 192.748C100.855 192.897 100.936 193.127 100.936 193.437C100.936 193.747 100.855 193.979 100.695 194.134C100.534 194.284 100.343 194.358 100.122 194.358C99.8896 194.358 99.696 194.284 99.541 194.134C99.3861 193.979 99.3086 193.747 99.3086 193.437ZM109.593 202.518C109.593 203.365 109.278 204.018 108.647 204.477C108.016 204.936 107.131 205.166 105.991 205.166C104.784 205.166 103.844 204.975 103.168 204.593V203.315C103.606 203.536 104.073 203.711 104.571 203.838C105.075 203.965 105.559 204.029 106.024 204.029C106.743 204.029 107.297 203.915 107.684 203.688C108.071 203.456 108.265 203.105 108.265 202.634C108.265 202.28 108.11 201.979 107.8 201.729C107.496 201.475 106.898 201.176 106.007 200.833C105.161 200.518 104.557 200.244 104.198 200.011C103.844 199.773 103.578 199.505 103.401 199.206C103.229 198.907 103.144 198.55 103.144 198.135C103.144 197.394 103.445 196.81 104.048 196.384C104.652 195.952 105.479 195.736 106.53 195.736C107.51 195.736 108.467 195.936 109.402 196.334L108.913 197.455C108 197.078 107.172 196.89 106.431 196.89C105.778 196.89 105.285 196.993 104.953 197.197C104.621 197.402 104.455 197.684 104.455 198.044C104.455 198.287 104.516 198.495 104.638 198.667C104.765 198.838 104.967 199.001 105.244 199.156C105.52 199.311 106.052 199.535 106.837 199.829C107.917 200.222 108.644 200.617 109.021 201.016C109.402 201.414 109.593 201.915 109.593 202.518ZM121.854 205L121.58 203.705H121.513C121.059 204.275 120.606 204.662 120.152 204.867C119.704 205.066 119.142 205.166 118.467 205.166C117.565 205.166 116.856 204.934 116.342 204.469C115.833 204.004 115.578 203.343 115.578 202.485C115.578 200.648 117.047 199.685 119.986 199.596L121.53 199.546V198.982C121.53 198.268 121.375 197.742 121.065 197.405C120.761 197.062 120.271 196.89 119.596 196.89C118.838 196.89 117.98 197.123 117.022 197.587L116.599 196.533C117.047 196.29 117.537 196.099 118.068 195.96C118.605 195.822 119.142 195.753 119.679 195.753C120.763 195.753 121.566 195.994 122.086 196.475C122.612 196.957 122.875 197.729 122.875 198.791V205H121.854ZM118.741 204.029C119.598 204.029 120.271 203.794 120.758 203.323C121.25 202.853 121.497 202.194 121.497 201.348V200.526L120.119 200.584C119.023 200.623 118.232 200.794 117.745 201.099C117.263 201.397 117.022 201.865 117.022 202.501C117.022 203 117.172 203.379 117.471 203.639C117.775 203.899 118.198 204.029 118.741 204.029ZM129.357 205.166C128.04 205.166 127.019 204.762 126.294 203.954C125.575 203.141 125.215 201.992 125.215 200.509C125.215 198.987 125.581 197.812 126.311 196.981C127.047 196.151 128.093 195.736 129.449 195.736C129.886 195.736 130.323 195.783 130.76 195.877C131.197 195.972 131.541 196.082 131.79 196.209L131.366 197.38C131.062 197.258 130.73 197.159 130.37 197.081C130.01 196.998 129.692 196.957 129.416 196.957C127.567 196.957 126.643 198.135 126.643 200.493C126.643 201.611 126.867 202.468 127.315 203.066C127.769 203.664 128.439 203.962 129.324 203.962C130.082 203.962 130.86 203.799 131.657 203.473V204.693C131.048 205.008 130.282 205.166 129.357 205.166ZM137.459 205.166C136.142 205.166 135.121 204.762 134.396 203.954C133.677 203.141 133.317 201.992 133.317 200.509C133.317 198.987 133.682 197.812 134.413 196.981C135.149 196.151 136.194 195.736 137.55 195.736C137.987 195.736 138.425 195.783 138.862 195.877C139.299 195.972 139.642 196.082 139.891 196.209L139.468 197.38C139.163 197.258 138.831 197.159 138.472 197.081C138.112 196.998 137.794 196.957 137.517 196.957C135.669 196.957 134.745 198.135 134.745 200.493C134.745 201.611 134.969 202.468 135.417 203.066C135.871 203.664 136.54 203.962 137.426 203.962C138.184 203.962 138.961 203.799 139.758 203.473V204.693C139.15 205.008 138.383 205.166 137.459 205.166ZM145.768 205.166C144.423 205.166 143.361 204.757 142.581 203.938C141.806 203.118 141.418 201.981 141.418 200.526C141.418 199.059 141.778 197.895 142.498 197.031C143.222 196.168 144.194 195.736 145.411 195.736C146.551 195.736 147.453 196.113 148.117 196.865C148.781 197.612 149.113 198.6 149.113 199.829V200.7H142.846C142.874 201.768 143.142 202.579 143.651 203.132C144.166 203.686 144.888 203.962 145.818 203.962C146.797 203.962 147.766 203.758 148.723 203.348V204.577C148.236 204.787 147.774 204.936 147.337 205.025C146.905 205.119 146.382 205.166 145.768 205.166ZM145.395 196.89C144.664 196.89 144.08 197.128 143.643 197.604C143.211 198.08 142.957 198.738 142.879 199.58H147.636C147.636 198.711 147.442 198.047 147.055 197.587C146.667 197.123 146.114 196.89 145.395 196.89ZM157.339 202.518C157.339 203.365 157.024 204.018 156.393 204.477C155.762 204.936 154.877 205.166 153.737 205.166C152.53 205.166 151.59 204.975 150.915 204.593V203.315C151.352 203.536 151.819 203.711 152.317 203.838C152.821 203.965 153.305 204.029 153.77 204.029C154.489 204.029 155.043 203.915 155.43 203.688C155.818 203.456 156.011 203.105 156.011 202.634C156.011 202.28 155.856 201.979 155.546 201.729C155.242 201.475 154.644 201.176 153.753 200.833C152.907 200.518 152.304 200.244 151.944 200.011C151.59 199.773 151.324 199.505 151.147 199.206C150.975 198.907 150.89 198.55 150.89 198.135C150.89 197.394 151.191 196.81 151.794 196.384C152.398 195.952 153.225 195.736 154.276 195.736C155.256 195.736 156.213 195.936 157.148 196.334L156.659 197.455C155.746 197.078 154.918 196.89 154.177 196.89C153.524 196.89 153.031 196.993 152.699 197.197C152.367 197.402 152.201 197.684 152.201 198.044C152.201 198.287 152.262 198.495 152.384 198.667C152.511 198.838 152.713 199.001 152.99 199.156C153.266 199.311 153.798 199.535 154.583 199.829C155.663 200.222 156.39 200.617 156.767 201.016C157.148 201.414 157.339 201.915 157.339 202.518ZM165.458 202.518C165.458 203.365 165.142 204.018 164.511 204.477C163.88 204.936 162.995 205.166 161.855 205.166C160.649 205.166 159.708 204.975 159.033 204.593V203.315C159.47 203.536 159.938 203.711 160.436 203.838C160.939 203.965 161.423 204.029 161.888 204.029C162.608 204.029 163.161 203.915 163.548 203.688C163.936 203.456 164.129 203.105 164.129 202.634C164.129 202.28 163.974 201.979 163.665 201.729C163.36 201.475 162.763 201.176 161.872 200.833C161.025 200.518 160.422 200.244 160.062 200.011C159.708 199.773 159.442 199.505 159.265 199.206C159.094 198.907 159.008 198.55 159.008 198.135C159.008 197.394 159.309 196.81 159.913 196.384C160.516 195.952 161.343 195.736 162.395 195.736C163.374 195.736 164.331 195.936 165.267 196.334L164.777 197.455C163.864 197.078 163.036 196.89 162.295 196.89C161.642 196.89 161.149 196.993 160.817 197.197C160.485 197.402 160.319 197.684 160.319 198.044C160.319 198.287 160.38 198.495 160.502 198.667C160.629 198.838 160.831 199.001 161.108 199.156C161.385 199.311 161.916 199.535 162.702 199.829C163.781 200.222 164.508 200.617 164.885 201.016C165.267 201.414 165.458 201.915 165.458 202.518ZM169.085 205H167.707V195.902H169.085V205ZM167.591 193.437C167.591 193.122 167.668 192.892 167.823 192.748C167.978 192.599 168.172 192.524 168.404 192.524C168.626 192.524 168.817 192.599 168.977 192.748C169.138 192.897 169.218 193.127 169.218 193.437C169.218 193.747 169.138 193.979 168.977 194.134C168.817 194.284 168.626 194.358 168.404 194.358C168.172 194.358 167.978 194.284 167.823 194.134C167.668 193.979 167.591 193.747 167.591 193.437ZM176.24 195.753C177.436 195.753 178.362 196.162 179.021 196.981C179.685 197.795 180.017 198.949 180.017 200.443C180.017 201.937 179.682 203.099 179.013 203.929C178.349 204.754 177.424 205.166 176.24 205.166C175.648 205.166 175.106 205.058 174.613 204.842C174.126 204.621 173.717 204.283 173.385 203.83H173.285L172.995 205H172.007V192.084H173.385V195.222C173.385 195.924 173.363 196.555 173.318 197.114H173.385C174.027 196.207 174.979 195.753 176.24 195.753ZM176.041 196.907C175.1 196.907 174.422 197.178 174.007 197.72C173.592 198.257 173.385 199.165 173.385 200.443C173.385 201.721 173.598 202.637 174.024 203.19C174.45 203.738 175.133 204.012 176.074 204.012C176.921 204.012 177.552 203.705 177.967 203.091C178.382 202.471 178.589 201.583 178.589 200.426C178.589 199.242 178.382 198.359 177.967 197.778C177.552 197.197 176.91 196.907 176.041 196.907ZM183.811 205H182.433V192.084H183.811V205ZM190.576 205.166C189.231 205.166 188.168 204.757 187.388 203.938C186.613 203.118 186.226 201.981 186.226 200.526C186.226 199.059 186.586 197.895 187.305 197.031C188.03 196.168 189.001 195.736 190.219 195.736C191.359 195.736 192.261 196.113 192.925 196.865C193.589 197.612 193.921 198.6 193.921 199.829V200.7H187.654C187.681 201.768 187.95 202.579 188.459 203.132C188.974 203.686 189.696 203.962 190.625 203.962C191.605 203.962 192.573 203.758 193.531 203.348V204.577C193.044 204.787 192.582 204.936 192.145 205.025C191.713 205.119 191.19 205.166 190.576 205.166ZM190.202 196.89C189.472 196.89 188.888 197.128 188.451 197.604C188.019 198.08 187.764 198.738 187.687 199.58H192.443C192.443 198.711 192.25 198.047 191.862 197.587C191.475 197.123 190.922 196.89 190.202 196.89ZM204.795 196.973H202.479V205H201.101V196.973H199.474V196.351L201.101 195.853V195.346C201.101 193.111 202.078 191.993 204.031 191.993C204.513 191.993 205.077 192.09 205.725 192.283L205.368 193.387C204.836 193.216 204.383 193.13 204.006 193.13C203.486 193.13 203.102 193.304 202.853 193.653C202.604 193.996 202.479 194.549 202.479 195.313V195.902H204.795V196.973ZM214.308 200.443C214.308 201.926 213.934 203.085 213.187 203.921C212.44 204.751 211.408 205.166 210.091 205.166C209.277 205.166 208.555 204.975 207.924 204.593C207.293 204.211 206.806 203.664 206.463 202.95C206.12 202.236 205.949 201.4 205.949 200.443C205.949 198.96 206.319 197.806 207.061 196.981C207.803 196.151 208.832 195.736 210.149 195.736C211.422 195.736 212.432 196.16 213.179 197.006C213.931 197.853 214.308 198.999 214.308 200.443ZM207.376 200.443C207.376 201.605 207.609 202.49 208.074 203.099C208.539 203.708 209.222 204.012 210.124 204.012C211.026 204.012 211.709 203.711 212.174 203.107C212.645 202.499 212.88 201.611 212.88 200.443C212.88 199.286 212.645 198.409 212.174 197.812C211.709 197.208 211.021 196.907 210.107 196.907C209.205 196.907 208.525 197.203 208.065 197.795C207.606 198.387 207.376 199.27 207.376 200.443ZM220.882 195.736C221.286 195.736 221.648 195.77 221.969 195.836L221.778 197.114C221.402 197.031 221.07 196.99 220.782 196.99C220.046 196.99 219.415 197.289 218.89 197.886C218.369 198.484 218.109 199.228 218.109 200.119V205H216.731V195.902H217.869L218.026 197.587H218.093C218.43 196.995 218.837 196.539 219.313 196.218C219.789 195.897 220.312 195.736 220.882 195.736ZM65.5908 218.902H67.0684L69.0605 224.09C69.4977 225.275 69.7689 226.13 69.874 226.655H69.9404C70.0124 226.373 70.1618 225.892 70.3887 225.211C70.6211 224.525 71.3737 222.422 72.6465 218.902H74.124L70.2144 229.262C69.827 230.285 69.3732 231.01 68.853 231.437C68.3384 231.868 67.7048 232.084 66.9521 232.084C66.5316 232.084 66.1165 232.037 65.707 231.943V230.839C66.0114 230.905 66.3517 230.938 66.728 230.938C67.6743 230.938 68.3494 230.407 68.7534 229.345L69.2598 228.05L65.5908 218.902ZM83.4541 223.443C83.4541 224.926 83.0806 226.085 82.3335 226.921C81.5864 227.751 80.5544 228.166 79.2373 228.166C78.4238 228.166 77.7017 227.975 77.0708 227.593C76.4399 227.211 75.953 226.664 75.6099 225.95C75.2668 225.236 75.0952 224.4 75.0952 223.443C75.0952 221.96 75.466 220.806 76.2075 219.981C76.9491 219.151 77.9784 218.736 79.2954 218.736C80.5682 218.736 81.5781 219.16 82.3252 220.006C83.0778 220.853 83.4541 221.999 83.4541 223.443ZM76.5229 223.443C76.5229 224.605 76.7554 225.49 77.2202 226.099C77.6851 226.708 78.3685 227.012 79.2705 227.012C80.1725 227.012 80.856 226.711 81.3208 226.107C81.7912 225.499 82.0264 224.611 82.0264 223.443C82.0264 222.286 81.7912 221.409 81.3208 220.812C80.856 220.208 80.167 219.907 79.2539 219.907C78.3519 219.907 77.6712 220.203 77.2119 220.795C76.7526 221.387 76.5229 222.27 76.5229 223.443ZM87.1729 218.902V224.804C87.1729 225.546 87.3416 226.099 87.6792 226.464C88.0168 226.83 88.5452 227.012 89.2646 227.012C90.2165 227.012 90.911 226.752 91.3481 226.232C91.7909 225.712 92.0122 224.862 92.0122 223.684V218.902H93.3901V228H92.2529L92.0537 226.78H91.979C91.6968 227.228 91.3039 227.571 90.8003 227.809C90.3022 228.047 89.7323 228.166 89.0903 228.166C87.9836 228.166 87.1535 227.903 86.6001 227.377C86.0522 226.852 85.7783 226.011 85.7783 224.854V218.902H87.1729ZM102.546 228V222.115C102.546 221.373 102.377 220.82 102.04 220.455C101.702 220.089 101.174 219.907 100.454 219.907C99.5023 219.907 98.805 220.164 98.3623 220.679C97.9196 221.193 97.6982 222.043 97.6982 223.227V228H96.3203V218.902H97.4409L97.665 220.147H97.7314C98.0137 219.699 98.4093 219.353 98.9185 219.11C99.4276 218.861 99.9948 218.736 100.62 218.736C101.716 218.736 102.54 219.002 103.094 219.533C103.647 220.059 103.924 220.903 103.924 222.065V228H102.546ZM114.208 218.902V219.774L112.523 219.973C112.678 220.167 112.817 220.421 112.938 220.737C113.06 221.047 113.121 221.398 113.121 221.791C113.121 222.682 112.817 223.393 112.208 223.924C111.599 224.456 110.764 224.721 109.701 224.721C109.43 224.721 109.175 224.699 108.938 224.655C108.351 224.965 108.058 225.355 108.058 225.825C108.058 226.074 108.16 226.26 108.365 226.381C108.569 226.498 108.921 226.556 109.419 226.556H111.029C112.014 226.556 112.77 226.763 113.295 227.178C113.827 227.593 114.092 228.196 114.092 228.988C114.092 229.995 113.688 230.761 112.88 231.287C112.072 231.818 110.894 232.084 109.344 232.084C108.154 232.084 107.236 231.863 106.588 231.42C105.946 230.977 105.625 230.352 105.625 229.544C105.625 228.991 105.803 228.512 106.157 228.108C106.511 227.704 107.009 227.43 107.651 227.286C107.418 227.181 107.222 227.018 107.062 226.796C106.907 226.575 106.829 226.318 106.829 226.024C106.829 225.692 106.918 225.402 107.095 225.153C107.272 224.904 107.551 224.663 107.933 224.431C107.463 224.237 107.078 223.908 106.779 223.443C106.486 222.978 106.339 222.447 106.339 221.849C106.339 220.853 106.638 220.087 107.236 219.55C107.833 219.007 108.68 218.736 109.776 218.736C110.252 218.736 110.681 218.792 111.062 218.902H114.208ZM106.954 229.527C106.954 230.02 107.161 230.393 107.576 230.648C107.991 230.903 108.586 231.03 109.361 231.03C110.517 231.03 111.372 230.855 111.926 230.507C112.485 230.164 112.764 229.696 112.764 229.104C112.764 228.611 112.612 228.268 112.308 228.075C112.003 227.887 111.431 227.792 110.589 227.792H108.938C108.312 227.792 107.825 227.942 107.477 228.241C107.128 228.54 106.954 228.968 106.954 229.527ZM107.701 221.816C107.701 222.452 107.881 222.934 108.24 223.26C108.6 223.587 109.101 223.75 109.743 223.75C111.087 223.75 111.76 223.097 111.76 221.791C111.76 220.424 111.079 219.741 109.718 219.741C109.07 219.741 108.572 219.915 108.224 220.264C107.875 220.612 107.701 221.13 107.701 221.816ZM126.361 225.518C126.361 226.365 126.045 227.018 125.415 227.477C124.784 227.936 123.898 228.166 122.758 228.166C121.552 228.166 120.611 227.975 119.936 227.593V226.315C120.373 226.536 120.841 226.711 121.339 226.838C121.842 226.965 122.327 227.029 122.792 227.029C123.511 227.029 124.064 226.915 124.452 226.688C124.839 226.456 125.033 226.105 125.033 225.634C125.033 225.28 124.878 224.979 124.568 224.729C124.264 224.475 123.666 224.176 122.775 223.833C121.928 223.518 121.325 223.244 120.965 223.011C120.611 222.773 120.346 222.505 120.168 222.206C119.997 221.907 119.911 221.55 119.911 221.135C119.911 220.394 120.213 219.81 120.816 219.384C121.419 218.952 122.246 218.736 123.298 218.736C124.277 218.736 125.235 218.936 126.17 219.334L125.68 220.455C124.767 220.078 123.94 219.89 123.198 219.89C122.545 219.89 122.053 219.993 121.721 220.197C121.389 220.402 121.223 220.684 121.223 221.044C121.223 221.287 121.284 221.495 121.405 221.667C121.533 221.838 121.735 222.001 122.011 222.156C122.288 222.311 122.819 222.535 123.605 222.829C124.684 223.222 125.412 223.617 125.788 224.016C126.17 224.414 126.361 224.915 126.361 225.518ZM131.549 227.029C131.792 227.029 132.028 227.012 132.254 226.979C132.481 226.94 132.661 226.902 132.794 226.863V227.917C132.645 227.989 132.423 228.047 132.13 228.091C131.842 228.141 131.582 228.166 131.35 228.166C129.59 228.166 128.71 227.239 128.71 225.385V219.973H127.407V219.309L128.71 218.736L129.291 216.794H130.088V218.902H132.728V219.973H130.088V225.327C130.088 225.875 130.218 226.296 130.478 226.589C130.738 226.882 131.095 227.029 131.549 227.029ZM135.915 218.902V224.804C135.915 225.546 136.084 226.099 136.421 226.464C136.759 226.83 137.287 227.012 138.007 227.012C138.959 227.012 139.653 226.752 140.09 226.232C140.533 225.712 140.754 224.862 140.754 223.684V218.902H142.132V228H140.995L140.796 226.78H140.721C140.439 227.228 140.046 227.571 139.542 227.809C139.044 228.047 138.474 228.166 137.833 228.166C136.726 228.166 135.896 227.903 135.342 227.377C134.794 226.852 134.521 226.011 134.521 224.854V218.902H135.915ZM151.255 226.78H151.18C150.544 227.704 149.592 228.166 148.325 228.166C147.135 228.166 146.208 227.759 145.544 226.946C144.885 226.132 144.556 224.976 144.556 223.476C144.556 221.976 144.888 220.812 145.552 219.981C146.216 219.151 147.14 218.736 148.325 218.736C149.559 218.736 150.505 219.185 151.164 220.081H151.271L151.213 219.425L151.18 218.786V215.084H152.558V228H151.438L151.255 226.78ZM148.499 227.012C149.44 227.012 150.12 226.758 150.541 226.249C150.967 225.734 151.18 224.907 151.18 223.767V223.476C151.18 222.187 150.964 221.268 150.533 220.72C150.107 220.167 149.423 219.89 148.482 219.89C147.674 219.89 147.055 220.206 146.623 220.836C146.197 221.462 145.984 222.347 145.984 223.493C145.984 224.655 146.197 225.532 146.623 226.124C147.049 226.716 147.674 227.012 148.499 227.012ZM159.332 228.166C157.987 228.166 156.924 227.757 156.144 226.938C155.369 226.118 154.982 224.981 154.982 223.526C154.982 222.059 155.342 220.895 156.061 220.031C156.786 219.168 157.757 218.736 158.975 218.736C160.115 218.736 161.017 219.113 161.681 219.865C162.345 220.612 162.677 221.6 162.677 222.829V223.7H156.41C156.437 224.768 156.706 225.579 157.215 226.132C157.729 226.686 158.452 226.962 159.381 226.962C160.361 226.962 161.329 226.758 162.287 226.348V227.577C161.8 227.787 161.338 227.936 160.9 228.025C160.469 228.119 159.946 228.166 159.332 228.166ZM158.958 219.89C158.228 219.89 157.644 220.128 157.207 220.604C156.775 221.08 156.52 221.738 156.443 222.58H161.199C161.199 221.711 161.006 221.047 160.618 220.587C160.231 220.123 159.677 219.89 158.958 219.89ZM171.26 228V222.115C171.26 221.373 171.091 220.82 170.753 220.455C170.416 220.089 169.887 219.907 169.168 219.907C168.216 219.907 167.519 220.164 167.076 220.679C166.633 221.193 166.412 222.043 166.412 223.227V228H165.034V218.902H166.155L166.379 220.147H166.445C166.728 219.699 167.123 219.353 167.632 219.11C168.141 218.861 168.709 218.736 169.334 218.736C170.43 218.736 171.254 219.002 171.808 219.533C172.361 220.059 172.638 220.903 172.638 222.065V228H171.26ZM178.415 227.029C178.659 227.029 178.894 227.012 179.121 226.979C179.347 226.94 179.527 226.902 179.66 226.863V227.917C179.511 227.989 179.289 228.047 178.996 228.091C178.708 228.141 178.448 228.166 178.216 228.166C176.456 228.166 175.576 227.239 175.576 225.385V219.973H174.273V219.309L175.576 218.736L176.157 216.794H176.954V218.902H179.594V219.973H176.954V225.327C176.954 225.875 177.084 226.296 177.344 226.589C177.604 226.882 177.961 227.029 178.415 227.029ZM187.355 225.518C187.355 226.365 187.04 227.018 186.409 227.477C185.778 227.936 184.892 228.166 183.752 228.166C182.546 228.166 181.605 227.975 180.93 227.593V226.315C181.367 226.536 181.835 226.711 182.333 226.838C182.837 226.965 183.321 227.029 183.786 227.029C184.505 227.029 185.058 226.915 185.446 226.688C185.833 226.456 186.027 226.105 186.027 225.634C186.027 225.28 185.872 224.979 185.562 224.729C185.258 224.475 184.66 224.176 183.769 223.833C182.922 223.518 182.319 223.244 181.959 223.011C181.605 222.773 181.34 222.505 181.163 222.206C180.991 221.907 180.905 221.55 180.905 221.135C180.905 220.394 181.207 219.81 181.81 219.384C182.413 218.952 183.241 218.736 184.292 218.736C185.271 218.736 186.229 218.936 187.164 219.334L186.674 220.455C185.761 220.078 184.934 219.89 184.192 219.89C183.539 219.89 183.047 219.993 182.715 220.197C182.383 220.402 182.217 220.684 182.217 221.044C182.217 221.287 182.278 221.495 182.399 221.667C182.527 221.838 182.729 222.001 183.005 222.156C183.282 222.311 183.813 222.535 184.599 222.829C185.678 223.222 186.406 223.617 186.782 224.016C187.164 224.414 187.355 224.915 187.355 225.518ZM199.615 228L199.341 226.705H199.275C198.821 227.275 198.367 227.662 197.914 227.867C197.465 228.066 196.904 228.166 196.229 228.166C195.326 228.166 194.618 227.934 194.104 227.469C193.594 227.004 193.34 226.343 193.34 225.485C193.34 223.648 194.809 222.685 197.748 222.596L199.292 222.546V221.982C199.292 221.268 199.137 220.742 198.827 220.405C198.522 220.062 198.033 219.89 197.357 219.89C196.599 219.89 195.742 220.123 194.784 220.587L194.361 219.533C194.809 219.29 195.299 219.099 195.83 218.96C196.367 218.822 196.904 218.753 197.44 218.753C198.525 218.753 199.327 218.994 199.848 219.475C200.373 219.957 200.636 220.729 200.636 221.791V228H199.615ZM196.502 227.029C197.36 227.029 198.033 226.794 198.52 226.323C199.012 225.853 199.258 225.194 199.258 224.348V223.526L197.88 223.584C196.785 223.623 195.993 223.794 195.506 224.099C195.025 224.397 194.784 224.865 194.784 225.501C194.784 226 194.934 226.379 195.232 226.639C195.537 226.899 195.96 227.029 196.502 227.029ZM210.929 218.902V219.774L209.244 219.973C209.399 220.167 209.537 220.421 209.659 220.737C209.781 221.047 209.842 221.398 209.842 221.791C209.842 222.682 209.537 223.393 208.929 223.924C208.32 224.456 207.484 224.721 206.422 224.721C206.151 224.721 205.896 224.699 205.658 224.655C205.072 224.965 204.778 225.355 204.778 225.825C204.778 226.074 204.881 226.26 205.085 226.381C205.29 226.498 205.642 226.556 206.14 226.556H207.75C208.735 226.556 209.49 226.763 210.016 227.178C210.547 227.593 210.813 228.196 210.813 228.988C210.813 229.995 210.409 230.761 209.601 231.287C208.793 231.818 207.614 232.084 206.065 232.084C204.875 232.084 203.957 231.863 203.309 231.42C202.667 230.977 202.346 230.352 202.346 229.544C202.346 228.991 202.523 228.512 202.877 228.108C203.232 227.704 203.73 227.43 204.372 227.286C204.139 227.181 203.943 227.018 203.782 226.796C203.627 226.575 203.55 226.318 203.55 226.024C203.55 225.692 203.638 225.402 203.815 225.153C203.993 224.904 204.272 224.663 204.654 224.431C204.183 224.237 203.799 223.908 203.5 223.443C203.207 222.978 203.06 222.447 203.06 221.849C203.06 220.853 203.359 220.087 203.957 219.55C204.554 219.007 205.401 218.736 206.497 218.736C206.972 218.736 207.401 218.792 207.783 218.902H210.929ZM203.674 229.527C203.674 230.02 203.882 230.393 204.297 230.648C204.712 230.903 205.307 231.03 206.082 231.03C207.238 231.03 208.093 230.855 208.646 230.507C209.205 230.164 209.485 229.696 209.485 229.104C209.485 228.611 209.333 228.268 209.028 228.075C208.724 227.887 208.151 227.792 207.31 227.792H205.658C205.033 227.792 204.546 227.942 204.197 228.241C203.849 228.54 203.674 228.968 203.674 229.527ZM204.421 221.816C204.421 222.452 204.601 222.934 204.961 223.26C205.321 223.587 205.821 223.75 206.463 223.75C207.808 223.75 208.48 223.097 208.48 221.791C208.48 220.424 207.8 219.741 206.438 219.741C205.791 219.741 205.293 219.915 204.944 220.264C204.596 220.612 204.421 221.13 204.421 221.816ZM216.64 228.166C215.295 228.166 214.233 227.757 213.453 226.938C212.678 226.118 212.291 224.981 212.291 223.526C212.291 222.059 212.65 220.895 213.37 220.031C214.095 219.168 215.066 218.736 216.283 218.736C217.423 218.736 218.325 219.113 218.989 219.865C219.653 220.612 219.985 221.6 219.985 222.829V223.7H213.718C213.746 224.768 214.014 225.579 214.523 226.132C215.038 226.686 215.76 226.962 216.69 226.962C217.669 226.962 218.638 226.758 219.595 226.348V227.577C219.108 227.787 218.646 227.936 218.209 228.025C217.777 228.119 217.254 228.166 216.64 228.166ZM216.267 219.89C215.536 219.89 214.952 220.128 214.515 220.604C214.083 221.08 213.829 221.738 213.751 222.58H218.508C218.508 221.711 218.314 221.047 217.927 220.587C217.539 220.123 216.986 219.89 216.267 219.89ZM228.211 225.518C228.211 226.365 227.896 227.018 227.265 227.477C226.634 227.936 225.749 228.166 224.609 228.166C223.403 228.166 222.462 227.975 221.787 227.593V226.315C222.224 226.536 222.691 226.711 223.189 226.838C223.693 226.965 224.177 227.029 224.642 227.029C225.361 227.029 225.915 226.915 226.302 226.688C226.69 226.456 226.883 226.105 226.883 225.634C226.883 225.28 226.728 224.979 226.418 224.729C226.114 224.475 225.516 224.176 224.625 223.833C223.779 223.518 223.176 223.244 222.816 223.011C222.462 222.773 222.196 222.505 222.019 222.206C221.847 221.907 221.762 221.55 221.762 221.135C221.762 220.394 222.063 219.81 222.667 219.384C223.27 218.952 224.097 218.736 225.148 218.736C226.128 218.736 227.085 218.936 228.021 219.334L227.531 220.455C226.618 220.078 225.79 219.89 225.049 219.89C224.396 219.89 223.903 219.993 223.571 220.197C223.239 220.402 223.073 220.684 223.073 221.044C223.073 221.287 223.134 221.495 223.256 221.667C223.383 221.838 223.585 222.001 223.862 222.156C224.139 222.311 224.67 222.535 225.456 222.829C226.535 223.222 227.262 223.617 227.639 224.016C228.021 224.414 228.211 224.915 228.211 225.518ZM236.653 226.78H236.579C235.942 227.704 234.99 228.166 233.723 228.166C232.533 228.166 231.606 227.759 230.942 226.946C230.284 226.132 229.955 224.976 229.955 223.476C229.955 221.976 230.287 220.812 230.951 219.981C231.615 219.151 232.539 218.736 233.723 218.736C234.957 218.736 235.903 219.185 236.562 220.081H236.67L236.612 219.425L236.579 218.786V215.084H237.957V228H236.836L236.653 226.78ZM233.897 227.012C234.838 227.012 235.519 226.758 235.939 226.249C236.366 225.734 236.579 224.907 236.579 223.767V223.476C236.579 222.187 236.363 221.268 235.931 220.72C235.505 220.167 234.822 219.89 233.881 219.89C233.073 219.89 232.453 220.206 232.021 220.836C231.595 221.462 231.382 222.347 231.382 223.493C231.382 224.655 231.595 225.532 232.021 226.124C232.448 226.716 233.073 227.012 233.897 227.012ZM87.3306 241.753C88.5259 241.753 89.4528 242.162 90.1113 242.981C90.7754 243.795 91.1074 244.949 91.1074 246.443C91.1074 247.937 90.7726 249.099 90.103 249.929C89.439 250.754 88.5148 251.166 87.3306 251.166C86.7384 251.166 86.1961 251.058 85.7036 250.842C85.2166 250.621 84.8071 250.283 84.4751 249.83H84.3755L84.085 251H83.0972V238.084H84.4751V241.222C84.4751 241.924 84.453 242.555 84.4087 243.114H84.4751C85.117 242.207 86.0688 241.753 87.3306 241.753ZM87.1313 242.907C86.1906 242.907 85.5127 243.178 85.0977 243.72C84.6826 244.257 84.4751 245.165 84.4751 246.443C84.4751 247.721 84.6882 248.637 85.1143 249.19C85.5404 249.738 86.2238 250.012 87.1646 250.012C88.0112 250.012 88.6421 249.705 89.0571 249.091C89.4722 248.471 89.6797 247.583 89.6797 246.426C89.6797 245.242 89.4722 244.359 89.0571 243.778C88.6421 243.197 88.0002 242.907 87.1313 242.907ZM97.3662 251.166C96.0215 251.166 94.959 250.757 94.1787 249.938C93.404 249.118 93.0166 247.981 93.0166 246.526C93.0166 245.059 93.3763 243.895 94.0957 243.031C94.8206 242.168 95.7918 241.736 97.0093 241.736C98.1493 241.736 99.0513 242.113 99.7153 242.865C100.379 243.612 100.711 244.6 100.711 245.829V246.7H94.4443C94.472 247.768 94.7404 248.579 95.2495 249.132C95.7642 249.686 96.4863 249.962 97.416 249.962C98.3955 249.962 99.3639 249.758 100.321 249.348V250.577C99.8343 250.787 99.3722 250.936 98.9351 251.025C98.5034 251.119 97.9805 251.166 97.3662 251.166ZM96.9927 242.89C96.2622 242.89 95.6784 243.128 95.2412 243.604C94.8096 244.08 94.555 244.738 94.4775 245.58H99.2339C99.2339 244.711 99.0402 244.047 98.6528 243.587C98.2655 243.123 97.7121 242.89 96.9927 242.89ZM106.007 250.029C106.251 250.029 106.486 250.012 106.713 249.979C106.94 249.94 107.12 249.902 107.252 249.863V250.917C107.103 250.989 106.882 251.047 106.588 251.091C106.301 251.141 106.041 251.166 105.808 251.166C104.048 251.166 103.168 250.239 103.168 248.385V242.973H101.865V242.309L103.168 241.736L103.75 239.794H104.546V241.902H107.186V242.973H104.546V248.327C104.546 248.875 104.676 249.296 104.937 249.589C105.197 249.882 105.554 250.029 106.007 250.029ZM116.508 251L114.839 245.663C114.734 245.336 114.538 244.595 114.25 243.438H114.184C113.962 244.406 113.769 245.153 113.603 245.679L111.884 251H110.291L107.809 241.902H109.253C109.84 244.188 110.285 245.928 110.589 247.124C110.899 248.319 111.076 249.124 111.121 249.539H111.187C111.248 249.224 111.345 248.817 111.478 248.319C111.616 247.815 111.735 247.417 111.834 247.124L113.503 241.902H114.997L116.624 247.124C116.934 248.075 117.144 248.875 117.255 249.522H117.321C117.343 249.323 117.402 249.016 117.496 248.601C117.595 248.186 118.174 245.953 119.23 241.902H120.658L118.143 251H116.508ZM126.153 251.166C124.809 251.166 123.746 250.757 122.966 249.938C122.191 249.118 121.804 247.981 121.804 246.526C121.804 245.059 122.163 243.895 122.883 243.031C123.608 242.168 124.579 241.736 125.796 241.736C126.936 241.736 127.838 242.113 128.502 242.865C129.167 243.612 129.499 244.6 129.499 245.829V246.7H123.231C123.259 247.768 123.528 248.579 124.037 249.132C124.551 249.686 125.273 249.962 126.203 249.962C127.183 249.962 128.151 249.758 129.108 249.348V250.577C128.621 250.787 128.159 250.936 127.722 251.025C127.291 251.119 126.768 251.166 126.153 251.166ZM125.78 242.89C125.049 242.89 124.465 243.128 124.028 243.604C123.597 244.08 123.342 244.738 123.265 245.58H128.021C128.021 244.711 127.827 244.047 127.44 243.587C127.053 243.123 126.499 242.89 125.78 242.89ZM135.699 251.166C134.354 251.166 133.292 250.757 132.512 249.938C131.737 249.118 131.35 247.981 131.35 246.526C131.35 245.059 131.709 243.895 132.429 243.031C133.154 242.168 134.125 241.736 135.342 241.736C136.482 241.736 137.384 242.113 138.048 242.865C138.712 243.612 139.044 244.6 139.044 245.829V246.7H132.777C132.805 247.768 133.073 248.579 133.583 249.132C134.097 249.686 134.819 249.962 135.749 249.962C136.729 249.962 137.697 249.758 138.654 249.348V250.577C138.167 250.787 137.705 250.936 137.268 251.025C136.836 251.119 136.313 251.166 135.699 251.166ZM135.326 242.89C134.595 242.89 134.011 243.128 133.574 243.604C133.143 244.08 132.888 244.738 132.811 245.58H137.567C137.567 244.711 137.373 244.047 136.986 243.587C136.598 243.123 136.045 242.89 135.326 242.89ZM147.627 251V245.115C147.627 244.373 147.459 243.82 147.121 243.455C146.784 243.089 146.255 242.907 145.536 242.907C144.584 242.907 143.887 243.164 143.444 243.679C143.001 244.193 142.78 245.043 142.78 246.227V251H141.402V241.902H142.522L142.747 243.147H142.813C143.095 242.699 143.491 242.353 144 242.11C144.509 241.861 145.076 241.736 145.702 241.736C146.797 241.736 147.622 242.002 148.175 242.533C148.729 243.059 149.005 243.903 149.005 245.065V251H147.627ZM160.734 251H159.39V242.351C159.39 241.631 159.412 240.951 159.456 240.309C159.34 240.425 159.21 240.547 159.066 240.674C158.922 240.801 158.264 241.341 157.09 242.292L156.36 241.346L159.572 238.864H160.734V251ZM173.401 244.916C173.401 247.013 173.069 248.579 172.405 249.614C171.747 250.649 170.737 251.166 169.375 251.166C168.069 251.166 167.076 250.638 166.396 249.581C165.715 248.518 165.375 246.963 165.375 244.916C165.375 242.802 165.704 241.233 166.362 240.209C167.021 239.185 168.025 238.673 169.375 238.673C170.693 238.673 171.691 239.207 172.372 240.275C173.058 241.343 173.401 242.89 173.401 244.916ZM166.769 244.916C166.769 246.681 166.977 247.967 167.392 248.775C167.807 249.578 168.468 249.979 169.375 249.979C170.294 249.979 170.958 249.572 171.368 248.759C171.783 247.94 171.99 246.659 171.99 244.916C171.99 243.172 171.783 241.897 171.368 241.089C170.958 240.275 170.294 239.869 169.375 239.869C168.468 239.869 167.807 240.27 167.392 241.072C166.977 241.869 166.769 243.15 166.769 244.916ZM183.072 250.029C183.315 250.029 183.55 250.012 183.777 249.979C184.004 249.94 184.184 249.902 184.317 249.863V250.917C184.167 250.989 183.946 251.047 183.653 251.091C183.365 251.141 183.105 251.166 182.873 251.166C181.113 251.166 180.233 250.239 180.233 248.385V242.973H178.93V242.309L180.233 241.736L180.814 239.794H181.611V241.902H184.25V242.973H181.611V248.327C181.611 248.875 181.741 249.296 182.001 249.589C182.261 249.882 182.618 250.029 183.072 250.029ZM193.996 246.443C193.996 247.926 193.622 249.085 192.875 249.921C192.128 250.751 191.096 251.166 189.779 251.166C188.965 251.166 188.243 250.975 187.612 250.593C186.981 250.211 186.494 249.664 186.151 248.95C185.808 248.236 185.637 247.4 185.637 246.443C185.637 244.96 186.007 243.806 186.749 242.981C187.491 242.151 188.52 241.736 189.837 241.736C191.11 241.736 192.12 242.16 192.867 243.006C193.619 243.853 193.996 244.999 193.996 246.443ZM187.064 246.443C187.064 247.605 187.297 248.49 187.762 249.099C188.227 249.708 188.91 250.012 189.812 250.012C190.714 250.012 191.397 249.711 191.862 249.107C192.333 248.499 192.568 247.611 192.568 246.443C192.568 245.286 192.333 244.409 191.862 243.812C191.397 243.208 190.708 242.907 189.795 242.907C188.893 242.907 188.213 243.203 187.753 243.795C187.294 244.387 187.064 245.27 187.064 246.443ZM205.31 251H203.965V242.351C203.965 241.631 203.987 240.951 204.031 240.309C203.915 240.425 203.785 240.547 203.641 240.674C203.497 240.801 202.839 241.341 201.666 242.292L200.935 241.346L204.147 238.864H205.31V251ZM213.727 243.587C215.005 243.587 216.009 243.906 216.74 244.542C217.476 245.173 217.844 246.039 217.844 247.14C217.844 248.396 217.443 249.381 216.64 250.095C215.843 250.809 214.742 251.166 213.336 251.166C211.97 251.166 210.926 250.947 210.207 250.51V249.182C210.594 249.431 211.076 249.628 211.651 249.771C212.227 249.91 212.794 249.979 213.353 249.979C214.327 249.979 215.082 249.749 215.619 249.29C216.161 248.831 216.433 248.167 216.433 247.298C216.433 245.604 215.395 244.758 213.32 244.758C212.794 244.758 212.091 244.838 211.211 244.999L210.498 244.542L210.954 238.864H216.989V240.134H212.133L211.826 243.778C212.462 243.651 213.096 243.587 213.727 243.587ZM220.093 250.12C220.093 249.749 220.176 249.47 220.342 249.282C220.514 249.088 220.757 248.991 221.073 248.991C221.394 248.991 221.643 249.088 221.82 249.282C222.002 249.47 222.094 249.749 222.094 250.12C222.094 250.48 222.002 250.757 221.82 250.95C221.637 251.144 221.388 251.241 221.073 251.241C220.791 251.241 220.555 251.155 220.367 250.983C220.185 250.806 220.093 250.519 220.093 250.12Z" fill="black"/>
</g>
<defs>
<filter id="filter0_ii" x="6" y="-2" width="294" height="294.435" filterUnits="userSpaceOnUse" color-interpolation-filters="sRGB">
<feFlood flood-opacity="0" result="BackgroundImageFix"/>
<feBlend mode="normal" in="SourceGraphic" in2="BackgroundImageFix" result="shape"/>
<feColorMatrix in="SourceAlpha" type="matrix" values="0 0 0 0 0 0 0 0 0 0 0 0 0 0 0 0 0 0 127 0" result="hardAlpha"/>
<feOffset dx="2" dy="2"/>
<feGaussianBlur stdDeviation="2.5"/>
<feComposite in2="hardAlpha" operator="arithmetic" k2="-1" k3="1"/>
<feColorMatrix type="matrix" values="0 0 0 0 0 0 0 0 0 0 0 0 0 0 0 0 0 0 0.17 0"/>
<feBlend mode="normal" in2="shape" result="effect1_innerShadow"/>
<feColorMatrix in="SourceAlpha" type="matrix" values="0 0 0 0 0 0 0 0 0 0 0 0 0 0 0 0 0 0 127 0" result="hardAlpha"/>
<feOffset dx="-2" dy="-2"/>
<feGaussianBlur stdDeviation="2.5"/>
<feComposite in2="hardAlpha" operator="arithmetic" k2="-1" k3="1"/>
<feColorMatrix type="matrix" values="0 0 0 0 0 0 0 0 0 0 0 0 0 0 0 0 0 0 0.17 0"/>
<feBlend mode="normal" in2="effect1_innerShadow" result="effect2_innerShadow"/>
</filter>
<filter id="filter1_d" x="0.966797" y="153.356" width="301.685" height="142.079" filterUnits="userSpaceOnUse" color-interpolation-filters="sRGB">
<feFlood flood-opacity="0" result="BackgroundImageFix"/>
<feColorMatrix in="SourceAlpha" type="matrix" values="0 0 0 0 0 0 0 0 0 0 0 0 0 0 0 0 0 0 127 0"/>
<feOffset dx="-2" dy="-2"/>
<feGaussianBlur stdDeviation="3.5"/>
<feColorMatrix type="matrix" values="0 0 0 0 0 0 0 0 0 0 0 0 0 0 0 0 0 0 0.17 0"/>
<feBlend mode="normal" in2="BackgroundImageFix" result="effect1_dropShadow"/>
<feBlend mode="normal" in="SourceGraphic" in2="effect1_dropShadow" result="shape"/>
</filter>
</defs>
</svg>
