<svg width="401" height="406" viewBox="0 0 401 406" fill="none" xmlns="http://www.w3.org/2000/svg">
<g filter="url(#filter0_ii)">
<circle cx="201" cy="204" r="200" fill="#FFDCB1"/>
<g filter="url(#filter1_d)">
<path fill-rule="evenodd" clip-rule="evenodd" d="M66.273 351.813C59.2875 345.442 52.7554 338.583 46.7305 331.289C48.0501 320.299 50.699 311.188 57.6402 298.898L94.6196 299.835V356.942L66.273 351.813Z" fill="#292929"/>
<path d="M82.6639 182.868C82.6639 182.868 72.5564 179.103 63.3078 186.238C54.0592 193.372 58.8817 211.87 58.8817 211.87C58.8817 211.87 50.2936 214.578 50.7561 223.232C51.2185 231.886 38.0062 227.592 38.2044 238.757C38.4025 249.921 56.6356 251.837 69.6497 251.837C82.6639 251.837 108.626 238.625 104.002 231.556C99.3775 224.487 92.375 213.984 93.1017 210.218C93.8944 206.452 95.5459 193.703 95.5459 193.703C95.5459 193.703 93.3659 183.463 82.6639 182.868Z" fill="#233862"/>
<path d="M90.8552 235.586C90.9213 235.586 84.6454 239.484 79.5587 238.691C74.7362 237.898 69.6494 231.953 69.7155 231.953C71.6313 231.358 73.3489 229.244 72.1598 218.08L73.0846 218.146L88.477 219.533C88.477 219.533 88.6091 224.091 89.0715 228.319C89.3358 231.886 89.9304 235.256 90.8552 235.586Z" fill="#FFB27D"/>
<path d="M88.4123 219.533C88.4123 219.533 88.5444 224.091 89.0068 228.319C80.5509 228.914 75.332 221.977 73.0859 218.08L88.4123 219.533Z" fill="#ED975D"/>
<path d="M91.6486 223.298C91.6486 223.298 71.6979 225.544 70.4428 213.653C69.1876 201.828 65.7524 194.165 78.4362 192.249C91.1201 190.333 94.0929 194.628 95.4802 198.459C96.9335 202.291 96.8014 222.373 91.6486 223.298Z" fill="#FFB27D"/>
<path d="M93.1015 192.381C93.1015 192.381 83.4564 205.462 75.3309 208.368C67.1392 211.209 63.3076 209.425 63.3076 209.425C63.3076 209.425 67.2052 204.338 68.4604 197.27C68.8568 195.222 70.3762 193.504 72.4241 192.778C78.3036 190.796 89.6002 187.823 93.1015 192.381Z" fill="#233862"/>
<path d="M85.1748 193.306C85.1748 193.306 90.3276 196.081 92.3755 198.591C94.3574 201.036 96.4713 207.444 96.141 210.218C96.141 210.218 99.3781 196.742 94.1592 191.853C88.7421 186.7 85.1748 193.306 85.1748 193.306Z" fill="#233862"/>
<path d="M106.183 266.965C105.588 305.281 107.57 299.666 103.21 303.365C102.153 304.224 97.5948 302.308 93.6311 302.572C81.2776 303.365 59.6093 301.383 58.7505 299.269C55.9099 291.738 57.8917 289.426 55.5135 277.931C55.2493 276.676 54.985 275.355 54.5886 273.968C52.6068 266.04 50.691 263.398 57.6935 250.714C64.0355 239.219 70.9719 230.037 71.5665 230.367C88.4122 239.88 89.4692 231.754 89.4692 231.754C89.4692 231.754 106.447 248.27 106.183 266.965Z" fill="#23569E"/>
<path d="M89.4668 231.622C89.4668 231.622 106.775 234.397 108.823 241.531C110.871 248.6 125.735 287.708 125.735 287.708C125.735 287.708 114.042 291.804 109.946 287.973C105.85 284.075 95.8087 252.101 95.8087 252.101L89.4668 231.622Z" fill="#23569E"/>
<path d="M93.6303 302.572C81.2768 303.365 59.6085 301.383 58.7497 299.269C55.9091 291.738 57.8909 289.426 55.5127 277.931L61.3261 265.379C61.3261 265.379 60.5334 279.715 66.0165 284.405C71.4996 289.096 88.5435 293.456 91.2521 297.353C92.5072 299.137 93.3661 301.053 93.6303 302.572Z" fill="#233862"/>
<path d="M94.6182 294.38C94.6182 294.38 98.3176 297.419 99.3085 297.617C100.366 297.882 100.96 297.617 100.96 297.617L98.2516 294.645L94.6182 294.38Z" fill="#FFB27D"/>
<path d="M93.166 290.813L102.481 293.125C102.481 293.125 102.216 293.786 101.159 293.918C100.102 294.05 97.2618 293.654 97.2618 293.654L93.166 290.813Z" fill="#FFB27D"/>
<path d="M77.3779 295.701C77.3779 295.701 90.6563 290.086 93.1667 290.813C95.677 291.54 102.085 294.777 103.076 296.164C104.067 297.551 97.8571 295.966 95.8752 295.9C94.62 295.834 91.7133 297.485 90.1939 298.278C84.0502 301.647 79.8222 301.317 79.8222 301.317L77.3779 295.701Z" fill="#FFB27D"/>
<path d="M71.5656 230.234C71.5656 230.234 52.738 233.604 49.3028 238.558C41.7057 249.392 25.5206 294.182 34.571 300.194C44.7445 306.932 81.0124 301.977 81.0124 301.977C81.0124 301.977 82.2015 296.626 80.55 294.05C78.8984 291.474 51.615 287.246 50.3598 286.057C49.1046 284.867 62.7794 267.559 61.326 264.256C56.6356 253.62 71.5656 230.234 71.5656 230.234Z" fill="#23569E"/>
<path d="M145.884 293.786C145.884 293.786 159.031 297.155 160.418 299.137C161.739 301.053 164.448 306.998 164.316 308.584C164.183 310.103 160.616 305.545 159.295 304.356C158.436 303.563 155.265 303.167 153.746 302.903C149.848 302.308 147.932 300.59 146.479 299.732C145.488 299.137 144.299 299.269 144.299 299.269L145.884 293.786Z" fill="#FFB27D"/>
<path d="M159.293 302.506C159.293 302.506 160.086 306.8 160.68 307.527C161.275 308.32 161.869 308.452 161.869 308.452L161.803 304.752L159.293 302.506Z" fill="#FFB27D"/>
<path d="M160.418 299.137L165.769 306.007C165.769 306.007 165.174 306.337 164.316 305.875C163.457 305.413 161.673 303.497 161.673 303.497L160.418 299.137Z" fill="#FFB27D"/>
<path d="M146.412 299.666C146.412 299.666 147.601 302.506 150.046 303.497C152.49 304.488 154.273 306.007 154.67 305.479C155.066 304.95 152.82 302.044 152.82 302.044L146.412 299.666Z" fill="#FFB27D"/>
<path d="M122.235 278.394L149.915 295.041C149.915 295.041 147.008 298.741 146.017 299.071C140.864 300.855 117.875 299.137 109.947 287.84L122.235 278.394Z" fill="#23569E"/>
</g>
<g filter="url(#filter2_d)">
<path d="M221.663 169.554C221.663 169.554 225.085 159.044 240.057 159.532C240.057 159.532 243.051 153.91 250.262 154.827C257.472 155.805 261.383 181.837 254.6 188.192C247.756 194.547 243.54 194.73 243.54 194.73L221.725 170.532V169.554H221.663Z" fill="#233862"/>
<path d="M228.02 215.445C227.958 215.506 234.68 218.562 239.508 216.912C244.091 215.384 248.124 208.54 248.063 208.54C246.107 208.235 244.091 206.279 243.48 194.73L242.624 194.974L227.836 198.702C227.836 198.702 228.447 203.407 228.692 207.807C228.875 211.473 228.875 215.018 228.02 215.445Z" fill="#FFB27D"/>
<path d="M227.898 198.702C227.898 198.702 227.898 199.68 228.448 204.019C236.82 201.941 240.486 199.13 243.053 195.953L227.898 198.702Z" fill="#ED975D"/>
<path d="M224.72 199.252C224.72 199.252 244.213 202.43 246.046 190.27C247.818 178.109 251.546 170.287 239.202 167.721C226.797 165.154 223.681 169.493 222.092 173.404C220.503 177.315 219.709 198.152 224.72 199.252Z" fill="#FFB27D"/>
<path d="M224.722 167.232C224.722 167.232 233.583 181.226 241.527 184.526C249.471 187.825 253.32 186.176 253.32 186.176C253.32 186.176 249.715 180.737 248.798 173.404C248.493 171.265 247.087 169.371 245.071 168.577C239.388 166.255 228.388 162.71 224.722 167.232Z" fill="#233862"/>
<path d="M232.481 168.576C232.481 168.576 227.287 171.265 225.149 173.709C223.071 176.092 220.688 182.631 220.871 185.564C220.871 185.564 218.305 171.509 223.621 166.682C229.304 161.61 232.481 168.576 232.481 168.576Z" fill="#233862"/>
<path d="M212.437 245.266C213.049 284.925 198.383 273.865 202.721 277.592C203.76 278.509 208.038 285.231 224.17 286.025C236.33 286.636 258.329 280.892 259.124 278.631C261.934 270.87 259.918 268.426 262.301 256.51C262.546 255.227 262.851 253.882 263.218 252.355C265.173 244.166 267.067 241.417 260.162 228.217C253.868 216.301 246.474 206.646 245.924 207.013C229.364 216.851 228.814 208.602 228.814 208.602C228.814 208.602 212.132 225.895 212.437 245.266Z" fill="white"/>
<path d="M228.753 208.663C228.753 208.663 211.765 211.535 209.81 218.868C207.793 226.201 183.558 318.259 183.558 318.259C183.558 318.259 204.457 318.809 208.429 314.837C212.462 310.804 222.642 229.745 222.642 229.745L228.753 208.663Z" fill="#F99746"/>
<path d="M224.17 276.125C224.17 276.125 221.665 279.364 220.809 279.731C220.015 280.097 219.465 280.036 219.465 280.036L221.176 276.981L224.17 276.125Z" fill="#FFB27D"/>
<path d="M224.781 272.764L217.448 276.308C217.448 276.308 217.754 276.797 218.671 276.797C219.587 276.736 221.848 275.942 221.848 275.942L224.781 272.764Z" fill="#FFB27D"/>
<path d="M228.571 206.096L228.693 208.663C226.738 215.262 223.499 235.794 219.466 251.621L216.655 228.95L218.977 227.056L218.122 223.817L225.76 209.274L228.571 206.096Z" fill="#ED7D2B"/>
<path d="M228.755 358.99C254.909 367.729 275.624 358.118 275.624 358.118L271.347 292.563L269.024 278.753L264.014 249.177L255.459 221.006L248.003 216.484L241.465 249.177L228.755 358.99Z" fill="#F99746"/>
<path d="M260.285 252.293C260.713 252.966 260.713 266.409 248.063 269.709C235.414 273.009 266.64 276.186 266.64 276.186C266.64 276.186 276.723 268.487 276.54 266.593C276.417 264.698 260.285 252.293 260.285 252.293Z" fill="#ED7D2B"/>
<path d="M237.186 281.564C237.186 281.564 254.54 291.524 271.345 292.624L269.023 278.814L237.186 281.564Z" fill="#ED7D2B"/>
<path d="M238.712 274.353C238.712 274.353 226.735 271.664 224.779 272.764C222.824 273.803 218.119 277.714 217.508 279.058C216.897 280.403 221.846 278.02 223.435 277.592C224.474 277.286 227.163 278.264 228.507 278.692C234.19 280.586 237.673 279.608 237.673 279.608L238.712 274.353Z" fill="#FFB27D"/>
<path d="M245.863 207.074C245.863 207.074 262.851 208.051 268.412 215.873C276.295 226.811 291.877 273.498 282.894 279.73C272.811 286.758 237.125 281.564 237.125 281.564C237.125 281.564 235.964 276.003 237.614 273.314C239.264 270.625 266.151 266.287 267.373 265.065C268.595 263.843 251.852 240.866 251.852 237.139C251.913 233.411 245.863 207.074 245.863 207.074Z" fill="#F99746"/>
<path d="M244.886 204.874L241.464 249.177L249.347 232.25L248.003 229.256C248.003 229.256 250.875 224.306 250.875 223.695C250.875 223.084 250.081 207.563 250.081 207.563L244.886 204.874Z" fill="#ED7D2B"/>
</g>
<g filter="url(#filter3_d)">
<path fill-rule="evenodd" clip-rule="evenodd" d="M364.38 319.385C346.734 344.325 323.521 365.047 296.551 379.742V309.535L364.424 309.535C364.424 313.071 364.408 316.338 364.38 319.385Z" fill="#343434"/>
<path d="M323.756 215.558C323.756 215.558 302.561 215.374 297.477 222.541C292.393 229.708 285.594 275.037 287.064 280.918C290.372 294.578 303.786 275.65 309.851 267.809C315.915 259.968 323.756 215.558 323.756 215.558Z" fill="#2A4E96"/>
<path d="M287.553 268.483L281.856 314.18H298.15L302.622 278.529L287.553 268.483Z" fill="#2A4E96"/>
<path d="M292.272 314.18C292.272 314.18 301.092 267.87 300.541 252.985C300.541 252.985 312.67 295.681 310.709 304.256C308.688 312.832 294.66 320.489 292.272 314.18Z" fill="#1E3D70"/>
<path d="M363.204 278.407L365.176 318.091C364.24 319.496 364.24 319.496 362.835 321.368C359.589 322.287 356.772 323.92 349.544 325.451C342.744 326.86 333.617 328.085 322.408 328.207C304.582 328.33 297.783 322.143 297.783 322.143C296.986 322.143 298.212 318.406 299.253 300.642C299.62 294.639 299.988 286.982 300.233 277.365C300.478 268.667 300.601 258.376 300.601 246.125C300.601 231.423 323.388 215.619 323.816 215.619C323.816 217.763 327.186 221.623 332.27 221.99C338.395 222.419 345.991 218.008 345.991 214.456C345.991 214.456 347.032 215.497 347.461 216.171C349.85 220.214 357.446 236.201 360.815 252.312C361.305 254.701 361.672 257.212 361.979 259.846C361.979 259.907 361.979 259.907 361.979 259.969C362.04 260.459 362.101 260.949 362.163 261.439C362.163 261.5 362.163 261.622 362.163 261.684C362.224 262.113 362.224 262.603 362.285 263.031C362.285 263.154 362.163 263.399 362.346 263.399C363.571 263.705 366.94 274.915 363.02 274.792C361.856 274.792 363.143 277.181 363.204 278.407C363.204 278.407 363.204 278.468 363.204 278.529V278.407Z" fill="#2A4E96"/>
<path d="M323.574 212.312V214.517C323.574 214.517 322.961 221.377 331.414 222.357C339.868 223.338 346.238 219.662 345.993 214.394C345.258 210.29 344.401 207.472 344.339 204.103C344.339 202.817 344.401 201.531 344.646 199.999L328.29 199.693L323.451 200.489L323.574 212.312Z" fill="#FFB27D"/>
<path d="M323.511 200.489L323.572 208.942C325.287 209.739 328.472 209.8 330.984 209.371C338.396 208.024 341.887 205.512 344.46 201.531C344.46 200.244 344.46 201.531 344.705 199.999L328.35 199.693L323.511 200.489Z" fill="#E2915A"/>
<path d="M345.871 197.426C343.972 207.595 330.802 207.288 325.105 206.676C323.512 206.492 322.471 206.308 322.471 206.308C320.695 205.818 319.653 203 319.163 199.264C318.244 191.913 319.408 181.071 320.633 178.314C322.532 174.149 326.024 169.677 339.316 172.924C352.67 176.048 348.321 184.317 345.871 197.426Z" fill="#FFB27D"/>
<path d="M316.651 168.514C316.651 168.514 322.47 168.085 329.392 165.083C334.966 162.633 342.011 165.328 344.277 166.553C344.216 166.186 344.094 165.696 343.726 165.206C343.726 165.206 344.767 165.941 344.89 166.982C345.012 167.044 345.074 167.105 345.012 167.105C345.012 167.105 346.176 166.921 346.911 167.227C346.911 167.227 346.36 167.166 346.176 167.472C346.176 167.534 346.115 167.534 346.115 167.595C354.813 171.821 355.61 185.543 352.853 188.728C349.484 192.587 345.012 200.367 345.012 200.367C345.012 200.367 343.971 199.141 344.584 195.772C345.196 192.403 342.256 192.403 338.581 190.872C334.905 189.341 337.968 185.053 334.721 182.419C331.475 179.785 319.714 181.316 319.836 179.356C315.548 177.763 316.651 169.004 316.651 168.514Z" fill="#233862"/>
<path d="M356.344 245.145C356.344 245.145 366.758 281.408 333.925 285.88C333.925 285.88 373.68 282.939 373.68 282.388C373.68 281.959 356.344 245.145 356.344 245.145Z" fill="#1E3D70"/>
<path d="M345.992 214.394C345.992 214.394 368.105 216.17 372.087 220.887C376.068 225.604 387.768 278.039 384.154 288.207C381.949 294.455 353.649 289.861 338.641 290.29L336.252 286.063C336.252 286.063 364.491 274.608 364.491 272.648C364.491 267.809 345.992 214.394 345.992 214.394Z" fill="#2A4E96"/>
<path d="M336.191 286.125C336.191 286.125 328.963 285.267 327.125 286.125C325.288 286.982 320.938 289.616 320.938 290.351C320.938 291.087 338.58 290.351 338.58 290.351L336.191 286.125Z" fill="#FFB27D"/>
</g>
<g filter="url(#filter4_d)">
<path d="M293.971 348.793C293.971 348.793 295.475 348.664 297.709 348.106H297.752C302.866 346.859 311.589 343.293 313.867 333.495C317.132 319.444 302.178 292.758 302.178 292.758L293.971 348.793Z" fill="#599DAD"/>
<path d="M248.078 335.214C248.078 335.214 233.854 356.786 230.374 356.957C226.807 357.129 224.486 356.313 221.607 358.161C219.545 359.493 213.357 366.067 215.162 365.423C216.966 364.778 220.318 363.876 221.178 363.704C222.381 363.403 224.357 363.102 225.69 362.716C226.506 362.458 229.557 361.942 230.588 361.77C235.014 360.997 254.309 345.871 254.309 345.871L248.078 335.214Z" fill="#F8B282"/>
<path fill-rule="evenodd" clip-rule="evenodd" d="M258.529 395.603C258.423 395.61 258.316 395.617 258.21 395.624L258.09 395.632C257.574 395.675 257.059 395.718 256.586 395.761C256.387 395.761 256.188 395.772 255.995 395.783C255.813 395.794 255.636 395.804 255.469 395.804L251.515 395.933C249.066 396.019 246.66 396.019 244.296 395.933C243.095 395.933 241.894 395.893 240.719 395.854C240.172 395.835 239.63 395.817 239.097 395.804C238.479 395.782 237.873 395.748 237.272 395.715C236.702 395.684 236.138 395.653 235.573 395.632C234.861 395.593 234.16 395.557 233.473 395.521C231.089 395.398 228.87 395.283 226.936 395.116C226.38 395.08 225.846 395.046 225.336 395.014C223.401 394.891 221.8 394.789 220.576 394.687C219.459 394.601 218.685 394.558 218.299 394.601C217.482 394.644 216.837 394.987 216.322 395.632C216.279 395.675 216.236 395.718 216.193 395.804H190.109C194.578 382.053 199.219 370.923 203.13 368.474C205.536 366.97 210.048 365.552 215.591 364.263C220.533 363.102 226.334 362.071 232.307 361.169H232.35C237.636 360.309 243.093 359.579 248.207 358.934C252.289 358.419 256.156 357.946 259.594 357.602C261.012 357.473 262.301 357.344 263.504 357.172C269.22 356.614 272.872 356.313 272.872 356.313L284.689 358.977C284.689 358.977 284.947 359.493 285.248 360.352C286.193 362.888 287.869 368.775 287.053 375.736C286.676 379 285.648 382.549 283.809 386.105C275.66 389.817 267.219 392.997 258.529 395.603Z" fill="#163560"/>
<path fill-rule="evenodd" clip-rule="evenodd" d="M239.422 400.313C238.224 399.392 237.119 398.62 236.45 398.603L205.088 401.411C208.783 388.649 216.15 372.857 219.76 370.407C225.303 366.54 241.632 364.005 256.5 362.372C256.93 362.329 257.37 362.275 257.811 362.221C258.251 362.168 258.692 362.114 259.121 362.071C260.324 361.985 261.569 361.856 262.815 361.727L262.817 361.727C275.021 360.61 284.861 360.137 284.861 360.137C284.861 360.137 284.947 360.223 285.205 360.309C287.397 361.469 299.042 367.872 301.534 376.638V376.934C282.588 387.972 261.664 395.985 239.422 400.313Z" fill="#163560"/>
<path d="M301.017 291.211C301.017 291.168 300.974 291.168 300.931 291.125C300.502 290.652 299.986 290.18 299.427 289.793C295.001 286.699 287.138 286.054 287.138 286.054C287.138 286.054 286.278 285.969 284.903 285.926C283.872 283.261 282.712 279.265 282.325 273.507L281.551 273.722L268.402 277.245C268.402 277.245 269.004 281.414 269.261 285.367C269.304 286.226 269.347 287.086 269.39 287.902C269.004 288.031 268.66 288.16 268.359 288.289C268.359 288.289 260.839 289.191 259.077 291.082C257.315 293.016 253.749 305.735 252.846 307.97L303.424 308.786C303.381 308.743 304.67 295.551 301.017 291.211Z" fill="#FFB27D"/>
<path fill-rule="evenodd" clip-rule="evenodd" d="M296.007 380.037C287.962 376.817 276.375 369.94 270.887 366.683C270.568 366.494 270.269 366.317 269.994 366.153C269.945 366.129 269.897 366.091 269.841 366.048C269.798 366.014 269.749 365.976 269.693 365.938C266.9 364.263 262.946 363.532 259.208 362.887C258.784 362.819 258.363 362.753 257.947 362.687C253.639 362.007 249.844 361.408 248.551 359.879C247.074 358.144 250.545 356.219 254.114 354.239C254.699 353.915 255.287 353.589 255.856 353.262C257.876 352.059 259.637 350.855 260.196 349.652C260.626 348.707 260.583 346.601 260.325 343.98C260.289 343.581 260.222 343.151 260.15 342.691C260.137 342.606 260.123 342.52 260.11 342.433C259.766 343.121 259.38 343.808 258.907 344.496C257.704 346.3 256.157 348.062 254.653 349.523C252.719 351.328 250.828 352.66 249.668 352.961C248.852 353.133 248.078 353.047 247.262 352.746C245.113 351.93 243.136 349.609 241.503 347.418C241.31 347.103 241.103 346.803 240.905 346.515C240.752 346.292 240.604 346.077 240.472 345.871C239.914 345.033 239.43 344.259 239.054 343.658C238.678 343.056 238.41 342.626 238.281 342.476C237.665 341.773 239.548 340.65 241.38 339.557C242.234 339.047 243.078 338.544 243.652 338.093C245.5 336.589 252.762 307.97 252.762 307.97C252.996 307.392 253.232 306.134 253.53 304.548C254.384 300.005 255.744 292.77 258.993 291.082C258.993 291.082 262.388 292.328 266.9 293.574C271.927 294.993 278.459 296.454 283.186 296.196C291.602 295.71 298.304 290.615 299.273 289.878C299.333 289.832 299.371 289.803 299.386 289.793C299.386 289.793 300.159 290.223 300.374 290.395C300.589 290.566 301.191 291.168 301.191 291.168C304.843 295.465 303.382 308.829 303.382 308.829C303.382 308.829 296.421 339.683 296.421 342.777C296.421 346.464 298.388 353.227 300.385 360.09C301.483 363.865 302.589 367.67 303.382 371.009C303.759 372.56 304.067 374.008 304.276 375.307C301.562 376.947 298.805 378.525 296.007 380.037Z" fill="#599DAD"/>
<path d="M268.403 277.202C268.403 277.202 269.004 281.371 269.262 285.324C276.696 284.636 280.177 277.546 281.552 273.679L268.403 277.202Z" fill="#F4A269"/>
<path d="M262.773 279.566C262.773 279.566 280.134 282.789 281.982 271.96C283.829 261.131 287.31 254.213 276.309 251.678C265.309 249.142 262.43 252.924 260.926 256.404C259.464 259.885 258.304 278.449 262.773 279.566Z" fill="#FFB27D"/>
<path d="M262.988 247.681C262.988 247.681 263.718 238.571 276.825 240.935C280.305 241.579 282.669 235.391 288.341 237.583C300.545 242.31 301.275 236.079 304.799 244.845C306.26 248.541 315.671 252.795 312.792 259.154C309.913 265.514 314.725 269.768 311.331 274.753C309.569 277.331 310.299 281.929 302.049 282.101C297.967 282.187 291.564 289.793 286.966 291.168C282.368 292.543 268.531 290.567 269.09 284.25C269.476 279.308 273.645 275.054 270.121 269.382C267.027 264.44 260.409 264.139 257.444 256.146C255.296 250.259 263.16 252.58 262.988 247.681Z" fill="#B5453C"/>
</g>
<g filter="url(#filter5_d)">
<path d="M92.6585 279.712C92.6585 279.712 94.231 290.082 90.9586 295.479H111.825C111.825 295.479 110.168 286.554 110.975 280.902C111.825 275.25 92.6585 279.712 92.6585 279.712Z" fill="#FFB27D"/>
<path fill-rule="evenodd" clip-rule="evenodd" d="M54.9017 340.588C55.7979 335.548 56.8046 330.453 57.9367 325.568L58.0217 325.143C58.1425 324.587 58.2772 324.031 58.4099 323.482C58.5105 323.067 58.6101 322.656 58.7017 322.253C59.4241 319.32 60.1891 316.473 61.0391 313.838C63.5889 305.509 66.6063 298.964 70.0486 296.329C70.0911 296.287 70.1336 296.255 70.1761 296.223C70.2186 296.191 70.2611 296.159 70.3036 296.117C74.4259 293.227 82.798 291.569 92.1051 290.974C97.7998 290.634 103.835 290.634 109.487 291.059C117.009 291.612 123.809 292.802 128.143 294.544C128.993 294.884 129.886 295.479 130.736 296.329C143.24 308.484 156.313 385.668 156.303 398.987C116.756 389.96 81.6723 369.21 54.9017 340.588Z" fill="#FFA561"/>
<path d="M111.016 280.902C111.016 280.902 117.391 283.579 118.836 264.753C119.983 249.921 118.581 247.286 103.239 246.861C88.7048 246.436 83.5271 252.753 83.5271 257.895C83.5271 289.072 105.237 279.585 111.016 280.902Z" fill="#FFB27D"/>
<path d="M91.873 237.878C86.0933 239.493 81.4241 244.916 81.4241 252.566C81.4241 259.705 82.1041 266.675 83.974 268.46C85.8014 270.245 85.2914 278.319 93.536 278.319C101.186 278.319 108.963 273.517 110.153 269.055C111.343 264.593 120.172 260.083 120.862 252.566C124.001 252.566 125.642 249.144 125.642 246.956C122.907 244.221 118.531 243.127 113.752 241.16C107.047 237.622 98.4177 236.051 91.873 237.878Z" fill="black"/>
</g>
<g filter="url(#filter6_d)">
<path d="M186.812 319.946C186.812 319.946 188.127 329.03 185.385 333.749H202.851C202.851 333.749 201.461 325.923 202.137 320.968C202.851 316.053 186.812 319.946 186.812 319.946Z" fill="#FFB27D"/>
<path d="M194.473 324.233C194.473 324.233 207.469 323.328 208.671 306.851C209.61 293.834 208.446 291.553 195.6 291.16C183.43 290.806 181.063 294.502 181.063 299.025C181.063 322.817 189.665 323.053 194.473 324.233Z" fill="#FFB27D"/>
<path d="M181.102 307.676C181.102 307.676 179.6 306.379 179.074 307.991C178.548 309.603 182.041 314.952 183.356 313.182C184.671 311.373 181.102 307.676 181.102 307.676Z" fill="#FFB27D"/>
<path fill-rule="evenodd" clip-rule="evenodd" d="M156.436 399.017C153.354 393.801 151.961 387.428 153.006 380.783C154.02 374.255 155.222 367.412 156.649 360.963L156.724 360.569C156.831 360.055 156.95 359.54 157.067 359.033C157.156 358.649 157.244 358.268 157.325 357.895C157.964 355.182 158.64 352.547 159.391 350.109C161.645 342.401 164.312 336.345 167.354 333.907C167.392 333.867 167.429 333.838 167.467 333.808C167.505 333.779 167.542 333.749 167.58 333.71C171.223 331.036 178.623 329.502 186.849 328.952C191.882 328.637 197.216 328.637 202.212 329.03C208.86 329.541 214.87 330.643 218.701 332.255C219.453 332.57 220.241 333.12 220.993 333.907C229.94 342.984 237.539 380.894 239.903 400.219C227.319 402.7 214.311 404.001 201 404.001C185.682 404.001 170.766 402.278 156.436 399.017Z" fill="#8C9DF4"/>
<path d="M194.098 280.778C194.098 280.778 184.745 278.969 178.961 283.373C173.214 287.817 172.237 294.62 170.284 300.165C168.331 305.71 161.532 307.047 164.312 314.165C171.298 331.862 198.568 327.025 210.062 323.013C212.278 322.227 210.137 318.491 206.982 317.154C203.263 315.62 205.104 308.581 208.635 306.811C213.743 304.255 214.006 299.772 213.217 295.485C211.865 287.974 205.179 277.553 194.098 280.778Z" fill="#163560"/>
<path d="M205.255 307.322C205.255 307.322 206.043 305.317 207.32 306.575C208.56 307.794 207.809 314.597 205.743 313.614C203.639 312.631 205.255 307.322 205.255 307.322Z" fill="#FFB27D"/>
</g>
<g filter="url(#filter7_d)">
<path fill-rule="evenodd" clip-rule="evenodd" d="M208.545 4.1329C205.766 18.6288 197.609 34.4356 180.483 50.5447C176.705 54.1083 174.247 57.258 172.734 60.1288C169.068 67.108 171.034 72.4036 173.066 77.8784C175.669 84.8884 178.38 92.192 169.517 103.699C157.282 119.587 141.157 120.076 124.586 120.579C112.179 120.955 99.521 121.339 88.0585 128.201C83.3275 131.031 78.8037 134.968 74.5764 140.458C59.8275 159.639 32.0248 168.744 4.18652 169.955C20.2921 75.7231 102.364 4 201.188 4C203.651 4 206.104 4.04455 208.545 4.1329Z" fill="#FFE3C1"/>
</g>
<g filter="url(#filter8_d)">
<path fill-rule="evenodd" clip-rule="evenodd" d="M377.989 110.566C372.907 110.395 367.751 109.718 362.551 109.036C350.243 107.422 337.687 105.775 325.274 110.714C320.151 112.75 315.056 115.912 310.004 120.654C277.178 151.515 205.267 140.646 174.981 115.399C162.149 104.688 157.061 87.9636 165.13 71.0569C165.22 70.8667 165.319 70.6682 165.422 70.4609C167.054 67.1746 169.793 61.6603 158.104 51.461C154.261 48.1021 149.535 44.7467 144.693 41.3097C143.623 40.5499 142.547 39.7861 141.474 39.0174C141.444 38.9892 141.399 38.9616 141.369 38.9481C133.867 33.5702 126.917 27.6227 121.255 20.6256C145.734 9.93208 172.769 4 201.19 4C277.875 4 344.473 47.187 377.989 110.566Z" fill="#FFEAD1"/>
</g>
<g filter="url(#filter9_d)">
<path d="M150.161 120.087C151.204 120.087 152.247 120.087 153.216 120.162C155.004 120.162 157.016 121.727 157.761 123.664C158.655 126.346 159.549 128.954 160.443 131.636C154.483 131.562 148.597 131.487 142.636 131.413C143.604 128.805 144.573 126.123 145.542 123.515C146.361 121.578 148.447 120.087 150.161 120.087Z" fill="#BCBCBC"/>
<path d="M139.06 145.644C133.769 149.369 130.268 155.479 130.193 162.483C130.044 174.031 139.283 183.568 150.906 183.717C162.455 183.866 171.992 174.627 172.141 163.004C172.216 156.075 168.937 149.816 163.722 145.942L163.796 138.789C163.796 136.107 162.977 133.648 161.561 131.562L141.518 131.263C140.028 133.275 139.134 135.734 139.134 138.416L139.06 145.644Z" fill="#F7C900"/>
<path d="M153.292 120.162C152.249 120.162 151.206 120.162 150.237 120.087C148.523 120.087 146.437 121.503 145.692 123.366L157.837 123.515C157.017 121.652 155.006 120.162 153.292 120.162Z" fill="#424242"/>
<path d="M150.755 183.643L151.426 131.413L141.591 131.264C140.101 133.275 139.206 135.734 139.206 138.416L139.132 145.569C133.842 149.295 130.34 155.404 130.265 162.408C130.042 173.957 139.206 183.42 150.755 183.643Z" fill="#FFD939"/>
<path fill-rule="evenodd" clip-rule="evenodd" d="M151.226 10.2426C151.559 10.1573 151.892 10.0729 152.226 9.98926V120.086H151.226V10.2426Z" fill="#424242"/>
</g>
</g>
<defs>
<filter id="filter0_ii" x="-2" y="-3" width="406" height="414.001" filterUnits="userSpaceOnUse" color-interpolation-filters="sRGB">
<feFlood flood-opacity="0" result="BackgroundImageFix"/>
<feBlend mode="normal" in="SourceGraphic" in2="BackgroundImageFix" result="shape"/>
<feColorMatrix in="SourceAlpha" type="matrix" values="0 0 0 0 0 0 0 0 0 0 0 0 0 0 0 0 0 0 127 0" result="hardAlpha"/>
<feOffset dx="3" dy="7"/>
<feGaussianBlur stdDeviation="4.5"/>
<feComposite in2="hardAlpha" operator="arithmetic" k2="-1" k3="1"/>
<feColorMatrix type="matrix" values="0 0 0 0 0 0 0 0 0 0 0 0 0 0 0 0 0 0 0.17 0"/>
<feBlend mode="normal" in2="shape" result="effect1_innerShadow"/>
<feColorMatrix in="SourceAlpha" type="matrix" values="0 0 0 0 0 0 0 0 0 0 0 0 0 0 0 0 0 0 127 0" result="hardAlpha"/>
<feOffset dx="-3" dy="-7"/>
<feGaussianBlur stdDeviation="4"/>
<feComposite in2="hardAlpha" operator="arithmetic" k2="-1" k3="1"/>
<feColorMatrix type="matrix" values="0 0 0 0 0 0 0 0 0 0 0 0 0 0 0 0 0 0 0.25 0"/>
<feBlend mode="normal" in2="effect1_innerShadow" result="effect2_innerShadow"/>
</filter>
<filter id="filter1_d" x="29.8945" y="173.875" width="143.874" height="185.067" filterUnits="userSpaceOnUse" color-interpolation-filters="sRGB">
<feFlood flood-opacity="0" result="BackgroundImageFix"/>
<feColorMatrix in="SourceAlpha" type="matrix" values="0 0 0 0 0 0 0 0 0 0 0 0 0 0 0 0 0 0 127 0"/>
<feOffset dx="3" dy="-3"/>
<feGaussianBlur stdDeviation="2.5"/>
<feColorMatrix type="matrix" values="0 0 0 0 0 0 0 0 0 0 0 0 0 0 0 0 0 0 0.25 0"/>
<feBlend mode="normal" in2="BackgroundImageFix" result="effect1_dropShadow"/>
<feBlend mode="normal" in="SourceGraphic" in2="effect1_dropShadow" result="shape"/>
</filter>
<filter id="filter2_d" x="181.558" y="146.726" width="112.045" height="217.934" filterUnits="userSpaceOnUse" color-interpolation-filters="sRGB">
<feFlood flood-opacity="0" result="BackgroundImageFix"/>
<feColorMatrix in="SourceAlpha" type="matrix" values="0 0 0 0 0 0 0 0 0 0 0 0 0 0 0 0 0 0 127 0"/>
<feOffset dx="3" dy="-3"/>
<feGaussianBlur stdDeviation="2.5"/>
<feColorMatrix type="matrix" values="0 0 0 0 0 0 0 0 0 0 0 0 0 0 0 0 0 0 0.25 0"/>
<feBlend mode="normal" in2="BackgroundImageFix" result="effect1_dropShadow"/>
<feBlend mode="normal" in="SourceGraphic" in2="effect1_dropShadow" result="shape"/>
</filter>
<filter id="filter3_d" x="279.856" y="156.088" width="112.981" height="225.654" filterUnits="userSpaceOnUse" color-interpolation-filters="sRGB">
<feFlood flood-opacity="0" result="BackgroundImageFix"/>
<feColorMatrix in="SourceAlpha" type="matrix" values="0 0 0 0 0 0 0 0 0 0 0 0 0 0 0 0 0 0 127 0"/>
<feOffset dx="3" dy="-3"/>
<feGaussianBlur stdDeviation="2.5"/>
<feColorMatrix type="matrix" values="0 0 0 0 0 0 0 0 0 0 0 0 0 0 0 0 0 0 0.25 0"/>
<feBlend mode="normal" in2="BackgroundImageFix" result="effect1_dropShadow"/>
<feBlend mode="normal" in="SourceGraphic" in2="effect1_dropShadow" result="shape"/>
</filter>
<filter id="filter4_d" x="188.109" y="229.111" width="134.224" height="174.301" filterUnits="userSpaceOnUse" color-interpolation-filters="sRGB">
<feFlood flood-opacity="0" result="BackgroundImageFix"/>
<feColorMatrix in="SourceAlpha" type="matrix" values="0 0 0 0 0 0 0 0 0 0 0 0 0 0 0 0 0 0 127 0"/>
<feOffset dx="3" dy="-3"/>
<feGaussianBlur stdDeviation="2.5"/>
<feColorMatrix type="matrix" values="0 0 0 0 0 0 0 0 0 0 0 0 0 0 0 0 0 0 0.25 0"/>
<feBlend mode="normal" in2="BackgroundImageFix" result="effect1_dropShadow"/>
<feBlend mode="normal" in="SourceGraphic" in2="effect1_dropShadow" result="shape"/>
</filter>
<filter id="filter5_d" x="52.9014" y="229.111" width="111.401" height="171.877" filterUnits="userSpaceOnUse" color-interpolation-filters="sRGB">
<feFlood flood-opacity="0" result="BackgroundImageFix"/>
<feColorMatrix in="SourceAlpha" type="matrix" values="0 0 0 0 0 0 0 0 0 0 0 0 0 0 0 0 0 0 127 0"/>
<feOffset dx="3" dy="-3"/>
<feGaussianBlur stdDeviation="2.5"/>
<feColorMatrix type="matrix" values="0 0 0 0 0 0 0 0 0 0 0 0 0 0 0 0 0 0 0.25 0"/>
<feBlend mode="normal" in2="BackgroundImageFix" result="effect1_dropShadow"/>
<feBlend mode="normal" in="SourceGraphic" in2="effect1_dropShadow" result="shape"/>
</filter>
<filter id="filter6_d" x="150.662" y="272.175" width="97.241" height="133.825" filterUnits="userSpaceOnUse" color-interpolation-filters="sRGB">
<feFlood flood-opacity="0" result="BackgroundImageFix"/>
<feColorMatrix in="SourceAlpha" type="matrix" values="0 0 0 0 0 0 0 0 0 0 0 0 0 0 0 0 0 0 127 0"/>
<feOffset dx="3" dy="-3"/>
<feGaussianBlur stdDeviation="2.5"/>
<feColorMatrix type="matrix" values="0 0 0 0 0 0 0 0 0 0 0 0 0 0 0 0 0 0 0.25 0"/>
<feBlend mode="normal" in2="BackgroundImageFix" result="effect1_dropShadow"/>
<feBlend mode="normal" in="SourceGraphic" in2="effect1_dropShadow" result="shape"/>
</filter>
<filter id="filter7_d" x="0.186523" y="0" width="218.359" height="179.955" filterUnits="userSpaceOnUse" color-interpolation-filters="sRGB">
<feFlood flood-opacity="0" result="BackgroundImageFix"/>
<feColorMatrix in="SourceAlpha" type="matrix" values="0 0 0 0 0 0 0 0 0 0 0 0 0 0 0 0 0 0 127 0"/>
<feOffset dx="3" dy="3"/>
<feGaussianBlur stdDeviation="3.5"/>
<feColorMatrix type="matrix" values="0 0 0 0 0 0 0 0 0 0 0 0 0 0 0 0 0 0 0.25 0"/>
<feBlend mode="normal" in2="BackgroundImageFix" result="effect1_dropShadow"/>
<feBlend mode="normal" in="SourceGraphic" in2="effect1_dropShadow" result="shape"/>
</filter>
<filter id="filter8_d" x="114.255" y="0" width="270.734" height="149.492" filterUnits="userSpaceOnUse" color-interpolation-filters="sRGB">
<feFlood flood-opacity="0" result="BackgroundImageFix"/>
<feColorMatrix in="SourceAlpha" type="matrix" values="0 0 0 0 0 0 0 0 0 0 0 0 0 0 0 0 0 0 127 0"/>
<feOffset dy="3"/>
<feGaussianBlur stdDeviation="3.5"/>
<feColorMatrix type="matrix" values="0 0 0 0 0 0 0 0 0 0 0 0 0 0 0 0 0 0 0.25 0"/>
<feBlend mode="normal" in2="BackgroundImageFix" result="effect1_dropShadow"/>
<feBlend mode="normal" in="SourceGraphic" in2="effect1_dropShadow" result="shape"/>
</filter>
<filter id="filter9_d" x="126.191" y="9.98926" width="49.9513" height="181.73" filterUnits="userSpaceOnUse" color-interpolation-filters="sRGB">
<feFlood flood-opacity="0" result="BackgroundImageFix"/>
<feColorMatrix in="SourceAlpha" type="matrix" values="0 0 0 0 0 0 0 0 0 0 0 0 0 0 0 0 0 0 127 0"/>
<feOffset dy="4"/>
<feGaussianBlur stdDeviation="2"/>
<feColorMatrix type="matrix" values="0 0 0 0 0 0 0 0 0 0 0 0 0 0 0 0 0 0 0.25 0"/>
<feBlend mode="normal" in2="BackgroundImageFix" result="effect1_dropShadow"/>
<feBlend mode="normal" in="SourceGraphic" in2="effect1_dropShadow" result="shape"/>
</filter>
</defs>
</svg>
