<svg width="2012" height="2771" viewBox="0 0 2012 2771" fill="none" xmlns="http://www.w3.org/2000/svg">
<path d="M619.779 764.735C676.536 656.12 907.649 213.842 1043.12 4H2010.12V2751C1329.12 2752.83 -22.3247 2781.59 1.30588 2751C150.802 2557.5 173.946 2571 331.118 2248.5C461.241 1981.5 399.118 1654.5 399.118 1414C399.118 1173.5 511.471 972 619.118 766L619.779 764.735Z" fill="#FFD1D5"/>
<g filter="url(#filter0_i)">
<path d="M621.277 760.736C678.033 652.124 909.148 209.843 1044.62 0H2011.62V2756C1330.62 2757.83 -23.3252 2786.59 0.305321 2756C149.801 2562.5 175.445 2567 332.617 2244.5C462.74 1977.5 400.617 1650.5 400.617 1410C400.617 1169.5 512.97 968 620.617 762L621.277 760.736Z" fill="#FFD1D5" fill-opacity="0.02"/>
</g>
<defs>
<filter id="filter0_i" x="0" y="0" width="2019.62" height="2770.01" filterUnits="userSpaceOnUse" color-interpolation-filters="sRGB">
<feFlood flood-opacity="0" result="BackgroundImageFix"/>
<feBlend mode="normal" in="SourceGraphic" in2="BackgroundImageFix" result="shape"/>
<feColorMatrix in="SourceAlpha" type="matrix" values="0 0 0 0 0 0 0 0 0 0 0 0 0 0 0 0 0 0 127 0" result="hardAlpha"/>
<feOffset dx="8"/>
<feGaussianBlur stdDeviation="8.5"/>
<feComposite in2="hardAlpha" operator="arithmetic" k2="-1" k3="1"/>
<feColorMatrix type="matrix" values="0 0 0 0 0 0 0 0 0 0 0 0 0 0 0 0 0 0 0.17 0"/>
<feBlend mode="normal" in2="shape" result="effect1_innerShadow"/>
</filter>
</defs>
</svg>
