<svg width="302" height="296" viewBox="0 0 302 296" fill="none" xmlns="http://www.w3.org/2000/svg">
<circle cx="151" cy="145" r="145" fill="#FFCCCC"/>
<path fill-rule="evenodd" clip-rule="evenodd" d="M6.79102 129.762C7.30364 124.853 8.06115 120.018 9.05111 115.267C9.06715 115.261 9.08264 115.254 9.09757 115.246C9.48993 115.001 9.88229 113.366 10.2887 111.674C10.6426 110.199 11.0072 108.68 11.3917 107.997C12.2176 106.528 14.0529 106.712 14.0529 106.712C14.0529 106.712 13.4105 111.851 14.0529 114.237C14.6953 116.623 15.5211 122.312 15.5211 122.312C15.5211 122.312 9.09757 130.387 7.53757 130.02C7.39165 129.975 7.13518 129.886 6.79102 129.762Z" fill="#D1977A"/>
<path d="M69.9375 118.091C69.3869 118.091 52.5021 121.027 37.5443 121.853L12.0336 119.008L7.53711 129.837L35.709 135.526H60.8527L69.9375 118.091Z" fill="#D1977A"/>
<path d="M184.384 125.226C184.384 125.226 185.165 119.846 185.772 117.591C186.379 115.335 185.772 110.476 185.772 110.476C185.772 110.476 187.507 110.303 188.288 111.691C189.069 113.079 189.763 118.111 190.457 118.545C191.151 118.892 193.147 118.372 193.407 118.024C193.667 117.677 200.174 109.522 201.302 109.782C202.343 110.043 203.298 111.17 202.69 112.125C202.083 113.079 198.005 117.07 198.612 117.591C199.22 118.024 204.599 113.166 205.467 113.686C206.334 114.207 206.768 115.422 206.074 116.202C205.293 116.983 201.302 120.714 201.736 121.148C202.17 121.668 206.334 117.417 206.941 117.677C207.636 117.938 207.809 119.239 207.289 119.76C206.768 120.193 201.649 125.052 202.083 125.92C202.603 126.701 206.247 124.965 206.855 124.965C207.636 125.052 207.549 126.614 205.814 127.308C205.293 127.481 193.32 132.08 191.932 132.513C190.544 132.86 184.384 125.226 184.384 125.226Z" fill="#D1977A"/>
<path d="M132.936 121.234C133.456 121.234 149.42 124.011 163.562 124.792L187.681 122.102L191.933 132.34L165.297 137.719H141.525L132.936 121.234Z" fill="#D1977A"/>
<path d="M197.919 126.614C197.919 126.701 197.312 126.267 196.271 126.006C195.23 125.746 193.668 125.659 192.193 126.353C192.106 126.44 192.02 126.44 191.933 126.527L191.586 126.701L191.673 126.267C192.02 123.057 191.065 120.627 191.152 120.541C191.239 120.541 191.499 121.061 191.759 122.102C192.02 123.143 192.28 124.618 192.106 126.267L191.759 126.006C191.846 125.92 191.933 125.92 192.106 125.833C193.755 125.139 195.403 125.226 196.531 125.573C197.486 126.093 198.006 126.527 197.919 126.614Z" fill="#A96541"/>
<path d="M109.683 79.1555C108.729 73.0822 105.345 67.5296 100.487 63.7989L101.007 63.5386C96.3223 61.4563 90.2491 63.7121 88.0801 68.3972C87.2125 70.3059 86.9522 72.3882 86.4316 74.4704C85.9111 76.4659 85.0434 78.5481 83.3082 79.7628C82.3539 80.3701 81.3128 80.7171 80.3584 81.3245C79.404 81.9318 78.5364 82.8862 78.6232 84.014C78.7099 85.4022 80.1849 86.3566 81.6598 86.6169C83.048 86.8771 84.6096 86.8771 85.8243 87.658C83.8288 88.9594 83.3082 91.996 84.6096 93.9915C85.9978 95.9002 89.0344 96.4208 90.9431 95.0326C89.902 97.2884 91.0299 100.238 93.1989 101.54C95.3679 102.841 98.1443 102.754 100.4 101.713C102.656 100.672 104.478 98.7633 105.866 96.6811C109.25 91.5622 110.638 85.1419 109.683 79.1555Z" fill="#2E2E2E"/>
<path d="M142.652 69.1782C142.479 67.443 141.004 66.1416 139.356 65.5342C137.707 65.0137 135.972 65.1004 134.237 65.274C135.018 63.105 135.798 60.8492 135.625 58.5934C135.451 56.3376 134.237 53.9084 131.981 53.2143C130.072 52.6069 128.077 53.3878 126.342 54.3422C124.606 55.3833 123.045 56.5979 121.223 57.292C116.364 58.8537 111.158 55.47 106.04 55.9038C100.747 56.3376 95.7151 61.7168 95.8019 66.9224C103.871 71.1737 111.939 75.4249 118.88 81.3246C122.611 84.5348 126.602 88.3522 131.46 88.1787C134.497 88.0919 137.447 86.1832 138.748 83.4069C140.136 80.6306 139.789 77.1601 138.054 74.7308C140.31 73.5162 142.913 71.781 142.652 69.1782Z" fill="#2E2E2E"/>
<path d="M132.848 79.9363C133.195 73.0822 126.514 65.4473 119.66 65.4473L97.1894 67.2692L96.8423 70.9132L93.2852 116.462C93.2852 116.462 93.6322 131.298 106.039 131.819C117.231 132.253 117.838 120.453 117.838 120.453L118.446 111.864C118.446 111.864 127.469 112.471 130.505 101.279C132.067 95.7266 132.501 87.5712 132.848 79.9363Z" fill="#D1977A"/>
<path d="M127.382 89.7403C127.296 90.5211 126.602 91.1284 125.821 91.0417C125.04 90.9549 124.433 90.3476 124.433 89.5668C124.519 88.7859 125.213 88.1786 125.994 88.2653C126.862 88.2653 127.469 88.9594 127.382 89.7403Z" fill="#2E2E2E"/>
<path d="M130.159 85.7493C129.985 85.9228 128.944 84.9684 127.382 84.7949C125.821 84.6214 124.606 85.3155 124.432 85.0552C124.346 84.9684 124.606 84.6214 125.127 84.3611C125.647 84.0141 126.515 83.7538 127.556 83.9273C128.51 84.0141 129.291 84.4479 129.725 84.8817C130.159 85.3155 130.332 85.6625 130.159 85.7493Z" fill="#2E2E2E"/>
<path d="M114.543 88.3521C114.456 89.1329 113.762 89.7403 112.981 89.6535C112.2 89.5667 111.593 88.9594 111.593 88.1786C111.68 87.3977 112.374 86.7904 113.154 86.8772C114.022 86.8772 114.629 87.5712 114.543 88.3521Z" fill="#2E2E2E"/>
<path d="M115.756 84.448C115.583 84.6215 114.542 83.6672 112.98 83.4936C111.418 83.3201 110.204 84.0142 110.03 83.7539C109.943 83.6672 110.204 83.3201 110.724 83.0598C111.245 82.7128 112.112 82.4525 113.067 82.626C114.021 82.7128 114.802 83.1466 115.236 83.5804C115.756 84.0142 115.843 84.3612 115.756 84.448Z" fill="#2E2E2E"/>
<path d="M119.314 95.2931C119.314 95.2063 120.269 95.2063 121.917 95.2063C122.351 95.2063 122.698 95.2063 122.785 94.946C122.872 94.7725 122.785 94.4254 122.611 93.9916C122.351 93.2108 122.004 92.43 121.744 91.5624C121.397 90.6947 119.835 85.6627 119.835 85.1421C120.009 85.1421 121.136 87.9184 122.438 91.3888C122.698 92.2564 123.045 93.0373 123.305 93.8181C123.392 94.1652 123.652 94.599 123.392 95.0328C123.219 95.293 122.958 95.3798 122.698 95.3798C122.438 95.3798 122.178 95.3798 122.004 95.3798C120.269 95.4666 119.314 95.3798 119.314 95.2931Z" fill="#2E2E2E"/>
<path d="M118.619 111.951C118.619 111.951 110.898 111.604 103.87 106.225C103.87 106.225 106.907 114.554 118.359 114.727L118.619 111.951Z" fill="#A96541"/>
<path d="M115.843 79.1557C115.582 79.5895 114.281 79.1557 112.632 79.0689C110.984 78.9822 109.596 79.3292 109.422 78.8087C109.336 78.5484 109.683 78.2013 110.29 77.7675C110.897 77.4205 111.852 77.0735 112.806 77.1602C113.76 77.247 114.628 77.594 115.149 78.0278C115.669 78.4616 115.929 78.8954 115.843 79.1557Z" fill="#2E2E2E"/>
<path d="M130.853 80.3704C130.506 80.8042 129.465 80.2836 128.077 80.1969C126.689 80.1101 125.561 80.3704 125.301 79.9366C125.214 79.6763 125.387 79.3293 125.908 78.8955C126.428 78.5484 127.296 78.2014 128.25 78.2881C129.205 78.3749 129.986 78.8087 130.419 79.2425C130.853 79.7631 130.94 80.1969 130.853 80.3704Z" fill="#2E2E2E"/>
<path d="M132.588 73.3429C130.94 69.2652 127.382 66.1418 123.305 64.4066C119.227 62.7582 114.715 62.4111 110.291 62.9317C105.866 63.3655 101.615 64.4934 97.3633 65.6213C96.3221 65.8816 95.1942 66.2286 94.5869 67.183C94.2399 67.7903 94.1531 68.5711 94.0664 69.2652C93.7193 75.3384 93.2855 81.4984 92.9385 87.5716L94.1531 91.4759C96.1486 91.7361 97.9706 90.4347 99.3587 89.1333C104.478 84.4483 107.601 77.7677 108.035 70.8269C108.555 71.6077 108.642 72.6489 108.816 73.6032C108.989 74.5576 109.51 75.512 110.377 75.859C111.852 76.4663 113.327 74.8179 113.761 73.3429C114.195 71.7813 114.108 70.0461 115.062 68.7446C116.364 71.1739 118.186 73.3429 120.442 74.9046C121.483 75.6855 122.958 76.2928 123.999 75.5987C124.78 75.0782 125.04 74.1238 124.953 73.1694C124.866 72.2151 124.346 71.4342 123.912 70.6534C125.56 72.9091 127.816 74.6444 130.419 75.6855C131.026 75.859 131.634 76.0325 132.154 75.7722C133.022 75.3384 132.935 74.2105 132.588 73.3429Z" fill="#2E2E2E"/>
<path d="M97.8846 84.0144C97.7111 83.9276 91.1173 81.238 90.6835 88.1789C90.1629 95.1197 97.2773 94.1653 97.2773 93.9918C97.2773 93.7315 97.8846 84.0144 97.8846 84.0144Z" fill="#D1977A"/>
<path d="M95.3683 91.2152C95.3683 91.2152 95.2815 91.302 95.0213 91.3887C94.8477 91.4755 94.5007 91.4755 94.1537 91.302C93.4596 90.9549 92.939 89.7403 92.939 88.5256C92.939 87.9183 93.1125 87.311 93.3728 86.7904C93.6331 86.2699 93.9802 85.9228 94.3272 85.9228C94.6742 85.8361 94.9345 86.0963 95.0213 86.2699C95.108 86.4434 95.0213 86.6169 95.108 86.6169C95.108 86.6169 95.2816 86.5301 95.1948 86.1831C95.1948 86.0096 95.108 85.8361 94.9345 85.7493C94.761 85.5758 94.5007 85.489 94.2404 85.489C93.7199 85.489 93.1993 85.9228 92.939 86.4434C92.592 86.9639 92.4185 87.658 92.4185 88.3521C92.3317 89.7403 93.0258 91.1284 93.9801 91.4755C94.5007 91.649 94.8478 91.4755 95.108 91.3887C95.2816 91.3887 95.3683 91.2152 95.3683 91.2152Z" fill="#A96541"/>
<path d="M106.733 69.8724C106.733 69.8724 106.647 70.0459 106.56 70.3062C106.386 70.5665 106.213 70.9135 105.953 71.3473C105.345 72.2149 104.478 73.5163 103.09 74.9045C102.395 75.5986 101.615 76.2927 100.747 76.9868C100.313 77.3338 99.7927 77.6808 99.2721 78.0279C98.7515 78.3749 98.1442 78.6352 97.4501 78.6352C96.756 78.6352 96.062 78.2014 95.7149 77.5941C95.3679 76.9868 95.1944 76.2927 95.1944 75.5118C95.2811 74.0369 96.062 72.7355 96.3223 71.3473C96.3223 71.1738 96.409 71.0003 96.409 70.8268L96.7561 71.0003C95.7149 71.9547 94.6738 72.909 93.6327 73.7766C93.1121 74.2104 92.5916 74.6442 92.1578 75.078C91.6372 75.5118 91.1166 75.9456 90.4226 76.0324C90.0755 76.1192 89.7285 76.0324 89.4682 75.8589C89.2079 75.6854 88.9476 75.4251 88.8609 75.078C88.6006 74.4707 88.6006 73.8634 88.6006 73.3428C88.6006 72.2149 88.7741 71.1738 89.0344 70.3062C89.555 68.4842 90.3358 67.1828 90.9431 66.3152C91.2901 65.8814 91.5504 65.6212 91.724 65.3609C91.8975 65.1873 91.9842 65.1006 92.071 65.1006C92.071 65.1006 91.724 65.5344 91.1166 66.402C90.5093 67.2696 89.7285 68.571 89.2947 70.393C89.0344 71.2606 88.8609 72.3017 88.8609 73.3428C88.8609 73.8634 88.8609 74.4707 89.1212 74.9913C89.2947 75.5118 89.8152 75.8589 90.3358 75.7721C90.8564 75.6854 91.3769 75.2516 91.8975 74.8178C92.418 74.384 92.8518 73.9501 93.3724 73.5163C94.4135 72.6487 95.4547 71.6944 96.4958 70.74L96.8428 70.393L96.7561 70.9135C96.7561 71.0871 96.6693 71.2606 96.6693 71.5209C96.3222 72.9958 95.6282 74.2972 95.5414 75.5986C95.5414 76.2927 95.7149 76.9 95.9752 77.4206C96.3223 77.9411 96.8428 78.2882 97.4501 78.2882C98.0575 78.2882 98.578 78.0279 99.0986 77.7676C99.6192 77.4206 100.053 77.0735 100.487 76.8132C101.354 76.1192 102.135 75.4251 102.829 74.731C104.217 73.3428 105.085 72.1282 105.692 71.2606C106.039 70.8268 106.213 70.4797 106.386 70.2194C106.647 70.0459 106.733 69.8724 106.733 69.8724Z" fill="#455A64"/>
<path d="M114.542 96.074C114.021 96.8548 113.501 98.243 113.588 99.1106C113.588 99.9782 114.108 100.933 114.889 101.366C115.757 101.8 116.885 101.627 117.665 101.106C118.533 100.586 119.14 99.8914 119.748 99.1106C118.186 98.1562 116.19 97.0283 114.542 96.074Z" fill="#A96541"/>
<path d="M116.797 101.974C116.797 101.974 115.93 102.147 114.802 101.453C114.281 101.106 113.674 100.412 113.414 99.5445C113.153 98.6769 113.24 97.6358 113.761 96.7682C113.934 96.4211 114.281 96.0741 114.541 95.8138L114.628 95.7271L114.715 95.8138C116.19 96.5947 117.491 97.3755 118.359 97.9828C119.227 98.5901 119.66 99.0239 119.66 99.1107C119.574 99.1975 117.578 97.6358 114.541 96.1609H114.802C114.541 96.4211 114.281 96.6814 114.108 96.9417C113.674 97.7225 113.587 98.6769 113.761 99.4577C113.934 100.239 114.455 100.846 114.889 101.193C115.93 101.887 116.797 101.887 116.797 101.974Z" fill="#2E2E2E"/>
<path d="M93.8056 110.997H89.2072C87.125 110.997 85.0428 111.257 82.9605 111.777L59.0146 117.677V136.504L77.2343 137.198L76.28 156.025L73.9374 175.72C73.9374 175.72 87.2985 187.085 98.0568 187.346C108.902 187.606 127.382 180.318 127.382 180.318L130.939 139.194L142.044 140.495L149.506 121.234C149.506 121.234 131.893 114.727 129.551 114.467C128.683 114.38 118.532 114.38 118.532 114.38C116.016 120.714 110.377 121.148 105.518 120.887C97.7965 120.193 93.5453 110.997 93.8056 110.997Z" fill="#64BD7D"/>
<path d="M77.4074 127.221C77.4074 127.221 77.4074 127.394 77.4074 127.655C77.4074 128.002 77.4074 128.435 77.4074 128.956C77.4074 130.171 77.4074 131.819 77.4074 133.814C77.3206 137.892 77.2339 143.618 76.8868 149.865C76.5398 156.112 75.8457 161.751 75.3251 165.829C75.0649 167.825 74.7178 169.473 74.5443 170.601C74.4575 171.121 74.3708 171.555 74.284 171.902C74.1973 172.163 74.1973 172.336 74.1973 172.336C74.1973 172.336 74.1973 172.163 74.1973 171.902C74.284 171.555 74.284 171.121 74.3708 170.601C74.5443 169.386 74.7178 167.738 74.9781 165.742C75.4987 161.665 76.106 156.025 76.453 149.778C76.8001 143.532 76.9736 137.805 77.1471 133.728C77.2339 131.732 77.2339 130.084 77.3206 128.869C77.3206 128.349 77.4074 127.915 77.4074 127.568C77.4074 127.394 77.4074 127.221 77.4074 127.221Z" fill="#2E2E2E"/>
<path d="M134.496 127.134C134.583 127.134 133.975 128.436 133.281 130.605C132.587 132.774 131.893 135.81 131.372 139.194C130.852 142.578 130.592 145.701 130.331 147.957C130.245 148.998 130.158 149.866 130.071 150.646C129.984 151.254 129.984 151.601 129.897 151.601C129.897 151.601 129.897 151.254 129.897 150.646C129.897 150.039 129.984 149.085 129.984 147.957C130.158 145.701 130.331 142.578 130.852 139.107C131.372 135.637 132.153 132.6 132.934 130.431C133.368 129.39 133.715 128.522 133.975 127.915C134.235 127.481 134.409 127.134 134.496 127.134Z" fill="#2E2E2E"/>
<path d="M113.152 160.103C113.152 160.103 112.892 160.363 112.285 160.797C111.764 161.231 110.897 161.751 109.855 162.359C107.773 163.66 104.823 165.135 101.353 166.436C97.8825 167.738 94.5856 168.519 92.2431 168.866C91.0284 169.039 90.0741 169.213 89.38 169.213C88.6859 169.3 88.3389 169.3 88.3389 169.3C88.3389 169.3 88.6859 169.213 89.38 169.039C90.0741 168.953 91.0285 168.779 92.1563 168.519C94.4989 168.085 97.7958 167.217 101.179 166.003C104.65 164.701 107.6 163.226 109.682 162.012C110.723 161.404 111.591 160.884 112.111 160.537C112.805 160.276 113.152 160.016 113.152 160.103Z" fill="#2E2E2E"/>
<path d="M130.245 142.837C130.245 142.837 130.071 142.837 129.724 142.924C129.291 142.924 128.77 143.011 128.163 143.011C126.861 143.098 124.866 143.184 122.437 143.184C117.665 143.271 110.984 143.358 103.696 143.184C96.4084 143.011 89.7279 142.751 84.956 142.404C82.5268 142.23 80.618 142.143 79.3166 141.97C78.7093 141.883 78.1887 141.883 77.7549 141.796C77.4079 141.796 77.2344 141.709 77.2344 141.709C77.2344 141.709 77.4079 141.709 77.7549 141.709C78.1887 141.709 78.7093 141.709 79.3166 141.796C80.7048 141.883 82.6135 141.97 84.956 142.057C89.7279 142.317 96.4084 142.577 103.696 142.664C110.984 142.837 117.665 142.837 122.437 142.751C124.779 142.751 126.688 142.751 128.163 142.664C128.77 142.664 129.291 142.664 129.724 142.664C130.071 142.751 130.245 142.751 130.245 142.837Z" fill="white"/>
<path d="M68.7305 136.417C68.6438 136.417 68.6438 135.29 68.557 133.381C68.4702 131.385 68.3835 128.869 68.2967 126.006C68.1232 123.23 68.0365 120.627 67.8629 118.632C67.7762 116.723 67.6894 115.595 67.7762 115.595C67.7762 115.595 67.8629 115.855 67.9497 116.376C68.0364 116.896 68.1232 117.677 68.21 118.632C68.3835 120.54 68.6438 123.143 68.7305 126.006C68.9041 128.869 68.904 131.472 68.904 133.381C68.904 134.335 68.904 135.116 68.8173 135.637C68.8173 136.157 68.7305 136.417 68.7305 136.417Z" fill="white"/>
<path d="M144.994 119.239C144.994 119.239 144.994 119.586 144.82 120.106C144.647 120.627 144.473 121.408 144.213 122.362C143.606 124.271 142.738 126.874 141.697 129.737C140.656 132.6 139.528 135.116 138.747 136.938C138.313 137.805 137.966 138.586 137.706 139.107C137.446 139.627 137.272 139.888 137.272 139.888C137.185 139.888 137.706 138.76 138.4 136.851C139.181 135.029 140.135 132.426 141.176 129.65C142.217 126.787 143.172 124.271 143.779 122.362C144.473 120.367 144.907 119.152 144.994 119.239Z" fill="white"/>
<g filter="url(#filter0_d)">
<path d="M174.249 53.7907L175.116 75.533L176.14 83.9621L176.77 109.249L188.823 108.777C188.823 108.777 186.459 82.7805 186.381 75.1391C186.302 67.4978 183.308 52.5303 183.308 52.5303L174.249 53.7907Z" fill="#FFA070"/>
<path d="M183.623 53.7907C183.623 53.7907 185.435 49.2216 185.987 47.1734C186.538 45.1252 189.217 41.5803 189.217 41.5803C189.217 41.5803 187.877 40.635 186.696 41.4227C185.514 42.2105 182.678 45.8342 181.969 45.8342C181.26 45.8342 179.921 44.495 179.842 44.1011C179.763 43.7073 178.267 34.3328 177.321 34.0965C176.376 33.7814 175.116 34.2541 175.194 35.2782C175.194 36.3023 176.691 41.344 175.982 41.4227C175.273 41.5015 173.304 35.2782 172.358 35.2782C171.492 35.2782 170.547 35.9872 170.783 37.0112C171.019 37.9566 172.516 42.6832 171.965 42.9195C171.413 43.077 169.995 37.9566 169.444 37.799C168.813 37.6415 168.026 38.6656 168.262 39.2958C168.42 39.8472 170.31 46.0706 169.601 46.4644C168.813 46.8583 166.765 43.786 166.293 43.5497C165.662 43.2346 165.032 44.5738 166.056 45.8342C166.371 46.2281 173.776 55.2086 174.643 56.154C175.431 57.0205 183.623 53.7907 183.623 53.7907Z" fill="#FFA070"/>
<path d="M172.358 48.7491C172.358 48.6703 172.989 48.5915 174.013 48.7491C175.037 48.9854 176.376 49.6156 177.4 50.876C177.479 50.9548 177.558 51.0336 177.558 51.1123H177.164C177.794 49.7731 178.582 48.6703 179.291 47.9613C180 47.2523 180.472 46.9372 180.472 47.016C180.551 47.0947 178.661 48.5915 177.558 51.2699L177.4 51.585L177.164 51.2699C177.085 51.1911 177.085 51.1123 177.006 51.0336C176.14 49.8519 174.879 49.1429 173.934 48.9066C172.989 48.7491 172.358 48.8278 172.358 48.7491Z" fill="#D8703A"/>
<path d="M238.689 89.1613C236.72 85.3013 233.411 85.5376 231.363 81.7563C229.236 77.975 229.708 75.4542 224.037 73.0909C222.382 72.3819 218.916 72.0668 218.916 72.0668C218.916 72.0668 214.82 67.0251 211.117 66.5524C206.706 66.001 202.767 66.3161 199.222 68.837C195.598 71.3578 192.92 74.9815 190.005 78.2902C187.09 81.5988 183.703 84.7498 179.449 86.0103C179.055 88.1372 181.34 90.2642 183.388 89.7128C182.521 90.2642 181.655 90.7369 180.788 91.2883C182.836 95.4634 186.145 99.0872 190.084 101.529L214.505 104.05C220.334 107.437 227.345 108.698 233.962 107.516C235.538 107.28 237.192 106.807 238.138 105.547C239.713 103.577 239.004 100.741 238.216 98.3782C239.162 99.7174 240.186 100.978 241.131 102.317C243.809 101.214 246.251 99.5598 248.142 97.3541C243.888 96.7239 240.658 93.0214 238.689 89.1613Z" fill="#263238"/>
<path d="M197.017 82.229C199.301 76.3996 207.573 72.5395 213.245 75.0604L224.274 81.0474C228.291 83.2531 230.103 87.9797 228.606 92.3124L226.401 98.7721L216.396 127.053C216.396 127.053 210.645 139.263 200.168 135.088C190.715 131.307 194.575 121.302 194.575 121.302L197.253 113.976C197.253 113.976 189.533 111.14 191.187 100.82C191.896 95.621 194.496 88.6887 197.017 82.229Z" fill="#FFA070"/>
<path d="M198.512 92.3914C198.275 93.0216 198.669 93.8094 199.299 94.0457C200.008 94.2821 200.717 93.967 200.954 93.3367C201.19 92.7065 200.796 91.9188 200.166 91.6824C199.536 91.3673 198.748 91.7612 198.512 92.3914Z" fill="#263238"/>
<path d="M197.646 88.5311C197.725 88.6886 198.749 88.925 199.93 89.7915C201.112 90.5793 201.742 91.6034 201.9 91.6034C201.978 91.6034 201.978 91.367 201.663 90.8944C201.427 90.5005 200.876 89.8703 200.167 89.3189C199.458 88.7674 198.749 88.5311 198.276 88.4523C197.803 88.3735 197.567 88.4523 197.646 88.5311Z" fill="#263238"/>
<path d="M210.171 95.8575C209.935 96.4877 210.328 97.2755 210.959 97.5118C211.668 97.7482 212.377 97.4331 212.613 96.8028C212.849 96.1726 212.455 95.3849 211.825 95.1485C211.116 94.9122 210.407 95.2273 210.171 95.8575Z" fill="#263238"/>
<path d="M210.013 93.3368C210.171 93.4156 211.274 93.0217 212.928 93.0217C214.504 93.0217 215.685 93.4944 215.843 93.4156C215.922 93.3368 215.764 93.1793 215.213 92.943C214.74 92.7066 213.874 92.5491 212.849 92.5491C211.825 92.5491 211.038 92.7066 210.565 92.943C210.092 93.1005 209.935 93.2581 210.013 93.3368Z" fill="#263238"/>
<path d="M202.61 99.9539C202.61 99.8751 201.822 99.4812 200.483 98.9298C200.168 98.7722 199.853 98.6146 199.853 98.4571C199.853 98.2208 200.089 97.9844 200.325 97.7481C200.877 97.1967 201.428 96.6452 201.979 96.015C202.61 95.3848 205.761 91.8399 205.918 91.446C205.761 91.3672 203.791 93.2578 201.507 95.6999C200.955 96.3301 200.404 96.8816 199.931 97.433C199.695 97.6693 199.38 97.9844 199.459 98.4571C199.459 98.6934 199.695 98.9298 199.931 99.0085C200.168 99.1661 200.325 99.1661 200.483 99.2449C201.743 99.7963 202.61 100.033 202.61 99.9539Z" fill="#263238"/>
<path d="M197.094 114.054C197.094 114.054 203.633 116.654 211.431 114.763C211.431 114.763 205.838 120.593 196.228 116.497L197.094 114.054Z" fill="#D8703A"/>
<path d="M211.511 87.9011C211.511 88.3738 212.771 88.4525 214.189 89.004C215.607 89.5554 216.631 90.3432 216.868 89.9493C217.025 89.7917 216.868 89.3191 216.552 88.7676C216.159 88.2162 215.528 87.6648 214.662 87.3497C213.795 87.0346 213.007 87.0346 212.377 87.1921C211.826 87.3497 211.511 87.6648 211.511 87.9011Z" fill="#263238"/>
<path d="M198.591 83.3319C198.67 83.8045 199.773 83.8045 200.954 84.2772C202.136 84.6711 203.003 85.3801 203.396 85.065C203.554 84.9074 203.554 84.5135 203.239 83.9621C202.924 83.4894 202.372 82.8592 201.585 82.6229C200.797 82.3078 199.93 82.3866 199.379 82.5441C198.827 82.7804 198.512 83.0955 198.591 83.3319Z" fill="#263238"/>
<path d="M206.233 102.317C206.391 103.105 206.233 104.523 205.918 105.232C205.524 105.941 204.815 106.571 204.028 106.571C203.161 106.65 202.295 106.098 201.822 105.389C201.271 104.68 201.034 103.814 200.798 102.947C202.452 102.79 204.579 102.553 206.233 102.317Z" fill="#FFD4BE"/>
<path d="M202.214 106.413C202.214 106.335 202.923 106.65 204.026 106.413C204.577 106.256 205.208 105.941 205.602 105.389C206.074 104.838 206.311 104.05 206.232 103.184C206.232 102.868 206.074 102.553 205.995 102.238L206.153 102.317C203.16 102.396 200.875 102.947 200.875 102.868C200.875 102.79 201.426 102.632 202.372 102.396C203.317 102.159 204.656 102.002 206.153 101.923H206.311L206.389 102.002C206.547 102.317 206.626 102.711 206.704 103.105C206.783 104.05 206.468 104.917 205.995 105.547C205.444 106.177 204.735 106.492 204.184 106.571C202.844 106.965 202.214 106.492 202.214 106.413Z" fill="#263238"/>
<path d="M229.392 81.5989C228.368 79.8658 226.714 78.6054 224.981 77.5813C221.199 75.218 216.867 73.7212 212.376 73.1698L209.855 71.8306C209.934 76.5572 213.716 84.7499 217.654 87.3496C218.915 88.1373 220.333 88.8463 221.199 90.1067C222.145 91.4459 222.145 93.179 221.908 94.8333C221.672 96.4089 221.121 97.9844 221.042 99.6387C221.042 100.348 221.042 101.057 221.514 101.687C222.066 102.396 223.011 102.632 223.878 102.475C224.744 102.317 225.453 101.766 226.083 101.057C227.344 99.7175 227.974 97.9056 228.683 96.1725C229.55 93.8092 230.416 91.4459 230.731 88.9251C231.046 86.3255 230.731 83.7258 229.392 81.5989Z" fill="#263238"/>
<path d="M224.587 98.457C224.745 98.457 231.205 98.6934 229.078 104.602C226.872 110.589 221.358 107.122 221.436 106.965C221.436 106.807 224.587 98.457 224.587 98.457Z" fill="#FFA070"/>
<path d="M224.035 105.389C224.035 105.389 224.114 105.468 224.271 105.626C224.429 105.783 224.665 105.941 225.059 105.941C225.768 105.941 226.635 105.153 227.107 104.05C227.344 103.499 227.422 102.947 227.344 102.475C227.344 102.002 227.186 101.529 226.871 101.372C226.556 101.214 226.319 101.293 226.162 101.45C226.004 101.608 226.004 101.687 226.004 101.687C226.004 101.687 225.926 101.529 226.083 101.293C226.162 101.214 226.241 101.057 226.477 100.978C226.635 100.899 226.871 100.899 227.107 101.057C227.58 101.293 227.816 101.844 227.816 102.396C227.895 102.947 227.816 103.577 227.58 104.208C227.107 105.389 226.083 106.256 225.138 106.256C224.665 106.177 224.35 105.941 224.271 105.783C223.956 105.547 223.956 105.389 224.035 105.389Z" fill="#D8703A"/>
<path d="M227.185 95.6999C227.185 95.6211 227.973 95.6211 229.234 95.1484C229.864 94.9121 230.651 94.4394 231.36 93.8092C232.069 93.179 232.778 92.3125 233.251 91.1308L233.409 91.3672C232.148 91.761 230.651 91.761 229.155 91.2884L228.761 91.2096L229.076 90.9733C230.258 90.1855 231.282 88.7675 231.518 87.1132L231.754 87.3495C230.179 87.5859 228.446 87.5859 226.634 87.3495C223.562 86.8769 220.804 85.6165 218.677 83.9622C216.55 82.3078 215.054 80.3384 214.187 78.5266C213.242 76.7147 212.769 75.1392 212.612 74.0363C212.533 73.4849 212.454 73.0122 212.454 72.7759C212.454 72.4608 212.454 72.3032 212.454 72.3032C212.533 72.3032 212.533 72.9334 212.848 74.0363C213.084 75.1392 213.557 76.7147 214.581 78.4478C215.526 80.1809 217.023 82.1503 219.071 83.7258C221.12 85.3014 223.877 86.5618 226.87 87.0344C228.603 87.2708 230.258 87.2708 231.833 87.0344L232.069 86.9557L231.991 87.192C231.676 88.9251 230.651 90.4218 229.391 91.2884L229.312 90.9733C230.73 91.4459 232.227 91.4459 233.409 91.1308L233.724 91.052L233.566 91.3672C233.094 92.5488 232.306 93.4153 231.518 94.0456C230.73 94.6758 229.942 95.0697 229.312 95.306C228.682 95.5423 228.131 95.6211 227.737 95.6999C227.343 95.6999 227.185 95.6999 227.185 95.6999Z" fill="#455A64"/>
<path d="M193.156 80.102C193.156 80.102 193.156 79.9444 193.314 79.6293C193.471 79.3142 193.629 78.9203 193.944 78.3689C194.574 77.3448 195.756 75.9268 197.725 74.9027L197.804 75.2178C196.622 75.2178 195.283 75.2178 193.944 75.2178H193.393L193.865 74.9027C194.811 74.1937 195.835 73.4847 197.016 72.8545C200.64 70.9639 204.421 70.4912 207.1 70.6488C208.439 70.7275 209.463 70.8851 210.251 71.0426C210.96 71.2002 211.354 71.3578 211.354 71.3578C211.354 71.4365 209.778 70.9639 207.1 70.8851C204.5 70.8063 200.798 71.279 197.253 73.1696C196.15 73.7211 195.126 74.43 194.18 75.139L194.023 74.8239C195.441 74.8239 196.701 74.9027 197.883 74.9027H198.592L197.962 75.2178C196.071 76.1631 194.889 77.5023 194.259 78.5264C193.471 79.4717 193.235 80.102 193.156 80.102Z" fill="#455A64"/>
<path d="M214.189 98.6143C213.007 98.2992 211.668 98.2205 210.487 98.5356C209.856 98.6931 209.147 99.0082 208.911 99.6384C208.754 100.111 208.832 100.584 209.069 100.978C209.305 101.372 209.699 101.687 210.093 101.923C210.959 102.474 211.905 102.789 212.929 102.632C213.874 102.474 215.213 101.844 215.371 100.82C215.45 100.111 215.134 99.0082 214.189 98.6143Z" fill="#DF8557"/>
<path d="M197.409 95.4635C196.464 95.1483 195.44 95.0696 194.495 95.3847C193.943 95.5422 193.392 95.8573 193.234 96.4876C193.077 96.9602 193.156 97.4329 193.392 97.8268C193.549 98.2206 193.865 98.5357 194.18 98.7721C194.81 99.3235 195.598 99.6386 196.385 99.4811C197.173 99.3235 198.118 98.6933 198.276 97.6692C198.355 96.9602 198.118 95.8573 197.409 95.4635Z" fill="#DF8557"/>
<path d="M252.117 74.7212C251.802 75.4302 238.725 95.4394 236.598 97.8815C234.471 100.324 223.206 116.709 223.206 116.709L231.399 125.69C231.399 125.69 239.907 112.298 245.736 106.153C252.747 98.6693 261.649 77.0845 261.649 77.0845L252.117 74.7212Z" fill="#FFA070"/>
<path d="M252.354 75.2727C252.354 75.2727 250.305 70.7825 249.675 68.7343C249.045 66.6861 246.209 63.2199 246.209 63.2199C246.209 63.2199 247.469 62.1958 248.73 62.9048C249.99 63.6138 252.984 67.1587 253.693 67.08C254.402 67.0012 255.741 65.662 255.741 65.2681C255.741 64.8742 256.844 55.4998 257.789 55.1059C258.734 54.7908 259.995 55.1847 259.995 56.2088C259.995 57.2329 258.813 62.2746 259.443 62.3534C260.152 62.4321 261.886 56.0512 262.752 56.0512C263.619 56.0512 264.564 56.6814 264.406 57.7055C264.249 58.6509 262.91 63.4562 263.54 63.6138C264.091 63.7713 265.273 58.5721 265.903 58.4145C266.533 58.257 267.321 59.2023 267.164 59.8325C267.006 60.3839 265.43 66.6861 266.139 67.08C266.927 67.4738 268.897 64.3228 269.369 64.0864C270 63.7713 270.709 65.0318 269.684 66.371C269.369 66.7648 262.437 76.0605 261.492 77.0846C260.783 78.1087 252.354 75.2727 252.354 75.2727Z" fill="#FFA070"/>
<path d="M263.461 69.7586C263.461 69.8373 262.831 69.8373 261.886 70.1524C260.94 70.4675 259.759 71.1765 258.892 72.437C258.814 72.5157 258.814 72.5945 258.735 72.6733L258.498 72.9884L258.341 72.6733C257.08 70.0737 255.111 68.6557 255.19 68.5769C255.19 68.5769 255.741 68.8132 256.45 69.5222C257.159 70.1524 258.026 71.1765 258.735 72.5945H258.341C258.42 72.5157 258.42 72.437 258.498 72.3582C259.365 71.019 260.783 70.31 261.728 70.0737C262.752 69.601 263.461 69.6798 263.461 69.7586Z" fill="#D8703A"/>
<path d="M178.503 123.035L175.51 103.026C175.51 103.026 191.895 103.578 191.738 104.444C191.58 105.389 194.259 119.175 194.259 119.175L178.503 123.035Z" fill="#70DDFF"/>
<path d="M194.258 119.175L195.282 119.096C197.567 123.744 206.39 125.004 214.346 121.853L216.237 122.168L226.636 132.409L214.898 154.152L215.292 181.802C215.292 181.802 205.996 181.487 196.385 185.19C186.775 188.892 185.751 187.474 172.516 183.142C159.282 178.809 160.857 178.73 164.796 171.64C168.735 164.55 178.661 122.562 178.661 122.562L194.258 119.175Z" fill="#70DDFF"/>
<path d="M214.031 121.932C214.268 121.932 223.721 111.219 223.721 111.219L237.664 119.648L225.611 133.985L214.031 121.932Z" fill="#70DDFF"/>
<path d="M195.047 161.715C195.047 161.715 194.732 161.399 194.259 160.769C193.786 160.139 193.077 159.194 192.211 158.012C190.556 155.649 188.43 152.261 186.539 148.323C184.569 144.384 183.23 140.602 182.364 137.924C181.891 136.585 181.576 135.403 181.418 134.615C181.261 133.828 181.103 133.434 181.182 133.355C181.182 133.355 181.34 133.749 181.576 134.537C181.812 135.324 182.206 136.427 182.679 137.766C183.624 140.445 185.042 144.147 187.012 148.086C188.981 152.025 191.029 155.412 192.605 157.776C193.392 158.957 194.023 159.903 194.495 160.612C194.81 161.321 195.047 161.715 195.047 161.715Z" fill="#263238"/>
<path d="M221.357 130.677C221.279 130.677 221.121 130.125 220.964 129.259C220.806 128.313 220.727 127.053 220.964 125.635C221.2 124.217 221.673 123.035 222.066 122.169C222.539 121.381 222.854 120.908 222.933 120.908C223.091 120.987 221.751 122.878 221.357 125.714C220.806 128.471 221.436 130.677 221.357 130.677Z" fill="#263238"/>
<path d="M194.494 119.175C194.494 119.333 191.737 119.097 188.428 119.412C185.12 119.727 182.441 120.436 182.441 120.278C182.441 120.199 183.072 119.963 184.174 119.727C185.277 119.412 186.774 119.175 188.428 119.018C190.083 118.86 191.658 118.86 192.761 118.939C193.785 118.939 194.494 119.097 194.494 119.175Z" fill="#263238"/>
<g opacity="0.3">
<g opacity="0.3">
<g opacity="0.3">
<path opacity="0.3" d="M181.89 148.717C181.89 155.806 184.095 162.896 188.113 168.726C189.767 171.168 192.288 173.689 195.203 173.452C189.531 165.969 185.041 157.618 181.89 148.717Z" fill="#2E2E2E"/>
</g>
</g>
</g>
</g>
<g filter="url(#filter1_d)">
<path fill-rule="evenodd" clip-rule="evenodd" d="M294.685 164.861C285.037 235.584 224.394 290.079 151.023 290.079C76.6658 290.079 15.381 234.109 7 162C10.0996 163.182 13.3382 164.802 16.8273 166.546C30.7286 173.498 48.6052 182.437 77.5025 173.612C121.715 160.109 166.922 160.109 219.083 177.277C244.928 185.783 272.34 175.004 294.685 164.861Z" fill="white"/>
</g>
<path d="M54.8818 196.4C54.8818 197.629 54.4613 198.575 53.6201 199.239C52.7845 199.898 51.5864 200.227 50.0259 200.227H48.5981V205H47.187V192.864H50.333C53.3656 192.864 54.8818 194.043 54.8818 196.4ZM48.5981 199.015H49.8682C51.1188 199.015 52.0236 198.813 52.5825 198.409C53.1414 198.005 53.4209 197.358 53.4209 196.467C53.4209 195.664 53.158 195.067 52.6323 194.674C52.1066 194.281 51.2876 194.084 50.1753 194.084H48.5981V199.015ZM62.8174 205L62.5435 203.705H62.4771C62.0233 204.275 61.5695 204.662 61.1157 204.867C60.6675 205.066 60.1058 205.166 59.4307 205.166C58.5286 205.166 57.8203 204.934 57.3057 204.469C56.7965 204.004 56.542 203.343 56.542 202.485C56.542 200.648 58.0112 199.685 60.9497 199.596L62.4937 199.546V198.982C62.4937 198.268 62.3387 197.742 62.0288 197.405C61.7244 197.062 61.2347 196.89 60.5596 196.89C59.8014 196.89 58.9437 197.123 57.9863 197.587L57.563 196.533C58.0112 196.29 58.501 196.099 59.0322 195.96C59.569 195.822 60.1058 195.753 60.6426 195.753C61.7272 195.753 62.5296 195.994 63.0498 196.475C63.5755 196.957 63.8384 197.729 63.8384 198.791V205H62.8174ZM59.7046 204.029C60.5623 204.029 61.2347 203.794 61.7217 203.323C62.2142 202.853 62.4604 202.194 62.4604 201.348V200.526L61.0825 200.584C59.9868 200.623 59.1955 200.794 58.7085 201.099C58.2271 201.397 57.9863 201.865 57.9863 202.501C57.9863 203 58.1357 203.379 58.4346 203.639C58.7389 203.899 59.1623 204.029 59.7046 204.029ZM68.0635 205H66.6855V195.902H68.0635V205ZM66.5693 193.437C66.5693 193.122 66.6468 192.892 66.8018 192.748C66.9567 192.599 67.1504 192.524 67.3828 192.524C67.6042 192.524 67.7951 192.599 67.9556 192.748C68.116 192.897 68.1963 193.127 68.1963 193.437C68.1963 193.747 68.116 193.979 67.9556 194.134C67.7951 194.284 67.6042 194.358 67.3828 194.358C67.1504 194.358 66.9567 194.284 66.8018 194.134C66.6468 193.979 66.5693 193.747 66.5693 193.437ZM75.1357 195.736C75.5397 195.736 75.9022 195.77 76.2231 195.836L76.0322 197.114C75.6559 197.031 75.3239 196.99 75.0361 196.99C74.3001 196.99 73.6693 197.289 73.1436 197.886C72.6234 198.484 72.3633 199.228 72.3633 200.119V205H70.9854V195.902H72.1226L72.2803 197.587H72.3467C72.6842 196.995 73.091 196.539 73.5669 196.218C74.0428 195.897 74.5658 195.736 75.1357 195.736ZM79.3027 205H77.9248V195.902H79.3027V205ZM77.8086 193.437C77.8086 193.122 77.8861 192.892 78.041 192.748C78.196 192.599 78.3896 192.524 78.6221 192.524C78.8434 192.524 79.0343 192.599 79.1948 192.748C79.3553 192.897 79.4355 193.127 79.4355 193.437C79.4355 193.747 79.3553 193.979 79.1948 194.134C79.0343 194.284 78.8434 194.358 78.6221 194.358C78.3896 194.358 78.196 194.284 78.041 194.134C77.8861 193.979 77.8086 193.747 77.8086 193.437ZM88.4502 205V199.115C88.4502 198.373 88.2814 197.82 87.9438 197.455C87.6063 197.089 87.0778 196.907 86.3584 196.907C85.4066 196.907 84.7093 197.164 84.2666 197.679C83.8239 198.193 83.6025 199.043 83.6025 200.227V205H82.2246V195.902H83.3452L83.5693 197.147H83.6357C83.918 196.699 84.3136 196.353 84.8228 196.11C85.3319 195.861 85.8991 195.736 86.5244 195.736C87.6201 195.736 88.4447 196.002 88.998 196.533C89.5514 197.059 89.8281 197.903 89.8281 199.065V205H88.4502ZM100.113 195.902V196.774L98.4277 196.973C98.5827 197.167 98.721 197.421 98.8428 197.737C98.9645 198.047 99.0254 198.398 99.0254 198.791C99.0254 199.682 98.721 200.393 98.1123 200.924C97.5036 201.456 96.668 201.721 95.6055 201.721C95.3343 201.721 95.0798 201.699 94.8418 201.655C94.2552 201.965 93.9619 202.355 93.9619 202.825C93.9619 203.074 94.0643 203.26 94.269 203.381C94.4738 203.498 94.8252 203.556 95.3232 203.556H96.9336C97.9186 203.556 98.674 203.763 99.1997 204.178C99.731 204.593 99.9966 205.196 99.9966 205.988C99.9966 206.995 99.5926 207.761 98.7847 208.287C97.9767 208.818 96.798 209.084 95.2485 209.084C94.0588 209.084 93.1401 208.863 92.4927 208.42C91.8507 207.977 91.5298 207.352 91.5298 206.544C91.5298 205.991 91.7069 205.512 92.061 205.108C92.4152 204.704 92.9132 204.43 93.5552 204.286C93.3228 204.181 93.1263 204.018 92.9658 203.796C92.8109 203.575 92.7334 203.318 92.7334 203.024C92.7334 202.692 92.8219 202.402 92.999 202.153C93.1761 201.904 93.4556 201.663 93.8374 201.431C93.367 201.237 92.9824 200.908 92.6836 200.443C92.3903 199.978 92.2437 199.447 92.2437 198.849C92.2437 197.853 92.5425 197.087 93.1401 196.55C93.7378 196.007 94.5845 195.736 95.6802 195.736C96.1561 195.736 96.585 195.792 96.9668 195.902H100.113ZM92.8579 206.527C92.8579 207.02 93.0654 207.393 93.4805 207.648C93.8955 207.903 94.4904 208.03 95.2651 208.03C96.4217 208.03 97.2767 207.855 97.8301 207.507C98.389 207.164 98.6685 206.696 98.6685 206.104C98.6685 205.611 98.5163 205.268 98.2119 205.075C97.9076 204.887 97.3348 204.792 96.4937 204.792H94.8418C94.2165 204.792 93.7295 204.942 93.3809 205.241C93.0322 205.54 92.8579 205.968 92.8579 206.527ZM93.605 198.816C93.605 199.452 93.7848 199.934 94.1445 200.26C94.5042 200.587 95.005 200.75 95.647 200.75C96.9917 200.75 97.6641 200.097 97.6641 198.791C97.6641 197.424 96.9834 196.741 95.6221 196.741C94.9746 196.741 94.4766 196.915 94.1279 197.264C93.7793 197.612 93.605 198.13 93.605 198.816ZM107.758 200.343C107.996 200.006 108.358 199.563 108.845 199.015L111.784 195.902H113.419L109.733 199.779L113.676 205H112.008L108.795 200.7L107.758 201.597V205H106.396V192.084H107.758V198.932C107.758 199.236 107.736 199.707 107.691 200.343H107.758ZM116.706 205H115.328V195.902H116.706V205ZM115.212 193.437C115.212 193.122 115.289 192.892 115.444 192.748C115.599 192.599 115.793 192.524 116.025 192.524C116.247 192.524 116.438 192.599 116.598 192.748C116.759 192.897 116.839 193.127 116.839 193.437C116.839 193.747 116.759 193.979 116.598 194.134C116.438 194.284 116.247 194.358 116.025 194.358C115.793 194.358 115.599 194.284 115.444 194.134C115.289 193.979 115.212 193.747 115.212 193.437ZM125.82 203.78H125.746C125.109 204.704 124.157 205.166 122.89 205.166C121.7 205.166 120.773 204.759 120.109 203.946C119.451 203.132 119.122 201.976 119.122 200.476C119.122 198.976 119.454 197.812 120.118 196.981C120.782 196.151 121.706 195.736 122.89 195.736C124.124 195.736 125.07 196.185 125.729 197.081H125.837L125.779 196.425L125.746 195.786V192.084H127.124V205H126.003L125.82 203.78ZM123.064 204.012C124.005 204.012 124.686 203.758 125.106 203.249C125.533 202.734 125.746 201.907 125.746 200.767V200.476C125.746 199.187 125.53 198.268 125.098 197.72C124.672 197.167 123.989 196.89 123.048 196.89C122.24 196.89 121.62 197.206 121.188 197.836C120.762 198.462 120.549 199.347 120.549 200.493C120.549 201.655 120.762 202.532 121.188 203.124C121.615 203.716 122.24 204.012 123.064 204.012ZM135.922 202.518C135.922 203.365 135.607 204.018 134.976 204.477C134.345 204.936 133.46 205.166 132.32 205.166C131.113 205.166 130.173 204.975 129.498 204.593V203.315C129.935 203.536 130.402 203.711 130.9 203.838C131.404 203.965 131.888 204.029 132.353 204.029C133.072 204.029 133.626 203.915 134.013 203.688C134.401 203.456 134.594 203.105 134.594 202.634C134.594 202.28 134.439 201.979 134.129 201.729C133.825 201.475 133.227 201.176 132.336 200.833C131.49 200.518 130.887 200.244 130.527 200.011C130.173 199.773 129.907 199.505 129.73 199.206C129.558 198.907 129.473 198.55 129.473 198.135C129.473 197.394 129.774 196.81 130.377 196.384C130.981 195.952 131.808 195.736 132.859 195.736C133.839 195.736 134.796 195.936 135.731 196.334L135.242 197.455C134.329 197.078 133.501 196.89 132.76 196.89C132.107 196.89 131.614 196.993 131.282 197.197C130.95 197.402 130.784 197.684 130.784 198.044C130.784 198.287 130.845 198.495 130.967 198.667C131.094 198.838 131.296 199.001 131.573 199.156C131.849 199.311 132.381 199.535 133.167 199.829C134.246 200.222 134.973 200.617 135.35 201.016C135.731 201.414 135.922 201.915 135.922 202.518ZM146.821 195.753C148.017 195.753 148.944 196.162 149.602 196.981C150.266 197.795 150.598 198.949 150.598 200.443C150.598 201.937 150.263 203.099 149.594 203.929C148.93 204.754 148.006 205.166 146.821 205.166C146.229 205.166 145.687 205.058 145.194 204.842C144.707 204.621 144.298 204.283 143.966 203.83H143.866L143.576 205H142.588V192.084H143.966V195.222C143.966 195.924 143.944 196.555 143.899 197.114H143.966C144.608 196.207 145.56 195.753 146.821 195.753ZM146.622 196.907C145.681 196.907 145.003 197.178 144.588 197.72C144.173 198.257 143.966 199.165 143.966 200.443C143.966 201.721 144.179 202.637 144.605 203.19C145.031 203.738 145.715 204.012 146.655 204.012C147.502 204.012 148.133 203.705 148.548 203.091C148.963 202.471 149.17 201.583 149.17 200.426C149.17 199.242 148.963 198.359 148.548 197.778C148.133 197.197 147.491 196.907 146.622 196.907ZM158.608 205L158.334 203.705H158.268C157.814 204.275 157.361 204.662 156.907 204.867C156.458 205.066 155.897 205.166 155.222 205.166C154.32 205.166 153.611 204.934 153.097 204.469C152.588 204.004 152.333 203.343 152.333 202.485C152.333 200.648 153.802 199.685 156.741 199.596L158.285 199.546V198.982C158.285 198.268 158.13 197.742 157.82 197.405C157.515 197.062 157.026 196.89 156.351 196.89C155.592 196.89 154.735 197.123 153.777 197.587L153.354 196.533C153.802 196.29 154.292 196.099 154.823 195.96C155.36 195.822 155.897 195.753 156.434 195.753C157.518 195.753 158.321 195.994 158.841 196.475C159.367 196.957 159.629 197.729 159.629 198.791V205H158.608ZM155.496 204.029C156.353 204.029 157.026 203.794 157.513 203.323C158.005 202.853 158.251 202.194 158.251 201.348V200.526L156.874 200.584C155.778 200.623 154.986 200.794 154.5 201.099C154.018 201.397 153.777 201.865 153.777 202.501C153.777 203 153.927 203.379 154.226 203.639C154.53 203.899 154.953 204.029 155.496 204.029ZM168.345 202.518C168.345 203.365 168.03 204.018 167.399 204.477C166.768 204.936 165.883 205.166 164.743 205.166C163.536 205.166 162.596 204.975 161.92 204.593V203.315C162.358 203.536 162.825 203.711 163.323 203.838C163.827 203.965 164.311 204.029 164.776 204.029C165.495 204.029 166.049 203.915 166.436 203.688C166.823 203.456 167.017 203.105 167.017 202.634C167.017 202.28 166.862 201.979 166.552 201.729C166.248 201.475 165.65 201.176 164.759 200.833C163.913 200.518 163.309 200.244 162.95 200.011C162.596 199.773 162.33 199.505 162.153 199.206C161.981 198.907 161.896 198.55 161.896 198.135C161.896 197.394 162.197 196.81 162.8 196.384C163.403 195.952 164.231 195.736 165.282 195.736C166.262 195.736 167.219 195.936 168.154 196.334L167.665 197.455C166.751 197.078 165.924 196.89 165.183 196.89C164.53 196.89 164.037 196.993 163.705 197.197C163.373 197.402 163.207 197.684 163.207 198.044C163.207 198.287 163.268 198.495 163.39 198.667C163.517 198.838 163.719 199.001 163.996 199.156C164.272 199.311 164.804 199.535 165.589 199.829C166.668 200.222 167.396 200.617 167.772 201.016C168.154 201.414 168.345 201.915 168.345 202.518ZM174.438 205.166C173.093 205.166 172.031 204.757 171.25 203.938C170.476 203.118 170.088 201.981 170.088 200.526C170.088 199.059 170.448 197.895 171.167 197.031C171.892 196.168 172.864 195.736 174.081 195.736C175.221 195.736 176.123 196.113 176.787 196.865C177.451 197.612 177.783 198.6 177.783 199.829V200.7H171.516C171.544 201.768 171.812 202.579 172.321 203.132C172.836 203.686 173.558 203.962 174.488 203.962C175.467 203.962 176.436 203.758 177.393 203.348V204.577C176.906 204.787 176.444 204.936 176.007 205.025C175.575 205.119 175.052 205.166 174.438 205.166ZM174.064 196.89C173.334 196.89 172.75 197.128 172.313 197.604C171.881 198.08 171.627 198.738 171.549 199.58H176.306C176.306 198.711 176.112 198.047 175.725 197.587C175.337 197.123 174.784 196.89 174.064 196.89ZM186.333 203.78H186.258C185.622 204.704 184.67 205.166 183.403 205.166C182.213 205.166 181.286 204.759 180.622 203.946C179.964 203.132 179.634 201.976 179.634 200.476C179.634 198.976 179.966 197.812 180.63 196.981C181.294 196.151 182.219 195.736 183.403 195.736C184.637 195.736 185.583 196.185 186.242 197.081H186.35L186.292 196.425L186.258 195.786V192.084H187.636V205H186.516L186.333 203.78ZM183.577 204.012C184.518 204.012 185.199 203.758 185.619 203.249C186.045 202.734 186.258 201.907 186.258 200.767V200.476C186.258 199.187 186.042 198.268 185.611 197.72C185.185 197.167 184.501 196.89 183.561 196.89C182.753 196.89 182.133 197.206 181.701 197.836C181.275 198.462 181.062 199.347 181.062 200.493C181.062 201.655 181.275 202.532 181.701 203.124C182.127 203.716 182.753 204.012 183.577 204.012ZM202.835 200.443C202.835 201.926 202.461 203.085 201.714 203.921C200.967 204.751 199.935 205.166 198.618 205.166C197.805 205.166 197.083 204.975 196.452 204.593C195.821 204.211 195.334 203.664 194.991 202.95C194.648 202.236 194.476 201.4 194.476 200.443C194.476 198.96 194.847 197.806 195.588 196.981C196.33 196.151 197.359 195.736 198.676 195.736C199.949 195.736 200.959 196.16 201.706 197.006C202.459 197.853 202.835 198.999 202.835 200.443ZM195.904 200.443C195.904 201.605 196.136 202.49 196.601 203.099C197.066 203.708 197.749 204.012 198.651 204.012C199.553 204.012 200.237 203.711 200.702 203.107C201.172 202.499 201.407 201.611 201.407 200.443C201.407 199.286 201.172 198.409 200.702 197.812C200.237 197.208 199.548 196.907 198.635 196.907C197.733 196.907 197.052 197.203 196.593 197.795C196.133 198.387 195.904 199.27 195.904 200.443ZM211.484 205V199.115C211.484 198.373 211.316 197.82 210.978 197.455C210.64 197.089 210.112 196.907 209.393 196.907C208.441 196.907 207.743 197.164 207.301 197.679C206.858 198.193 206.637 199.043 206.637 200.227V205H205.259V195.902H206.379L206.604 197.147H206.67C206.952 196.699 207.348 196.353 207.857 196.11C208.366 195.861 208.933 195.736 209.559 195.736C210.654 195.736 211.479 196.002 212.032 196.533C212.586 197.059 212.862 197.903 212.862 199.065V205H211.484ZM223.056 204.029C223.299 204.029 223.534 204.012 223.761 203.979C223.988 203.94 224.168 203.902 224.301 203.863V204.917C224.151 204.989 223.93 205.047 223.637 205.091C223.349 205.141 223.089 205.166 222.856 205.166C221.097 205.166 220.217 204.239 220.217 202.385V196.973H218.914V196.309L220.217 195.736L220.798 193.794H221.595V195.902H224.234V196.973H221.595V202.327C221.595 202.875 221.725 203.296 221.985 203.589C222.245 203.882 222.602 204.029 223.056 204.029ZM232.353 205V199.115C232.353 198.373 232.184 197.82 231.846 197.455C231.509 197.089 230.98 196.907 230.261 196.907C229.303 196.907 228.603 197.167 228.161 197.687C227.723 198.207 227.505 199.059 227.505 200.244V205H226.127V192.084H227.505V195.994C227.505 196.464 227.483 196.854 227.438 197.164H227.521C227.793 196.727 228.177 196.384 228.675 196.135C229.179 195.88 229.752 195.753 230.394 195.753C231.506 195.753 232.339 196.019 232.892 196.55C233.451 197.076 233.73 197.914 233.73 199.065V205H232.353ZM240.413 205.166C239.068 205.166 238.005 204.757 237.225 203.938C236.45 203.118 236.063 201.981 236.063 200.526C236.063 199.059 236.423 197.895 237.142 197.031C237.867 196.168 238.838 195.736 240.056 195.736C241.196 195.736 242.098 196.113 242.762 196.865C243.426 197.612 243.758 198.6 243.758 199.829V200.7H237.491C237.518 201.768 237.787 202.579 238.296 203.132C238.811 203.686 239.533 203.962 240.462 203.962C241.442 203.962 242.41 203.758 243.368 203.348V204.577C242.881 204.787 242.419 204.936 241.981 205.025C241.55 205.119 241.027 205.166 240.413 205.166ZM240.039 196.89C239.309 196.89 238.725 197.128 238.288 197.604C237.856 198.08 237.601 198.738 237.524 199.58H242.28C242.28 198.711 242.087 198.047 241.699 197.587C241.312 197.123 240.758 196.89 240.039 196.89ZM247.493 205H246.115V195.902H247.493V205ZM245.999 193.437C245.999 193.122 246.076 192.892 246.231 192.748C246.386 192.599 246.58 192.524 246.812 192.524C247.034 192.524 247.225 192.599 247.385 192.748C247.546 192.897 247.626 193.127 247.626 193.437C247.626 193.747 247.546 193.979 247.385 194.134C247.225 194.284 247.034 194.358 246.812 194.358C246.58 194.358 246.386 194.284 246.231 194.134C246.076 193.979 245.999 193.747 245.999 193.437ZM254.565 195.736C254.969 195.736 255.332 195.77 255.653 195.836L255.462 197.114C255.086 197.031 254.754 196.99 254.466 196.99C253.73 196.99 253.099 197.289 252.573 197.886C252.053 198.484 251.793 199.228 251.793 200.119V205H250.415V195.902H251.552L251.71 197.587H251.776C252.114 196.995 252.521 196.539 252.997 196.218C253.472 195.897 253.995 195.736 254.565 195.736ZM65.291 228.166C64.6989 228.166 64.1566 228.058 63.6641 227.842C63.1771 227.621 62.7676 227.283 62.4355 226.83H62.3359C62.4023 227.361 62.4355 227.864 62.4355 228.34V232.084H61.0576V218.902H62.1782L62.3691 220.147H62.4355C62.7897 219.649 63.202 219.29 63.6724 219.068C64.1427 218.847 64.6823 218.736 65.291 218.736C66.4974 218.736 67.4271 219.149 68.0801 219.973C68.7386 220.798 69.0679 221.954 69.0679 223.443C69.0679 224.937 68.7331 226.099 68.0635 226.929C67.3994 227.754 66.4753 228.166 65.291 228.166ZM65.0918 219.907C64.1621 219.907 63.4897 220.164 63.0747 220.679C62.6597 221.193 62.4466 222.012 62.4355 223.136V223.443C62.4355 224.721 62.6486 225.637 63.0747 226.19C63.5008 226.738 64.1842 227.012 65.125 227.012C65.9108 227.012 66.5251 226.694 66.9678 226.058C67.416 225.421 67.6401 224.544 67.6401 223.426C67.6401 222.292 67.416 221.423 66.9678 220.82C66.5251 220.211 65.8997 219.907 65.0918 219.907ZM75.6338 218.736C76.0378 218.736 76.4002 218.77 76.7212 218.836L76.5303 220.114C76.154 220.031 75.8219 219.99 75.5342 219.99C74.7982 219.99 74.1673 220.289 73.6416 220.886C73.1214 221.484 72.8613 222.228 72.8613 223.119V228H71.4834V218.902H72.6206L72.7783 220.587H72.8447C73.1823 219.995 73.589 219.539 74.0649 219.218C74.5409 218.897 75.0638 218.736 75.6338 218.736ZM82.2661 228.166C80.9214 228.166 79.8589 227.757 79.0786 226.938C78.3039 226.118 77.9165 224.981 77.9165 223.526C77.9165 222.059 78.2762 220.895 78.9956 220.031C79.7205 219.168 80.6917 218.736 81.9092 218.736C83.0492 218.736 83.9512 219.113 84.6152 219.865C85.2793 220.612 85.6113 221.6 85.6113 222.829V223.7H79.3442C79.3719 224.768 79.6403 225.579 80.1494 226.132C80.6641 226.686 81.3862 226.962 82.3159 226.962C83.2954 226.962 84.2638 226.758 85.2212 226.348V227.577C84.7342 227.787 84.2721 227.936 83.835 228.025C83.4033 228.119 82.8804 228.166 82.2661 228.166ZM81.8926 219.89C81.1621 219.89 80.5783 220.128 80.1411 220.604C79.7095 221.08 79.4549 221.738 79.3774 222.58H84.1338C84.1338 221.711 83.9401 221.047 83.5527 220.587C83.1654 220.123 82.612 219.89 81.8926 219.89ZM92.0693 219.973H89.7534V228H88.3755V219.973H86.7485V219.351L88.3755 218.853V218.346C88.3755 216.111 89.3522 214.993 91.3057 214.993C91.7871 214.993 92.3516 215.09 92.999 215.283L92.6421 216.387C92.1108 216.216 91.6571 216.13 91.2808 216.13C90.7606 216.13 90.376 216.304 90.127 216.653C89.8779 216.996 89.7534 217.549 89.7534 218.313V218.902H92.0693V219.973ZM97.5728 228.166C96.228 228.166 95.1655 227.757 94.3853 226.938C93.6105 226.118 93.2231 224.981 93.2231 223.526C93.2231 222.059 93.5828 220.895 94.3022 220.031C95.0272 219.168 95.9984 218.736 97.2158 218.736C98.3558 218.736 99.2578 219.113 99.9219 219.865C100.586 220.612 100.918 221.6 100.918 222.829V223.7H94.6509C94.6785 224.768 94.9469 225.579 95.4561 226.132C95.9707 226.686 96.6929 226.962 97.6226 226.962C98.6021 226.962 99.5705 226.758 100.528 226.348V227.577C100.041 227.787 99.5788 227.936 99.1416 228.025C98.71 228.119 98.187 228.166 97.5728 228.166ZM97.1992 219.89C96.4688 219.89 95.8849 220.128 95.4478 220.604C95.0161 221.08 94.7616 221.738 94.6841 222.58H99.4404C99.4404 221.711 99.2467 221.047 98.8594 220.587C98.472 220.123 97.9186 219.89 97.1992 219.89ZM107.426 218.736C107.83 218.736 108.192 218.77 108.513 218.836L108.322 220.114C107.946 220.031 107.614 219.99 107.326 219.99C106.59 219.99 105.959 220.289 105.434 220.886C104.913 221.484 104.653 222.228 104.653 223.119V228H103.275V218.902H104.413L104.57 220.587H104.637C104.974 219.995 105.381 219.539 105.857 219.218C106.333 218.897 106.856 218.736 107.426 218.736ZM114.058 228.166C112.713 228.166 111.651 227.757 110.871 226.938C110.096 226.118 109.708 224.981 109.708 223.526C109.708 222.059 110.068 220.895 110.788 220.031C111.513 219.168 112.484 218.736 113.701 218.736C114.841 218.736 115.743 219.113 116.407 219.865C117.071 220.612 117.403 221.6 117.403 222.829V223.7H111.136C111.164 224.768 111.432 225.579 111.941 226.132C112.456 226.686 113.178 226.962 114.108 226.962C115.087 226.962 116.056 226.758 117.013 226.348V227.577C116.526 227.787 116.064 227.936 115.627 228.025C115.195 228.119 114.672 228.166 114.058 228.166ZM113.685 219.89C112.954 219.89 112.37 220.128 111.933 220.604C111.501 221.08 111.247 221.738 111.169 222.58H115.926C115.926 221.711 115.732 221.047 115.345 220.587C114.957 220.123 114.404 219.89 113.685 219.89ZM125.986 228V222.115C125.986 221.373 125.818 220.82 125.48 220.455C125.142 220.089 124.614 219.907 123.895 219.907C122.943 219.907 122.245 220.164 121.803 220.679C121.36 221.193 121.139 222.043 121.139 223.227V228H119.761V218.902H120.881L121.105 220.147H121.172C121.454 219.699 121.85 219.353 122.359 219.11C122.868 218.861 123.435 218.736 124.061 218.736C125.156 218.736 125.981 219.002 126.534 219.533C127.088 220.059 127.364 220.903 127.364 222.065V228H125.986ZM133.839 228.166C132.522 228.166 131.501 227.762 130.776 226.954C130.056 226.141 129.697 224.992 129.697 223.509C129.697 221.987 130.062 220.812 130.792 219.981C131.528 219.151 132.574 218.736 133.93 218.736C134.367 218.736 134.805 218.783 135.242 218.877C135.679 218.972 136.022 219.082 136.271 219.209L135.848 220.38C135.543 220.258 135.211 220.159 134.852 220.081C134.492 219.998 134.174 219.957 133.897 219.957C132.049 219.957 131.125 221.135 131.125 223.493C131.125 224.611 131.349 225.468 131.797 226.066C132.251 226.664 132.92 226.962 133.806 226.962C134.564 226.962 135.341 226.799 136.138 226.473V227.693C135.529 228.008 134.763 228.166 133.839 228.166ZM142.148 228.166C140.803 228.166 139.741 227.757 138.96 226.938C138.186 226.118 137.798 224.981 137.798 223.526C137.798 222.059 138.158 220.895 138.877 220.031C139.602 219.168 140.574 218.736 141.791 218.736C142.931 218.736 143.833 219.113 144.497 219.865C145.161 220.612 145.493 221.6 145.493 222.829V223.7H139.226C139.254 224.768 139.522 225.579 140.031 226.132C140.546 226.686 141.268 226.962 142.198 226.962C143.177 226.962 144.146 226.758 145.103 226.348V227.577C144.616 227.787 144.154 227.936 143.717 228.025C143.285 228.119 142.762 228.166 142.148 228.166ZM141.774 219.89C141.044 219.89 140.46 220.128 140.023 220.604C139.591 221.08 139.337 221.738 139.259 222.58H144.016C144.016 221.711 143.822 221.047 143.435 220.587C143.047 220.123 142.494 219.89 141.774 219.89ZM158.492 228V222.115C158.492 221.373 158.323 220.82 157.986 220.455C157.648 220.089 157.12 219.907 156.4 219.907C155.443 219.907 154.743 220.167 154.3 220.687C153.863 221.207 153.645 222.059 153.645 223.244V228H152.267V215.084H153.645V218.994C153.645 219.464 153.622 219.854 153.578 220.164H153.661C153.932 219.727 154.317 219.384 154.815 219.135C155.319 218.88 155.891 218.753 156.533 218.753C157.646 218.753 158.478 219.019 159.032 219.55C159.591 220.076 159.87 220.914 159.87 222.065V228H158.492ZM166.552 228.166C165.208 228.166 164.145 227.757 163.365 226.938C162.59 226.118 162.203 224.981 162.203 223.526C162.203 222.059 162.562 220.895 163.282 220.031C164.007 219.168 164.978 218.736 166.195 218.736C167.335 218.736 168.237 219.113 168.901 219.865C169.565 220.612 169.897 221.6 169.897 222.829V223.7H163.63C163.658 224.768 163.926 225.579 164.436 226.132C164.95 226.686 165.672 226.962 166.602 226.962C167.582 226.962 168.55 226.758 169.507 226.348V227.577C169.02 227.787 168.558 227.936 168.121 228.025C167.689 228.119 167.167 228.166 166.552 228.166ZM166.179 219.89C165.448 219.89 164.864 220.128 164.427 220.604C163.996 221.08 163.741 221.738 163.664 222.58H168.42C168.42 221.711 168.226 221.047 167.839 220.587C167.451 220.123 166.898 219.89 166.179 219.89ZM173.633 228H172.255V215.084H173.633V228ZM180.788 228.166C180.196 228.166 179.654 228.058 179.161 227.842C178.674 227.621 178.265 227.283 177.933 226.83H177.833C177.899 227.361 177.933 227.864 177.933 228.34V232.084H176.555V218.902H177.675L177.866 220.147H177.933C178.287 219.649 178.699 219.29 179.169 219.068C179.64 218.847 180.179 218.736 180.788 218.736C181.994 218.736 182.924 219.149 183.577 219.973C184.236 220.798 184.565 221.954 184.565 223.443C184.565 224.937 184.23 226.099 183.561 226.929C182.896 227.754 181.972 228.166 180.788 228.166ZM180.589 219.907C179.659 219.907 178.987 220.164 178.572 220.679C178.157 221.193 177.944 222.012 177.933 223.136V223.443C177.933 224.721 178.146 225.637 178.572 226.19C178.998 226.738 179.681 227.012 180.622 227.012C181.408 227.012 182.022 226.694 182.465 226.058C182.913 225.421 183.137 224.544 183.137 223.426C183.137 222.292 182.913 221.423 182.465 220.82C182.022 220.211 181.397 219.907 180.589 219.907ZM192.849 225.518C192.849 226.365 192.534 227.018 191.903 227.477C191.272 227.936 190.387 228.166 189.247 228.166C188.04 228.166 187.099 227.975 186.424 227.593V226.315C186.861 226.536 187.329 226.711 187.827 226.838C188.331 226.965 188.815 227.029 189.28 227.029C189.999 227.029 190.553 226.915 190.94 226.688C191.327 226.456 191.521 226.105 191.521 225.634C191.521 225.28 191.366 224.979 191.056 224.729C190.752 224.475 190.154 224.176 189.263 223.833C188.417 223.518 187.813 223.244 187.454 223.011C187.099 222.773 186.834 222.505 186.657 222.206C186.485 221.907 186.399 221.55 186.399 221.135C186.399 220.394 186.701 219.81 187.304 219.384C187.907 218.952 188.735 218.736 189.786 218.736C190.766 218.736 191.723 218.936 192.658 219.334L192.168 220.455C191.255 220.078 190.428 219.89 189.687 219.89C189.034 219.89 188.541 219.993 188.209 220.197C187.877 220.402 187.711 220.684 187.711 221.044C187.711 221.287 187.772 221.495 187.894 221.667C188.021 221.838 188.223 222.001 188.5 222.156C188.776 222.311 189.307 222.535 190.093 222.829C191.172 223.222 191.9 223.617 192.276 224.016C192.658 224.414 192.849 224.915 192.849 225.518ZM211.111 228V222.082C211.111 221.357 210.956 220.814 210.646 220.455C210.336 220.089 209.855 219.907 209.202 219.907C208.344 219.907 207.71 220.153 207.301 220.646C206.891 221.138 206.687 221.896 206.687 222.92V228H205.309V222.082C205.309 221.357 205.154 220.814 204.844 220.455C204.534 220.089 204.05 219.907 203.391 219.907C202.528 219.907 201.894 220.167 201.49 220.687C201.092 221.202 200.893 222.048 200.893 223.227V228H199.515V218.902H200.635L200.859 220.147H200.926C201.186 219.705 201.551 219.359 202.021 219.11C202.497 218.861 203.029 218.736 203.615 218.736C205.037 218.736 205.967 219.251 206.404 220.28H206.471C206.742 219.804 207.135 219.428 207.649 219.151C208.164 218.875 208.751 218.736 209.409 218.736C210.438 218.736 211.208 219.002 211.717 219.533C212.231 220.059 212.489 220.903 212.489 222.065V228H211.111ZM220.931 228L220.657 226.705H220.59C220.137 227.275 219.683 227.662 219.229 227.867C218.781 228.066 218.219 228.166 217.544 228.166C216.642 228.166 215.934 227.934 215.419 227.469C214.91 227.004 214.655 226.343 214.655 225.485C214.655 223.648 216.125 222.685 219.063 222.596L220.607 222.546V221.982C220.607 221.268 220.452 220.742 220.142 220.405C219.838 220.062 219.348 219.89 218.673 219.89C217.915 219.89 217.057 220.123 216.1 220.587L215.676 219.533C216.125 219.29 216.614 219.099 217.146 218.96C217.682 218.822 218.219 218.753 218.756 218.753C219.84 218.753 220.643 218.994 221.163 219.475C221.689 219.957 221.952 220.729 221.952 221.791V228H220.931ZM217.818 227.029C218.676 227.029 219.348 226.794 219.835 226.323C220.327 225.853 220.574 225.194 220.574 224.348V223.526L219.196 223.584C218.1 223.623 217.309 223.794 216.822 224.099C216.34 224.397 216.1 224.865 216.1 225.501C216.1 226 216.249 226.379 216.548 226.639C216.852 226.899 217.276 227.029 217.818 227.029ZM226.16 223.343C226.398 223.006 226.761 222.563 227.248 222.015L230.186 218.902H231.821L228.136 222.779L232.079 228H230.41L227.198 223.7L226.16 224.597V228H224.799V215.084H226.16V221.932C226.16 222.236 226.138 222.707 226.094 223.343H226.16ZM237.574 228.166C236.229 228.166 235.167 227.757 234.386 226.938C233.611 226.118 233.224 224.981 233.224 223.526C233.224 222.059 233.584 220.895 234.303 220.031C235.028 219.168 235.999 218.736 237.217 218.736C238.357 218.736 239.259 219.113 239.923 219.865C240.587 220.612 240.919 221.6 240.919 222.829V223.7H234.652C234.68 224.768 234.948 225.579 235.457 226.132C235.972 226.686 236.694 226.962 237.624 226.962C238.603 226.962 239.571 226.758 240.529 226.348V227.577C240.042 227.787 239.58 227.936 239.143 228.025C238.711 228.119 238.188 228.166 237.574 228.166ZM237.2 219.89C236.47 219.89 235.886 220.128 235.449 220.604C235.017 221.08 234.763 221.738 234.685 222.58H239.441C239.441 221.711 239.248 221.047 238.86 220.587C238.473 220.123 237.92 219.89 237.2 219.89ZM111.809 251V245.115C111.809 244.373 111.64 243.82 111.302 243.455C110.965 243.089 110.436 242.907 109.717 242.907C108.765 242.907 108.068 243.164 107.625 243.679C107.182 244.193 106.961 245.043 106.961 246.227V251H105.583V241.902H106.704L106.928 243.147H106.994C107.276 242.699 107.672 242.353 108.181 242.11C108.69 241.861 109.257 241.736 109.883 241.736C110.979 241.736 111.803 242.002 112.356 242.533C112.91 243.059 113.187 243.903 113.187 245.065V251H111.809ZM119.869 251.166C118.524 251.166 117.461 250.757 116.681 249.938C115.906 249.118 115.519 247.981 115.519 246.526C115.519 245.059 115.879 243.895 116.598 243.031C117.323 242.168 118.294 241.736 119.512 241.736C120.652 241.736 121.554 242.113 122.218 242.865C122.882 243.612 123.214 244.6 123.214 245.829V246.7H116.947C116.974 247.768 117.243 248.579 117.752 249.132C118.267 249.686 118.989 249.962 119.918 249.962C120.898 249.962 121.866 249.758 122.824 249.348V250.577C122.337 250.787 121.875 250.936 121.438 251.025C121.006 251.119 120.483 251.166 119.869 251.166ZM119.495 242.89C118.765 242.89 118.181 243.128 117.744 243.604C117.312 244.08 117.057 244.738 116.98 245.58H121.736C121.736 244.711 121.543 244.047 121.155 243.587C120.768 243.123 120.215 242.89 119.495 242.89ZM133 251L131.332 245.663C131.227 245.336 131.03 244.595 130.743 243.438H130.676C130.455 244.406 130.261 245.153 130.095 245.679L128.377 251H126.783L124.301 241.902H125.746C126.332 244.188 126.778 245.928 127.082 247.124C127.392 248.319 127.569 249.124 127.613 249.539H127.68C127.741 249.224 127.837 248.817 127.97 248.319C128.109 247.815 128.228 247.417 128.327 247.124L129.996 241.902H131.49L133.117 247.124C133.427 248.075 133.637 248.875 133.748 249.522H133.814C133.836 249.323 133.894 249.016 133.988 248.601C134.088 248.186 134.666 245.953 135.723 241.902H137.151L134.636 251H133ZM147.319 242.973H145.003V251H143.625V242.973H141.999V242.351L143.625 241.853V241.346C143.625 239.111 144.602 237.993 146.556 237.993C147.037 237.993 147.602 238.09 148.249 238.283L147.892 239.387C147.361 239.216 146.907 239.13 146.531 239.13C146.011 239.13 145.626 239.304 145.377 239.653C145.128 239.996 145.003 240.549 145.003 241.313V241.902H147.319V242.973ZM153.13 241.736C153.534 241.736 153.896 241.77 154.217 241.836L154.026 243.114C153.65 243.031 153.318 242.99 153.03 242.99C152.294 242.99 151.663 243.289 151.138 243.886C150.618 244.484 150.357 245.228 150.357 246.119V251H148.979V241.902H150.117L150.274 243.587H150.341C150.678 242.995 151.085 242.539 151.561 242.218C152.037 241.897 152.56 241.736 153.13 241.736ZM157.297 251H155.919V241.902H157.297V251ZM155.803 239.437C155.803 239.122 155.88 238.892 156.035 238.748C156.19 238.599 156.384 238.524 156.616 238.524C156.838 238.524 157.028 238.599 157.189 238.748C157.349 238.897 157.43 239.127 157.43 239.437C157.43 239.747 157.349 239.979 157.189 240.134C157.028 240.284 156.838 240.358 156.616 240.358C156.384 240.358 156.19 240.284 156.035 240.134C155.88 239.979 155.803 239.747 155.803 239.437ZM164.062 251.166C162.717 251.166 161.655 250.757 160.875 249.938C160.1 249.118 159.712 247.981 159.712 246.526C159.712 245.059 160.072 243.895 160.792 243.031C161.516 242.168 162.488 241.736 163.705 241.736C164.845 241.736 165.747 242.113 166.411 242.865C167.075 243.612 167.407 244.6 167.407 245.829V246.7H161.14C161.168 247.768 161.436 248.579 161.945 249.132C162.46 249.686 163.182 249.962 164.112 249.962C165.091 249.962 166.06 249.758 167.017 249.348V250.577C166.53 250.787 166.068 250.936 165.631 251.025C165.199 251.119 164.676 251.166 164.062 251.166ZM163.688 242.89C162.958 242.89 162.374 243.128 161.937 243.604C161.505 244.08 161.251 244.738 161.173 245.58H165.93C165.93 244.711 165.736 244.047 165.349 243.587C164.961 243.123 164.408 242.89 163.688 242.89ZM175.99 251V245.115C175.99 244.373 175.821 243.82 175.484 243.455C175.146 243.089 174.618 242.907 173.898 242.907C172.947 242.907 172.249 243.164 171.807 243.679C171.364 244.193 171.143 245.043 171.143 246.227V251H169.765V241.902H170.885L171.109 243.147H171.176C171.458 242.699 171.854 242.353 172.363 242.11C172.872 241.861 173.439 241.736 174.064 241.736C175.16 241.736 175.985 242.002 176.538 242.533C177.091 243.059 177.368 243.903 177.368 245.065V251H175.99ZM186.399 249.78H186.325C185.688 250.704 184.736 251.166 183.469 251.166C182.279 251.166 181.353 250.759 180.688 249.946C180.03 249.132 179.701 247.976 179.701 246.476C179.701 244.976 180.033 243.812 180.697 242.981C181.361 242.151 182.285 241.736 183.469 241.736C184.703 241.736 185.65 242.185 186.308 243.081H186.416L186.358 242.425L186.325 241.786V238.084H187.703V251H186.582L186.399 249.78ZM183.644 250.012C184.584 250.012 185.265 249.758 185.686 249.249C186.112 248.734 186.325 247.907 186.325 246.767V246.476C186.325 245.187 186.109 244.268 185.677 243.72C185.251 243.167 184.568 242.89 183.627 242.89C182.819 242.89 182.199 243.206 181.768 243.836C181.341 244.462 181.128 245.347 181.128 246.493C181.128 247.655 181.341 248.532 181.768 249.124C182.194 249.716 182.819 250.012 183.644 250.012ZM196.501 248.518C196.501 249.365 196.186 250.018 195.555 250.477C194.924 250.936 194.039 251.166 192.899 251.166C191.693 251.166 190.752 250.975 190.077 250.593V249.315C190.514 249.536 190.981 249.711 191.479 249.838C191.983 249.965 192.467 250.029 192.932 250.029C193.652 250.029 194.205 249.915 194.592 249.688C194.98 249.456 195.173 249.105 195.173 248.634C195.173 248.28 195.018 247.979 194.708 247.729C194.404 247.475 193.806 247.176 192.916 246.833C192.069 246.518 191.466 246.244 191.106 246.011C190.752 245.773 190.486 245.505 190.309 245.206C190.138 244.907 190.052 244.55 190.052 244.135C190.052 243.394 190.353 242.81 190.957 242.384C191.56 241.952 192.387 241.736 193.438 241.736C194.418 241.736 195.375 241.936 196.311 242.334L195.821 243.455C194.908 243.078 194.08 242.89 193.339 242.89C192.686 242.89 192.193 242.993 191.861 243.197C191.529 243.402 191.363 243.684 191.363 244.044C191.363 244.287 191.424 244.495 191.546 244.667C191.673 244.838 191.875 245.001 192.152 245.156C192.429 245.311 192.96 245.535 193.746 245.829C194.825 246.222 195.552 246.617 195.929 247.016C196.311 247.414 196.501 247.915 196.501 248.518Z" fill="black"/>
<g filter="url(#filter2_i)">
<ellipse cx="151" cy="145.25" rx="145" ry="145.25" fill="#FFDCB1" fill-opacity="0.01"/>
</g>
<g filter="url(#filter3_i)">
<ellipse cx="151" cy="145.25" rx="145" ry="145.25" fill="#FFDCB1" fill-opacity="0.01"/>
</g>
<defs>
<filter id="filter0_d" x="161" y="33" width="116.201" height="161.316" filterUnits="userSpaceOnUse" color-interpolation-filters="sRGB">
<feFlood flood-opacity="0" result="BackgroundImageFix"/>
<feColorMatrix in="SourceAlpha" type="matrix" values="0 0 0 0 0 0 0 0 0 0 0 0 0 0 0 0 0 0 127 0"/>
<feOffset dx="3" dy="3"/>
<feGaussianBlur stdDeviation="2"/>
<feColorMatrix type="matrix" values="0 0 0 0 0 0 0 0 0 0 0 0 0 0 0 0 0 0 0.25 0"/>
<feBlend mode="normal" in2="BackgroundImageFix" result="effect1_dropShadow"/>
<feBlend mode="normal" in="SourceGraphic" in2="effect1_dropShadow" result="shape"/>
</filter>
<filter id="filter1_d" x="0" y="153" width="301.685" height="142.079" filterUnits="userSpaceOnUse" color-interpolation-filters="sRGB">
<feFlood flood-opacity="0" result="BackgroundImageFix"/>
<feColorMatrix in="SourceAlpha" type="matrix" values="0 0 0 0 0 0 0 0 0 0 0 0 0 0 0 0 0 0 127 0"/>
<feOffset dy="-2"/>
<feGaussianBlur stdDeviation="3.5"/>
<feColorMatrix type="matrix" values="0 0 0 0 0 0 0 0 0 0 0 0 0 0 0 0 0 0 0.17 0"/>
<feBlend mode="normal" in2="BackgroundImageFix" result="effect1_dropShadow"/>
<feBlend mode="normal" in="SourceGraphic" in2="effect1_dropShadow" result="shape"/>
</filter>
<filter id="filter2_i" x="6" y="0" width="292" height="292.5" filterUnits="userSpaceOnUse" color-interpolation-filters="sRGB">
<feFlood flood-opacity="0" result="BackgroundImageFix"/>
<feBlend mode="normal" in="SourceGraphic" in2="BackgroundImageFix" result="shape"/>
<feColorMatrix in="SourceAlpha" type="matrix" values="0 0 0 0 0 0 0 0 0 0 0 0 0 0 0 0 0 0 127 0" result="hardAlpha"/>
<feOffset dx="2" dy="2"/>
<feGaussianBlur stdDeviation="2"/>
<feComposite in2="hardAlpha" operator="arithmetic" k2="-1" k3="1"/>
<feColorMatrix type="matrix" values="0 0 0 0 0 0 0 0 0 0 0 0 0 0 0 0 0 0 0.15 0"/>
<feBlend mode="normal" in2="shape" result="effect1_innerShadow"/>
</filter>
<filter id="filter3_i" x="4" y="-2" width="292" height="292.5" filterUnits="userSpaceOnUse" color-interpolation-filters="sRGB">
<feFlood flood-opacity="0" result="BackgroundImageFix"/>
<feBlend mode="normal" in="SourceGraphic" in2="BackgroundImageFix" result="shape"/>
<feColorMatrix in="SourceAlpha" type="matrix" values="0 0 0 0 0 0 0 0 0 0 0 0 0 0 0 0 0 0 127 0" result="hardAlpha"/>
<feOffset dx="-2" dy="-2"/>
<feGaussianBlur stdDeviation="2"/>
<feComposite in2="hardAlpha" operator="arithmetic" k2="-1" k3="1"/>
<feColorMatrix type="matrix" values="0 0 0 0 0 0 0 0 0 0 0 0 0 0 0 0 0 0 0.15 0"/>
<feBlend mode="normal" in2="shape" result="effect1_innerShadow"/>
</filter>
</defs>
</svg>
