<svg width="302" height="296" viewBox="0 0 302 296" fill="none" xmlns="http://www.w3.org/2000/svg">
<circle cx="151" cy="145" r="145" fill="#FFCCCC"/>
<g filter="url(#filter0_d)">
<path d="M94.6022 96.217L102.434 115.012L93.3044 109.597L86.0996 92.3237C88.1134 91.4734 92.8569 92.0104 94.6022 96.217Z" fill="#E3E3E3"/>
<path d="M90.5749 92.7265L98.8089 112.506L89.6798 107.091L82.0723 88.8332C84.086 87.9829 88.8296 88.5647 90.5749 92.7265Z" fill="#EDEDED"/>
<path d="M207.442 96.217L199.61 115.012L208.739 109.597L215.944 92.3237C213.886 91.4734 209.187 92.0104 207.442 96.217Z" fill="#E3E3E3"/>
<path d="M211.469 92.7265L203.235 112.506L212.364 107.091L219.972 88.8332C217.913 87.9829 213.215 88.5647 211.469 92.7265Z" fill="#EDEDED"/>
<path d="M215.497 89.236L207.979 107.226L174.371 127.095C173.163 127.811 171.597 127.408 170.881 126.2L170.747 125.976C170.031 124.768 170.433 123.202 171.642 122.486L181.487 116.668L185.067 114.565C188.96 112.283 188.826 107.494 187.707 105.615L178.22 111.209L157.366 123.56C155.979 124.365 155.263 125.887 155.442 127.408L155.397 127.453L155.353 148.754C165.645 147.814 175.445 145.353 184.619 141.594L182.292 132.912L210.217 116.4C211.112 115.863 211.738 115.057 212.007 114.117L224 85.3427C221.941 84.4924 217.242 85.0742 215.497 89.236Z" fill="#FF8A00"/>
<path d="M171.8 53.8999C157.8 53.8999 146.5 65.1999 146.5 79.1999V87.1999V118.9H152V87.1999H169C183 87.1999 194.3 75.8999 194.3 61.8999V53.8999H171.8Z" fill="#8EF38C"/>
<path d="M146.5 87.1999V118.9H152V87.1999H169C183 87.1999 194.3 75.8999 194.3 61.8999V53.8999L146.5 87.1999Z" fill="#12A521"/>
<path d="M125.1 51H106V57.8C106 69.6 115.6 79.2 127.4 79.2H146.5V72.4C146.5 60.6 136.9 51 125.1 51Z" fill="#8EF38C"/>
<path d="M106 57.8C106 69.6 115.6 79.2 127.4 79.2H146.5L106 51V57.8Z" fill="#12A521"/>
<path d="M146.692 148.754L146.647 127.408L146.602 127.363C146.737 125.887 146.065 124.365 144.678 123.515L123.78 111.164L114.293 105.57C113.174 107.449 113.084 112.238 116.933 114.52L120.513 116.623L130.358 122.441C131.566 123.157 131.969 124.723 131.253 125.931L131.119 126.155C130.403 127.363 128.837 127.766 127.628 127.05L94.0207 107.181L86.5026 89.1913C84.7573 85.0295 80.0138 84.4925 78 85.3427L89.9931 114.117C90.2616 115.012 90.8881 115.863 91.7831 116.4L119.707 132.913L117.336 141.773C126.554 145.487 136.399 147.859 146.692 148.754Z" fill="#FF8A00"/>
</g>
<g filter="url(#filter1_d)">
<path fill-rule="evenodd" clip-rule="evenodd" d="M294.685 165.217C285.037 235.94 224.394 290.434 151.023 290.434C76.6658 290.434 15.381 234.464 7 162.356C10.0996 163.538 13.3382 165.157 16.8273 166.902C30.7286 173.854 48.6052 182.793 77.5025 173.968C121.715 160.465 166.922 160.465 219.083 177.633C244.928 186.139 272.34 175.359 294.685 165.217Z" fill="white"/>
</g>
<path d="M76.6934 206H75.0332L70.6089 200.115L69.3389 201.244V206H67.9277V193.864H69.3389V199.882L74.8423 193.864H76.5107L71.6299 199.135L76.6934 206ZM79.5405 206H78.1626V196.902H79.5405V206ZM78.0464 194.437C78.0464 194.122 78.1239 193.892 78.2788 193.748C78.4338 193.599 78.6274 193.524 78.8599 193.524C79.0812 193.524 79.2721 193.599 79.4326 193.748C79.5931 193.897 79.6733 194.127 79.6733 194.437C79.6733 194.747 79.5931 194.979 79.4326 195.134C79.2721 195.284 79.0812 195.358 78.8599 195.358C78.6274 195.358 78.4338 195.284 78.2788 195.134C78.1239 194.979 78.0464 194.747 78.0464 194.437ZM88.6548 204.78H88.5801C87.9437 205.704 86.9919 206.166 85.7246 206.166C84.5348 206.166 83.6079 205.759 82.9438 204.946C82.2853 204.132 81.9561 202.976 81.9561 201.476C81.9561 199.976 82.2881 198.812 82.9521 197.981C83.6162 197.151 84.5404 196.736 85.7246 196.736C86.9587 196.736 87.9049 197.185 88.5635 198.081H88.6714L88.6133 197.425L88.5801 196.786V193.084H89.958V206H88.8374L88.6548 204.78ZM85.8989 205.012C86.8397 205.012 87.5203 204.758 87.9409 204.249C88.367 203.734 88.5801 202.907 88.5801 201.767V201.476C88.5801 200.187 88.3643 199.268 87.9326 198.72C87.5065 198.167 86.8231 197.89 85.8823 197.89C85.0744 197.89 84.4546 198.206 84.0229 198.836C83.5968 199.462 83.3838 200.347 83.3838 201.493C83.3838 202.655 83.5968 203.532 84.0229 204.124C84.4491 204.716 85.0744 205.012 85.8989 205.012ZM98.7568 203.518C98.7568 204.365 98.4414 205.018 97.8105 205.477C97.1797 205.936 96.2943 206.166 95.1543 206.166C93.9479 206.166 93.0072 205.975 92.332 205.593V204.315C92.7692 204.536 93.2368 204.711 93.7349 204.838C94.2384 204.965 94.7227 205.029 95.1875 205.029C95.9069 205.029 96.4603 204.915 96.8477 204.688C97.235 204.456 97.4287 204.105 97.4287 203.634C97.4287 203.28 97.2738 202.979 96.9639 202.729C96.6595 202.475 96.0618 202.176 95.1709 201.833C94.3242 201.518 93.721 201.244 93.3613 201.011C93.0072 200.773 92.7415 200.505 92.5645 200.206C92.3929 199.907 92.3071 199.55 92.3071 199.135C92.3071 198.394 92.6087 197.81 93.2119 197.384C93.8151 196.952 94.6424 196.736 95.6938 196.736C96.6733 196.736 97.6307 196.936 98.5659 197.334L98.0762 198.455C97.1631 198.078 96.3358 197.89 95.5942 197.89C94.9412 197.89 94.4487 197.993 94.1167 198.197C93.7847 198.402 93.6187 198.684 93.6187 199.044C93.6187 199.287 93.6795 199.495 93.8013 199.667C93.9285 199.838 94.1305 200.001 94.4072 200.156C94.6839 200.311 95.2152 200.535 96.001 200.829C97.0801 201.222 97.8078 201.617 98.1841 202.016C98.5659 202.414 98.7568 202.915 98.7568 203.518ZM106.8 206H105.422V193.084H106.8V206ZM113.565 206.166C112.221 206.166 111.158 205.757 110.378 204.938C109.603 204.118 109.216 202.981 109.216 201.526C109.216 200.059 109.576 198.895 110.295 198.031C111.02 197.168 111.991 196.736 113.208 196.736C114.348 196.736 115.25 197.113 115.915 197.865C116.579 198.612 116.911 199.6 116.911 200.829V201.7H110.644C110.671 202.768 110.94 203.579 111.449 204.132C111.963 204.686 112.686 204.962 113.615 204.962C114.595 204.962 115.563 204.758 116.521 204.348V205.577C116.034 205.787 115.571 205.936 115.134 206.025C114.703 206.119 114.18 206.166 113.565 206.166ZM113.192 197.89C112.461 197.89 111.878 198.128 111.44 198.604C111.009 199.08 110.754 199.738 110.677 200.58H115.433C115.433 199.711 115.239 199.047 114.852 198.587C114.465 198.123 113.911 197.89 113.192 197.89ZM124.863 206L124.589 204.705H124.522C124.069 205.275 123.615 205.662 123.161 205.867C122.713 206.066 122.151 206.166 121.476 206.166C120.574 206.166 119.866 205.934 119.351 205.469C118.842 205.004 118.587 204.343 118.587 203.485C118.587 201.648 120.057 200.685 122.995 200.596L124.539 200.546V199.982C124.539 199.268 124.384 198.742 124.074 198.405C123.77 198.062 123.28 197.89 122.605 197.89C121.847 197.89 120.989 198.123 120.032 198.587L119.608 197.533C120.057 197.29 120.546 197.099 121.078 196.96C121.614 196.822 122.151 196.753 122.688 196.753C123.773 196.753 124.575 196.994 125.095 197.475C125.621 197.957 125.884 198.729 125.884 199.791V206H124.863ZM121.75 205.029C122.608 205.029 123.28 204.794 123.767 204.323C124.26 203.853 124.506 203.194 124.506 202.348V201.526L123.128 201.584C122.032 201.623 121.241 201.794 120.754 202.099C120.272 202.397 120.032 202.865 120.032 203.501C120.032 204 120.181 204.379 120.48 204.639C120.784 204.899 121.208 205.029 121.75 205.029ZM132.881 196.736C133.285 196.736 133.648 196.77 133.969 196.836L133.778 198.114C133.402 198.031 133.069 197.99 132.782 197.99C132.046 197.99 131.415 198.289 130.889 198.886C130.369 199.484 130.109 200.228 130.109 201.119V206H128.731V196.902H129.868L130.026 198.587H130.092C130.43 197.995 130.837 197.539 131.312 197.218C131.788 196.897 132.311 196.736 132.881 196.736ZM141.896 206V200.115C141.896 199.373 141.727 198.82 141.39 198.455C141.052 198.089 140.524 197.907 139.804 197.907C138.852 197.907 138.155 198.164 137.712 198.679C137.27 199.193 137.048 200.043 137.048 201.227V206H135.67V196.902H136.791L137.015 198.147H137.082C137.364 197.699 137.759 197.353 138.269 197.11C138.778 196.861 139.345 196.736 139.97 196.736C141.066 196.736 141.89 197.002 142.444 197.533C142.997 198.059 143.274 198.903 143.274 200.065V206H141.896ZM153.467 205.029C153.711 205.029 153.946 205.012 154.173 204.979C154.4 204.94 154.58 204.902 154.712 204.863V205.917C154.563 205.989 154.342 206.047 154.048 206.091C153.761 206.141 153.5 206.166 153.268 206.166C151.508 206.166 150.628 205.239 150.628 203.385V197.973H149.325V197.309L150.628 196.736L151.209 194.794H152.006V196.902H154.646V197.973H152.006V203.327C152.006 203.875 152.136 204.296 152.396 204.589C152.657 204.882 153.014 205.029 153.467 205.029ZM164.391 201.443C164.391 202.926 164.018 204.085 163.271 204.921C162.523 205.751 161.491 206.166 160.174 206.166C159.361 206.166 158.639 205.975 158.008 205.593C157.377 205.211 156.89 204.664 156.547 203.95C156.204 203.236 156.032 202.4 156.032 201.443C156.032 199.96 156.403 198.806 157.145 197.981C157.886 197.151 158.915 196.736 160.232 196.736C161.505 196.736 162.515 197.16 163.262 198.006C164.015 198.853 164.391 199.999 164.391 201.443ZM157.46 201.443C157.46 202.605 157.692 203.49 158.157 204.099C158.622 204.708 159.306 205.012 160.208 205.012C161.11 205.012 161.793 204.711 162.258 204.107C162.728 203.499 162.963 202.611 162.963 201.443C162.963 200.286 162.728 199.409 162.258 198.812C161.793 198.208 161.104 197.907 160.191 197.907C159.289 197.907 158.608 198.203 158.149 198.795C157.69 199.387 157.46 200.27 157.46 201.443ZM175.464 196.753C176.66 196.753 177.587 197.162 178.245 197.981C178.909 198.795 179.241 199.949 179.241 201.443C179.241 202.937 178.906 204.099 178.237 204.929C177.573 205.754 176.649 206.166 175.464 206.166C174.872 206.166 174.33 206.058 173.837 205.842C173.35 205.621 172.941 205.283 172.609 204.83H172.509L172.219 206H171.231V193.084H172.609V196.222C172.609 196.924 172.587 197.555 172.542 198.114H172.609C173.251 197.207 174.203 196.753 175.464 196.753ZM175.265 197.907C174.324 197.907 173.646 198.178 173.231 198.72C172.816 199.257 172.609 200.165 172.609 201.443C172.609 202.721 172.822 203.637 173.248 204.19C173.674 204.738 174.358 205.012 175.298 205.012C176.145 205.012 176.776 204.705 177.191 204.091C177.606 203.471 177.813 202.583 177.813 201.426C177.813 200.242 177.606 199.359 177.191 198.778C176.776 198.197 176.134 197.907 175.265 197.907ZM185.5 206.166C184.155 206.166 183.093 205.757 182.312 204.938C181.538 204.118 181.15 202.981 181.15 201.526C181.15 200.059 181.51 198.895 182.229 198.031C182.954 197.168 183.926 196.736 185.143 196.736C186.283 196.736 187.185 197.113 187.849 197.865C188.513 198.612 188.845 199.6 188.845 200.829V201.7H182.578C182.606 202.768 182.874 203.579 183.383 204.132C183.898 204.686 184.62 204.962 185.55 204.962C186.529 204.962 187.498 204.758 188.455 204.348V205.577C187.968 205.787 187.506 205.936 187.069 206.025C186.637 206.119 186.114 206.166 185.5 206.166ZM185.126 197.89C184.396 197.89 183.812 198.128 183.375 198.604C182.943 199.08 182.689 199.738 182.611 200.58H187.368C187.368 199.711 187.174 199.047 186.787 198.587C186.399 198.123 185.846 197.89 185.126 197.89ZM207.215 206V200.082C207.215 199.357 207.06 198.814 206.75 198.455C206.44 198.089 205.959 197.907 205.306 197.907C204.448 197.907 203.814 198.153 203.405 198.646C202.995 199.138 202.791 199.896 202.791 200.92V206H201.413V200.082C201.413 199.357 201.258 198.814 200.948 198.455C200.638 198.089 200.154 197.907 199.495 197.907C198.632 197.907 197.998 198.167 197.594 198.687C197.196 199.202 196.997 200.048 196.997 201.227V206H195.619V196.902H196.739L196.963 198.147H197.03C197.29 197.705 197.655 197.359 198.125 197.11C198.601 196.861 199.133 196.736 199.719 196.736C201.141 196.736 202.071 197.251 202.508 198.28H202.575C202.846 197.804 203.239 197.428 203.753 197.151C204.268 196.875 204.855 196.736 205.513 196.736C206.542 196.736 207.312 197.002 207.821 197.533C208.335 198.059 208.593 198.903 208.593 200.065V206H207.215ZM219.292 201.443C219.292 202.926 218.919 204.085 218.172 204.921C217.425 205.751 216.393 206.166 215.076 206.166C214.262 206.166 213.54 205.975 212.909 205.593C212.278 205.211 211.791 204.664 211.448 203.95C211.105 203.236 210.934 202.4 210.934 201.443C210.934 199.96 211.304 198.806 212.046 197.981C212.787 197.151 213.817 196.736 215.134 196.736C216.407 196.736 217.417 197.16 218.164 198.006C218.916 198.853 219.292 199.999 219.292 201.443ZM212.361 201.443C212.361 202.605 212.594 203.49 213.059 204.099C213.523 204.708 214.207 205.012 215.109 205.012C216.011 205.012 216.694 204.711 217.159 204.107C217.63 203.499 217.865 202.611 217.865 201.443C217.865 200.286 217.63 199.409 217.159 198.812C216.694 198.208 216.005 197.907 215.092 197.907C214.19 197.907 213.51 198.203 213.05 198.795C212.591 199.387 212.361 200.27 212.361 201.443ZM225.867 196.736C226.271 196.736 226.633 196.77 226.954 196.836L226.763 198.114C226.387 198.031 226.055 197.99 225.767 197.99C225.031 197.99 224.4 198.289 223.875 198.886C223.354 199.484 223.094 200.228 223.094 201.119V206H221.716V196.902H222.854L223.011 198.587H223.078C223.415 197.995 223.822 197.539 224.298 197.218C224.774 196.897 225.297 196.736 225.867 196.736ZM232.499 206.166C231.154 206.166 230.092 205.757 229.312 204.938C228.537 204.118 228.149 202.981 228.149 201.526C228.149 200.059 228.509 198.895 229.229 198.031C229.953 197.168 230.925 196.736 232.142 196.736C233.282 196.736 234.184 197.113 234.848 197.865C235.512 198.612 235.844 199.6 235.844 200.829V201.7H229.577C229.605 202.768 229.873 203.579 230.382 204.132C230.897 204.686 231.619 204.962 232.549 204.962C233.528 204.962 234.497 204.758 235.454 204.348V205.577C234.967 205.787 234.505 205.936 234.068 206.025C233.636 206.119 233.113 206.166 232.499 206.166ZM232.125 197.89C231.395 197.89 230.811 198.128 230.374 198.604C229.942 199.08 229.688 199.738 229.61 200.58H234.367C234.367 199.711 234.173 199.047 233.786 198.587C233.398 198.123 232.845 197.89 232.125 197.89ZM65.2798 229H63.9019V219.902H65.2798V229ZM63.7856 217.437C63.7856 217.122 63.8631 216.892 64.0181 216.748C64.173 216.599 64.3667 216.524 64.5991 216.524C64.8205 216.524 65.0114 216.599 65.1719 216.748C65.3324 216.897 65.4126 217.127 65.4126 217.437C65.4126 217.747 65.3324 217.979 65.1719 218.134C65.0114 218.284 64.8205 218.358 64.5991 218.358C64.3667 218.358 64.173 218.284 64.0181 218.134C63.8631 217.979 63.7856 217.747 63.7856 217.437ZM74.4272 229V223.115C74.4272 222.373 74.2585 221.82 73.9209 221.455C73.5833 221.089 73.0549 220.907 72.3354 220.907C71.3836 220.907 70.6864 221.164 70.2437 221.679C69.8009 222.193 69.5796 223.043 69.5796 224.227V229H68.2017V219.902H69.3223L69.5464 221.147H69.6128C69.895 220.699 70.2907 220.353 70.7998 220.11C71.3089 219.861 71.8761 219.736 72.5015 219.736C73.5972 219.736 74.4217 220.002 74.9751 220.533C75.5285 221.059 75.8052 221.903 75.8052 223.065V229H74.4272ZM84.8364 227.78H84.7617C84.1253 228.704 83.1735 229.166 81.9062 229.166C80.7165 229.166 79.7896 228.759 79.1255 227.946C78.467 227.132 78.1377 225.976 78.1377 224.476C78.1377 222.976 78.4697 221.812 79.1338 220.981C79.7979 220.151 80.722 219.736 81.9062 219.736C83.1403 219.736 84.0866 220.185 84.7451 221.081H84.853L84.7949 220.425L84.7617 219.786V216.084H86.1396V229H85.019L84.8364 227.78ZM82.0806 228.012C83.0213 228.012 83.702 227.758 84.1226 227.249C84.5487 226.734 84.7617 225.907 84.7617 224.767V224.476C84.7617 223.187 84.5459 222.268 84.1143 221.72C83.6882 221.167 83.0047 220.89 82.064 220.89C81.256 220.89 80.6362 221.206 80.2046 221.836C79.7785 222.462 79.5654 223.347 79.5654 224.493C79.5654 225.655 79.7785 226.532 80.2046 227.124C80.6307 227.716 81.256 228.012 82.0806 228.012ZM92.9131 229.166C91.5684 229.166 90.5059 228.757 89.7256 227.938C88.9508 227.118 88.5635 225.981 88.5635 224.526C88.5635 223.059 88.9232 221.895 89.6426 221.031C90.3675 220.168 91.3387 219.736 92.5562 219.736C93.6961 219.736 94.5981 220.113 95.2622 220.865C95.9263 221.612 96.2583 222.6 96.2583 223.829V224.7H89.9912C90.0189 225.768 90.2873 226.579 90.7964 227.132C91.311 227.686 92.0332 227.962 92.9629 227.962C93.9424 227.962 94.9108 227.758 95.8682 227.348V228.577C95.3812 228.787 94.9191 228.936 94.4819 229.025C94.0503 229.119 93.5273 229.166 92.9131 229.166ZM92.5396 220.89C91.8091 220.89 91.2253 221.128 90.7881 221.604C90.3564 222.08 90.1019 222.738 90.0244 223.58H94.7808C94.7808 222.711 94.5871 222.047 94.1997 221.587C93.8123 221.123 93.259 220.89 92.5396 220.89ZM102.849 229.166C102.257 229.166 101.715 229.058 101.222 228.842C100.735 228.621 100.326 228.283 99.9937 227.83H99.894C99.9604 228.361 99.9937 228.864 99.9937 229.34V233.084H98.6157V219.902H99.7363L99.9272 221.147H99.9937C100.348 220.649 100.76 220.29 101.23 220.068C101.701 219.847 102.24 219.736 102.849 219.736C104.056 219.736 104.985 220.149 105.638 220.973C106.297 221.798 106.626 222.954 106.626 224.443C106.626 225.937 106.291 227.099 105.622 227.929C104.958 228.754 104.033 229.166 102.849 229.166ZM102.65 220.907C101.72 220.907 101.048 221.164 100.633 221.679C100.218 222.193 100.005 223.012 99.9937 224.136V224.443C99.9937 225.721 100.207 226.637 100.633 227.19C101.059 227.738 101.742 228.012 102.683 228.012C103.469 228.012 104.083 227.694 104.526 227.058C104.974 226.421 105.198 225.544 105.198 224.426C105.198 223.292 104.974 222.423 104.526 221.82C104.083 221.211 103.458 220.907 102.65 220.907ZM112.885 229.166C111.54 229.166 110.478 228.757 109.697 227.938C108.923 227.118 108.535 225.981 108.535 224.526C108.535 223.059 108.895 221.895 109.614 221.031C110.339 220.168 111.31 219.736 112.528 219.736C113.668 219.736 114.57 220.113 115.234 220.865C115.898 221.612 116.23 222.6 116.23 223.829V224.7H109.963C109.991 225.768 110.259 226.579 110.768 227.132C111.283 227.686 112.005 227.962 112.935 227.962C113.914 227.962 114.882 227.758 115.84 227.348V228.577C115.353 228.787 114.891 228.936 114.454 229.025C114.022 229.119 113.499 229.166 112.885 229.166ZM112.511 220.89C111.781 220.89 111.197 221.128 110.76 221.604C110.328 222.08 110.074 222.738 109.996 223.58H114.752C114.752 222.711 114.559 222.047 114.171 221.587C113.784 221.123 113.231 220.89 112.511 220.89ZM124.813 229V223.115C124.813 222.373 124.644 221.82 124.307 221.455C123.969 221.089 123.441 220.907 122.721 220.907C121.769 220.907 121.072 221.164 120.629 221.679C120.187 222.193 119.965 223.043 119.965 224.227V229H118.587V219.902H119.708L119.932 221.147H119.999C120.281 220.699 120.676 220.353 121.186 220.11C121.695 219.861 122.262 219.736 122.887 219.736C123.983 219.736 124.807 220.002 125.361 220.533C125.914 221.059 126.191 221.903 126.191 223.065V229H124.813ZM135.222 227.78H135.147C134.511 228.704 133.559 229.166 132.292 229.166C131.102 229.166 130.175 228.759 129.511 227.946C128.853 227.132 128.523 225.976 128.523 224.476C128.523 222.976 128.855 221.812 129.52 220.981C130.184 220.151 131.108 219.736 132.292 219.736C133.526 219.736 134.472 220.185 135.131 221.081H135.239L135.181 220.425L135.147 219.786V216.084H136.525V229H135.405L135.222 227.78ZM132.466 228.012C133.407 228.012 134.088 227.758 134.508 227.249C134.934 226.734 135.147 225.907 135.147 224.767V224.476C135.147 223.187 134.932 222.268 134.5 221.72C134.074 221.167 133.39 220.89 132.45 220.89C131.642 220.89 131.022 221.206 130.59 221.836C130.164 222.462 129.951 223.347 129.951 224.493C129.951 225.655 130.164 226.532 130.59 227.124C131.016 227.716 131.642 228.012 132.466 228.012ZM145.05 229L144.776 227.705H144.71C144.256 228.275 143.802 228.662 143.349 228.867C142.9 229.066 142.339 229.166 141.664 229.166C140.762 229.166 140.053 228.934 139.539 228.469C139.029 228.004 138.775 227.343 138.775 226.485C138.775 224.648 140.244 223.685 143.183 223.596L144.727 223.546V222.982C144.727 222.268 144.572 221.742 144.262 221.405C143.957 221.062 143.468 220.89 142.792 220.89C142.034 220.89 141.177 221.123 140.219 221.587L139.796 220.533C140.244 220.29 140.734 220.099 141.265 219.96C141.802 219.822 142.339 219.753 142.875 219.753C143.96 219.753 144.763 219.994 145.283 220.475C145.808 220.957 146.071 221.729 146.071 222.791V229H145.05ZM141.938 228.029C142.795 228.029 143.468 227.794 143.955 227.323C144.447 226.853 144.693 226.194 144.693 225.348V224.526L143.315 224.584C142.22 224.623 141.428 224.794 140.941 225.099C140.46 225.397 140.219 225.865 140.219 226.501C140.219 227 140.369 227.379 140.667 227.639C140.972 227.899 141.395 228.029 141.938 228.029ZM155.144 229V223.115C155.144 222.373 154.975 221.82 154.638 221.455C154.3 221.089 153.772 220.907 153.052 220.907C152.1 220.907 151.403 221.164 150.96 221.679C150.518 222.193 150.296 223.043 150.296 224.227V229H148.918V219.902H150.039L150.263 221.147H150.33C150.612 220.699 151.007 220.353 151.517 220.11C152.026 219.861 152.593 219.736 153.218 219.736C154.314 219.736 155.139 220.002 155.692 220.533C156.245 221.059 156.522 221.903 156.522 223.065V229H155.144ZM162.299 228.029C162.543 228.029 162.778 228.012 163.005 227.979C163.232 227.94 163.412 227.902 163.544 227.863V228.917C163.395 228.989 163.174 229.047 162.88 229.091C162.593 229.141 162.333 229.166 162.1 229.166C160.34 229.166 159.46 228.239 159.46 226.385V220.973H158.157V220.309L159.46 219.736L160.042 217.794H160.838V219.902H163.478V220.973H160.838V226.327C160.838 226.875 160.968 227.296 161.229 227.589C161.489 227.882 161.846 228.029 162.299 228.029ZM166.815 227.024L166.939 227.215C166.796 227.769 166.588 228.411 166.317 229.141C166.046 229.877 165.764 230.561 165.47 231.191H164.433C164.582 230.616 164.745 229.905 164.922 229.058C165.105 228.211 165.232 227.534 165.304 227.024H166.815ZM175.332 229H173.954V219.902H175.332V229ZM173.837 217.437C173.837 217.122 173.915 216.892 174.07 216.748C174.225 216.599 174.418 216.524 174.651 216.524C174.872 216.524 175.063 216.599 175.224 216.748C175.384 216.897 175.464 217.127 175.464 217.437C175.464 217.747 175.384 217.979 175.224 218.134C175.063 218.284 174.872 218.358 174.651 218.358C174.418 218.358 174.225 218.284 174.07 218.134C173.915 217.979 173.837 217.747 173.837 217.437ZM184.479 229V223.115C184.479 222.373 184.31 221.82 183.973 221.455C183.635 221.089 183.107 220.907 182.387 220.907C181.435 220.907 180.738 221.164 180.295 221.679C179.853 222.193 179.631 223.043 179.631 224.227V229H178.253V219.902H179.374L179.598 221.147H179.665C179.947 220.699 180.342 220.353 180.852 220.11C181.361 219.861 181.928 219.736 182.553 219.736C183.649 219.736 184.473 220.002 185.027 220.533C185.58 221.059 185.857 221.903 185.857 223.065V229H184.479ZM192.332 229.166C191.014 229.166 189.993 228.762 189.269 227.954C188.549 227.141 188.189 225.992 188.189 224.509C188.189 222.987 188.555 221.812 189.285 220.981C190.021 220.151 191.067 219.736 192.423 219.736C192.86 219.736 193.297 219.783 193.734 219.877C194.172 219.972 194.515 220.082 194.764 220.209L194.34 221.38C194.036 221.258 193.704 221.159 193.344 221.081C192.985 220.998 192.666 220.957 192.39 220.957C190.541 220.957 189.617 222.135 189.617 224.493C189.617 225.611 189.841 226.468 190.29 227.066C190.743 227.664 191.413 227.962 192.298 227.962C193.056 227.962 193.834 227.799 194.631 227.473V228.693C194.022 229.008 193.256 229.166 192.332 229.166ZM198.175 229H196.797V216.084H198.175V229ZM202.392 219.902V225.804C202.392 226.546 202.561 227.099 202.898 227.464C203.236 227.83 203.764 228.012 204.484 228.012C205.436 228.012 206.13 227.752 206.567 227.232C207.01 226.712 207.231 225.862 207.231 224.684V219.902H208.609V229H207.472L207.273 227.78H207.198C206.916 228.228 206.523 228.571 206.02 228.809C205.521 229.047 204.951 229.166 204.31 229.166C203.203 229.166 202.373 228.903 201.819 228.377C201.271 227.852 200.998 227.011 200.998 225.854V219.902H202.392ZM217.408 226.518C217.408 227.365 217.093 228.018 216.462 228.477C215.831 228.936 214.946 229.166 213.806 229.166C212.599 229.166 211.659 228.975 210.983 228.593V227.315C211.421 227.536 211.888 227.711 212.386 227.838C212.89 227.965 213.374 228.029 213.839 228.029C214.558 228.029 215.112 227.915 215.499 227.688C215.886 227.456 216.08 227.105 216.08 226.634C216.08 226.28 215.925 225.979 215.615 225.729C215.311 225.475 214.713 225.176 213.822 224.833C212.976 224.518 212.372 224.244 212.013 224.011C211.659 223.773 211.393 223.505 211.216 223.206C211.044 222.907 210.958 222.55 210.958 222.135C210.958 221.394 211.26 220.81 211.863 220.384C212.466 219.952 213.294 219.736 214.345 219.736C215.325 219.736 216.282 219.936 217.217 220.334L216.728 221.455C215.814 221.078 214.987 220.89 214.246 220.89C213.593 220.89 213.1 220.993 212.768 221.197C212.436 221.402 212.27 221.684 212.27 222.044C212.27 222.287 212.331 222.495 212.453 222.667C212.58 222.838 212.782 223.001 213.059 223.156C213.335 223.311 213.867 223.535 214.652 223.829C215.731 224.222 216.459 224.617 216.835 225.016C217.217 225.414 217.408 225.915 217.408 226.518ZM221.036 229H219.658V219.902H221.036V229ZM219.542 217.437C219.542 217.122 219.619 216.892 219.774 216.748C219.929 216.599 220.123 216.524 220.355 216.524C220.576 216.524 220.767 216.599 220.928 216.748C221.088 216.897 221.168 217.127 221.168 217.437C221.168 217.747 221.088 217.979 220.928 218.134C220.767 218.284 220.576 218.358 220.355 218.358C220.123 218.358 219.929 218.284 219.774 218.134C219.619 217.979 219.542 217.747 219.542 217.437ZM225.95 229L222.497 219.902H223.974L225.933 225.298C226.376 226.56 226.636 227.379 226.713 227.755H226.78C226.841 227.462 227.032 226.856 227.353 225.937C227.679 225.013 228.407 223.001 229.536 219.902H231.013L227.56 229H225.95ZM236.317 229.166C234.973 229.166 233.91 228.757 233.13 227.938C232.355 227.118 231.968 225.981 231.968 224.526C231.968 223.059 232.327 221.895 233.047 221.031C233.772 220.168 234.743 219.736 235.96 219.736C237.1 219.736 238.002 220.113 238.667 220.865C239.331 221.612 239.663 222.6 239.663 223.829V224.7H233.396C233.423 225.768 233.692 226.579 234.201 227.132C234.715 227.686 235.438 227.962 236.367 227.962C237.347 227.962 238.315 227.758 239.272 227.348V228.577C238.785 228.787 238.323 228.936 237.886 229.025C237.455 229.119 236.932 229.166 236.317 229.166ZM235.944 220.89C235.213 220.89 234.63 221.128 234.192 221.604C233.761 222.08 233.506 222.738 233.429 223.58H238.185C238.185 222.711 237.991 222.047 237.604 221.587C237.217 221.123 236.663 220.89 235.944 220.89ZM101.587 252L101.313 250.705H101.247C100.793 251.275 100.34 251.662 99.8857 251.867C99.4375 252.066 98.8758 252.166 98.2007 252.166C97.2987 252.166 96.5903 251.934 96.0757 251.469C95.5666 251.004 95.312 250.343 95.312 249.485C95.312 247.648 96.7812 246.685 99.7197 246.596L101.264 246.546V245.982C101.264 245.268 101.109 244.742 100.799 244.405C100.494 244.062 100.005 243.89 99.3296 243.89C98.5715 243.89 97.7137 244.123 96.7563 244.587L96.333 243.533C96.7812 243.29 97.271 243.099 97.8022 242.96C98.339 242.822 98.8758 242.753 99.4126 242.753C100.497 242.753 101.3 242.994 101.82 243.475C102.346 243.957 102.608 244.729 102.608 245.791V252H101.587ZM98.4746 251.029C99.3324 251.029 100.005 250.794 100.492 250.323C100.984 249.853 101.23 249.194 101.23 248.348V247.526L99.8525 247.584C98.7568 247.623 97.9655 247.794 97.4785 248.099C96.9971 248.397 96.7563 248.865 96.7563 249.501C96.7563 250 96.9058 250.379 97.2046 250.639C97.509 250.899 97.9323 251.029 98.4746 251.029ZM111.681 252V246.115C111.681 245.373 111.512 244.82 111.175 244.455C110.837 244.089 110.309 243.907 109.589 243.907C108.638 243.907 107.94 244.164 107.498 244.679C107.055 245.193 106.833 246.043 106.833 247.227V252H105.456V242.902H106.576L106.8 244.147H106.867C107.149 243.699 107.545 243.353 108.054 243.11C108.563 242.861 109.13 242.736 109.755 242.736C110.851 242.736 111.676 243.002 112.229 243.533C112.782 244.059 113.059 244.903 113.059 246.065V252H111.681ZM122.09 250.78H122.016C121.379 251.704 120.427 252.166 119.16 252.166C117.97 252.166 117.043 251.759 116.379 250.946C115.721 250.132 115.392 248.976 115.392 247.476C115.392 245.976 115.724 244.812 116.388 243.981C117.052 243.151 117.976 242.736 119.16 242.736C120.394 242.736 121.34 243.185 121.999 244.081H122.107L122.049 243.425L122.016 242.786V239.084H123.394V252H122.273L122.09 250.78ZM119.334 251.012C120.275 251.012 120.956 250.758 121.376 250.249C121.803 249.734 122.016 248.907 122.016 247.767V247.476C122.016 246.187 121.8 245.268 121.368 244.72C120.942 244.167 120.259 243.89 119.318 243.89C118.51 243.89 117.89 244.206 117.458 244.836C117.032 245.462 116.819 246.347 116.819 247.493C116.819 248.655 117.032 249.532 117.458 250.124C117.885 250.716 118.51 251.012 119.334 251.012ZM134.89 242.736C135.294 242.736 135.657 242.77 135.978 242.836L135.787 244.114C135.41 244.031 135.078 243.99 134.791 243.99C134.055 243.99 133.424 244.289 132.898 244.886C132.378 245.484 132.118 246.228 132.118 247.119V252H130.74V242.902H131.877L132.035 244.587H132.101C132.439 243.995 132.845 243.539 133.321 243.218C133.797 242.897 134.32 242.736 134.89 242.736ZM141.522 252.166C140.178 252.166 139.115 251.757 138.335 250.938C137.56 250.118 137.173 248.981 137.173 247.526C137.173 246.059 137.533 244.895 138.252 244.031C138.977 243.168 139.948 242.736 141.166 242.736C142.306 242.736 143.208 243.113 143.872 243.865C144.536 244.612 144.868 245.6 144.868 246.829V247.7H138.601C138.628 248.768 138.897 249.579 139.406 250.132C139.92 250.686 140.643 250.962 141.572 250.962C142.552 250.962 143.52 250.758 144.478 250.348V251.577C143.991 251.787 143.528 251.936 143.091 252.025C142.66 252.119 142.137 252.166 141.522 252.166ZM141.149 243.89C140.418 243.89 139.835 244.128 139.397 244.604C138.966 245.08 138.711 245.738 138.634 246.58H143.39C143.39 245.711 143.196 245.047 142.809 244.587C142.422 244.123 141.868 243.89 141.149 243.89ZM153.094 249.518C153.094 250.365 152.778 251.018 152.147 251.477C151.517 251.936 150.631 252.166 149.491 252.166C148.285 252.166 147.344 251.975 146.669 251.593V250.315C147.106 250.536 147.574 250.711 148.072 250.838C148.575 250.965 149.06 251.029 149.524 251.029C150.244 251.029 150.797 250.915 151.185 250.688C151.572 250.456 151.766 250.105 151.766 249.634C151.766 249.28 151.611 248.979 151.301 248.729C150.996 248.475 150.399 248.176 149.508 247.833C148.661 247.518 148.058 247.244 147.698 247.011C147.344 246.773 147.078 246.505 146.901 246.206C146.73 245.907 146.644 245.55 146.644 245.135C146.644 244.394 146.946 243.81 147.549 243.384C148.152 242.952 148.979 242.736 150.031 242.736C151.01 242.736 151.968 242.936 152.903 243.334L152.413 244.455C151.5 244.078 150.673 243.89 149.931 243.89C149.278 243.89 148.786 243.993 148.454 244.197C148.122 244.402 147.956 244.684 147.956 245.044C147.956 245.287 148.016 245.495 148.138 245.667C148.265 245.838 148.467 246.001 148.744 246.156C149.021 246.311 149.552 246.535 150.338 246.829C151.417 247.222 152.145 247.617 152.521 248.016C152.903 248.414 153.094 248.915 153.094 249.518ZM159.577 252.166C158.985 252.166 158.442 252.058 157.95 251.842C157.463 251.621 157.053 251.283 156.721 250.83H156.622C156.688 251.361 156.721 251.864 156.721 252.34V256.084H155.343V242.902H156.464L156.655 244.147H156.721C157.075 243.649 157.488 243.29 157.958 243.068C158.428 242.847 158.968 242.736 159.577 242.736C160.783 242.736 161.713 243.149 162.366 243.973C163.024 244.798 163.354 245.954 163.354 247.443C163.354 248.937 163.019 250.099 162.349 250.929C161.685 251.754 160.761 252.166 159.577 252.166ZM159.377 243.907C158.448 243.907 157.775 244.164 157.36 244.679C156.945 245.193 156.732 246.012 156.721 247.136V247.443C156.721 248.721 156.934 249.637 157.36 250.19C157.786 250.738 158.47 251.012 159.411 251.012C160.196 251.012 160.811 250.694 161.253 250.058C161.702 249.421 161.926 248.544 161.926 247.426C161.926 246.292 161.702 245.423 161.253 244.82C160.811 244.211 160.185 243.907 159.377 243.907ZM169.612 252.166C168.268 252.166 167.205 251.757 166.425 250.938C165.65 250.118 165.263 248.981 165.263 247.526C165.263 246.059 165.622 244.895 166.342 244.031C167.067 243.168 168.038 242.736 169.255 242.736C170.395 242.736 171.297 243.113 171.961 243.865C172.625 244.612 172.958 245.6 172.958 246.829V247.7H166.69C166.718 248.768 166.986 249.579 167.496 250.132C168.01 250.686 168.732 250.962 169.662 250.962C170.642 250.962 171.61 250.758 172.567 250.348V251.577C172.08 251.787 171.618 251.936 171.181 252.025C170.75 252.119 170.227 252.166 169.612 252.166ZM169.239 243.89C168.508 243.89 167.924 244.128 167.487 244.604C167.056 245.08 166.801 245.738 166.724 246.58H171.48C171.48 245.711 171.286 245.047 170.899 244.587C170.512 244.123 169.958 243.89 169.239 243.89ZM178.951 252.166C177.634 252.166 176.613 251.762 175.888 250.954C175.168 250.141 174.809 248.992 174.809 247.509C174.809 245.987 175.174 244.812 175.904 243.981C176.64 243.151 177.686 242.736 179.042 242.736C179.479 242.736 179.916 242.783 180.354 242.877C180.791 242.972 181.134 243.082 181.383 243.209L180.959 244.38C180.655 244.258 180.323 244.159 179.963 244.081C179.604 243.998 179.285 243.957 179.009 243.957C177.16 243.957 176.236 245.135 176.236 247.493C176.236 248.611 176.46 249.468 176.909 250.066C177.362 250.664 178.032 250.962 178.917 250.962C179.676 250.962 180.453 250.799 181.25 250.473V251.693C180.641 252.008 179.875 252.166 178.951 252.166ZM186.355 251.029C186.598 251.029 186.834 251.012 187.061 250.979C187.287 250.94 187.467 250.902 187.6 250.863V251.917C187.451 251.989 187.229 252.047 186.936 252.091C186.648 252.141 186.388 252.166 186.156 252.166C184.396 252.166 183.516 251.239 183.516 249.385V243.973H182.213V243.309L183.516 242.736L184.097 240.794H184.894V242.902H187.534V243.973H184.894V249.327C184.894 249.875 185.024 250.296 185.284 250.589C185.544 250.882 185.901 251.029 186.355 251.029ZM193.527 243.973H191.211V252H189.833V243.973H188.206V243.351L189.833 242.853V242.346C189.833 240.111 190.81 238.993 192.763 238.993C193.245 238.993 193.809 239.09 194.457 239.283L194.1 240.387C193.568 240.216 193.115 240.13 192.738 240.13C192.218 240.13 191.833 240.304 191.584 240.653C191.335 240.996 191.211 241.549 191.211 242.313V242.902H193.527V243.973ZM196.482 242.902V248.804C196.482 249.546 196.651 250.099 196.988 250.464C197.326 250.83 197.854 251.012 198.574 251.012C199.526 251.012 200.22 250.752 200.657 250.232C201.1 249.712 201.321 248.862 201.321 247.684V242.902H202.699V252H201.562L201.363 250.78H201.288C201.006 251.228 200.613 251.571 200.109 251.809C199.611 252.047 199.041 252.166 198.399 252.166C197.293 252.166 196.463 251.903 195.909 251.377C195.361 250.852 195.087 250.011 195.087 248.854V242.902H196.482ZM207.007 252H205.629V239.084H207.007V252Z" fill="black"/>
<g filter="url(#filter2_i)">
<ellipse cx="151" cy="145.25" rx="145" ry="145.25" fill="#FFDCB1" fill-opacity="0.01"/>
</g>
<g filter="url(#filter3_i)">
<ellipse cx="151" cy="145.25" rx="145" ry="145.25" fill="#FFDCB1" fill-opacity="0.01"/>
</g>
<defs>
<filter id="filter0_d" x="78" y="51" width="150" height="101.754" filterUnits="userSpaceOnUse" color-interpolation-filters="sRGB">
<feFlood flood-opacity="0" result="BackgroundImageFix"/>
<feColorMatrix in="SourceAlpha" type="matrix" values="0 0 0 0 0 0 0 0 0 0 0 0 0 0 0 0 0 0 127 0"/>
<feOffset dx="2" dy="2"/>
<feGaussianBlur stdDeviation="1"/>
<feColorMatrix type="matrix" values="0 0 0 0 0 0 0 0 0 0 0 0 0 0 0 0 0 0 0.25 0"/>
<feBlend mode="normal" in2="BackgroundImageFix" result="effect1_dropShadow"/>
<feBlend mode="normal" in="SourceGraphic" in2="effect1_dropShadow" result="shape"/>
</filter>
<filter id="filter1_d" x="0" y="153.356" width="301.685" height="142.079" filterUnits="userSpaceOnUse" color-interpolation-filters="sRGB">
<feFlood flood-opacity="0" result="BackgroundImageFix"/>
<feColorMatrix in="SourceAlpha" type="matrix" values="0 0 0 0 0 0 0 0 0 0 0 0 0 0 0 0 0 0 127 0"/>
<feOffset dy="-2"/>
<feGaussianBlur stdDeviation="3.5"/>
<feColorMatrix type="matrix" values="0 0 0 0 0 0 0 0 0 0 0 0 0 0 0 0 0 0 0.17 0"/>
<feBlend mode="normal" in2="BackgroundImageFix" result="effect1_dropShadow"/>
<feBlend mode="normal" in="SourceGraphic" in2="effect1_dropShadow" result="shape"/>
</filter>
<filter id="filter2_i" x="6" y="0" width="292" height="292.5" filterUnits="userSpaceOnUse" color-interpolation-filters="sRGB">
<feFlood flood-opacity="0" result="BackgroundImageFix"/>
<feBlend mode="normal" in="SourceGraphic" in2="BackgroundImageFix" result="shape"/>
<feColorMatrix in="SourceAlpha" type="matrix" values="0 0 0 0 0 0 0 0 0 0 0 0 0 0 0 0 0 0 127 0" result="hardAlpha"/>
<feOffset dx="2" dy="2"/>
<feGaussianBlur stdDeviation="2"/>
<feComposite in2="hardAlpha" operator="arithmetic" k2="-1" k3="1"/>
<feColorMatrix type="matrix" values="0 0 0 0 0 0 0 0 0 0 0 0 0 0 0 0 0 0 0.15 0"/>
<feBlend mode="normal" in2="shape" result="effect1_innerShadow"/>
</filter>
<filter id="filter3_i" x="4" y="-2" width="292" height="292.5" filterUnits="userSpaceOnUse" color-interpolation-filters="sRGB">
<feFlood flood-opacity="0" result="BackgroundImageFix"/>
<feBlend mode="normal" in="SourceGraphic" in2="BackgroundImageFix" result="shape"/>
<feColorMatrix in="SourceAlpha" type="matrix" values="0 0 0 0 0 0 0 0 0 0 0 0 0 0 0 0 0 0 127 0" result="hardAlpha"/>
<feOffset dx="-2" dy="-2"/>
<feGaussianBlur stdDeviation="2"/>
<feComposite in2="hardAlpha" operator="arithmetic" k2="-1" k3="1"/>
<feColorMatrix type="matrix" values="0 0 0 0 0 0 0 0 0 0 0 0 0 0 0 0 0 0 0.15 0"/>
<feBlend mode="normal" in2="shape" result="effect1_innerShadow"/>
</filter>
</defs>
</svg>
