<svg width="302" height="296" viewBox="0 0 302 296" fill="none" xmlns="http://www.w3.org/2000/svg">
<circle cx="153" cy="145" r="145" fill="#FFCCCC"/>
<g filter="url(#filter0_d)">
<path fill-rule="evenodd" clip-rule="evenodd" d="M296.68 165.217C287.032 235.94 226.39 290.434 153.021 290.434C78.6646 290.434 17.3808 234.464 9 162.356C12.0995 163.538 15.338 165.157 18.8269 166.902C32.728 173.854 50.6043 182.793 79.5011 173.968C123.713 160.465 168.919 160.465 221.079 177.633C246.924 186.139 274.336 175.359 296.68 165.217Z" fill="white"/>
</g>
<path d="M43.9424 210V197.864H45.3535V208.722H50.7075V210H43.9424ZM56.4102 210.166C55.0654 210.166 54.0029 209.757 53.2227 208.938C52.4479 208.118 52.0605 206.981 52.0605 205.526C52.0605 204.059 52.4202 202.895 53.1396 202.031C53.8646 201.168 54.8358 200.736 56.0532 200.736C57.1932 200.736 58.0952 201.113 58.7593 201.865C59.4233 202.612 59.7554 203.6 59.7554 204.829V205.7H53.4883C53.516 206.768 53.7843 207.579 54.2935 208.132C54.8081 208.686 55.5303 208.962 56.46 208.962C57.4395 208.962 58.4079 208.758 59.3652 208.348V209.577C58.8783 209.787 58.4162 209.936 57.979 210.025C57.5474 210.119 57.0244 210.166 56.4102 210.166ZM56.0366 201.89C55.3062 201.89 54.7223 202.128 54.2852 202.604C53.8535 203.08 53.599 203.738 53.5215 204.58H58.2778C58.2778 203.711 58.0841 203.047 57.6968 202.587C57.3094 202.123 56.756 201.89 56.0366 201.89ZM67.7075 210L67.4336 208.705H67.3672C66.9134 209.275 66.4596 209.662 66.0059 209.867C65.5576 210.066 64.9959 210.166 64.3208 210.166C63.4188 210.166 62.7104 209.934 62.1958 209.469C61.6867 209.004 61.4321 208.343 61.4321 207.485C61.4321 205.648 62.9014 204.685 65.8398 204.596L67.3838 204.546V203.982C67.3838 203.268 67.2288 202.742 66.9189 202.405C66.6146 202.062 66.1248 201.89 65.4497 201.89C64.6916 201.89 63.8338 202.123 62.8765 202.587L62.4531 201.533C62.9014 201.29 63.3911 201.099 63.9224 200.96C64.4591 200.822 64.9959 200.753 65.5327 200.753C66.6174 200.753 67.4198 200.994 67.9399 201.475C68.4657 201.957 68.7285 202.729 68.7285 203.791V210H67.7075ZM64.5947 209.029C65.4525 209.029 66.1248 208.794 66.6118 208.323C67.1043 207.853 67.3506 207.194 67.3506 206.348V205.526L65.9727 205.584C64.877 205.623 64.0856 205.794 63.5986 206.099C63.1172 206.397 62.8765 206.865 62.8765 207.501C62.8765 208 63.0259 208.379 63.3247 208.639C63.6291 208.899 64.0524 209.029 64.5947 209.029ZM75.7261 200.736C76.13 200.736 76.4925 200.77 76.8135 200.836L76.6226 202.114C76.2463 202.031 75.9142 201.99 75.6265 201.99C74.8905 201.99 74.2596 202.289 73.7339 202.886C73.2137 203.484 72.9536 204.228 72.9536 205.119V210H71.5757V200.902H72.7129L72.8706 202.587H72.937C73.2746 201.995 73.6813 201.539 74.1572 201.218C74.6331 200.897 75.1561 200.736 75.7261 200.736ZM84.7407 210V204.115C84.7407 203.373 84.5719 202.82 84.2344 202.455C83.8968 202.089 83.3683 201.907 82.6489 201.907C81.6971 201.907 80.9998 202.164 80.5571 202.679C80.1144 203.193 79.8931 204.043 79.8931 205.227V210H78.5151V200.902H79.6357L79.8599 202.147H79.9263C80.2085 201.699 80.6042 201.353 81.1133 201.11C81.6224 200.861 82.1896 200.736 82.8149 200.736C83.9106 200.736 84.7352 201.002 85.2886 201.533C85.842 202.059 86.1187 202.903 86.1187 204.065V210H84.7407ZM90.3354 210H88.9575V200.902H90.3354V210ZM88.8413 198.437C88.8413 198.122 88.9188 197.892 89.0737 197.748C89.2287 197.599 89.4224 197.524 89.6548 197.524C89.8761 197.524 90.0671 197.599 90.2275 197.748C90.388 197.897 90.4683 198.127 90.4683 198.437C90.4683 198.747 90.388 198.979 90.2275 199.134C90.0671 199.284 89.8761 199.358 89.6548 199.358C89.4224 199.358 89.2287 199.284 89.0737 199.134C88.9188 198.979 88.8413 198.747 88.8413 198.437ZM99.4829 210V204.115C99.4829 203.373 99.3141 202.82 98.9766 202.455C98.639 202.089 98.1105 201.907 97.3911 201.907C96.4393 201.907 95.742 202.164 95.2993 202.679C94.8566 203.193 94.6353 204.043 94.6353 205.227V210H93.2573V200.902H94.3779L94.6021 202.147H94.6685C94.9507 201.699 95.3464 201.353 95.8555 201.11C96.3646 200.861 96.9318 200.736 97.5571 200.736C98.6528 200.736 99.4774 201.002 100.031 201.533C100.584 202.059 100.861 202.903 100.861 204.065V210H99.4829ZM111.146 200.902V201.774L109.46 201.973C109.615 202.167 109.754 202.421 109.875 202.737C109.997 203.047 110.058 203.398 110.058 203.791C110.058 204.682 109.754 205.393 109.145 205.924C108.536 206.456 107.701 206.721 106.638 206.721C106.367 206.721 106.112 206.699 105.875 206.655C105.288 206.965 104.995 207.355 104.995 207.825C104.995 208.074 105.097 208.26 105.302 208.381C105.507 208.498 105.858 208.556 106.356 208.556H107.966C108.951 208.556 109.707 208.763 110.232 209.178C110.764 209.593 111.029 210.196 111.029 210.988C111.029 211.995 110.625 212.761 109.817 213.287C109.009 213.818 107.831 214.084 106.281 214.084C105.091 214.084 104.173 213.863 103.525 213.42C102.883 212.977 102.562 212.352 102.562 211.544C102.562 210.991 102.74 210.512 103.094 210.108C103.448 209.704 103.946 209.43 104.588 209.286C104.355 209.181 104.159 209.018 103.999 208.796C103.844 208.575 103.766 208.318 103.766 208.024C103.766 207.692 103.855 207.402 104.032 207.153C104.209 206.904 104.488 206.663 104.87 206.431C104.4 206.237 104.015 205.908 103.716 205.443C103.423 204.978 103.276 204.447 103.276 203.849C103.276 202.853 103.575 202.087 104.173 201.55C104.771 201.007 105.617 200.736 106.713 200.736C107.189 200.736 107.618 200.792 108 200.902H111.146ZM103.891 211.527C103.891 212.02 104.098 212.393 104.513 212.648C104.928 212.903 105.523 213.03 106.298 213.03C107.454 213.03 108.309 212.855 108.863 212.507C109.422 212.164 109.701 211.696 109.701 211.104C109.701 210.611 109.549 210.268 109.245 210.075C108.94 209.887 108.368 209.792 107.526 209.792H105.875C105.249 209.792 104.762 209.942 104.414 210.241C104.065 210.54 103.891 210.968 103.891 211.527ZM104.638 203.816C104.638 204.452 104.818 204.934 105.177 205.26C105.537 205.587 106.038 205.75 106.68 205.75C108.024 205.75 108.697 205.097 108.697 203.791C108.697 202.424 108.016 201.741 106.655 201.741C106.007 201.741 105.509 201.915 105.161 202.264C104.812 202.612 104.638 203.13 104.638 203.816ZM129.025 210V204.082C129.025 203.357 128.87 202.814 128.561 202.455C128.251 202.089 127.769 201.907 127.116 201.907C126.258 201.907 125.625 202.153 125.215 202.646C124.806 203.138 124.601 203.896 124.601 204.92V210H123.223V204.082C123.223 203.357 123.068 202.814 122.758 202.455C122.448 202.089 121.964 201.907 121.306 201.907C120.442 201.907 119.809 202.167 119.405 202.687C119.006 203.202 118.807 204.048 118.807 205.227V210H117.429V200.902H118.55L118.774 202.147H118.84C119.1 201.705 119.466 201.359 119.936 201.11C120.412 200.861 120.943 200.736 121.53 200.736C122.952 200.736 123.882 201.251 124.319 202.28H124.385C124.656 201.804 125.049 201.428 125.564 201.151C126.079 200.875 126.665 200.736 127.324 200.736C128.353 200.736 129.122 201.002 129.631 201.533C130.146 202.059 130.403 202.903 130.403 204.065V210H129.025ZM138.845 210L138.571 208.705H138.505C138.051 209.275 137.597 209.662 137.144 209.867C136.695 210.066 136.134 210.166 135.458 210.166C134.556 210.166 133.848 209.934 133.333 209.469C132.824 209.004 132.57 208.343 132.57 207.485C132.57 205.648 134.039 204.685 136.978 204.596L138.521 204.546V203.982C138.521 203.268 138.367 202.742 138.057 202.405C137.752 202.062 137.263 201.89 136.587 201.89C135.829 201.89 134.972 202.123 134.014 202.587L133.591 201.533C134.039 201.29 134.529 201.099 135.06 200.96C135.597 200.822 136.134 200.753 136.67 200.753C137.755 200.753 138.557 200.994 139.078 201.475C139.603 201.957 139.866 202.729 139.866 203.791V210H138.845ZM135.732 209.029C136.59 209.029 137.263 208.794 137.75 208.323C138.242 207.853 138.488 207.194 138.488 206.348V205.526L137.11 205.584C136.015 205.623 135.223 205.794 134.736 206.099C134.255 206.397 134.014 206.865 134.014 207.501C134.014 208 134.164 208.379 134.462 208.639C134.767 208.899 135.19 209.029 135.732 209.029ZM148.906 208.78H148.831C148.195 209.704 147.243 210.166 145.976 210.166C144.786 210.166 143.859 209.759 143.195 208.946C142.536 208.132 142.207 206.976 142.207 205.476C142.207 203.976 142.539 202.812 143.203 201.981C143.867 201.151 144.791 200.736 145.976 200.736C147.21 200.736 148.156 201.185 148.814 202.081H148.922L148.864 201.425L148.831 200.786V197.084H150.209V210H149.088L148.906 208.78ZM146.15 209.012C147.091 209.012 147.771 208.758 148.192 208.249C148.618 207.734 148.831 206.907 148.831 205.767V205.476C148.831 204.187 148.615 203.268 148.184 202.72C147.757 202.167 147.074 201.89 146.133 201.89C145.325 201.89 144.706 202.206 144.274 202.836C143.848 203.462 143.635 204.347 143.635 205.493C143.635 206.655 143.848 207.532 144.274 208.124C144.7 208.716 145.325 209.012 146.15 209.012ZM156.982 210.166C155.638 210.166 154.575 209.757 153.795 208.938C153.02 208.118 152.633 206.981 152.633 205.526C152.633 204.059 152.993 202.895 153.712 202.031C154.437 201.168 155.408 200.736 156.625 200.736C157.765 200.736 158.667 201.113 159.332 201.865C159.996 202.612 160.328 203.6 160.328 204.829V205.7H154.061C154.088 206.768 154.357 207.579 154.866 208.132C155.38 208.686 156.103 208.962 157.032 208.962C158.012 208.962 158.98 208.758 159.938 208.348V209.577C159.451 209.787 158.988 209.936 158.551 210.025C158.12 210.119 157.597 210.166 156.982 210.166ZM156.609 201.89C155.878 201.89 155.295 202.128 154.857 202.604C154.426 203.08 154.171 203.738 154.094 204.58H158.85C158.85 203.711 158.656 203.047 158.269 202.587C157.882 202.123 157.328 201.89 156.609 201.89ZM171.202 201.973H168.886V210H167.508V201.973H165.881V201.351L167.508 200.853V200.346C167.508 198.111 168.485 196.993 170.438 196.993C170.919 196.993 171.484 197.09 172.131 197.283L171.774 198.387C171.243 198.216 170.789 198.13 170.413 198.13C169.893 198.13 169.508 198.304 169.259 198.653C169.01 198.996 168.886 199.549 168.886 200.313V200.902H171.202V201.973ZM174.157 200.902V206.804C174.157 207.546 174.326 208.099 174.663 208.464C175.001 208.83 175.529 209.012 176.249 209.012C177.2 209.012 177.895 208.752 178.332 208.232C178.775 207.712 178.996 206.862 178.996 205.684V200.902H180.374V210H179.237L179.038 208.78H178.963C178.681 209.228 178.288 209.571 177.784 209.809C177.286 210.047 176.716 210.166 176.074 210.166C174.967 210.166 174.137 209.903 173.584 209.377C173.036 208.852 172.762 208.011 172.762 206.854V200.902H174.157ZM189.53 210V204.115C189.53 203.373 189.361 202.82 189.023 202.455C188.686 202.089 188.157 201.907 187.438 201.907C186.486 201.907 185.789 202.164 185.346 202.679C184.903 203.193 184.682 204.043 184.682 205.227V210H183.304V200.902H184.425L184.649 202.147H184.715C184.998 201.699 185.393 201.353 185.902 201.11C186.411 200.861 186.979 200.736 187.604 200.736C188.7 200.736 189.524 201.002 190.078 201.533C190.631 202.059 190.908 202.903 190.908 204.065V210H189.53ZM202.396 200.753C203.591 200.753 204.518 201.162 205.177 201.981C205.841 202.795 206.173 203.949 206.173 205.443C206.173 206.937 205.838 208.099 205.168 208.929C204.504 209.754 203.58 210.166 202.396 210.166C201.804 210.166 201.262 210.058 200.769 209.842C200.282 209.621 199.873 209.283 199.541 208.83H199.441L199.15 210H198.163V197.084H199.541V200.222C199.541 200.924 199.518 201.555 199.474 202.114H199.541C200.182 201.207 201.134 200.753 202.396 200.753ZM202.197 201.907C201.256 201.907 200.578 202.178 200.163 202.72C199.748 203.257 199.541 204.165 199.541 205.443C199.541 206.721 199.754 207.637 200.18 208.19C200.606 208.738 201.289 209.012 202.23 209.012C203.077 209.012 203.708 208.705 204.123 208.091C204.538 207.471 204.745 206.583 204.745 205.426C204.745 204.242 204.538 203.359 204.123 202.778C203.708 202.197 203.066 201.907 202.197 201.907ZM207.144 200.902H208.622L210.614 206.09C211.051 207.275 211.322 208.13 211.427 208.655H211.494C211.566 208.373 211.715 207.892 211.942 207.211C212.174 206.525 212.927 204.422 214.2 200.902H215.677L211.768 211.262C211.38 212.285 210.926 213.01 210.406 213.437C209.892 213.868 209.258 214.084 208.505 214.084C208.085 214.084 207.67 214.037 207.26 213.943V212.839C207.565 212.905 207.905 212.938 208.281 212.938C209.228 212.938 209.903 212.407 210.307 211.345L210.813 210.05L207.144 200.902ZM222.866 200.902V206.804C222.866 207.546 223.035 208.099 223.372 208.464C223.71 208.83 224.238 209.012 224.958 209.012C225.909 209.012 226.604 208.752 227.041 208.232C227.484 207.712 227.705 206.862 227.705 205.684V200.902H229.083V210H227.946L227.747 208.78H227.672C227.39 209.228 226.997 209.571 226.493 209.809C225.995 210.047 225.425 210.166 224.783 210.166C223.676 210.166 222.846 209.903 222.293 209.377C221.745 208.852 221.471 208.011 221.471 206.854V200.902H222.866ZM237.882 207.518C237.882 208.365 237.566 209.018 236.936 209.477C236.305 209.936 235.419 210.166 234.279 210.166C233.073 210.166 232.132 209.975 231.457 209.593V208.315C231.894 208.536 232.362 208.711 232.86 208.838C233.363 208.965 233.848 209.029 234.312 209.029C235.032 209.029 235.585 208.915 235.973 208.688C236.36 208.456 236.554 208.105 236.554 207.634C236.554 207.28 236.399 206.979 236.089 206.729C235.785 206.475 235.187 206.176 234.296 205.833C233.449 205.518 232.846 205.244 232.486 205.011C232.132 204.773 231.867 204.505 231.689 204.206C231.518 203.907 231.432 203.55 231.432 203.135C231.432 202.394 231.734 201.81 232.337 201.384C232.94 200.952 233.767 200.736 234.819 200.736C235.798 200.736 236.756 200.936 237.691 201.334L237.201 202.455C236.288 202.078 235.461 201.89 234.719 201.89C234.066 201.89 233.574 201.993 233.242 202.197C232.91 202.402 232.744 202.684 232.744 203.044C232.744 203.287 232.805 203.495 232.926 203.667C233.054 203.838 233.256 204.001 233.532 204.156C233.809 204.311 234.34 204.535 235.126 204.829C236.205 205.222 236.933 205.617 237.309 206.016C237.691 206.414 237.882 206.915 237.882 207.518ZM241.509 210H240.131V200.902H241.509V210ZM240.015 198.437C240.015 198.122 240.093 197.892 240.248 197.748C240.403 197.599 240.596 197.524 240.829 197.524C241.05 197.524 241.241 197.599 241.401 197.748C241.562 197.897 241.642 198.127 241.642 198.437C241.642 198.747 241.562 198.979 241.401 199.134C241.241 199.284 241.05 199.358 240.829 199.358C240.596 199.358 240.403 199.284 240.248 199.134C240.093 198.979 240.015 198.747 240.015 198.437ZM250.657 210V204.115C250.657 203.373 250.488 202.82 250.15 202.455C249.813 202.089 249.284 201.907 248.565 201.907C247.613 201.907 246.916 202.164 246.473 202.679C246.03 203.193 245.809 204.043 245.809 205.227V210H244.431V200.902H245.552L245.776 202.147H245.842C246.125 201.699 246.52 201.353 247.029 201.11C247.538 200.861 248.106 200.736 248.731 200.736C249.827 200.736 250.651 201.002 251.205 201.533C251.758 202.059 252.035 202.903 252.035 204.065V210H250.657ZM262.319 200.902V201.774L260.634 201.973C260.789 202.167 260.928 202.421 261.049 202.737C261.171 203.047 261.232 203.398 261.232 203.791C261.232 204.682 260.928 205.393 260.319 205.924C259.71 206.456 258.875 206.721 257.812 206.721C257.541 206.721 257.286 206.699 257.048 206.655C256.462 206.965 256.168 207.355 256.168 207.825C256.168 208.074 256.271 208.26 256.476 208.381C256.68 208.498 257.032 208.556 257.53 208.556H259.14C260.125 208.556 260.881 208.763 261.406 209.178C261.938 209.593 262.203 210.196 262.203 210.988C262.203 211.995 261.799 212.761 260.991 213.287C260.183 213.818 259.005 214.084 257.455 214.084C256.265 214.084 255.347 213.863 254.699 213.42C254.057 212.977 253.736 212.352 253.736 211.544C253.736 210.991 253.913 210.512 254.268 210.108C254.622 209.704 255.12 209.43 255.762 209.286C255.529 209.181 255.333 209.018 255.172 208.796C255.017 208.575 254.94 208.318 254.94 208.024C254.94 207.692 255.028 207.402 255.206 207.153C255.383 206.904 255.662 206.663 256.044 206.431C255.574 206.237 255.189 205.908 254.89 205.443C254.597 204.978 254.45 204.447 254.45 203.849C254.45 202.853 254.749 202.087 255.347 201.55C255.944 201.007 256.791 200.736 257.887 200.736C258.363 200.736 258.792 200.792 259.173 200.902H262.319ZM255.064 211.527C255.064 212.02 255.272 212.393 255.687 212.648C256.102 212.903 256.697 213.03 257.472 213.03C258.628 213.03 259.483 212.855 260.037 212.507C260.596 212.164 260.875 211.696 260.875 211.104C260.875 210.611 260.723 210.268 260.418 210.075C260.114 209.887 259.541 209.792 258.7 209.792H257.048C256.423 209.792 255.936 209.942 255.587 210.241C255.239 210.54 255.064 210.968 255.064 211.527ZM255.812 203.816C255.812 204.452 255.991 204.934 256.351 205.26C256.711 205.587 257.212 205.75 257.854 205.75C259.198 205.75 259.871 205.097 259.871 203.791C259.871 202.424 259.19 201.741 257.829 201.741C257.181 201.741 256.683 201.915 256.334 202.264C255.986 202.612 255.812 203.13 255.812 203.816ZM69.6167 233.166C69.0246 233.166 68.4823 233.058 67.9897 232.842C67.5028 232.621 67.0933 232.283 66.7612 231.83H66.6616C66.728 232.361 66.7612 232.864 66.7612 233.34V237.084H65.3833V223.902H66.5039L66.6948 225.147H66.7612C67.1154 224.649 67.5277 224.29 67.998 224.068C68.4684 223.847 69.008 223.736 69.6167 223.736C70.8231 223.736 71.7528 224.149 72.4058 224.973C73.0643 225.798 73.3936 226.954 73.3936 228.443C73.3936 229.937 73.0588 231.099 72.3892 231.929C71.7251 232.754 70.8009 233.166 69.6167 233.166ZM69.4175 224.907C68.4878 224.907 67.8154 225.164 67.4004 225.679C66.9854 226.193 66.7723 227.012 66.7612 228.136V228.443C66.7612 229.721 66.9743 230.637 67.4004 231.19C67.8265 231.738 68.5099 232.012 69.4507 232.012C70.2365 232.012 70.8507 231.694 71.2935 231.058C71.7417 230.421 71.9658 229.544 71.9658 228.426C71.9658 227.292 71.7417 226.423 71.2935 225.82C70.8507 225.211 70.2254 224.907 69.4175 224.907ZM79.9595 223.736C80.3634 223.736 80.7259 223.77 81.0469 223.836L80.856 225.114C80.4797 225.031 80.1476 224.99 79.8599 224.99C79.1239 224.99 78.493 225.289 77.9673 225.886C77.4471 226.484 77.187 227.228 77.187 228.119V233H75.8091V223.902H76.9463L77.104 225.587H77.1704C77.508 224.995 77.9147 224.539 78.3906 224.218C78.8665 223.897 79.3895 223.736 79.9595 223.736ZM90.6011 228.443C90.6011 229.926 90.2275 231.085 89.4805 231.921C88.7334 232.751 87.7013 233.166 86.3843 233.166C85.5708 233.166 84.8486 232.975 84.2178 232.593C83.5869 232.211 83.0999 231.664 82.7568 230.95C82.4137 230.236 82.2422 229.4 82.2422 228.443C82.2422 226.96 82.613 225.806 83.3545 224.981C84.096 224.151 85.1253 223.736 86.4424 223.736C87.7152 223.736 88.7251 224.16 89.4722 225.006C90.2248 225.853 90.6011 226.999 90.6011 228.443ZM83.6699 228.443C83.6699 229.605 83.9023 230.49 84.3672 231.099C84.832 231.708 85.5155 232.012 86.4175 232.012C87.3195 232.012 88.0029 231.711 88.4678 231.107C88.9382 230.499 89.1733 229.611 89.1733 228.443C89.1733 227.286 88.9382 226.409 88.4678 225.812C88.0029 225.208 87.314 224.907 86.4009 224.907C85.4989 224.907 84.8182 225.203 84.3589 225.795C83.8996 226.387 83.6699 227.27 83.6699 228.443ZM91.9209 237.084C91.3952 237.084 90.9691 237.015 90.6426 236.876V235.756C91.0244 235.867 91.4007 235.922 91.7715 235.922C92.2031 235.922 92.5186 235.803 92.7178 235.565C92.9225 235.333 93.0249 234.976 93.0249 234.494V223.902H94.4028V234.395C94.4028 236.188 93.5755 237.084 91.9209 237.084ZM92.9087 221.437C92.9087 221.122 92.9862 220.892 93.1411 220.748C93.2961 220.599 93.4897 220.524 93.7222 220.524C93.9435 220.524 94.1344 220.599 94.2949 220.748C94.4554 220.897 94.5356 221.127 94.5356 221.437C94.5356 221.747 94.4554 221.979 94.2949 222.134C94.1344 222.284 93.9435 222.358 93.7222 222.358C93.4897 222.358 93.2961 222.284 93.1411 222.134C92.9862 221.979 92.9087 221.747 92.9087 221.437ZM101.168 233.166C99.8232 233.166 98.7607 232.757 97.9805 231.938C97.2057 231.118 96.8184 229.981 96.8184 228.526C96.8184 227.059 97.1781 225.895 97.8975 225.031C98.6224 224.168 99.5936 223.736 100.811 223.736C101.951 223.736 102.853 224.113 103.517 224.865C104.181 225.612 104.513 226.6 104.513 227.829V228.7H98.2461C98.2738 229.768 98.5422 230.579 99.0513 231.132C99.5659 231.686 100.288 231.962 101.218 231.962C102.197 231.962 103.166 231.758 104.123 231.348V232.577C103.636 232.787 103.174 232.936 102.737 233.025C102.305 233.119 101.782 233.166 101.168 233.166ZM100.794 224.89C100.064 224.89 99.4801 225.128 99.043 225.604C98.6113 226.08 98.3568 226.738 98.2793 227.58H103.036C103.036 226.711 102.842 226.047 102.455 225.587C102.067 225.123 101.514 224.89 100.794 224.89ZM110.506 233.166C109.189 233.166 108.168 232.762 107.443 231.954C106.724 231.141 106.364 229.992 106.364 228.509C106.364 226.987 106.729 225.812 107.46 224.981C108.196 224.151 109.242 223.736 110.598 223.736C111.035 223.736 111.472 223.783 111.909 223.877C112.346 223.972 112.689 224.082 112.938 224.209L112.515 225.38C112.211 225.258 111.879 225.159 111.519 225.081C111.159 224.998 110.841 224.957 110.564 224.957C108.716 224.957 107.792 226.135 107.792 228.493C107.792 229.611 108.016 230.468 108.464 231.066C108.918 231.664 109.588 231.962 110.473 231.962C111.231 231.962 112.009 231.799 112.806 231.473V232.693C112.197 233.008 111.431 233.166 110.506 233.166ZM117.911 232.029C118.154 232.029 118.389 232.012 118.616 231.979C118.843 231.94 119.023 231.902 119.156 231.863V232.917C119.006 232.989 118.785 233.047 118.492 233.091C118.204 233.141 117.944 233.166 117.711 233.166C115.952 233.166 115.072 232.239 115.072 230.385V224.973H113.769V224.309L115.072 223.736L115.653 221.794H116.45V223.902H119.089V224.973H116.45V230.327C116.45 230.875 116.58 231.296 116.84 231.589C117.1 231.882 117.457 232.029 117.911 232.029ZM129.631 223.753C130.827 223.753 131.754 224.162 132.412 224.981C133.076 225.795 133.408 226.949 133.408 228.443C133.408 229.937 133.073 231.099 132.404 231.929C131.74 232.754 130.816 233.166 129.631 233.166C129.039 233.166 128.497 233.058 128.004 232.842C127.517 232.621 127.108 232.283 126.776 231.83H126.676L126.386 233H125.398V220.084H126.776V223.222C126.776 223.924 126.754 224.555 126.709 225.114H126.776C127.418 224.207 128.37 223.753 129.631 223.753ZM129.432 224.907C128.491 224.907 127.813 225.178 127.398 225.72C126.983 226.257 126.776 227.165 126.776 228.443C126.776 229.721 126.989 230.637 127.415 231.19C127.841 231.738 128.525 232.012 129.465 232.012C130.312 232.012 130.943 231.705 131.358 231.091C131.773 230.471 131.98 229.583 131.98 228.426C131.98 227.242 131.773 226.359 131.358 225.778C130.943 225.197 130.301 224.907 129.432 224.907ZM141.418 233L141.145 231.705H141.078C140.624 232.275 140.171 232.662 139.717 232.867C139.269 233.066 138.707 233.166 138.032 233.166C137.13 233.166 136.421 232.934 135.907 232.469C135.398 232.004 135.143 231.343 135.143 230.485C135.143 228.648 136.612 227.685 139.551 227.596L141.095 227.546V226.982C141.095 226.268 140.94 225.742 140.63 225.405C140.326 225.062 139.836 224.89 139.161 224.89C138.403 224.89 137.545 225.123 136.587 225.587L136.164 224.533C136.612 224.29 137.102 224.099 137.633 223.96C138.17 223.822 138.707 223.753 139.244 223.753C140.328 223.753 141.131 223.994 141.651 224.475C142.177 224.957 142.439 225.729 142.439 226.791V233H141.418ZM138.306 232.029C139.163 232.029 139.836 231.794 140.323 231.323C140.815 230.853 141.062 230.194 141.062 229.348V228.526L139.684 228.584C138.588 228.623 137.797 228.794 137.31 229.099C136.828 229.397 136.587 229.865 136.587 230.501C136.587 231 136.737 231.379 137.036 231.639C137.34 231.899 137.763 232.029 138.306 232.029ZM151.155 230.518C151.155 231.365 150.84 232.018 150.209 232.477C149.578 232.936 148.693 233.166 147.553 233.166C146.346 233.166 145.406 232.975 144.73 232.593V231.315C145.168 231.536 145.635 231.711 146.133 231.838C146.637 231.965 147.121 232.029 147.586 232.029C148.305 232.029 148.859 231.915 149.246 231.688C149.633 231.456 149.827 231.105 149.827 230.634C149.827 230.28 149.672 229.979 149.362 229.729C149.058 229.475 148.46 229.176 147.569 228.833C146.723 228.518 146.119 228.244 145.76 228.011C145.406 227.773 145.14 227.505 144.963 227.206C144.791 226.907 144.706 226.55 144.706 226.135C144.706 225.394 145.007 224.81 145.61 224.384C146.214 223.952 147.041 223.736 148.092 223.736C149.072 223.736 150.029 223.936 150.964 224.334L150.475 225.455C149.562 225.078 148.734 224.89 147.993 224.89C147.34 224.89 146.847 224.993 146.515 225.197C146.183 225.402 146.017 225.684 146.017 226.044C146.017 226.287 146.078 226.495 146.2 226.667C146.327 226.838 146.529 227.001 146.806 227.156C147.082 227.311 147.614 227.535 148.399 227.829C149.479 228.222 150.206 228.617 150.583 229.016C150.964 229.414 151.155 229.915 151.155 230.518ZM157.248 233.166C155.903 233.166 154.841 232.757 154.061 231.938C153.286 231.118 152.898 229.981 152.898 228.526C152.898 227.059 153.258 225.895 153.978 225.031C154.702 224.168 155.674 223.736 156.891 223.736C158.031 223.736 158.933 224.113 159.597 224.865C160.261 225.612 160.593 226.6 160.593 227.829V228.7H154.326C154.354 229.768 154.622 230.579 155.131 231.132C155.646 231.686 156.368 231.962 157.298 231.962C158.277 231.962 159.246 231.758 160.203 231.348V232.577C159.716 232.787 159.254 232.936 158.817 233.025C158.385 233.119 157.862 233.166 157.248 233.166ZM156.875 224.89C156.144 224.89 155.56 225.128 155.123 225.604C154.691 226.08 154.437 226.738 154.359 227.58H159.116C159.116 226.711 158.922 226.047 158.535 225.587C158.147 225.123 157.594 224.89 156.875 224.89ZM169.143 231.78H169.068C168.432 232.704 167.48 233.166 166.213 233.166C165.023 233.166 164.096 232.759 163.432 231.946C162.774 231.132 162.444 229.976 162.444 228.476C162.444 226.976 162.776 225.812 163.44 224.981C164.104 224.151 165.029 223.736 166.213 223.736C167.447 223.736 168.393 224.185 169.052 225.081H169.16L169.102 224.425L169.068 223.786V220.084H170.446V233H169.326L169.143 231.78ZM166.387 232.012C167.328 232.012 168.009 231.758 168.429 231.249C168.855 230.734 169.068 229.907 169.068 228.767V228.476C169.068 227.187 168.853 226.268 168.421 225.72C167.995 225.167 167.311 224.89 166.371 224.89C165.563 224.89 164.943 225.206 164.511 225.836C164.085 226.462 163.872 227.347 163.872 228.493C163.872 229.655 164.085 230.532 164.511 231.124C164.937 231.716 165.563 232.012 166.387 232.012ZM179.17 233H177.792V220.084H179.17V233ZM185.936 233.166C184.591 233.166 183.528 232.757 182.748 231.938C181.973 231.118 181.586 229.981 181.586 228.526C181.586 227.059 181.946 225.895 182.665 225.031C183.39 224.168 184.361 223.736 185.579 223.736C186.719 223.736 187.621 224.113 188.285 224.865C188.949 225.612 189.281 226.6 189.281 227.829V228.7H183.014C183.041 229.768 183.31 230.579 183.819 231.132C184.333 231.686 185.056 231.962 185.985 231.962C186.965 231.962 187.933 231.758 188.891 231.348V232.577C188.404 232.787 187.942 232.936 187.504 233.025C187.073 233.119 186.55 233.166 185.936 233.166ZM185.562 224.89C184.832 224.89 184.248 225.128 183.811 225.604C183.379 226.08 183.124 226.738 183.047 227.58H187.803C187.803 226.711 187.61 226.047 187.222 225.587C186.835 225.123 186.281 224.89 185.562 224.89ZM197.233 233L196.959 231.705H196.893C196.439 232.275 195.985 232.662 195.531 232.867C195.083 233.066 194.521 233.166 193.846 233.166C192.944 233.166 192.236 232.934 191.721 232.469C191.212 232.004 190.958 231.343 190.958 230.485C190.958 228.648 192.427 227.685 195.365 227.596L196.909 227.546V226.982C196.909 226.268 196.754 225.742 196.444 225.405C196.14 225.062 195.65 224.89 194.975 224.89C194.217 224.89 193.359 225.123 192.402 225.587L191.979 224.533C192.427 224.29 192.917 224.099 193.448 223.96C193.985 223.822 194.521 223.753 195.058 223.753C196.143 223.753 196.945 223.994 197.465 224.475C197.991 224.957 198.254 225.729 198.254 226.791V233H197.233ZM194.12 232.029C194.978 232.029 195.65 231.794 196.137 231.323C196.63 230.853 196.876 230.194 196.876 229.348V228.526L195.498 228.584C194.402 228.623 193.611 228.794 193.124 229.099C192.643 229.397 192.402 229.865 192.402 230.501C192.402 231 192.551 231.379 192.85 231.639C193.154 231.899 193.578 232.029 194.12 232.029ZM205.251 223.736C205.655 223.736 206.018 223.77 206.339 223.836L206.148 225.114C205.772 225.031 205.44 224.99 205.152 224.99C204.416 224.99 203.785 225.289 203.259 225.886C202.739 226.484 202.479 227.228 202.479 228.119V233H201.101V223.902H202.238L202.396 225.587H202.462C202.8 224.995 203.207 224.539 203.683 224.218C204.159 223.897 204.681 223.736 205.251 223.736ZM214.266 233V227.115C214.266 226.373 214.097 225.82 213.76 225.455C213.422 225.089 212.894 224.907 212.174 224.907C211.222 224.907 210.525 225.164 210.083 225.679C209.64 226.193 209.418 227.043 209.418 228.227V233H208.041V223.902H209.161L209.385 225.147H209.452C209.734 224.699 210.13 224.353 210.639 224.11C211.148 223.861 211.715 223.736 212.34 223.736C213.436 223.736 214.261 224.002 214.814 224.533C215.367 225.059 215.644 225.903 215.644 227.065V233H214.266ZM219.861 233H218.483V223.902H219.861V233ZM218.367 221.437C218.367 221.122 218.444 220.892 218.599 220.748C218.754 220.599 218.948 220.524 219.18 220.524C219.402 220.524 219.592 220.599 219.753 220.748C219.913 220.897 219.994 221.127 219.994 221.437C219.994 221.747 219.913 221.979 219.753 222.134C219.592 222.284 219.402 222.358 219.18 222.358C218.948 222.358 218.754 222.284 218.599 222.134C218.444 221.979 218.367 221.747 218.367 221.437ZM229.008 233V227.115C229.008 226.373 228.84 225.82 228.502 225.455C228.164 225.089 227.636 224.907 226.917 224.907C225.965 224.907 225.267 225.164 224.825 225.679C224.382 226.193 224.161 227.043 224.161 228.227V233H222.783V223.902H223.903L224.127 225.147H224.194C224.476 224.699 224.872 224.353 225.381 224.11C225.89 223.861 226.457 223.736 227.083 223.736C228.178 223.736 229.003 224.002 229.556 224.533C230.11 225.059 230.386 225.903 230.386 227.065V233H229.008ZM240.671 223.902V224.774L238.986 224.973C239.141 225.167 239.279 225.421 239.401 225.737C239.523 226.047 239.583 226.398 239.583 226.791C239.583 227.682 239.279 228.393 238.67 228.924C238.062 229.456 237.226 229.721 236.164 229.721C235.892 229.721 235.638 229.699 235.4 229.655C234.813 229.965 234.52 230.355 234.52 230.825C234.52 231.074 234.622 231.26 234.827 231.381C235.032 231.498 235.383 231.556 235.881 231.556H237.492C238.477 231.556 239.232 231.763 239.758 232.178C240.289 232.593 240.555 233.196 240.555 233.988C240.555 234.995 240.151 235.761 239.343 236.287C238.535 236.818 237.356 237.084 235.807 237.084C234.617 237.084 233.698 236.863 233.051 236.42C232.409 235.977 232.088 235.352 232.088 234.544C232.088 233.991 232.265 233.512 232.619 233.108C232.973 232.704 233.471 232.43 234.113 232.286C233.881 232.181 233.684 232.018 233.524 231.796C233.369 231.575 233.292 231.318 233.292 231.024C233.292 230.692 233.38 230.402 233.557 230.153C233.734 229.904 234.014 229.663 234.396 229.431C233.925 229.237 233.541 228.908 233.242 228.443C232.948 227.978 232.802 227.447 232.802 226.849C232.802 225.853 233.101 225.087 233.698 224.55C234.296 224.007 235.143 223.736 236.238 223.736C236.714 223.736 237.143 223.792 237.525 223.902H240.671ZM233.416 234.527C233.416 235.02 233.624 235.393 234.039 235.648C234.454 235.903 235.049 236.03 235.823 236.03C236.98 236.03 237.835 235.855 238.388 235.507C238.947 235.164 239.227 234.696 239.227 234.104C239.227 233.611 239.074 233.268 238.77 233.075C238.466 232.887 237.893 232.792 237.052 232.792H235.4C234.775 232.792 234.288 232.942 233.939 233.241C233.59 233.54 233.416 233.968 233.416 234.527ZM234.163 226.816C234.163 227.452 234.343 227.934 234.703 228.26C235.062 228.587 235.563 228.75 236.205 228.75C237.55 228.75 238.222 228.097 238.222 226.791C238.222 225.424 237.542 224.741 236.18 224.741C235.533 224.741 235.035 224.915 234.686 225.264C234.337 225.612 234.163 226.13 234.163 226.816Z" fill="black"/>
<path d="M144.892 104.281L157.502 107.551L150.029 126.701L141.622 123.431L137.886 119.695L139.754 111.287L144.892 104.281Z" fill="#C4C4C4"/>
<path d="M199.926 124.902L185.06 117.359L174.783 141.646L184.124 146.783L191.598 146.784L197.553 135.974C199.516 131.68 200.137 129.256 199.926 124.902Z" fill="#EA5C5C"/>
<path d="M161.638 106.419C159.705 105.616 157.479 106.536 156.676 108.47L155.881 110.385C155.664 110.909 155.912 111.509 156.436 111.726C156.959 111.944 157.559 111.696 157.777 111.172L158.572 109.256C158.94 108.368 159.963 107.946 160.851 108.314C161.282 108.493 161.617 108.828 161.795 109.259C161.973 109.689 161.972 110.164 161.794 110.594L154.257 128.752C154.078 129.182 153.743 129.517 153.312 129.695C152.882 129.873 152.408 129.873 151.977 129.694C151.547 129.516 151.212 129.18 151.034 128.749C150.856 128.319 150.856 127.845 151.035 127.414L156.701 113.763C156.918 113.24 156.67 112.64 156.147 112.422C155.624 112.205 155.023 112.453 154.806 112.977L149.139 126.628C148.337 128.561 149.257 130.787 151.19 131.59C152.127 131.979 153.159 131.979 154.096 131.592C155.034 131.204 155.764 130.475 156.152 129.539L163.69 111.381C164.078 110.444 164.079 109.412 163.692 108.475C163.304 107.538 162.575 106.808 161.638 106.419Z" fill="#585858"/>
<path d="M155.175 105.862L149.47 103.494C147.787 102.795 145.934 102.794 144.25 103.49C142.567 104.186 141.255 105.495 140.557 107.178L140.445 107.447L134.569 105.008C134.318 104.903 134.036 104.903 133.784 105.007C133.533 105.111 133.333 105.311 133.228 105.562L132.481 107.363L126.643 104.939C126.119 104.722 125.519 104.97 125.302 105.494C125.084 106.017 125.333 106.618 125.856 106.835L131.694 109.258L130.947 111.059C130.73 111.582 130.978 112.183 131.501 112.4L137.377 114.839L137.265 115.108C135.823 118.581 137.476 122.579 140.949 124.02L146.654 126.389C146.916 126.497 147.197 126.49 147.44 126.389C147.682 126.289 147.887 126.096 147.995 125.835C148.213 125.311 147.965 124.711 147.441 124.494L141.736 122.125C139.308 121.118 138.153 118.323 139.161 115.895L142.453 107.964C142.941 106.788 143.858 105.873 145.034 105.386C146.211 104.9 147.507 104.901 148.683 105.389L154.388 107.757C154.912 107.975 155.512 107.726 155.729 107.203C155.947 106.68 155.699 106.079 155.175 105.862ZM138.911 111.143L138.164 112.943L133.236 110.898L134.73 107.297L139.659 109.342L138.911 111.143Z" fill="#585858"/>
<path d="M171.022 115.91L165.557 113.642C165.034 113.424 164.433 113.673 164.216 114.196C163.999 114.719 164.247 115.32 164.771 115.537L170.235 117.805C170.915 118.087 171.238 118.869 170.956 119.549C170.674 120.228 169.892 120.551 169.212 120.269L163.748 118.001C163.224 117.784 162.624 118.032 162.407 118.555C162.189 119.079 162.438 119.679 162.961 119.896L168.426 122.165C169.288 122.522 170.215 122.496 171.017 122.165C171.818 121.834 172.493 121.197 172.851 120.335C173.567 118.611 172.746 116.626 171.022 115.91Z" fill="#585858"/>
<path d="M166.471 125.79L161.006 123.521C160.483 123.304 159.883 123.552 159.665 124.076C159.448 124.599 159.696 125.199 160.22 125.417L165.685 127.685C166.014 127.822 166.27 128.078 166.406 128.407C166.542 128.737 166.542 129.099 166.405 129.428C166.123 130.108 165.341 130.431 164.662 130.149L159.197 127.88C158.674 127.663 158.073 127.911 157.856 128.435C157.639 128.958 157.887 129.559 158.41 129.776L163.875 132.044C164.737 132.402 165.665 132.376 166.466 132.045C167.267 131.713 167.943 131.077 168.3 130.215C168.647 129.38 168.648 128.459 168.302 127.623C167.957 126.788 167.307 126.136 166.471 125.79Z" fill="#585858"/>
<path d="M184.182 112.011C183.245 111.623 182.213 111.622 181.276 112.009C180.338 112.397 179.608 113.126 179.22 114.062L168.563 139.735C168.174 140.672 168.174 141.704 168.561 142.641C168.948 143.578 169.677 144.308 170.614 144.697C171.551 145.086 172.583 145.087 173.52 144.699C174.457 144.312 175.188 143.583 175.576 142.646L186.233 116.974C186.621 116.037 186.622 115.005 186.235 114.068C185.847 113.13 185.118 112.4 184.182 112.011ZM184.337 116.187L173.681 141.859C173.312 142.748 172.289 143.17 171.401 142.802C170.513 142.433 170.09 141.41 170.459 140.522L181.115 114.849C181.294 114.419 181.629 114.084 182.06 113.906C182.49 113.728 182.965 113.728 183.395 113.907C183.825 114.085 184.16 114.421 184.338 114.852C184.516 115.282 184.516 115.756 184.337 116.187Z" fill="#585858"/>
<path d="M200.21 124.339C199.284 122.935 197.97 121.851 196.411 121.204L188.879 118.077C188.356 117.86 187.755 118.108 187.538 118.632C187.321 119.155 187.569 119.755 188.092 119.973L195.624 123.099C196.804 123.589 197.797 124.408 198.497 125.469C198.772 125.886 199.299 126.037 199.744 125.853C199.804 125.828 199.863 125.797 199.918 125.76C200.391 125.448 200.522 124.812 200.21 124.339Z" fill="#585858"/>
<path d="M212.272 142.542L205.177 139.597L205.925 137.796C206.142 137.273 205.894 136.672 205.37 136.455L199.495 134.016L200.24 132.221C200.777 130.926 200.985 129.509 200.84 128.122C200.781 127.558 200.276 127.149 199.713 127.208C199.149 127.267 198.74 127.772 198.799 128.336C198.908 129.383 198.751 130.454 198.344 131.435L193.786 142.417C193.133 143.989 191.908 145.213 190.335 145.863C188.762 146.513 187.03 146.512 185.459 145.859L177.927 142.733C177.403 142.516 176.803 142.764 176.586 143.287C176.369 143.811 176.617 144.411 177.14 144.628L184.672 147.754C186.75 148.617 189.04 148.619 191.119 147.759C193.198 146.9 194.819 145.282 195.682 143.204L196.427 141.408L202.302 143.847C202.554 143.952 202.836 143.952 203.088 143.848C203.339 143.744 203.539 143.544 203.643 143.293L204.391 141.492L211.485 144.437C211.747 144.546 212.028 144.538 212.271 144.438C212.513 144.338 212.718 144.145 212.826 143.883C213.043 143.359 212.795 142.759 212.272 142.542ZM202.889 139.757C202.888 139.757 202.888 139.758 202.888 139.758C202.888 139.758 202.888 139.758 202.888 139.758L202.141 141.558L197.213 139.513L197.96 137.712L198.708 135.912L203.636 137.957L202.889 139.757Z" fill="#585858"/>
<path d="M257.185 65.0348L206.24 74.7974L219.921 146.189L270.866 136.426L257.185 65.0348Z" fill="white"/>
<path d="M219.824 146.153C219.824 146.153 219.824 146.037 219.708 145.804C219.708 145.571 219.592 145.223 219.475 144.874C219.243 143.943 219.01 142.664 218.661 141.035C217.963 137.662 217.033 132.661 215.753 126.381C213.544 113.819 210.054 95.9077 205.867 74.8559V74.507H206.1C221.453 71.5993 238.782 68.2263 257.043 64.7371H257.392V65.086C262.509 91.8369 267.162 116.494 271 136.499V136.732H270.767C255.298 139.64 242.504 142.082 233.549 143.711C229.129 144.525 225.64 145.223 223.313 145.571C222.15 145.804 221.22 145.92 220.638 146.037C220.173 146.153 219.824 146.153 219.824 146.153C219.824 146.153 220.173 146.037 220.755 145.92C221.336 145.804 222.267 145.571 223.43 145.339C225.872 144.874 229.245 144.176 233.665 143.362C242.504 141.617 255.298 139.174 270.651 136.15L270.418 136.383C266.58 116.494 261.812 91.7206 256.694 64.9697L257.043 65.2023C238.782 68.6916 221.453 71.9482 206.1 74.9722L206.332 74.6233C210.287 95.6751 213.66 113.47 216.102 126.032C217.265 132.312 218.196 137.314 218.894 140.686C219.243 142.431 219.475 143.711 219.592 144.641C219.708 145.106 219.708 145.455 219.824 145.688C219.824 146.037 219.824 146.153 219.824 146.153Z" fill="#263238"/>
<path d="M214.709 91.1389C214.709 91.0226 223.083 89.278 233.551 87.1844C244.019 85.2072 252.393 83.6952 252.509 83.8115C252.509 83.9278 244.135 85.6724 233.667 87.7659C223.2 89.8595 214.709 91.2552 214.709 91.1389Z" fill="#263238"/>
<path d="M215.636 96.1408C215.636 96.0245 224.01 94.2799 234.478 92.1864C244.945 90.2091 253.32 88.6971 253.436 88.8134C253.436 88.9297 245.062 90.6743 234.594 92.7679C224.126 94.8614 215.752 96.3735 215.636 96.1408Z" fill="#263238"/>
<path d="M216.681 101.258C216.681 101.142 225.055 99.3973 235.523 97.3038C245.99 95.3265 254.365 93.8145 254.481 93.9308C254.481 94.0472 246.107 95.7918 235.639 97.8853C225.171 99.8626 216.681 101.375 216.681 101.258Z" fill="#263238"/>
<path d="M217.616 106.259C217.616 106.143 225.99 104.398 236.458 102.305C246.926 100.328 255.3 98.8155 255.416 98.9318C255.416 99.0481 247.042 100.793 236.574 102.886C226.107 104.98 217.616 106.376 217.616 106.259Z" fill="#263238"/>
<path d="M218.543 111.261C218.543 111.144 226.917 109.4 237.385 107.306C247.853 105.329 256.227 103.817 256.343 103.933C256.343 104.05 247.969 105.794 237.501 107.888C227.033 109.981 218.543 111.493 218.543 111.261Z" fill="#263238"/>
<path d="M219.475 116.378C219.475 116.262 227.849 114.517 238.317 112.424C248.784 110.446 257.159 108.934 257.275 109.051C257.275 109.167 248.901 110.912 238.433 113.005C228.081 114.982 219.591 116.494 219.475 116.378Z" fill="#263238"/>
<path d="M220.521 121.38C220.521 121.263 228.895 119.519 239.362 117.425C249.83 115.448 258.204 113.936 258.321 114.052C258.321 114.168 249.947 115.913 239.479 118.007C229.011 120.1 220.521 121.496 220.521 121.38Z" fill="#263238"/>
<path d="M221.447 126.381C221.447 126.265 229.821 124.52 240.289 122.426C250.757 120.449 259.131 118.937 259.248 119.053C259.248 119.17 250.873 120.914 240.406 123.008C229.938 125.101 221.447 126.613 221.447 126.381Z" fill="#263238"/>
<path d="M222.383 131.498C222.383 131.382 230.757 129.637 241.225 127.544C251.693 125.567 260.067 124.055 260.183 124.171C260.183 124.287 251.809 126.032 241.341 128.125C230.873 130.103 222.499 131.615 222.383 131.498Z" fill="#263238"/>
<path d="M250.184 69.041C250.184 69.041 250.3 69.5062 250.533 70.3204C250.765 71.2508 250.998 72.4139 251.347 73.8096C251.463 74.1585 251.463 74.6238 251.58 74.9727C251.696 75.4379 251.696 75.9032 251.463 76.3684C251.231 77.2989 250.3 78.113 249.253 78.3456C248.207 78.5783 246.927 77.9967 246.229 76.9499C246.113 76.7173 245.997 76.3684 245.881 76.1358C245.881 75.9032 245.764 75.5542 245.764 75.3216C245.648 74.7401 245.532 74.1585 245.415 73.6933C245.183 72.5302 244.95 71.4834 244.834 70.3204C244.717 69.7388 244.601 69.2736 244.485 68.692C244.368 68.2268 244.252 67.6453 244.368 67.0637C244.485 66.0169 244.95 64.9702 245.764 64.3886C246.462 63.8071 247.393 63.5745 248.207 63.5745C249.835 63.5745 250.882 64.7376 251.347 65.4354C251.58 65.7843 251.696 66.1333 251.696 66.3659C251.696 66.5985 251.696 66.7148 251.696 66.7148C251.58 66.7148 251.58 66.2496 251.114 65.5517C250.649 64.8539 249.719 64.0397 248.207 64.0397C247.509 64.0397 246.695 64.2723 246.113 64.8539C245.532 65.4354 245.066 66.2496 244.95 67.18C244.95 67.6453 245.066 68.1105 245.066 68.5757C245.183 69.041 245.299 69.6225 245.415 70.204C245.648 71.2508 245.88 72.4139 246.113 73.4607C246.229 74.0422 246.346 74.6238 246.462 75.089C246.462 75.3216 246.578 75.6705 246.578 75.9032C246.578 76.1358 246.695 76.3684 246.811 76.601C247.276 77.4152 248.323 77.8804 249.137 77.7641C250.068 77.6478 250.765 76.9499 250.998 76.2521C251.114 75.9032 251.114 75.4379 251.114 75.089C250.998 74.7401 250.998 74.2748 250.882 73.9259C250.649 72.5302 250.417 71.3671 250.3 70.4367C250.184 69.5062 250.068 69.041 250.184 69.041Z" fill="#263238"/>
<path d="M114.467 80.0095L81.6926 71.5581L85.1277 58.2369L117.902 66.6883L114.467 80.0095Z" fill="#52A2FF"/>
<path d="M73.3434 65.6229C72.5368 69.0217 74.6346 72.4313 78.032 73.2435L81.1239 73.9709L113.915 81.789L113.985 81.8053C114.002 81.8094 114.013 81.8025 114.02 81.8137C114.065 81.8153 114.117 81.828 114.163 81.8293C114.174 81.8227 114.18 81.8338 114.191 81.8271C114.237 81.8288 114.265 81.826 114.311 81.828C114.328 81.8318 114.338 81.8254 114.356 81.8293C114.395 81.8202 114.423 81.8177 114.463 81.8089C114.473 81.8025 114.479 81.8129 114.491 81.8061L130.812 77.9751C131.279 77.8699 131.644 77.5066 131.752 77.0402C131.828 76.7124 131.771 76.368 131.594 76.0823C131.52 75.9666 131.43 75.8618 131.328 75.7706L118.482 65.0119C118.476 65.0014 118.476 65.0014 118.458 64.9967C118.427 64.9689 118.393 64.9451 118.355 64.9267C118.349 64.9189 118.341 64.9138 118.331 64.9113C118.29 64.8925 118.242 64.8628 118.2 64.8437C118.159 64.8248 118.107 64.812 118.065 64.7929C118.047 64.789 118.041 64.7785 118.031 64.7849C118.013 64.7805 117.989 64.7653 117.961 64.768L82.0776 56.2227C78.6787 55.4165 75.2688 57.5145 74.4566 60.9116L73.3434 65.6229ZM116.161 66.9154L113.275 79.0326L82.9454 71.81L85.832 59.6928L116.161 66.9154ZM115.919 78.8624L118.44 68.2766L127.772 76.1013L115.919 78.8624ZM81.5032 58.6708L83.3597 59.1037L80.4727 71.2217L78.6097 70.7775C76.5722 70.2914 75.3137 68.2459 75.7982 66.2078L76.9263 61.4724C77.4235 59.4399 79.4674 58.1889 81.5032 58.6708Z" fill="#585858"/>
<path d="M39.6045 105.814L95.0136 94.8408L101.257 126.365L45.8476 137.338L39.6045 105.814Z" fill="#9CC3EF"/>
<path d="M42.4072 143.877L104.947 131.492L106.953 141.622L44.4134 154.008L42.4072 143.877Z" fill="#FF922E"/>
<path d="M93.7671 89.9333L38.7234 100.81C36.1189 101.324 34.4447 103.994 34.9913 106.76L43.7148 150.908C44.2615 153.674 46.825 155.506 49.4296 154.991L69.5901 151.007L69.2882 155.459C69.167 157.246 67.6605 159.034 65.9985 159.362L58.8818 160.769C58.3601 160.872 58.0259 161.404 58.1354 161.959C58.2449 162.513 58.7566 162.878 59.2784 162.775L98.3254 155.06C98.8471 154.957 99.1813 154.424 99.0718 153.87C98.9623 153.315 98.4506 152.95 97.9289 153.053L90.8122 154.459C89.1502 154.788 87.077 153.707 86.285 152.1L84.3128 148.098L104.473 144.115C107.078 143.6 108.752 140.931 108.205 138.164L99.4819 94.0167C98.9353 91.2504 96.3717 89.4186 93.7671 89.9333ZM39.12 102.817L94.1637 91.94C95.7264 91.6312 97.2646 92.7304 97.5925 94.3901L104.532 129.508L43.8199 141.504L36.8807 106.387C36.5527 104.727 37.5572 103.125 39.12 102.817ZM84.5773 153.011C85.0269 153.923 85.7172 154.707 86.5371 155.304L70.2736 158.518C70.8048 157.654 71.1451 156.666 71.2139 155.651L71.555 150.619L82.3477 148.487L84.5773 153.011ZM104.077 142.108L49.0331 152.984C47.4703 153.293 45.9322 152.194 45.6042 150.534L44.2164 143.511L104.928 131.514L106.316 138.538C106.644 140.197 105.64 141.799 104.077 142.108Z" fill="#585858"/>
<path d="M46.2579 138.941L101.302 128.064C101.823 127.961 102.158 127.429 102.048 126.874L95.7036 94.7669C95.5941 94.2126 95.0824 93.8471 94.5607 93.9502L39.517 104.827C38.9952 104.93 38.661 105.463 38.7705 106.017L41.5462 120.064C41.6557 120.618 42.1674 120.984 42.6891 120.88C43.2109 120.777 43.5451 120.245 43.4356 119.69L40.8582 106.647L94.0125 96.1436L99.9604 126.244L46.806 136.748L44.2286 123.704C44.1191 123.15 43.6074 122.784 43.0857 122.887C42.564 122.99 42.2297 123.523 42.3392 124.077L45.1149 138.124C45.2244 138.678 45.7361 139.044 46.2579 138.941Z" fill="#585858"/>
<path d="M74.9698 139.52C73.407 139.829 72.4026 141.431 72.7305 143.09C73.0585 144.75 74.5966 145.849 76.1594 145.54C77.7221 145.232 78.7266 143.63 78.3986 141.97C78.0707 140.311 76.5326 139.212 74.9698 139.52ZM75.7628 143.534C75.2419 143.637 74.7292 143.27 74.6199 142.717C74.5106 142.164 74.8454 141.63 75.3663 141.527C75.8873 141.424 76.3999 141.79 76.5093 142.344C76.6186 142.897 76.2838 143.431 75.7628 143.534Z" fill="#585858"/>
<rect x="150.242" y="56.929" width="16.0819" height="5.89197" transform="rotate(-14.2222 150.242 56.929)" fill="#FF5656"/>
<rect x="153.612" y="63.0103" width="13.1372" height="7.78207" transform="rotate(-12.7962 153.612 63.0103)" fill="#FFA4A4"/>
<path d="M145.618 50.9639L152.624 34.6167H153.558L167.103 45.8262L163.834 52.8322L151.69 55.6345L145.618 50.9639Z" fill="#CED6FF"/>
<path d="M164.097 69.6685C163.69 69.7707 163.276 69.5179 163.172 69.104L162.672 67.1113C162.601 66.8259 162.314 66.651 162.033 66.7214L160.053 67.2178C159.773 67.2883 159.602 67.5778 159.674 67.8632L160.174 69.8559C160.277 70.2698 160.031 70.6881 159.624 70.7902C159.217 70.8923 158.802 70.6396 158.699 70.2257L158.199 68.233C157.92 67.1211 158.584 65.9934 159.678 65.719L161.657 65.2226C162.751 64.9483 163.868 65.6296 164.147 66.7415L164.647 68.7342C164.751 69.1481 164.505 69.5664 164.097 69.6685Z" fill="#585858"/>
<path d="M161.748 39.7467C161.425 39.4832 160.947 39.5307 160.68 39.8524C160.414 40.1743 160.46 40.6488 160.783 40.9123L165.665 44.8935C166.208 45.3363 166.384 46.1641 166.066 46.7782L163.248 52.2236L152.163 55.003L147.109 51.5318C146.539 51.1404 146.303 50.3273 146.573 49.6806L151.39 38.1385L152.779 43.6788C152.035 44.6108 151.767 45.8183 152.06 46.9891C152.574 49.0404 154.674 50.2875 156.741 49.7692C158.808 49.2509 160.072 47.1605 159.557 45.1093C159.277 43.9911 158.514 43.0726 157.48 42.5842L156.104 37.0963L158.262 38.8568C158.585 39.1203 159.063 39.0728 159.33 38.7511C159.596 38.4292 159.55 37.9546 159.227 37.6911L155.01 34.2522C154.346 33.7108 153.51 33.5146 152.716 33.7137C151.921 33.9129 151.276 34.4806 150.947 35.2711L145.173 49.1082C144.631 50.4059 145.091 51.9809 146.243 52.7719L150.459 55.6667C149.734 56.2516 149.371 57.2196 149.611 58.1748L150.484 61.6585C150.751 62.725 151.688 63.4519 152.74 63.5099L154.384 69.215C154.496 69.6061 154.901 69.8347 155.296 69.7357C155.304 69.7335 155.313 69.7313 155.321 69.7288C155.724 69.613 155.957 69.1953 155.842 68.7958L154.243 63.2476L165.402 60.4496L166.61 66.0957C166.697 66.5022 167.1 66.7605 167.509 66.6727C167.518 66.6708 167.527 66.6687 167.535 66.6666C167.93 66.5676 168.179 66.1752 168.094 65.7773L166.844 59.9378C167.685 59.3746 168.127 58.3294 167.868 57.2994L166.995 53.8157C166.755 52.8605 165.979 52.1782 165.064 52.0045L167.415 47.4633C168.057 46.2225 167.72 44.6166 166.63 43.7279L161.748 39.7467ZM153.082 35.1741C153.41 35.0919 153.752 35.1784 154.045 35.4176L154.137 35.4927L156.1 43.3202C156.162 43.5658 156.344 43.7639 156.584 43.847C157.333 44.1059 157.894 44.7157 158.086 45.4781C158.398 46.724 157.631 47.9938 156.375 48.3086C155.12 48.6234 153.844 47.8659 153.532 46.6199C153.331 45.8215 153.562 44.9946 154.148 44.4079C154.335 44.2204 154.411 43.9495 154.347 43.6939L152.368 35.8008C152.516 35.4753 152.768 35.2528 153.082 35.1741ZM166.397 57.6682C166.524 58.1762 166.211 58.6941 165.699 58.8225L153.115 61.9779C152.603 62.1063 152.083 61.7973 151.956 61.2893L151.082 57.8056C150.955 57.2976 151.268 56.7797 151.779 56.6514L164.364 53.4959C164.876 53.3675 165.396 53.6765 165.523 54.1845L166.397 57.6682Z" fill="#585858"/>
<path d="M136.55 49.5434C135.947 46.5679 136.057 43.4825 136.878 40.5701C137.021 40.0612 136.725 39.5323 136.216 39.3889C135.707 39.2453 135.178 39.5416 135.035 40.0506C134.125 43.2781 134.008 46.6981 134.687 49.9923C133.183 50.7951 132.351 52.5444 132.777 54.274C133.28 56.3185 135.353 57.5725 137.397 57.0693C139.442 56.5661 140.696 54.4934 140.193 52.4488C139.77 50.7317 138.24 49.5727 136.55 49.5434ZM136.94 55.21C135.92 55.4608 134.887 54.8356 134.636 53.8164C134.385 52.7971 135.011 51.7637 136.03 51.5128C137.049 51.262 138.082 51.8872 138.333 52.9064C138.584 53.9257 137.959 54.9591 136.94 55.21Z" fill="#585858"/>
<path d="M179.265 15.4844L176.277 16.2197C175.192 16.4868 174.526 17.5872 174.793 18.6726L174.932 19.2367L153.733 24.4541L153.594 23.89C153.327 22.8046 152.227 22.1389 151.141 22.406L148.154 23.1413C147.068 23.4084 146.403 24.5088 146.67 25.5942L146.809 26.1583L125.609 31.3757L125.47 30.8116C125.203 29.7262 124.103 29.0605 123.018 29.3276L120.03 30.0629C118.945 30.33 118.279 31.4304 118.546 32.5158L119.281 35.5034C119.548 36.5887 120.649 37.2545 121.734 36.9873L124.722 36.2521C125.807 35.9849 126.473 34.8845 126.206 33.7992L126.067 33.2351L142.206 29.2631C139.916 31.0839 138.01 33.3794 136.632 36.0237C136.387 36.4926 136.569 37.0708 137.038 37.3152C137.253 37.4272 137.491 37.4498 137.709 37.396C137.967 37.3326 138.198 37.1628 138.33 36.9089C140.31 33.1095 143.487 30.1012 147.346 28.3415L147.405 28.5819C147.672 29.6672 148.773 30.333 149.858 30.0658L152.845 29.3306C153.931 29.0634 154.597 27.963 154.329 26.8777L154.27 26.6372C163.101 26.1503 171.198 31.8765 173.676 40.4077C172.192 41.2179 171.374 42.9549 171.797 44.6724C172.3 46.7169 174.373 47.9709 176.417 47.4677C178.462 46.9646 179.716 44.8918 179.212 42.8473C178.787 41.118 177.238 39.9545 175.534 39.9413C173.312 32.1941 166.882 26.5362 159.252 25.0681L175.39 21.0963L175.529 21.6604C175.796 22.7457 176.896 23.4115 177.982 23.1444L180.969 22.4091C182.055 22.142 182.72 21.0416 182.453 19.9562L181.718 16.9684C181.451 15.883 180.35 15.2173 179.265 15.4844ZM124.346 34.2568C124.361 34.3169 124.324 34.3779 124.264 34.3927L121.277 35.128C121.216 35.1428 121.155 35.1059 121.141 35.0458L120.405 32.0582C120.391 31.9981 120.427 31.937 120.488 31.9222L123.475 31.187C123.535 31.1722 123.596 31.2091 123.611 31.2692L124.346 34.2568ZM177.353 43.3046C177.604 44.3239 176.979 45.3573 175.959 45.6081C174.94 45.859 173.907 45.2338 173.656 44.2145C173.405 43.1953 174.03 42.1619 175.05 41.911C176.069 41.6602 177.102 42.2853 177.353 43.3046ZM152.47 27.3352C152.485 27.3953 152.448 27.4563 152.388 27.4711L149.4 28.2064C149.34 28.2212 149.279 28.1843 149.264 28.1241L148.529 25.1366C148.514 25.0764 148.551 25.0154 148.611 25.0006L151.599 24.2654C151.659 24.2506 151.72 24.2875 151.735 24.3476L152.47 27.3352ZM180.594 20.4136C180.609 20.4737 180.572 20.5347 180.512 20.5495L177.524 21.2848C177.464 21.2996 177.403 21.2627 177.388 21.2025L176.653 18.2149C176.638 18.1548 176.675 18.0938 176.735 18.079L179.723 17.3437C179.783 17.3289 179.844 17.3659 179.859 17.426L180.594 20.4136Z" fill="#585858"/>
<g filter="url(#filter1_i)">
<ellipse cx="153" cy="145.25" rx="145" ry="145.25" fill="#FFDCB1" fill-opacity="0.01"/>
</g>
<g filter="url(#filter2_i)">
<ellipse cx="153" cy="145.25" rx="145" ry="145.25" fill="#FFDCB1" fill-opacity="0.01"/>
</g>
<defs>
<filter id="filter0_d" x="0" y="153.356" width="301.68" height="142.079" filterUnits="userSpaceOnUse" color-interpolation-filters="sRGB">
<feFlood flood-opacity="0" result="BackgroundImageFix"/>
<feColorMatrix in="SourceAlpha" type="matrix" values="0 0 0 0 0 0 0 0 0 0 0 0 0 0 0 0 0 0 127 0"/>
<feOffset dx="-2" dy="-2"/>
<feGaussianBlur stdDeviation="3.5"/>
<feColorMatrix type="matrix" values="0 0 0 0 0 0 0 0 0 0 0 0 0 0 0 0 0 0 0.17 0"/>
<feBlend mode="normal" in2="BackgroundImageFix" result="effect1_dropShadow"/>
<feBlend mode="normal" in="SourceGraphic" in2="effect1_dropShadow" result="shape"/>
</filter>
<filter id="filter1_i" x="8" y="0" width="292" height="292.5" filterUnits="userSpaceOnUse" color-interpolation-filters="sRGB">
<feFlood flood-opacity="0" result="BackgroundImageFix"/>
<feBlend mode="normal" in="SourceGraphic" in2="BackgroundImageFix" result="shape"/>
<feColorMatrix in="SourceAlpha" type="matrix" values="0 0 0 0 0 0 0 0 0 0 0 0 0 0 0 0 0 0 127 0" result="hardAlpha"/>
<feOffset dx="2" dy="2"/>
<feGaussianBlur stdDeviation="2"/>
<feComposite in2="hardAlpha" operator="arithmetic" k2="-1" k3="1"/>
<feColorMatrix type="matrix" values="0 0 0 0 0 0 0 0 0 0 0 0 0 0 0 0 0 0 0.15 0"/>
<feBlend mode="normal" in2="shape" result="effect1_innerShadow"/>
</filter>
<filter id="filter2_i" x="6" y="-2" width="292" height="292.5" filterUnits="userSpaceOnUse" color-interpolation-filters="sRGB">
<feFlood flood-opacity="0" result="BackgroundImageFix"/>
<feBlend mode="normal" in="SourceGraphic" in2="BackgroundImageFix" result="shape"/>
<feColorMatrix in="SourceAlpha" type="matrix" values="0 0 0 0 0 0 0 0 0 0 0 0 0 0 0 0 0 0 127 0" result="hardAlpha"/>
<feOffset dx="-2" dy="-2"/>
<feGaussianBlur stdDeviation="2"/>
<feComposite in2="hardAlpha" operator="arithmetic" k2="-1" k3="1"/>
<feColorMatrix type="matrix" values="0 0 0 0 0 0 0 0 0 0 0 0 0 0 0 0 0 0 0.15 0"/>
<feBlend mode="normal" in2="shape" result="effect1_innerShadow"/>
</filter>
</defs>
</svg>
