<svg width="59" height="59" viewBox="0 0 59 59" fill="none" xmlns="http://www.w3.org/2000/svg">
<g filter="url(#filter0_i)">
<path d="M21.6904 29.2305C21.6904 24.8239 25.2647 21.2007 29.7203 21.2007C34.1269 21.2007 37.7501 24.7749 37.7501 29.2305C37.7501 33.6372 34.1759 37.2604 29.7203 37.2604C25.2647 37.2604 21.6904 33.6861 21.6904 29.2305Z" fill="#FFD1D5"/>
<path d="M30.2586 17.5286H29.4752C28.7897 17.5286 28.2021 16.941 28.2021 16.2556V1.27303C28.2021 0.58755 28.7897 0 29.4752 0H30.2586C30.9441 0 31.5316 0.58755 31.5316 1.27303V16.2066C31.5316 16.941 30.9441 17.5286 30.2586 17.5286Z" fill="#FFD1D5"/>
<path d="M30.2586 59.0001H29.4752C28.7897 59.0001 28.2021 58.4126 28.2021 57.7271V42.7935C28.2021 42.1081 28.7897 41.5205 29.4752 41.5205H30.2586C30.9441 41.5205 31.5316 42.1081 31.5316 42.7935V57.7271C31.5316 58.4126 30.9441 59.0001 30.2586 59.0001Z" fill="#FFD1D5"/>
<path d="M39.3177 36.8689L39.7584 36.2324C40.1991 35.6449 40.9825 35.5469 41.57 35.9386L53.6638 44.7519C54.2513 45.1926 54.3492 45.976 53.9575 46.5635L53.5169 47.2C53.0762 47.7876 52.2928 47.8855 51.7053 47.4938L39.6115 38.6805C39.024 38.2888 38.8771 37.4565 39.3177 36.8689Z" fill="#FFD1D5"/>
<path d="M6.68156 10.6632L7.10247 10.0135C7.52486 9.41266 8.30488 9.29071 8.90419 9.66416L21.2631 18.1016C21.8639 18.524 21.9859 19.304 21.6124 19.9033L21.1915 20.5531C20.7691 21.1539 19.9891 21.2759 19.3898 20.9024L7.03087 12.465C6.43006 12.0426 6.25916 11.264 6.68156 10.6632Z" fill="#FFD1D5"/>
<path d="M20.5161 37.2119L21.0547 37.7994C21.5443 38.338 21.4953 39.1214 20.9567 39.6111L9.79328 49.5994C9.25469 50.0891 8.4713 50.0401 7.98167 49.5015L7.44308 48.9139C6.95345 48.3754 7.00241 47.592 7.54099 47.1023L18.7045 37.114C19.1941 36.6243 20.0264 36.6733 20.5161 37.2119Z" fill="#FFD1D5"/>
<path d="M51.4116 9.54794L51.9502 10.1355C52.4398 10.6741 52.3908 11.4575 51.8522 11.9471L40.6888 21.9355C40.1502 22.4251 39.3668 22.3761 38.8772 21.8375L38.3386 21.25C37.849 20.7114 37.8979 19.928 38.4365 19.4384L49.6 9.45002C50.1386 9.00935 50.9709 9.05831 51.4116 9.54794Z" fill="#FFD1D5"/>
<path d="M17.5286 28.741V29.5244C17.5286 30.2099 16.941 30.7974 16.2066 30.7974L1.27303 30.6016C0.587554 30.6016 0 30.014 0 29.2796V28.4962C0 27.8107 0.587557 27.2231 1.322 27.2231L16.2556 27.37C16.99 27.419 17.5286 28.0065 17.5286 28.741Z" fill="#FFD1D5"/>
<path d="M58.9993 29.1818V29.9652C58.9993 30.6506 58.4118 31.2382 57.6773 31.2382L42.7437 31.0913C42.0583 31.0913 41.4707 30.5038 41.4707 29.7693V28.9859C41.4707 28.3004 42.0583 27.7129 42.7927 27.7129L57.7263 27.8598C58.4607 27.9087 58.9993 28.4963 58.9993 29.1818Z" fill="#FFD1D5"/>
</g>
<defs>
<filter id="filter0_i" x="0" y="0" width="58.9993" height="61.0001" filterUnits="userSpaceOnUse" color-interpolation-filters="sRGB">
<feFlood flood-opacity="0" result="BackgroundImageFix"/>
<feBlend mode="normal" in="SourceGraphic" in2="BackgroundImageFix" result="shape"/>
<feColorMatrix in="SourceAlpha" type="matrix" values="0 0 0 0 0 0 0 0 0 0 0 0 0 0 0 0 0 0 127 0" result="hardAlpha"/>
<feOffset dy="3"/>
<feGaussianBlur stdDeviation="1"/>
<feComposite in2="hardAlpha" operator="arithmetic" k2="-1" k3="1"/>
<feColorMatrix type="matrix" values="0 0 0 0 0 0 0 0 0 0 0 0 0 0 0 0 0 0 0.25 0"/>
<feBlend mode="normal" in2="shape" result="effect1_innerShadow"/>
</filter>
</defs>
</svg>
