<svg width="404" height="407" viewBox="0 0 404 407" fill="none" xmlns="http://www.w3.org/2000/svg">
<circle cx="204" cy="205" r="200" fill="#FFDCB1"/>
<g filter="url(#filter0_d)">
<path fill-rule="evenodd" clip-rule="evenodd" d="M69.273 352.813C62.2875 346.442 55.7554 339.583 49.7305 332.289C51.0501 321.299 53.699 312.188 60.6402 299.898L97.6196 300.835V357.942L69.273 352.813Z" fill="#292929"/>
<path d="M85.6639 183.868C85.6639 183.868 75.5564 180.103 66.3078 187.238C57.0592 194.372 61.8817 212.87 61.8817 212.87C61.8817 212.87 53.2936 215.578 53.7561 224.232C54.2185 232.886 41.0062 228.592 41.2044 239.757C41.4025 250.921 59.6356 252.837 72.6497 252.837C85.6639 252.837 111.626 239.625 107.002 232.556C102.378 225.487 95.375 214.984 96.1017 211.218C96.8944 207.452 98.5459 194.703 98.5459 194.703C98.5459 194.703 96.3659 184.463 85.6639 183.868Z" fill="#233862"/>
<path d="M93.8552 236.586C93.9213 236.586 87.6454 240.484 82.5587 239.691C77.7362 238.898 72.6494 232.953 72.7155 232.953C74.6313 232.358 76.3489 230.244 75.1598 219.08L76.0846 219.146L91.477 220.533C91.477 220.533 91.6091 225.091 92.0715 229.319C92.3358 232.886 92.9304 236.256 93.8552 236.586Z" fill="#FFB27D"/>
<path d="M91.4123 220.533C91.4123 220.533 91.5444 225.091 92.0068 229.319C83.5509 229.914 78.332 222.977 76.0859 219.08L91.4123 220.533Z" fill="#ED975D"/>
<path d="M94.6486 224.298C94.6486 224.298 74.6979 226.544 73.4428 214.653C72.1876 202.828 68.7524 195.165 81.4362 193.249C94.1201 191.333 97.0929 195.628 98.4802 199.459C99.9335 203.291 99.8014 223.373 94.6486 224.298Z" fill="#FFB27D"/>
<path d="M96.1015 193.381C96.1015 193.381 86.4564 206.462 78.3309 209.368C70.1392 212.209 66.3076 210.425 66.3076 210.425C66.3076 210.425 70.2052 205.338 71.4604 198.27C71.8568 196.222 73.3762 194.504 75.4241 193.778C81.3036 191.796 92.6002 188.823 96.1015 193.381Z" fill="#233862"/>
<path d="M88.1748 194.306C88.1748 194.306 93.3276 197.081 95.3755 199.591C97.3574 202.036 99.4713 208.444 99.141 211.218C99.141 211.218 102.378 197.742 97.1592 192.853C91.7421 187.7 88.1748 194.306 88.1748 194.306Z" fill="#233862"/>
<path d="M109.183 267.965C108.588 306.281 110.57 300.666 106.21 304.365C105.153 305.224 100.595 303.308 96.6311 303.572C84.2776 304.365 62.6093 302.383 61.7505 300.269C58.9099 292.738 60.8917 290.426 58.5135 278.931C58.2493 277.676 57.985 276.355 57.5886 274.968C55.6068 267.04 53.691 264.398 60.6935 251.714C67.0355 240.219 73.9719 231.037 74.5665 231.367C91.4122 240.88 92.4692 232.754 92.4692 232.754C92.4692 232.754 109.447 249.27 109.183 267.965Z" fill="#23569E"/>
<path d="M92.4668 232.622C92.4668 232.622 109.775 235.397 111.823 242.531C113.871 249.6 128.735 288.708 128.735 288.708C128.735 288.708 117.042 292.804 112.946 288.973C108.85 285.075 98.8087 253.101 98.8087 253.101L92.4668 232.622Z" fill="#23569E"/>
<path d="M96.6303 303.572C84.2768 304.365 62.6085 302.383 61.7497 300.269C58.9091 292.738 60.8909 290.426 58.5127 278.931L64.3261 266.379C64.3261 266.379 63.5334 280.715 69.0165 285.405C74.4996 290.096 91.5435 294.456 94.2521 298.353C95.5072 300.137 96.3661 302.053 96.6303 303.572Z" fill="#233862"/>
<path d="M97.6182 295.38C97.6182 295.38 101.318 298.419 102.309 298.617C103.366 298.882 103.96 298.617 103.96 298.617L101.252 295.645L97.6182 295.38Z" fill="#FFB27D"/>
<path d="M96.166 291.813L105.481 294.125C105.481 294.125 105.216 294.786 104.159 294.918C103.102 295.05 100.262 294.654 100.262 294.654L96.166 291.813Z" fill="#FFB27D"/>
<path d="M80.3779 296.701C80.3779 296.701 93.6563 291.086 96.1667 291.813C98.677 292.54 105.085 295.777 106.076 297.164C107.067 298.551 100.857 296.966 98.8752 296.9C97.62 296.834 94.7133 298.485 93.1939 299.278C87.0502 302.647 82.8222 302.317 82.8222 302.317L80.3779 296.701Z" fill="#FFB27D"/>
<path d="M74.5656 231.234C74.5656 231.234 55.738 234.604 52.3028 239.558C44.7057 250.392 28.5206 295.182 37.571 301.194C47.7445 307.932 84.0124 302.977 84.0124 302.977C84.0124 302.977 85.2015 297.626 83.55 295.05C81.8984 292.474 54.615 288.246 53.3598 287.057C52.1046 285.867 65.7794 268.559 64.326 265.256C59.6356 254.62 74.5656 231.234 74.5656 231.234Z" fill="#23569E"/>
<path d="M148.884 294.786C148.884 294.786 162.031 298.155 163.418 300.137C164.739 302.053 167.448 307.998 167.316 309.584C167.183 311.103 163.616 306.545 162.295 305.356C161.436 304.563 158.265 304.167 156.746 303.903C152.848 303.308 150.932 301.59 149.479 300.732C148.488 300.137 147.299 300.269 147.299 300.269L148.884 294.786Z" fill="#FFB27D"/>
<path d="M162.293 303.506C162.293 303.506 163.086 307.8 163.68 308.527C164.275 309.32 164.869 309.452 164.869 309.452L164.803 305.752L162.293 303.506Z" fill="#FFB27D"/>
<path d="M163.418 300.137L168.769 307.007C168.769 307.007 168.174 307.337 167.316 306.875C166.457 306.413 164.673 304.497 164.673 304.497L163.418 300.137Z" fill="#FFB27D"/>
<path d="M149.412 300.666C149.412 300.666 150.601 303.506 153.046 304.497C155.49 305.488 157.273 307.007 157.67 306.479C158.066 305.95 155.82 303.044 155.82 303.044L149.412 300.666Z" fill="#FFB27D"/>
<path d="M125.235 279.394L152.915 296.041C152.915 296.041 150.008 299.741 149.017 300.071C143.864 301.855 120.875 300.137 112.947 288.84L125.235 279.394Z" fill="#23569E"/>
</g>
<g filter="url(#filter1_d)">
<path d="M224.663 170.554C224.663 170.554 228.085 160.044 243.057 160.532C243.057 160.532 246.051 154.91 253.262 155.827C260.472 156.805 264.383 182.837 257.6 189.192C250.756 195.547 246.54 195.73 246.54 195.73L224.725 171.532V170.554H224.663Z" fill="#233862"/>
<path d="M231.02 216.445C230.958 216.506 237.68 219.562 242.508 217.912C247.091 216.384 251.124 209.54 251.063 209.54C249.107 209.235 247.091 207.279 246.48 195.73L245.624 195.974L230.836 199.702C230.836 199.702 231.447 204.407 231.692 208.807C231.875 212.473 231.875 216.018 231.02 216.445Z" fill="#FFB27D"/>
<path d="M230.898 199.702C230.898 199.702 230.898 200.68 231.448 205.019C239.82 202.941 243.486 200.13 246.053 196.953L230.898 199.702Z" fill="#ED975D"/>
<path d="M227.72 200.252C227.72 200.252 247.213 203.43 249.046 191.27C250.818 179.109 254.546 171.287 242.202 168.721C229.797 166.154 226.681 170.493 225.092 174.404C223.503 178.315 222.709 199.152 227.72 200.252Z" fill="#FFB27D"/>
<path d="M227.722 168.232C227.722 168.232 236.583 182.226 244.527 185.526C252.471 188.825 256.32 187.176 256.32 187.176C256.32 187.176 252.715 181.737 251.798 174.404C251.493 172.265 250.087 170.371 248.071 169.577C242.388 167.255 231.388 163.71 227.722 168.232Z" fill="#233862"/>
<path d="M235.481 169.576C235.481 169.576 230.287 172.265 228.149 174.709C226.071 177.092 223.688 183.631 223.871 186.564C223.871 186.564 221.305 172.509 226.621 167.682C232.304 162.61 235.481 169.576 235.481 169.576Z" fill="#233862"/>
<path d="M215.437 246.266C216.049 285.925 201.383 274.865 205.721 278.592C206.76 279.509 211.038 286.231 227.17 287.025C239.33 287.636 261.329 281.892 262.124 279.631C264.934 271.87 262.918 269.426 265.301 257.51C265.546 256.227 265.851 254.882 266.218 253.355C268.173 245.166 270.067 242.417 263.162 229.217C256.868 217.301 249.474 207.646 248.924 208.013C232.364 217.851 231.814 209.602 231.814 209.602C231.814 209.602 215.132 226.895 215.437 246.266Z" fill="white"/>
<path d="M231.753 209.663C231.753 209.663 214.765 212.535 212.81 219.868C210.793 227.201 186.558 319.259 186.558 319.259C186.558 319.259 207.457 319.809 211.429 315.837C215.462 311.804 225.642 230.745 225.642 230.745L231.753 209.663Z" fill="#F99746"/>
<path d="M227.17 277.125C227.17 277.125 224.665 280.364 223.809 280.731C223.015 281.097 222.465 281.036 222.465 281.036L224.176 277.981L227.17 277.125Z" fill="#FFB27D"/>
<path d="M227.781 273.764L220.448 277.308C220.448 277.308 220.754 277.797 221.671 277.797C222.587 277.736 224.848 276.942 224.848 276.942L227.781 273.764Z" fill="#FFB27D"/>
<path d="M231.571 207.096L231.693 209.663C229.738 216.262 226.499 236.794 222.466 252.621L219.655 229.95L221.977 228.056L221.122 224.817L228.76 210.274L231.571 207.096Z" fill="#ED7D2B"/>
<path d="M231.755 359.99C257.909 368.729 278.624 359.118 278.624 359.118L274.347 293.563L272.024 279.753L267.014 250.177L258.459 222.006L251.003 217.484L244.465 250.177L231.755 359.99Z" fill="#F99746"/>
<path d="M263.285 253.293C263.713 253.966 263.713 267.409 251.063 270.709C238.414 274.009 269.64 277.186 269.64 277.186C269.64 277.186 279.723 269.487 279.54 267.593C279.417 265.698 263.285 253.293 263.285 253.293Z" fill="#ED7D2B"/>
<path d="M240.186 282.564C240.186 282.564 257.54 292.524 274.345 293.624L272.023 279.814L240.186 282.564Z" fill="#ED7D2B"/>
<path d="M241.712 275.353C241.712 275.353 229.735 272.664 227.779 273.764C225.824 274.803 221.119 278.714 220.508 280.058C219.897 281.403 224.846 279.02 226.435 278.592C227.474 278.286 230.163 279.264 231.507 279.692C237.19 281.586 240.673 280.608 240.673 280.608L241.712 275.353Z" fill="#FFB27D"/>
<path d="M248.863 208.074C248.863 208.074 265.851 209.051 271.412 216.873C279.295 227.811 294.877 274.498 285.894 280.73C275.811 287.758 240.125 282.564 240.125 282.564C240.125 282.564 238.964 277.003 240.614 274.314C242.264 271.625 269.151 267.287 270.373 266.065C271.595 264.843 254.852 241.866 254.852 238.139C254.913 234.411 248.863 208.074 248.863 208.074Z" fill="#F99746"/>
<path d="M247.886 205.874L244.464 250.177L252.347 233.25L251.003 230.256C251.003 230.256 253.875 225.306 253.875 224.695C253.875 224.084 253.081 208.563 253.081 208.563L247.886 205.874Z" fill="#ED7D2B"/>
</g>
<g filter="url(#filter2_d)">
<path fill-rule="evenodd" clip-rule="evenodd" d="M367.38 320.385C349.734 345.325 326.521 366.047 299.551 380.742V310.535L367.424 310.535C367.424 314.071 367.408 317.338 367.38 320.385Z" fill="#343434"/>
<path d="M326.756 216.558C326.756 216.558 305.561 216.374 300.477 223.541C295.393 230.708 288.594 276.037 290.064 281.918C293.372 295.578 306.786 276.65 312.851 268.809C318.915 260.968 326.756 216.558 326.756 216.558Z" fill="#2A4E96"/>
<path d="M290.553 269.483L284.856 315.18H301.15L305.622 279.529L290.553 269.483Z" fill="#2A4E96"/>
<path d="M295.272 315.18C295.272 315.18 304.092 268.87 303.541 253.985C303.541 253.985 315.67 296.681 313.709 305.256C311.688 313.832 297.66 321.489 295.272 315.18Z" fill="#1E3D70"/>
<path d="M366.204 279.407L368.176 319.091C367.24 320.496 367.24 320.496 365.835 322.368C362.589 323.287 359.772 324.92 352.544 326.451C345.744 327.86 336.617 329.085 325.408 329.207C307.582 329.33 300.783 323.143 300.783 323.143C299.986 323.143 301.212 319.406 302.253 301.642C302.62 295.639 302.988 287.982 303.233 278.365C303.478 269.667 303.601 259.376 303.601 247.125C303.601 232.423 326.388 216.619 326.816 216.619C326.816 218.763 330.186 222.623 335.27 222.99C341.395 223.419 348.991 219.008 348.991 215.456C348.991 215.456 350.032 216.497 350.461 217.171C352.85 221.214 360.446 237.201 363.815 253.312C364.305 255.701 364.672 258.212 364.979 260.846C364.979 260.907 364.979 260.907 364.979 260.969C365.04 261.459 365.101 261.949 365.163 262.439C365.163 262.5 365.163 262.622 365.163 262.684C365.224 263.113 365.224 263.603 365.285 264.031C365.285 264.154 365.163 264.399 365.346 264.399C366.571 264.705 369.94 275.915 366.02 275.792C364.856 275.792 366.143 278.181 366.204 279.407C366.204 279.407 366.204 279.468 366.204 279.529V279.407Z" fill="#2A4E96"/>
<path d="M326.574 213.312V215.517C326.574 215.517 325.961 222.377 334.414 223.357C342.868 224.338 349.238 220.662 348.993 215.394C348.258 211.29 347.401 208.472 347.339 205.103C347.339 203.817 347.401 202.531 347.646 200.999L331.29 200.693L326.451 201.489L326.574 213.312Z" fill="#FFB27D"/>
<path d="M326.511 201.489L326.572 209.942C328.287 210.739 331.472 210.8 333.984 210.371C341.396 209.024 344.887 206.512 347.46 202.531C347.46 201.244 347.46 202.531 347.705 200.999L331.35 200.693L326.511 201.489Z" fill="#E2915A"/>
<path d="M348.871 198.426C346.972 208.595 333.802 208.288 328.105 207.676C326.512 207.492 325.471 207.308 325.471 207.308C323.695 206.818 322.653 204 322.163 200.264C321.244 192.913 322.408 182.071 323.633 179.314C325.532 175.149 329.024 170.677 342.316 173.924C355.67 177.048 351.321 185.317 348.871 198.426Z" fill="#FFB27D"/>
<path d="M319.651 169.514C319.651 169.514 325.47 169.085 332.392 166.083C337.966 163.633 345.011 166.328 347.277 167.553C347.216 167.186 347.094 166.696 346.726 166.206C346.726 166.206 347.767 166.941 347.89 167.982C348.012 168.044 348.074 168.105 348.012 168.105C348.012 168.105 349.176 167.921 349.911 168.227C349.911 168.227 349.36 168.166 349.176 168.472C349.176 168.534 349.115 168.534 349.115 168.595C357.813 172.821 358.61 186.543 355.853 189.728C352.484 193.587 348.012 201.367 348.012 201.367C348.012 201.367 346.971 200.141 347.584 196.772C348.196 193.403 345.256 193.403 341.581 191.872C337.905 190.341 340.968 186.053 337.721 183.419C334.475 180.785 322.714 182.316 322.836 180.356C318.548 178.763 319.651 170.004 319.651 169.514Z" fill="#233862"/>
<path d="M359.344 246.145C359.344 246.145 369.758 282.408 336.925 286.88C336.925 286.88 376.68 283.939 376.68 283.388C376.68 282.959 359.344 246.145 359.344 246.145Z" fill="#1E3D70"/>
<path d="M348.992 215.394C348.992 215.394 371.105 217.17 375.087 221.887C379.068 226.604 390.768 279.039 387.154 289.207C384.949 295.455 356.649 290.861 341.641 291.29L339.252 287.063C339.252 287.063 367.491 275.608 367.491 273.648C367.491 268.809 348.992 215.394 348.992 215.394Z" fill="#2A4E96"/>
<path d="M339.191 287.125C339.191 287.125 331.963 286.267 330.125 287.125C328.288 287.982 323.938 290.616 323.938 291.351C323.938 292.087 341.58 291.351 341.58 291.351L339.191 287.125Z" fill="#FFB27D"/>
</g>
<g filter="url(#filter3_d)">
<path d="M296.971 349.793C296.971 349.793 298.475 349.664 300.709 349.106H300.752C305.866 347.859 314.589 344.293 316.867 334.495C320.132 320.444 305.178 293.758 305.178 293.758L296.971 349.793Z" fill="#599DAD"/>
<path d="M251.078 336.214C251.078 336.214 236.854 357.786 233.374 357.957C229.807 358.129 227.486 357.313 224.607 359.161C222.545 360.493 216.357 367.067 218.162 366.423C219.966 365.778 223.318 364.876 224.178 364.704C225.381 364.403 227.357 364.102 228.69 363.716C229.506 363.458 232.557 362.942 233.588 362.77C238.014 361.997 257.309 346.871 257.309 346.871L251.078 336.214Z" fill="#F8B282"/>
<path fill-rule="evenodd" clip-rule="evenodd" d="M261.529 396.603C261.423 396.61 261.316 396.617 261.21 396.624L261.09 396.632C260.574 396.675 260.059 396.718 259.586 396.761C259.387 396.761 259.188 396.772 258.995 396.783C258.813 396.794 258.636 396.804 258.469 396.804L254.515 396.933C252.066 397.019 249.66 397.019 247.296 396.933C246.095 396.933 244.894 396.893 243.719 396.854C243.172 396.835 242.63 396.817 242.097 396.804C241.479 396.782 240.873 396.748 240.272 396.715C239.702 396.684 239.138 396.653 238.573 396.632C237.861 396.593 237.16 396.557 236.473 396.521C234.089 396.398 231.87 396.283 229.936 396.116C229.38 396.08 228.846 396.046 228.336 396.014C226.401 395.891 224.8 395.789 223.576 395.687C222.459 395.601 221.685 395.558 221.299 395.601C220.482 395.644 219.837 395.987 219.322 396.632C219.279 396.675 219.236 396.718 219.193 396.804H193.109C197.578 383.053 202.219 371.923 206.13 369.474C208.536 367.97 213.048 366.552 218.591 365.263C223.533 364.102 229.334 363.071 235.307 362.169H235.35C240.636 361.309 246.093 360.579 251.207 359.934C255.289 359.419 259.156 358.946 262.594 358.602C264.012 358.473 265.301 358.344 266.504 358.172C272.22 357.614 275.872 357.313 275.872 357.313L287.689 359.977C287.689 359.977 287.947 360.493 288.248 361.352C289.193 363.888 290.869 369.775 290.053 376.736C289.676 380 288.648 383.549 286.809 387.105C278.66 390.817 270.219 393.997 261.529 396.603Z" fill="#163560"/>
<path fill-rule="evenodd" clip-rule="evenodd" d="M242.422 401.313C241.224 400.392 240.119 399.62 239.45 399.603L208.088 402.411C211.783 389.649 219.15 373.857 222.76 371.407C228.303 367.54 244.632 365.005 259.5 363.372C259.93 363.329 260.37 363.275 260.811 363.221C261.251 363.168 261.692 363.114 262.121 363.071C263.324 362.985 264.569 362.856 265.815 362.727L265.817 362.727C278.021 361.61 287.861 361.137 287.861 361.137C287.861 361.137 287.947 361.223 288.205 361.309C290.397 362.469 302.042 368.872 304.534 377.638V377.934C285.588 388.972 264.664 396.985 242.422 401.313Z" fill="#163560"/>
<path d="M304.017 292.211C304.017 292.168 303.974 292.168 303.931 292.125C303.502 291.652 302.986 291.18 302.427 290.793C298.001 287.699 290.138 287.054 290.138 287.054C290.138 287.054 289.278 286.969 287.903 286.926C286.872 284.261 285.712 280.265 285.325 274.507L284.551 274.722L271.402 278.245C271.402 278.245 272.004 282.414 272.261 286.367C272.304 287.226 272.347 288.086 272.39 288.902C272.004 289.031 271.66 289.16 271.359 289.289C271.359 289.289 263.839 290.191 262.077 292.082C260.315 294.016 256.749 306.735 255.846 308.97L306.424 309.786C306.381 309.743 307.67 296.551 304.017 292.211Z" fill="#FFB27D"/>
<path fill-rule="evenodd" clip-rule="evenodd" d="M299.007 381.037C290.962 377.817 279.375 370.94 273.887 367.683C273.568 367.494 273.269 367.317 272.994 367.153C272.945 367.129 272.897 367.091 272.841 367.048C272.798 367.014 272.749 366.976 272.693 366.938C269.9 365.263 265.946 364.532 262.208 363.887C261.784 363.819 261.363 363.753 260.947 363.687C256.638 363.007 252.844 362.408 251.551 360.879C250.074 359.144 253.545 357.219 257.114 355.239C257.699 354.915 258.287 354.589 258.856 354.262C260.876 353.059 262.637 351.855 263.196 350.652C263.626 349.707 263.583 347.601 263.325 344.98C263.289 344.581 263.222 344.151 263.15 343.691C263.137 343.606 263.123 343.52 263.11 343.433C262.766 344.121 262.38 344.808 261.907 345.496C260.704 347.3 259.157 349.062 257.653 350.523C255.719 352.328 253.828 353.66 252.668 353.961C251.852 354.133 251.078 354.047 250.262 353.746C248.113 352.93 246.136 350.609 244.503 348.418C244.31 348.103 244.103 347.803 243.905 347.515C243.752 347.292 243.604 347.077 243.472 346.871C242.914 346.033 242.43 345.259 242.054 344.658C241.678 344.056 241.41 343.626 241.281 343.476C240.665 342.773 242.548 341.65 244.38 340.557C245.234 340.047 246.078 339.544 246.652 339.093C248.5 337.589 255.762 308.97 255.762 308.97C255.996 308.392 256.232 307.134 256.53 305.548C257.384 301.005 258.744 293.77 261.993 292.082C261.993 292.082 265.388 293.328 269.9 294.574C274.927 295.993 281.459 297.454 286.186 297.196C294.602 296.71 301.304 291.615 302.273 290.878C302.333 290.832 302.371 290.803 302.386 290.793C302.386 290.793 303.159 291.223 303.374 291.395C303.589 291.566 304.191 292.168 304.191 292.168C307.843 296.465 306.382 309.829 306.382 309.829C306.382 309.829 299.421 340.683 299.421 343.777C299.421 347.464 301.388 354.227 303.385 361.09C304.483 364.865 305.589 368.67 306.382 372.009C306.759 373.56 307.067 375.008 307.276 376.307C304.562 377.947 301.805 379.525 299.007 381.037Z" fill="#599DAD"/>
<path d="M271.403 278.202C271.403 278.202 272.004 282.371 272.262 286.324C279.696 285.636 283.177 278.546 284.552 274.679L271.403 278.202Z" fill="#F4A269"/>
<path d="M265.773 280.566C265.773 280.566 283.134 283.789 284.982 272.96C286.829 262.131 290.31 255.213 279.309 252.678C268.309 250.142 265.43 253.924 263.926 257.404C262.464 260.885 261.304 279.449 265.773 280.566Z" fill="#FFB27D"/>
<path d="M265.988 248.681C265.988 248.681 266.718 239.571 279.825 241.935C283.305 242.579 285.669 236.391 291.341 238.583C303.545 243.31 304.275 237.079 307.799 245.845C309.26 249.541 318.671 253.795 315.792 260.154C312.913 266.514 317.725 270.768 314.331 275.753C312.569 278.331 313.299 282.929 305.049 283.101C300.967 283.187 294.564 290.793 289.966 292.168C285.368 293.543 271.531 291.567 272.09 285.25C272.476 280.308 276.645 276.054 273.121 270.382C270.027 265.44 263.409 265.139 260.444 257.146C258.296 251.259 266.16 253.58 265.988 248.681Z" fill="#B5453C"/>
</g>
<g filter="url(#filter4_d)">
<path d="M95.6585 280.712C95.6585 280.712 97.231 291.082 93.9586 296.479H114.825C114.825 296.479 113.168 287.554 113.975 281.902C114.825 276.25 95.6585 280.712 95.6585 280.712Z" fill="#FFB27D"/>
<path fill-rule="evenodd" clip-rule="evenodd" d="M57.9017 341.588C58.7978 336.548 59.8046 331.453 60.9367 326.568L61.0217 326.143C61.1425 325.587 61.2771 325.031 61.4099 324.483C61.5105 324.067 61.61 323.656 61.7017 323.253C62.4241 320.32 63.1891 317.473 64.0391 314.838C66.5889 306.509 69.6063 299.964 73.0486 297.329C73.0911 297.287 73.1336 297.255 73.1761 297.223C73.2186 297.191 73.2611 297.159 73.3036 297.117C77.4259 294.227 85.798 292.569 95.1051 291.974C100.8 291.634 106.835 291.634 112.487 292.059C120.009 292.612 126.809 293.802 131.143 295.544C131.993 295.884 132.886 296.479 133.736 297.329C146.24 309.484 159.313 386.668 159.303 399.987C119.756 390.96 84.6723 370.21 57.9017 341.588Z" fill="#FFA561"/>
<path d="M114.016 281.902C114.016 281.902 120.391 284.579 121.836 265.753C122.983 250.921 121.581 248.286 106.239 247.861C91.7048 247.436 86.5271 253.753 86.5271 258.895C86.5271 290.072 108.237 280.585 114.016 281.902Z" fill="#FFB27D"/>
<path d="M94.873 238.878C89.0933 240.493 84.4241 245.916 84.4241 253.566C84.4241 260.705 85.1041 267.675 86.974 269.46C88.8014 271.245 88.2914 279.319 96.536 279.319C104.186 279.319 111.963 274.517 113.153 270.055C114.343 265.593 123.172 261.083 123.862 253.566C127.001 253.566 128.642 250.144 128.642 247.956C125.907 245.221 121.531 244.127 116.752 242.16C110.047 238.622 101.418 237.051 94.873 238.878Z" fill="black"/>
</g>
<g filter="url(#filter5_d)">
<path d="M189.812 320.946C189.812 320.946 191.127 330.03 188.385 334.749H205.851C205.851 334.749 204.461 326.923 205.137 321.968C205.851 317.053 189.812 320.946 189.812 320.946Z" fill="#FFB27D"/>
<path d="M197.473 325.233C197.473 325.233 210.469 324.328 211.671 307.851C212.61 294.834 211.446 292.553 198.6 292.16C186.43 291.806 184.063 295.502 184.063 300.025C184.063 323.817 192.665 324.053 197.473 325.233Z" fill="#FFB27D"/>
<path d="M184.102 308.676C184.102 308.676 182.6 307.379 182.074 308.991C181.548 310.603 185.041 315.952 186.356 314.182C187.671 312.373 184.102 308.676 184.102 308.676Z" fill="#FFB27D"/>
<path fill-rule="evenodd" clip-rule="evenodd" d="M159.436 400.017C156.354 394.801 154.961 388.428 156.006 381.783C157.02 375.255 158.222 368.412 159.649 361.963L159.724 361.569C159.831 361.055 159.95 360.54 160.067 360.033C160.156 359.649 160.244 359.268 160.325 358.895C160.964 356.182 161.64 353.547 162.391 351.109C164.645 343.401 167.312 337.345 170.354 334.907C170.392 334.867 170.429 334.838 170.467 334.808C170.505 334.779 170.542 334.749 170.58 334.71C174.223 332.036 181.623 330.502 189.849 329.952C194.882 329.637 200.216 329.637 205.212 330.03C211.86 330.541 217.87 331.643 221.701 333.255C222.453 333.57 223.241 334.12 223.993 334.907C232.94 343.984 240.539 381.894 242.903 401.219C230.319 403.7 217.311 405.001 204 405.001C188.682 405.001 173.766 403.278 159.436 400.017Z" fill="#8C9DF4"/>
<path d="M197.098 281.778C197.098 281.778 187.745 279.969 181.961 284.373C176.214 288.817 175.237 295.62 173.284 301.165C171.331 306.71 164.532 308.047 167.312 315.165C174.298 332.862 201.568 328.025 213.062 324.013C215.278 323.227 213.137 319.491 209.982 318.154C206.263 316.62 208.104 309.581 211.635 307.811C216.743 305.255 217.006 300.772 216.217 296.485C214.865 288.974 208.179 278.553 197.098 281.778Z" fill="#163560"/>
<path d="M208.255 308.322C208.255 308.322 209.043 306.317 210.32 307.575C211.56 308.794 210.809 315.597 208.743 314.614C206.639 313.631 208.255 308.322 208.255 308.322Z" fill="#FFB27D"/>
</g>
<g filter="url(#filter6_d)">
<path fill-rule="evenodd" clip-rule="evenodd" d="M211.545 5.1329C208.766 19.6288 200.609 35.4356 183.483 51.5447C179.705 55.1083 177.247 58.258 175.734 61.1288C172.068 68.108 174.034 73.4036 176.066 78.8784C178.669 85.8884 181.38 93.192 172.517 104.699C160.282 120.587 144.157 121.076 127.586 121.579C115.179 121.955 102.521 122.339 91.0585 129.201C86.3275 132.031 81.8037 135.968 77.5764 141.458C62.8276 160.639 35.0248 169.744 7.18652 170.955C23.2921 76.7231 105.364 5 204.188 5C206.651 5 209.104 5.04455 211.545 5.1329Z" fill="#FFE3C1"/>
</g>
<g filter="url(#filter7_d)">
<path fill-rule="evenodd" clip-rule="evenodd" d="M380.989 111.566C375.907 111.395 370.751 110.718 365.551 110.036C353.243 108.422 340.687 106.775 328.274 111.714C323.151 113.75 318.056 116.912 313.004 121.654C280.178 152.515 208.267 141.646 177.981 116.399C165.15 105.688 160.061 88.9636 168.13 72.0569C168.221 71.8667 168.319 71.6682 168.422 71.4609C170.054 68.1746 172.793 62.6603 161.104 52.461C157.261 49.1022 152.535 45.7467 147.693 42.3097C146.623 41.5499 145.547 40.7861 144.474 40.0174C144.444 39.9892 144.399 39.9616 144.369 39.9481C136.867 34.5702 129.917 28.6227 124.255 21.6256C148.734 10.9321 175.769 5 204.19 5C280.875 5 347.473 48.187 380.989 111.566Z" fill="#FFEAD1"/>
</g>
<g filter="url(#filter8_d)">
<path d="M153.161 121.087C154.204 121.087 155.247 121.087 156.216 121.162C158.004 121.162 160.016 122.727 160.761 124.664C161.655 127.346 162.549 129.954 163.443 132.636C157.483 132.562 151.597 132.487 145.636 132.413C146.604 129.805 147.573 127.123 148.542 124.515C149.361 122.578 151.447 121.087 153.161 121.087Z" fill="#BCBCBC"/>
<path d="M142.06 146.644C136.769 150.369 133.268 156.479 133.193 163.483C133.044 175.031 142.283 184.568 153.906 184.717C165.455 184.866 174.992 175.627 175.141 164.004C175.216 157.075 171.937 150.816 166.722 146.942L166.796 139.789C166.796 137.107 165.977 134.648 164.561 132.562L144.518 132.263C143.028 134.275 142.134 136.734 142.134 139.416L142.06 146.644Z" fill="#F7C900"/>
<path d="M156.292 121.162C155.249 121.162 154.206 121.162 153.237 121.087C151.523 121.087 149.437 122.503 148.692 124.366L160.837 124.515C160.017 122.652 158.006 121.162 156.292 121.162Z" fill="#424242"/>
<path d="M153.755 184.643L154.426 132.413L144.591 132.264C143.101 134.275 142.206 136.734 142.206 139.416L142.132 146.569C136.842 150.295 133.34 156.404 133.265 163.408C133.042 174.957 142.206 184.42 153.755 184.643Z" fill="#FFD939"/>
<path fill-rule="evenodd" clip-rule="evenodd" d="M154.226 11.2426C154.559 11.1573 154.892 11.0729 155.226 10.9893V121.086H154.226V11.2426Z" fill="#424242"/>
</g>
<g filter="url(#filter9_i)">
<circle cx="204" cy="205" r="200" fill="#FFDCB1" fill-opacity="0.01"/>
</g>
<g filter="url(#filter10_i)">
<circle cx="204" cy="205" r="200" fill="#FFDCB1" fill-opacity="0.01"/>
</g>
<defs>
<filter id="filter0_d" x="32.8945" y="174.875" width="143.874" height="185.067" filterUnits="userSpaceOnUse" color-interpolation-filters="sRGB">
<feFlood flood-opacity="0" result="BackgroundImageFix"/>
<feColorMatrix in="SourceAlpha" type="matrix" values="0 0 0 0 0 0 0 0 0 0 0 0 0 0 0 0 0 0 127 0"/>
<feOffset dx="3" dy="-3"/>
<feGaussianBlur stdDeviation="2.5"/>
<feColorMatrix type="matrix" values="0 0 0 0 0 0 0 0 0 0 0 0 0 0 0 0 0 0 0.25 0"/>
<feBlend mode="normal" in2="BackgroundImageFix" result="effect1_dropShadow"/>
<feBlend mode="normal" in="SourceGraphic" in2="effect1_dropShadow" result="shape"/>
</filter>
<filter id="filter1_d" x="184.558" y="147.726" width="112.045" height="217.934" filterUnits="userSpaceOnUse" color-interpolation-filters="sRGB">
<feFlood flood-opacity="0" result="BackgroundImageFix"/>
<feColorMatrix in="SourceAlpha" type="matrix" values="0 0 0 0 0 0 0 0 0 0 0 0 0 0 0 0 0 0 127 0"/>
<feOffset dx="3" dy="-3"/>
<feGaussianBlur stdDeviation="2.5"/>
<feColorMatrix type="matrix" values="0 0 0 0 0 0 0 0 0 0 0 0 0 0 0 0 0 0 0.25 0"/>
<feBlend mode="normal" in2="BackgroundImageFix" result="effect1_dropShadow"/>
<feBlend mode="normal" in="SourceGraphic" in2="effect1_dropShadow" result="shape"/>
</filter>
<filter id="filter2_d" x="280.856" y="159.088" width="112.981" height="225.654" filterUnits="userSpaceOnUse" color-interpolation-filters="sRGB">
<feFlood flood-opacity="0" result="BackgroundImageFix"/>
<feColorMatrix in="SourceAlpha" type="matrix" values="0 0 0 0 0 0 0 0 0 0 0 0 0 0 0 0 0 0 127 0"/>
<feOffset dx="1" dy="-1"/>
<feGaussianBlur stdDeviation="2.5"/>
<feColorMatrix type="matrix" values="0 0 0 0 0 0 0 0 0 0 0 0 0 0 0 0 0 0 0.17 0"/>
<feBlend mode="normal" in2="BackgroundImageFix" result="effect1_dropShadow"/>
<feBlend mode="normal" in="SourceGraphic" in2="effect1_dropShadow" result="shape"/>
</filter>
<filter id="filter3_d" x="191.109" y="230.111" width="134.224" height="174.301" filterUnits="userSpaceOnUse" color-interpolation-filters="sRGB">
<feFlood flood-opacity="0" result="BackgroundImageFix"/>
<feColorMatrix in="SourceAlpha" type="matrix" values="0 0 0 0 0 0 0 0 0 0 0 0 0 0 0 0 0 0 127 0"/>
<feOffset dx="3" dy="-3"/>
<feGaussianBlur stdDeviation="2.5"/>
<feColorMatrix type="matrix" values="0 0 0 0 0 0 0 0 0 0 0 0 0 0 0 0 0 0 0.25 0"/>
<feBlend mode="normal" in2="BackgroundImageFix" result="effect1_dropShadow"/>
<feBlend mode="normal" in="SourceGraphic" in2="effect1_dropShadow" result="shape"/>
</filter>
<filter id="filter4_d" x="55.9014" y="230.111" width="111.401" height="171.877" filterUnits="userSpaceOnUse" color-interpolation-filters="sRGB">
<feFlood flood-opacity="0" result="BackgroundImageFix"/>
<feColorMatrix in="SourceAlpha" type="matrix" values="0 0 0 0 0 0 0 0 0 0 0 0 0 0 0 0 0 0 127 0"/>
<feOffset dx="3" dy="-3"/>
<feGaussianBlur stdDeviation="2.5"/>
<feColorMatrix type="matrix" values="0 0 0 0 0 0 0 0 0 0 0 0 0 0 0 0 0 0 0.25 0"/>
<feBlend mode="normal" in2="BackgroundImageFix" result="effect1_dropShadow"/>
<feBlend mode="normal" in="SourceGraphic" in2="effect1_dropShadow" result="shape"/>
</filter>
<filter id="filter5_d" x="153.662" y="273.175" width="97.241" height="133.825" filterUnits="userSpaceOnUse" color-interpolation-filters="sRGB">
<feFlood flood-opacity="0" result="BackgroundImageFix"/>
<feColorMatrix in="SourceAlpha" type="matrix" values="0 0 0 0 0 0 0 0 0 0 0 0 0 0 0 0 0 0 127 0"/>
<feOffset dx="3" dy="-3"/>
<feGaussianBlur stdDeviation="2.5"/>
<feColorMatrix type="matrix" values="0 0 0 0 0 0 0 0 0 0 0 0 0 0 0 0 0 0 0.25 0"/>
<feBlend mode="normal" in2="BackgroundImageFix" result="effect1_dropShadow"/>
<feBlend mode="normal" in="SourceGraphic" in2="effect1_dropShadow" result="shape"/>
</filter>
<filter id="filter6_d" x="0.186523" y="0" width="218.359" height="179.955" filterUnits="userSpaceOnUse" color-interpolation-filters="sRGB">
<feFlood flood-opacity="0" result="BackgroundImageFix"/>
<feColorMatrix in="SourceAlpha" type="matrix" values="0 0 0 0 0 0 0 0 0 0 0 0 0 0 0 0 0 0 127 0"/>
<feOffset dy="2"/>
<feGaussianBlur stdDeviation="3.5"/>
<feColorMatrix type="matrix" values="0 0 0 0 0 0 0 0 0 0 0 0 0 0 0 0 0 0 0.17 0"/>
<feBlend mode="normal" in2="BackgroundImageFix" result="effect1_dropShadow"/>
<feBlend mode="normal" in="SourceGraphic" in2="effect1_dropShadow" result="shape"/>
</filter>
<filter id="filter7_d" x="117.255" y="0" width="270.734" height="149.492" filterUnits="userSpaceOnUse" color-interpolation-filters="sRGB">
<feFlood flood-opacity="0" result="BackgroundImageFix"/>
<feColorMatrix in="SourceAlpha" type="matrix" values="0 0 0 0 0 0 0 0 0 0 0 0 0 0 0 0 0 0 127 0"/>
<feOffset dy="2"/>
<feGaussianBlur stdDeviation="3.5"/>
<feColorMatrix type="matrix" values="0 0 0 0 0 0 0 0 0 0 0 0 0 0 0 0 0 0 0.17 0"/>
<feBlend mode="normal" in2="BackgroundImageFix" result="effect1_dropShadow"/>
<feBlend mode="normal" in="SourceGraphic" in2="effect1_dropShadow" result="shape"/>
</filter>
<filter id="filter8_d" x="129.191" y="10.9893" width="49.9513" height="181.73" filterUnits="userSpaceOnUse" color-interpolation-filters="sRGB">
<feFlood flood-opacity="0" result="BackgroundImageFix"/>
<feColorMatrix in="SourceAlpha" type="matrix" values="0 0 0 0 0 0 0 0 0 0 0 0 0 0 0 0 0 0 127 0"/>
<feOffset dy="4"/>
<feGaussianBlur stdDeviation="2"/>
<feColorMatrix type="matrix" values="0 0 0 0 0 0 0 0 0 0 0 0 0 0 0 0 0 0 0.25 0"/>
<feBlend mode="normal" in2="BackgroundImageFix" result="effect1_dropShadow"/>
<feBlend mode="normal" in="SourceGraphic" in2="effect1_dropShadow" result="shape"/>
</filter>
<filter id="filter9_i" x="4" y="5.00049" width="402" height="402" filterUnits="userSpaceOnUse" color-interpolation-filters="sRGB">
<feFlood flood-opacity="0" result="BackgroundImageFix"/>
<feBlend mode="normal" in="SourceGraphic" in2="BackgroundImageFix" result="shape"/>
<feColorMatrix in="SourceAlpha" type="matrix" values="0 0 0 0 0 0 0 0 0 0 0 0 0 0 0 0 0 0 127 0" result="hardAlpha"/>
<feOffset dx="2" dy="2"/>
<feGaussianBlur stdDeviation="2"/>
<feComposite in2="hardAlpha" operator="arithmetic" k2="-1" k3="1"/>
<feColorMatrix type="matrix" values="0 0 0 0 0 0 0 0 0 0 0 0 0 0 0 0 0 0 0.15 0"/>
<feBlend mode="normal" in2="shape" result="effect1_innerShadow"/>
</filter>
<filter id="filter10_i" x="2" y="3.00049" width="402" height="402" filterUnits="userSpaceOnUse" color-interpolation-filters="sRGB">
<feFlood flood-opacity="0" result="BackgroundImageFix"/>
<feBlend mode="normal" in="SourceGraphic" in2="BackgroundImageFix" result="shape"/>
<feColorMatrix in="SourceAlpha" type="matrix" values="0 0 0 0 0 0 0 0 0 0 0 0 0 0 0 0 0 0 127 0" result="hardAlpha"/>
<feOffset dx="-2" dy="-2"/>
<feGaussianBlur stdDeviation="2"/>
<feComposite in2="hardAlpha" operator="arithmetic" k2="-1" k3="1"/>
<feColorMatrix type="matrix" values="0 0 0 0 0 0 0 0 0 0 0 0 0 0 0 0 0 0 0.15 0"/>
<feBlend mode="normal" in2="shape" result="effect1_innerShadow"/>
</filter>
</defs>
</svg>
